<svg version="1.1" id="Layer_1" xmlns="http://www.w3.org/2000/svg" xmlns:xlink="http://www.w3.org/1999/xlink" x="0px" y="0px"
	 width="100%" viewBox="0 0 998 1318" enable-background="new 0 0 998 1318" xml:space="preserve">

<path fill="#FFFFFF" opacity="1.000000" stroke="none" 
	d="
M62.776722,235.220230 
	C66.986870,214.387451 78.626526,199.935913 99.280701,193.738007 
	C104.291046,192.234528 109.773643,191.766144 115.042381,191.747421 
	C158.366455,191.593597 201.691299,191.658340 245.015915,191.656815 
	C246.838913,191.656754 248.661896,191.656815 250.678345,191.656815 
	C254.186081,179.631668 259.906982,169.069138 268.829987,160.382782 
	C281.980865,147.580734 297.708374,140.993713 316.063354,140.955734 
	C348.390045,140.888855 380.716980,140.936996 413.043793,140.936981 
	C414.860779,140.936981 416.677765,140.936996 418.942444,140.936996 
	C414.071075,110.545593 421.715240,84.230591 443.801788,62.880127 
	C460.376465,46.857868 480.586090,39.191696 503.610992,39.542088 
	C553.813293,40.306065 595.146484,86.227997 585.205566,140.929398 
	C586.916443,140.929398 588.559082,140.929291 590.201721,140.929413 
	C621.695374,140.931778 653.189026,140.930283 684.682678,140.937592 
	C717.952759,140.945328 741.790161,157.948563 752.826111,190.033783 
	C753.363098,190.861923 753.703613,191.048782 754.044128,191.235626 
	C756.183838,191.377029 758.323486,191.640732 760.463257,191.641815 
	C803.235657,191.663361 846.008057,191.643707 888.780457,191.655945 
	C916.283569,191.663803 936.276367,208.443756 941.126099,236.072403 
	C941.190613,236.657745 941.395264,237.099533 941.395264,237.099533 
	C941.435059,559.327332 941.486389,881.555176 941.494141,1203.782959 
	C941.494812,1231.369995 924.247375,1251.700317 896.932373,1256.133789 
	C896.350037,1256.211914 895.900513,1256.407471 895.900513,1256.407471 
	C666.936829,1256.464722 437.973145,1256.522705 209.009460,1256.578003 
	C177.846817,1256.585449 146.683914,1256.657715 115.521614,1256.555786 
	C88.782959,1256.468506 68.289017,1240.197510 63.470139,1215.274780 
	C62.717129,1211.380249 62.524876,1207.325317 62.524433,1203.344604 
	C62.489014,883.719238 62.497807,564.093872 62.517796,244.468521 
	C62.517952,241.973175 62.715843,239.477814 62.848003,236.318298 
	C62.874596,235.654129 62.776722,235.220230 62.776722,235.220230 
M872.760986,1154.953247 
	C873.049072,1151.577759 873.337097,1148.202393 873.830322,1143.944336 
	C873.839355,852.398438 873.848694,560.852539 873.847900,269.306641 
	C873.847900,268.149689 873.701965,266.992737 873.804749,265.106232 
	C873.732239,264.114136 873.659729,263.122040 873.815857,261.445496 
	C872.160217,260.738464 870.506653,259.419769 868.848694,259.414368 
	C832.517212,259.296356 796.185303,259.322266 759.853455,259.331696 
	C758.571533,259.332031 757.289673,259.445404 755.619324,259.524506 
	C755.619324,276.415222 755.619324,293.012848 755.619324,309.704651 
	C586.346741,309.704651 417.481506,309.704651 248.191681,309.704651 
	C248.191681,292.741211 248.191681,276.136505 248.191681,259.617889 
	C208.668915,259.617889 169.571854,259.617889 130.407806,259.617889 
	C130.407806,558.167236 130.407806,856.401184 130.407806,1155.040405 
	C132.300369,1155.040405 133.928955,1155.040283 135.557526,1155.040283 
	C379.380981,1155.039429 623.204407,1155.039062 867.027893,1155.029053 
	C868.687988,1155.029053 870.348022,1154.898438 872.760986,1154.953247 
M451.246216,123.568115 
	C453.239410,156.233673 478.079559,177.994370 508.980865,174.145386 
	C536.695007,170.693359 556.734497,143.128159 551.907166,115.098534 
	C547.101196,87.192970 518.727722,68.338837 491.277100,74.505569 
	C471.150055,79.027077 452.435730,96.601562 451.246216,123.568115 
z"/>
<path fill="#FEFEFE" opacity="1.000000" stroke="none" 
	d="
M753.935913,190.984680 
	C753.703613,191.048782 753.363098,190.861923 753.029785,190.340576 
	C753.300537,190.248627 753.564087,190.491165 753.935913,190.984680 
z"/>
<path fill="#FEFEFE" opacity="1.000000" stroke="none" 
	d="
M896.529236,190.540970 
	C896.475830,190.570938 896.582642,190.511002 896.529236,190.540970 
z"/>
<path fill="#FFFFFF" opacity="1.000000" stroke="none" 
	d="
M62.519424,235.232178 
	C62.776722,235.220230 62.874596,235.654129 62.784004,235.857208 
	C62.549652,235.788254 62.405891,235.516190 62.519424,235.232178 
z"/>
<path fill="#FEFEFE" opacity="1.000000" stroke="none" 
	d="
M941.626831,237.007401 
	C941.395264,237.099533 941.190613,236.657745 941.246460,236.420807 
	C941.487671,236.427658 941.673035,236.671463 941.626831,237.007401 
z"/>
<path fill="#FEFEFE" opacity="1.000000" stroke="none" 
	d="
M895.993042,1256.636841 
	C895.900513,1256.407471 896.350037,1256.211914 896.588806,1256.267456 
	C896.580261,1256.504028 896.332886,1256.685181 895.993042,1256.636841 
z"/>

<path fill="#F0F2F1" opacity="1.000000" stroke="none" 
	d="
M451.274231,123.133560 
	C452.435730,96.601562 471.150055,79.027077 491.277100,74.505569 
	C518.727722,68.338837 547.101196,87.192970 551.907166,115.098534 
	C556.734497,143.128159 536.695007,170.693359 508.980865,174.145386 
	C478.079559,177.994370 453.239410,156.233673 451.274231,123.133560 
z"/>
<path fill="#F2F4F3" opacity="1.000000" stroke="none" 
	d="
M871.995117,264.000000 
	C868.998230,262.658142 866.026367,259.845612 863.143799,264.423859 
	C862.700073,265.128540 860.667725,264.977539 859.369873,264.978668 
	C828.037354,265.005829 796.704895,265.007294 765.372375,264.980530 
	C763.565491,264.978973 761.758850,264.699219 759.483215,264.509918 
	C759.325745,265.693146 759.025818,266.914856 759.021851,268.137543 
	C758.985352,279.303802 758.844238,290.474030 759.117126,301.633728 
	C759.180054,304.204315 760.713745,306.738922 761.570618,309.290100 
	C762.172485,309.626770 762.774353,309.963440 763.376221,310.300140 
	C761.467224,311.180084 759.572754,312.762451 757.646362,312.802307 
	C752.757751,312.903503 747.854919,312.040985 742.957642,312.039551 
	C580.128662,311.991852 417.299591,312.021698 254.470688,311.896667 
	C249.542694,311.892883 244.347137,316.163513 239.497665,310.832397 
	C245.590332,311.680450 245.014603,307.483795 245.008316,303.616089 
	C244.986664,290.325378 245.000000,277.034637 245.000000,263.479675 
	C241.748810,263.947723 238.095947,264.915314 234.439148,264.930359 
	C204.440460,265.053833 174.440964,265.026489 144.442001,264.941010 
	C142.418121,264.935272 140.181030,264.485352 138.421692,263.538544 
	C135.349457,261.885254 132.459442,262.893585 132.044250,266.297272 
	C131.883911,267.611725 132.001358,268.960693 132.001358,270.293945 
	C132.000580,561.452881 132.000137,852.611816 132.011261,1143.770752 
	C132.011337,1145.594849 131.757324,1147.586914 132.403198,1149.184692 
	C132.840134,1150.265625 134.606750,1151.354980 135.853500,1151.449097 
	C138.464691,1151.646240 141.125320,1151.023682 143.765686,1151.023315 
	C370.592987,1150.997925 597.420288,1150.980347 824.247559,1151.042969 
	C839.870361,1151.047363 855.492981,1151.666626 871.557861,1152.353638 
	C872.002747,1153.414551 872.005432,1154.121704 872.008118,1154.828857 
	C870.348022,1154.898438 868.687988,1155.029053 867.027893,1155.029053 
	C623.204407,1155.039062 379.380981,1155.039429 135.557526,1155.040283 
	C133.928955,1155.040283 132.300369,1155.040405 130.407806,1155.040405 
	C130.407806,856.401184 130.407806,558.167236 130.407806,259.617889 
	C169.571854,259.617889 208.668915,259.617889 248.191681,259.617889 
	C248.191681,276.136505 248.191681,292.741211 248.191681,309.704651 
	C417.481506,309.704651 586.346741,309.704651 755.619324,309.704651 
	C755.619324,293.012848 755.619324,276.415222 755.619324,259.524506 
	C757.289673,259.445404 758.571533,259.332031 759.853455,259.331696 
	C796.185303,259.322266 832.517212,259.296356 868.848694,259.414368 
	C870.506653,259.419769 872.160217,260.738464 873.371582,261.872711 
	C872.616577,262.866638 872.305847,263.433319 871.995117,264.000000 
z"/>
<path fill="#FCFEFD" opacity="1.000000" stroke="none" 
	d="
M872.384521,1154.891113 
	C872.005432,1154.121704 872.002747,1153.414551 871.997559,1152.353638 
	C872.287231,1149.748901 872.579285,1147.497681 873.248291,1145.036743 
	C873.337097,1148.202393 873.049072,1151.577759 872.384521,1154.891113 
z"/>
<path fill="#FCFEFD" opacity="1.000000" stroke="none" 
	d="
M872.052734,264.339478 
	C872.305847,263.433319 872.616577,262.866638 873.257324,262.214935 
	C873.659729,263.122040 873.732239,264.114136 873.714478,265.471008 
	C873.119507,265.450165 872.614929,265.064545 872.052734,264.339478 
z"/>
</svg>