<svg version="1.1" id="Layer_1" xmlns="http://www.w3.org/2000/svg" xmlns:xlink="http://www.w3.org/1999/xlink" x="0px" y="0px"
	 width="100%" viewBox="0 0 1200 1326" enable-background="new 0 0 1200 1326" xml:space="preserve">
<path fill="#659AD2" opacity="1.000000" stroke="none" 
	d="
M582.000000,0.999993 
	C593.688660,1.000000 605.377380,1.000000 617.160034,1.277579 
	C621.427063,3.180991 625.760864,4.488297 629.740967,6.496659 
	C639.006775,11.172288 648.138733,16.118479 657.257935,21.078165 
	C670.095337,28.060074 682.915405,35.076069 695.665100,42.216518 
	C717.077820,54.208725 738.405640,66.352425 759.814148,78.352173 
	C775.423645,87.101494 791.119202,95.697075 806.751465,104.405815 
	C826.214050,115.248413 845.639221,126.158134 865.103333,136.998001 
	C877.323242,143.803452 889.610168,150.488907 901.821960,157.308792 
	C918.284729,166.502747 934.688660,175.801865 951.147217,185.003372 
	C963.359070,191.830658 975.647034,198.522141 987.848572,205.367706 
	C1006.556824,215.863861 1025.184326,226.504303 1043.914551,236.960709 
	C1056.697876,244.097153 1069.648071,250.934387 1082.434082,258.065948 
	C1101.604614,268.758392 1120.743286,279.509918 1139.803955,290.396423 
	C1150.965332,296.771240 1162.225342,303.045105 1172.886353,310.191681 
	C1177.596802,313.349304 1180.930786,318.560089 1184.555664,322.939148 
	C1123.920776,357.457153 1063.629395,391.891510 1003.306396,426.270508 
	C996.105530,430.374359 988.732727,434.176514 981.154114,437.889465 
	C956.724548,397.944458 927.611877,362.339905 892.471558,331.850769 
	C811.284607,261.410034 716.808167,225.028809 609.427185,222.135696 
	C600.990540,221.908401 592.504211,222.398804 584.080322,223.057907 
	C565.882812,224.481750 547.527222,225.106400 529.559143,228.037354 
	C435.729706,243.342773 354.951691,284.880493 287.983490,352.187408 
	C208.974152,431.596436 166.889191,528.171997 159.270996,639.600769 
	C157.314804,668.213318 158.760117,697.009155 163.038834,725.564941 
	C168.664291,763.108765 178.194977,799.543884 193.132004,834.448730 
	C199.277542,848.809753 206.448593,862.731812 212.857666,877.053589 
	C145.331131,915.624268 78.100128,953.994873 11.008698,992.285767 
	C9.055264,990.060669 7.652541,988.462830 6.236905,986.875244 
	C6.223992,986.885498 6.194084,986.880554 6.247840,986.565552 
	C5.910495,985.796448 5.519393,985.342407 5.099500,984.938477 
	C5.070708,984.988525 5.163513,984.919739 5.224194,984.581116 
	C4.868253,983.478271 4.451632,982.714050 4.022516,981.977173 
	C4.010023,982.004517 4.067918,981.988342 4.107436,981.654541 
	C3.822707,980.506104 3.498460,979.691467 2.980856,978.531128 
	C2.191667,978.123596 1.595834,978.061829 1.000000,978.000000 
	C1.000000,768.311340 1.000000,558.622620 1.312799,348.788086 
	C2.081750,347.822479 2.743719,347.054016 2.962907,346.175140 
	C5.838961,334.643066 11.729609,324.608124 20.237593,316.670715 
	C26.206305,311.102264 33.591518,306.904572 40.735710,302.771576 
	C61.431885,290.798462 82.305061,279.130249 103.147995,267.412140 
	C122.720009,256.408569 142.333206,245.478073 161.944992,234.545456 
	C176.855209,226.233765 191.821045,218.021530 206.708954,209.670212 
	C225.276886,199.254593 243.759262,188.686340 262.335480,178.285599 
	C282.326965,167.092407 302.390106,156.027176 322.410767,144.886032 
	C333.763458,138.568451 345.108093,132.236115 356.430817,125.865005 
	C375.262177,115.268883 394.052582,104.599747 412.899170,94.030746 
	C427.493317,85.846489 442.173859,77.816223 456.767242,69.630630 
	C474.894196,59.463055 492.980408,49.222702 511.066132,38.981880 
	C523.789368,31.777506 536.289185,24.148638 549.250122,17.403790 
	C559.573486,12.031517 570.450989,7.726079 581.046204,2.867942 
	C581.544800,2.639333 581.690125,1.640247 582.000000,0.999993 
z"/>
<path fill="#00599C" opacity="1.000000" stroke="none" 
	d="
M981.439575,438.118530 
	C988.732727,434.176514 996.105530,430.374359 1003.306396,426.270508 
	C1063.629395,391.891510 1123.920776,357.457153 1184.866455,323.105438 
	C1192.925537,329.711365 1196.442383,338.379059 1198.987793,347.616211 
	C1199.238647,348.526550 1200.309692,349.210815 1201.000000,350.000000 
	C1201.000000,559.020874 1201.000000,768.041809 1200.617065,977.404663 
	C1198.096436,982.841675 1195.958618,987.936707 1193.662354,993.177734 
	C1193.294556,993.529907 1193.144775,993.772705 1192.936523,994.262817 
	C1192.616455,994.740234 1192.354736,994.920044 1191.657227,994.990845 
	C1189.879028,994.487061 1188.376587,994.190857 1187.090820,993.494507 
	C1176.279785,987.639648 1165.496216,981.734070 1154.727783,975.801086 
	C1125.918091,959.928040 1097.118164,944.037170 1068.317993,928.146790 
	C1049.700073,917.874451 1031.122070,907.528931 1012.459717,897.338196 
	C1003.432983,892.409119 994.252869,887.760864 984.994995,882.669189 
	C983.709717,881.663757 982.595215,880.932007 981.430481,880.291382 
	C921.255798,847.195496 861.080200,814.101074 800.888672,781.035889 
	C797.708069,779.288696 794.386963,777.797424 790.900818,775.919128 
	C775.687012,767.368835 760.705139,759.083740 745.720032,750.804626 
	C717.491089,735.208313 689.276733,719.585510 661.024841,704.030945 
	C639.615356,692.243591 618.132141,680.589905 596.750793,668.752014 
	C593.955872,667.204590 591.572510,664.913879 589.214294,662.707520 
	C634.635315,636.625610 679.825562,610.777344 725.052307,584.993042 
	C746.433167,572.803528 767.883728,560.736267 789.621094,548.559326 
	C790.552856,548.250122 791.202271,548.058228 791.774536,547.731262 
	C853.988098,512.186584 916.198853,476.636932 978.382080,441.039215 
	C979.569458,440.359497 980.427734,439.104889 981.439575,438.118530 
z"/>
<path fill="#004482" opacity="1.000000" stroke="none" 
	d="
M985.142212,882.985474 
	C994.252869,887.760864 1003.432983,892.409119 1012.459717,897.338196 
	C1031.122070,907.528931 1049.700073,917.874451 1068.317993,928.146790 
	C1097.118164,944.037170 1125.918091,959.928040 1154.727783,975.801086 
	C1165.496216,981.734070 1176.279785,987.639648 1187.090820,993.494507 
	C1188.376587,994.190857 1189.879028,994.487061 1191.620605,995.348145 
	C1187.124756,1004.967529 1180.144409,1012.410828 1171.346680,1017.722534 
	C1158.221802,1025.646606 1144.657593,1032.841431 1131.299927,1040.381470 
	C1116.233887,1048.886108 1101.214233,1057.473022 1086.128418,1065.942139 
	C1073.908081,1072.802490 1061.580933,1079.472778 1049.370850,1086.350952 
	C1032.301392,1095.966675 1015.336304,1105.767944 998.252808,1115.358398 
	C982.720093,1124.078125 967.045166,1132.544556 951.511963,1141.263550 
	C931.262634,1152.629639 911.123352,1164.191772 890.876892,1175.563110 
	C873.204529,1185.488281 855.426331,1195.225220 837.736755,1205.119995 
	C819.343201,1215.408569 801.010437,1225.805786 782.630310,1236.118408 
	C770.551941,1242.895264 758.415283,1249.568359 746.342651,1256.355225 
	C728.253540,1266.524780 710.209595,1276.774658 692.123474,1286.949341 
	C680.479492,1293.500000 668.847351,1300.074951 657.112854,1306.460571 
	C644.714722,1313.207275 633.268311,1321.906860 619.151245,1325.207520 
	C618.654968,1325.323608 618.378784,1326.381226 618.000000,1327.000000 
	C606.979126,1327.000000 595.958191,1327.000000 584.513916,1326.616943 
	C571.578308,1320.109619 558.815674,1314.442871 546.607300,1307.762939 
	C523.183044,1294.946167 500.104767,1281.498535 476.820160,1268.424316 
	C464.450348,1261.478760 451.888794,1254.874634 439.520386,1247.926758 
	C418.546539,1236.145020 397.684143,1224.165161 376.721649,1212.363159 
	C364.936676,1205.728149 352.993835,1199.373413 341.212769,1192.731567 
	C320.828766,1181.239746 300.553741,1169.554443 280.160248,1158.079590 
	C262.627930,1148.214722 244.947372,1138.613403 227.416870,1128.745239 
	C204.722733,1115.970581 182.164856,1102.953491 159.449646,1090.216797 
	C141.188797,1079.977539 122.723862,1070.102417 104.453812,1059.879272 
	C83.600510,1048.210571 62.851688,1036.354614 42.079838,1024.540894 
	C32.212029,1018.928711 22.011770,1013.577759 15.493078,1003.829163 
	C11.928218,998.497925 9.300273,992.540222 6.249803,986.865051 
	C7.652541,988.462830 9.055264,990.060669 11.008698,992.285767 
	C78.100128,953.994873 145.331131,915.624268 213.140808,877.245728 
	C222.549240,891.299866 230.886292,905.702087 240.312500,919.352173 
	C259.288757,946.831665 281.519684,971.626099 306.491852,993.726746 
	C342.662964,1025.738525 382.866241,1051.641479 427.439240,1070.594360 
	C448.431885,1079.520630 469.879242,1087.187500 491.951996,1092.783203 
	C506.311920,1096.423462 521.032532,1098.802490 535.701965,1101.014404 
	C549.950317,1103.162476 564.320923,1105.497925 578.671326,1105.736206 
	C600.025146,1106.090820 621.447083,1105.249390 642.765808,1103.813843 
	C657.639709,1102.812378 672.643188,1101.055542 687.134338,1097.682983 
	C708.451782,1092.721680 729.696167,1086.982178 750.377441,1079.850708 
	C789.615662,1066.320557 825.742554,1046.651855 859.476562,1022.316101 
	C891.684937,999.081055 920.586182,972.417358 944.921997,941.177185 
	C959.388916,922.605835 971.804443,902.436462 985.142212,882.985474 
z"/>
<path fill="#FFFFFF" opacity="1.000000" stroke="none" 
	d="
M984.994995,882.669189 
	C971.804443,902.436462 959.388916,922.605835 944.921997,941.177185 
	C920.586182,972.417358 891.684937,999.081055 859.476562,1022.316101 
	C825.742554,1046.651855 789.615662,1066.320557 750.377441,1079.850708 
	C729.696167,1086.982178 708.451782,1092.721680 687.134338,1097.682983 
	C672.643188,1101.055542 657.639709,1102.812378 642.765808,1103.813843 
	C621.447083,1105.249390 600.025146,1106.090820 578.671326,1105.736206 
	C564.320923,1105.497925 549.950317,1103.162476 535.701965,1101.014404 
	C521.032532,1098.802490 506.311920,1096.423462 491.951996,1092.783203 
	C469.879242,1087.187500 448.431885,1079.520630 427.439240,1070.594360 
	C382.866241,1051.641479 342.662964,1025.738525 306.491852,993.726746 
	C281.519684,971.626099 259.288757,946.831665 240.312500,919.352173 
	C230.886292,905.702087 222.549240,891.299866 213.436325,877.045715 
	C206.448593,862.731812 199.277542,848.809753 193.132004,834.448730 
	C178.194977,799.543884 168.664291,763.108765 163.038834,725.564941 
	C158.760117,697.009155 157.314804,668.213318 159.270996,639.600769 
	C166.889191,528.171997 208.974152,431.596436 287.983490,352.187408 
	C354.951691,284.880493 435.729706,243.342773 529.559143,228.037354 
	C547.527222,225.106400 565.882812,224.481750 584.080322,223.057907 
	C592.504211,222.398804 600.990540,221.908401 609.427185,222.135696 
	C716.808167,225.028809 811.284607,261.410034 892.471558,331.850769 
	C927.611877,362.339905 956.724548,397.944458 981.154053,437.889465 
	C980.427734,439.104889 979.569458,440.359497 978.382080,441.039215 
	C916.198853,476.636932 853.988098,512.186584 791.774536,547.731262 
	C791.202271,548.058228 790.552856,548.250122 789.522278,548.236633 
	C788.381226,546.850891 787.673340,545.722839 786.931213,544.617798 
	C744.422546,481.317474 685.008240,447.312531 608.965271,443.420288 
	C592.895020,442.597717 576.333252,444.098236 560.501953,447.146301 
	C491.192169,460.490845 439.403687,498.788361 405.827362,560.693848 
	C380.897034,606.658508 374.246033,655.939270 384.242096,707.260620 
	C388.327515,728.235962 395.080292,748.395569 405.899902,767.385498 
	C419.045380,792.692261 436.482849,814.173767 457.959808,832.350342 
	C494.533051,863.303345 536.920288,880.683167 584.494202,884.809937 
	C602.749756,886.393433 621.158752,885.106445 639.278015,881.764038 
	C660.078186,877.927124 680.058533,871.512573 699.017395,862.058044 
	C720.256165,851.466675 739.408264,837.911499 756.239746,821.182068 
	C769.799133,807.704834 781.759216,792.936401 791.131287,776.187012 
	C794.386963,777.797424 797.708069,779.288696 800.888672,781.035889 
	C861.080200,814.101074 921.255798,847.195496 981.430481,880.291382 
	C982.595215,880.932007 983.709717,881.663757 984.994995,882.669189 
z"/>
<path fill="#004482" opacity="1.000000" stroke="none" 
	d="
M4.107438,981.654541 
	C3.714534,981.186157 3.361146,980.383911 3.090985,979.229248 
	C3.498460,979.691467 3.822707,980.506104 4.107438,981.654541 
z"/>
<path fill="#004482" opacity="1.000000" stroke="none" 
	d="
M5.224199,984.581116 
	C4.776549,984.165649 4.389573,983.411560 4.018804,982.303650 
	C4.451632,982.714050 4.868253,983.478271 5.224199,984.581116 
z"/>
<path fill="#004482" opacity="1.000000" stroke="none" 
	d="
M6.247821,986.565552 
	C5.825756,986.433167 5.457466,985.985718 5.108734,985.213318 
	C5.519393,985.342407 5.910495,985.796448 6.247821,986.565552 
z"/>
<path fill="#659AD2" opacity="1.000000" stroke="none" 
	d="
M405.856842,767.024414 
	C395.080292,748.395569 388.327515,728.235962 384.242096,707.260620 
	C374.246033,655.939270 380.897034,606.658508 405.827362,560.693848 
	C439.403687,498.788361 491.192169,460.490845 560.501953,447.146301 
	C576.333252,444.098236 592.895020,442.597717 608.965271,443.420288 
	C685.008240,447.312531 744.422546,481.317474 786.931213,544.617798 
	C787.673340,545.722839 788.381226,546.850891 789.203857,548.290894 
	C767.883728,560.736267 746.433167,572.803528 725.052307,584.993042 
	C679.825562,610.777344 634.635315,636.625610 588.877136,662.803101 
	C583.107483,666.090637 577.875732,668.996399 572.676270,671.958740 
	C517.066895,703.642151 461.462555,735.334534 405.856842,767.024414 
z"/>
<path fill="#004482" opacity="1.000000" stroke="none" 
	d="
M405.899902,767.385498 
	C461.462555,735.334534 517.066895,703.642151 572.676270,671.958740 
	C577.875732,668.996399 583.107483,666.090637 588.661316,663.062988 
	C591.572510,664.913879 593.955872,667.204590 596.750793,668.752014 
	C618.132141,680.589905 639.615356,692.243591 661.024841,704.030945 
	C689.276733,719.585510 717.491089,735.208313 745.720032,750.804626 
	C760.705139,759.083740 775.687012,767.368835 790.900818,775.919128 
	C781.759216,792.936401 769.799133,807.704834 756.239746,821.182068 
	C739.408264,837.911499 720.256165,851.466675 699.017395,862.058044 
	C680.058533,871.512573 660.078186,877.927124 639.278015,881.764038 
	C621.158752,885.106445 602.749756,886.393433 584.494202,884.809937 
	C536.920288,880.683167 494.533051,863.303345 457.959808,832.350342 
	C436.482849,814.173767 419.045380,792.692261 405.899902,767.385498 
z"/>
<path fill="#004482" opacity="1.000000" stroke="none" 
	d="
M1193.662354,993.177734 
	C1193.942993,993.397400 1193.842407,993.685425 1193.286865,993.973877 
	C1193.144775,993.772705 1193.294556,993.529907 1193.662354,993.177734 
z"/>
</svg>