<svg version="1.1" id="Layer_1" xmlns="http://www.w3.org/2000/svg" xmlns:xlink="http://www.w3.org/1999/xlink" x="0px" y="0px"
	 width="100%" viewBox="0 0 918 1032" enable-background="new 0 0 918 1032" xml:space="preserve">
<path fill="#649AD2" opacity="1.000000" stroke="none" 
	d="
M440.000000,1.000002 
	C453.020905,1.000000 466.041779,1.000000 479.203735,1.313729 
	C483.581024,3.089188 488.118530,3.996737 492.002014,6.107529 
	C509.854645,15.811012 527.583252,25.747581 545.242981,35.799606 
	C561.505859,45.056480 577.601624,54.606312 593.812744,63.954784 
	C609.880310,73.220474 626.020508,82.360260 642.091064,91.620804 
	C658.442810,101.043373 674.732849,110.573112 691.079224,120.005043 
	C705.456238,128.300644 719.893433,136.492065 734.268311,144.791321 
	C750.474548,154.147873 766.627502,163.596863 782.828857,172.961929 
	C796.632385,180.940979 810.486511,188.832489 824.291443,196.809189 
	C840.494019,206.171326 856.490906,215.906876 872.905823,224.878937 
	C887.845398,233.044647 899.745728,243.984222 907.517456,259.083557 
	C848.483459,293.012329 789.781067,326.853699 731.051758,360.648254 
	C729.242432,361.689362 727.153442,362.244537 724.855835,362.921143 
	C723.700439,361.561829 722.847656,360.329712 722.072754,359.050415 
	C655.759460,249.571014 527.951599,192.745865 402.159271,216.819016 
	C263.759430,243.304886 160.564209,362.178436 154.256958,502.819336 
	C151.675217,560.387756 164.404465,614.547424 192.283051,665.072205 
	C193.065094,666.489502 193.533218,668.080017 193.997894,669.924561 
	C192.454956,671.160828 191.098709,672.126038 189.663376,672.954285 
	C145.104767,698.665283 100.551697,724.385986 55.965828,750.049744 
	C41.405590,758.430725 26.756872,766.657959 11.985558,774.632690 
	C9.091492,767.946472 6.414957,761.558533 3.582182,755.240662 
	C3.034812,754.019958 1.876490,753.073181 1.000001,752.000000 
	C1.000000,595.645752 1.000000,439.291534 1.295798,282.800293 
	C2.376137,281.100281 3.422487,279.613617 3.903854,277.962250 
	C7.797746,264.603973 14.729321,253.062149 23.817202,242.558273 
	C33.314816,231.580811 46.143314,225.563263 58.210636,218.448059 
	C76.559006,207.629395 95.211037,197.327148 113.669357,186.693192 
	C136.779083,173.379547 159.811035,159.930969 182.900314,146.581711 
	C196.980515,138.441101 211.115967,130.396103 225.207504,122.274986 
	C241.548904,112.857262 257.870392,103.404900 274.198669,93.964439 
	C288.701813,85.579231 303.197479,77.181168 317.705505,68.804405 
	C333.762207,59.533428 349.827026,50.276489 365.892303,41.020367 
	C379.700378,33.064781 393.494385,25.084499 407.331848,17.180367 
	C417.308929,11.481347 426.860382,4.832186 438.582733,2.901083 
	C439.144318,2.808572 439.531586,1.657903 440.000000,1.000002 
z"/>
<path fill="#004482" opacity="1.000000" stroke="none" 
	d="
M12.148607,774.955444 
	C26.756872,766.657959 41.405590,758.430725 55.965828,750.049744 
	C100.551697,724.385986 145.104767,698.665283 189.663376,672.954285 
	C191.098709,672.126038 192.454956,671.160828 194.303772,670.091431 
	C195.432632,670.867371 196.170959,671.772034 196.769653,672.761108 
	C268.210938,790.789978 402.440277,846.867920 536.120605,812.746643 
	C618.519958,791.714600 681.394897,743.270996 725.257385,670.073730 
	C729.666626,672.401367 733.754822,674.614075 737.780151,676.935974 
	C787.436340,705.578857 837.101562,734.206116 886.711731,762.928467 
	C893.710388,766.980347 900.428406,771.516968 907.179077,776.129883 
	C901.382874,786.740540 893.904114,795.741211 884.110168,802.089722 
	C871.372620,810.346252 857.903564,817.473511 844.756958,825.099976 
	C813.746643,843.089172 782.776062,861.147034 751.723267,879.062378 
	C722.096436,896.155090 692.356812,913.052185 662.720398,930.128357 
	C633.231018,947.119690 603.806641,964.223877 574.357178,981.284302 
	C557.343140,991.140747 540.497620,1001.302734 523.274414,1010.778564 
	C509.610992,1018.295898 497.034821,1028.188110 481.155426,1031.210083 
	C480.674164,1031.301636 480.380920,1032.381104 480.000000,1033.000000 
	C466.979095,1033.000000 453.958221,1033.000000 440.509094,1032.612427 
	C439.251129,1031.806641 438.447754,1031.321655 437.587341,1030.980835 
	C431.946442,1028.747437 426.011902,1027.070557 420.701019,1024.226440 
	C408.762299,1017.832642 397.119476,1010.884827 385.377136,1004.126099 
	C366.624451,993.332397 347.892700,982.502319 329.144836,971.700195 
	C310.822388,961.143250 292.493408,950.597595 274.162506,940.055298 
	C255.689987,929.431458 237.197311,918.842590 218.739700,908.192932 
	C200.281830,897.543152 181.876526,886.802368 163.411362,876.165283 
	C144.946289,865.528320 126.413750,855.008362 107.950691,844.367920 
	C87.343292,832.491577 66.882950,820.356079 46.163956,808.678772 
	C31.664022,800.506592 20.019039,789.695740 12.148607,774.955444 
z"/>
<path fill="#00589C" opacity="1.000000" stroke="none" 
	d="
M907.276306,775.829224 
	C900.428406,771.516968 893.710388,766.980347 886.711731,762.928467 
	C837.101562,734.206116 787.436340,705.578857 737.780151,676.935974 
	C733.754822,674.614075 729.666626,672.401367 724.984863,669.876343 
	C681.469421,644.784973 638.579651,619.950195 595.667603,595.153931 
	C594.570984,594.520203 593.229553,594.309998 591.815186,593.625732 
	C584.391541,588.993835 577.214050,584.536743 569.907715,580.301697 
	C544.745789,565.716492 519.515930,551.248352 494.359497,536.653564 
	C483.159424,530.155762 472.072876,523.462158 461.158417,516.606934 
	C489.295563,500.216003 517.226990,484.106415 545.115601,467.923096 
	C560.770325,458.838898 576.354248,449.632812 592.344971,440.425964 
	C593.188721,440.196930 593.694519,440.087555 594.121216,439.841125 
	C636.901123,415.135620 679.678467,390.425629 722.429443,365.670135 
	C723.501892,365.049103 724.279663,363.918976 725.194885,363.026276 
	C727.153442,362.244537 729.242432,361.689362 731.051758,360.648254 
	C789.781067,326.853699 848.483459,293.012329 907.680420,259.401062 
	C910.834778,265.847748 913.436462,272.099182 916.210022,278.273407 
	C916.830505,279.654633 918.054077,280.764954 919.000000,282.000000 
	C919.000000,438.354218 919.000000,594.708435 918.622009,751.420898 
	C917.578918,753.024109 916.835999,754.234253 916.261780,755.519775 
	C913.243103,762.279175 910.267090,769.057495 907.276306,775.829224 
M825.476196,477.534210 
	C825.476196,484.931824 825.476196,492.329407 825.476196,500.078156 
	C813.802551,500.078156 802.875183,500.078156 791.754883,500.078156 
	C791.754883,511.526245 791.754883,522.603760 791.754883,534.170654 
	C803.100342,534.170654 814.176147,534.170654 825.763367,534.170654 
	C825.763367,545.708679 825.763367,556.761841 825.763367,567.757935 
	C837.220886,567.757935 848.146973,567.757935 859.608276,567.757935 
	C859.608276,556.464294 859.608276,545.409790 859.608276,533.846863 
	C871.189392,533.846863 882.242126,533.846863 893.234192,533.846863 
	C893.234192,522.281860 893.234192,511.245026 893.234192,499.881226 
	C881.895935,499.881226 870.948914,499.881226 859.498169,499.881226 
	C859.498169,488.483948 859.498169,477.412323 859.498169,466.312744 
	C847.936157,466.312744 836.889099,466.312744 825.476257,466.312744 
	C825.476257,469.935577 825.476257,473.242035 825.476196,477.534210 
M698.000122,537.675415 
	C698.000122,547.753906 698.000122,557.832397 698.000122,567.758545 
	C709.717834,567.758545 720.662537,567.758545 732.074097,567.758545 
	C732.074097,556.458069 732.074097,545.388916 732.074097,533.870789 
	C743.610901,533.870789 754.684082,533.870789 765.700256,533.870789 
	C765.700256,522.344360 765.700256,511.283722 765.700256,499.764587 
	C754.302551,499.764587 743.231323,499.764587 731.706421,499.764587 
	C731.706421,488.233734 731.706421,477.164490 731.706421,466.238342 
	C720.288574,466.238342 709.344116,466.238342 697.932129,466.238342 
	C697.932129,477.535400 697.932129,488.604675 697.932129,500.132202 
	C686.399353,500.132202 675.329773,500.132202 664.334412,500.132202 
	C664.334412,511.670135 664.334412,522.732910 664.334412,533.999878 
	C674.483704,533.999878 684.300110,533.988586 694.116516,534.009827 
	C695.989929,534.013916 698.442627,533.316162 698.000122,537.675415 
z"/>
<path fill="#FFFFFF" opacity="1.000000" stroke="none" 
	d="
M724.855835,362.921143 
	C724.279663,363.918976 723.501892,365.049103 722.429443,365.670135 
	C679.678467,390.425629 636.901123,415.135620 594.121216,439.841125 
	C593.694519,440.087555 593.188721,440.196930 592.299927,440.055511 
	C560.341614,383.982178 491.502289,353.542114 428.433746,367.466431 
	C347.585327,385.316254 296.064911,460.710144 309.185120,542.352600 
	C312.081024,560.372742 317.838409,577.530273 327.861816,593.398865 
	C359.969482,651.321594 431.155731,681.873047 495.770050,665.479370 
	C537.595886,654.867493 569.923584,631.203918 592.002319,593.902222 
	C593.229553,594.309998 594.570984,594.520203 595.667603,595.153931 
	C638.579651,619.950195 681.469421,644.784973 724.634644,669.812134 
	C681.394897,743.270996 618.519958,791.714600 536.120605,812.746643 
	C402.440277,846.867920 268.210938,790.789978 196.769653,672.761108 
	C196.170959,671.772034 195.432632,670.867371 194.453613,669.756531 
	C193.533218,668.080017 193.065094,666.489502 192.283051,665.072205 
	C164.404465,614.547424 151.675217,560.387756 154.256958,502.819336 
	C160.564209,362.178436 263.759430,243.304886 402.159271,216.819016 
	C527.951599,192.745865 655.759460,249.571014 722.072754,359.050415 
	C722.847656,360.329712 723.700439,361.561829 724.855835,362.921143 
z"/>
<path fill="#649AD2" opacity="1.000000" stroke="none" 
	d="
M327.806091,593.046021 
	C317.838409,577.530273 312.081024,560.372742 309.185120,542.352600 
	C296.064911,460.710144 347.585327,385.316254 428.433746,367.466431 
	C491.502289,353.542114 560.341614,383.982178 591.925049,440.111206 
	C576.354248,449.632812 560.770325,458.838898 545.115601,467.923096 
	C517.226990,484.106415 489.295563,500.216003 460.814636,516.691162 
	C441.784210,527.633972 423.325165,538.248901 404.857239,548.848267 
	C379.177063,563.586975 353.490143,578.314026 327.806091,593.046021 
z"/>
<path fill="#014482" opacity="1.000000" stroke="none" 
	d="
M327.861816,593.398865 
	C353.490143,578.314026 379.177063,563.586975 404.857239,548.848267 
	C423.325165,538.248901 441.784210,527.633972 460.591003,516.941711 
	C472.072876,523.462158 483.159424,530.155762 494.359497,536.653564 
	C519.515930,551.248352 544.745789,565.716492 569.907715,580.301697 
	C577.214050,584.536743 584.391541,588.993835 591.815186,593.625732 
	C569.923584,631.203918 537.595886,654.867493 495.770050,665.479370 
	C431.155731,681.873047 359.969482,651.321594 327.861816,593.398865 
z"/>
<path fill="#FBFCFD" opacity="1.000000" stroke="none" 
	d="
M825.476196,477.041321 
	C825.476257,473.242035 825.476257,469.935577 825.476257,466.312744 
	C836.889099,466.312744 847.936157,466.312744 859.498169,466.312744 
	C859.498169,477.412323 859.498169,488.483948 859.498169,499.881226 
	C870.948914,499.881226 881.895935,499.881226 893.234192,499.881226 
	C893.234192,511.245026 893.234192,522.281860 893.234192,533.846863 
	C882.242126,533.846863 871.189392,533.846863 859.608276,533.846863 
	C859.608276,545.409790 859.608276,556.464294 859.608276,567.757935 
	C848.146973,567.757935 837.220886,567.757935 825.763367,567.757935 
	C825.763367,556.761841 825.763367,545.708679 825.763367,534.170654 
	C814.176147,534.170654 803.100342,534.170654 791.754883,534.170654 
	C791.754883,522.603760 791.754883,511.526245 791.754883,500.078156 
	C802.875183,500.078156 813.802551,500.078156 825.476196,500.078156 
	C825.476196,492.329407 825.476196,484.931824 825.476196,477.041321 
z"/>
<path fill="#FFFFFF" opacity="1.000000" stroke="none" 
	d="
M697.999512,537.192444 
	C698.442627,533.316162 695.989929,534.013916 694.116516,534.009827 
	C684.300110,533.988586 674.483704,533.999878 664.334412,533.999878 
	C664.334412,522.732910 664.334412,511.670135 664.334412,500.132202 
	C675.329773,500.132202 686.399353,500.132202 697.932129,500.132202 
	C697.932129,488.604675 697.932129,477.535400 697.932129,466.238342 
	C709.344116,466.238342 720.288574,466.238342 731.706421,466.238342 
	C731.706421,477.164490 731.706421,488.233734 731.706421,499.764587 
	C743.231323,499.764587 754.302551,499.764587 765.700256,499.764587 
	C765.700256,511.283722 765.700256,522.344360 765.700256,533.870789 
	C754.684082,533.870789 743.610901,533.870789 732.074097,533.870789 
	C732.074097,545.388916 732.074097,556.458069 732.074097,567.758545 
	C720.662537,567.758545 709.717834,567.758545 698.000122,567.758545 
	C698.000122,557.832397 698.000122,547.753906 697.999512,537.192444 
z"/>
</svg>