<svg version="1.1" id="Layer_1" xmlns="http://www.w3.org/2000/svg" xmlns:xlink="http://www.w3.org/1999/xlink" x="0px" y="0px"
	 width="100%" viewBox="0 0 1200 1350" enable-background="new 0 0 1200 1350" xml:space="preserve">
<path fill="#A179DC" opacity="1.000000" stroke="none" 
	d="
M0.999986,976.000000 
	C1.000000,775.311890 1.000000,574.623779 1.337045,373.784424 
	C2.089503,373.131256 2.735193,372.689789 2.885197,372.118225 
	C4.648788,365.398285 5.801342,358.465271 8.147650,351.960938 
	C15.159997,332.521606 26.730976,315.767273 43.772011,304.327789 
	C63.944656,290.786041 85.448006,279.218536 106.444588,266.914856 
	C122.277870,257.636810 138.224747,248.552689 154.114761,239.371384 
	C168.736786,230.922714 183.331863,222.427277 197.973038,214.011993 
	C212.334518,205.757462 226.752197,197.600769 241.121445,189.359695 
	C258.166656,179.583862 275.177551,169.748123 292.220062,159.967560 
	C306.452881,151.799469 320.730774,143.709824 334.950714,135.519455 
	C351.541016,125.963814 368.088562,116.333832 384.657532,106.741035 
	C398.994324,98.440590 413.334808,90.146477 427.674225,81.850578 
	C443.698761,72.579819 459.715881,63.296249 475.751129,54.044079 
	C491.209717,45.124638 506.798065,36.424011 522.127380,27.288229 
	C539.761536,16.778831 557.460815,6.560250 578.053223,2.855351 
	C578.466736,2.780956 578.688721,1.642202 579.000000,1.000006 
	C592.688110,1.000000 606.376221,1.000000 620.210205,1.323053 
	C621.180908,2.095457 621.961731,2.672840 622.837524,2.974504 
	C632.301086,6.234416 642.358276,8.338428 651.136902,12.904516 
	C671.129639,23.303469 690.511658,34.878914 710.114868,46.023781 
	C733.525940,59.333488 756.946838,72.626808 780.293762,86.048401 
	C805.744019,100.679214 831.100037,115.474052 856.525635,130.148071 
	C870.584229,138.261795 884.716797,146.247147 898.787354,154.340271 
	C913.834106,162.994888 928.833130,171.732422 943.879395,180.387985 
	C955.551270,187.102417 967.301208,193.681656 978.948914,200.437546 
	C995.100037,209.805496 1011.140930,219.363922 1027.316528,228.688858 
	C1041.793091,237.034348 1056.441284,245.082047 1070.918579,253.426483 
	C1091.718018,265.414978 1112.325073,277.740875 1133.215332,289.567200 
	C1149.258545,298.649384 1164.514404,308.625458 1175.853516,323.480804 
	C1179.239014,327.916260 1181.829346,332.958801 1184.417725,337.705994 
	C1181.981812,338.728455 1179.854858,339.668549 1177.850830,340.822083 
	C1116.030396,376.407562 1054.224365,412.017944 992.395264,447.588470 
	C991.156860,448.300964 989.672241,448.585541 987.946411,449.003418 
	C981.120117,439.048309 974.913635,428.974854 968.136780,419.300873 
	C924.729675,357.336823 869.114197,309.387604 801.533142,275.477142 
	C743.558289,246.386887 681.899780,231.474487 617.163696,229.115417 
	C589.315674,228.100586 561.593384,229.944977 534.086792,234.258179 
	C481.593842,242.489395 432.045776,259.450195 385.745422,285.594482 
	C310.098480,328.309875 251.342773,387.817657 210.391724,464.410461 
	C166.152191,547.153870 150.221130,635.465759 161.137909,728.581848 
	C164.949249,761.091125 172.565338,792.759644 183.552490,823.635315 
	C192.343353,848.338989 203.535019,871.907837 215.682861,894.986572 
	C149.689346,932.846558 84.038185,970.620789 18.405670,1008.427307 
	C17.160009,1009.144775 16.133915,1010.243408 14.687871,1010.984131 
	C8.905424,1000.243958 4.802277,989.223328 2.899322,977.429932 
	C2.808291,976.865845 1.657332,976.472778 0.999986,976.000000 
z"/>
<path fill="#703BB2" opacity="1.000000" stroke="none" 
	d="
M1201.000000,952.531311 
	C1200.612305,952.934387 1200.224487,952.868835 1199.430298,952.470459 
	C1199.011108,939.655151 1198.982788,927.172607 1198.988159,914.690125 
	C1199.014648,853.110291 1199.050049,791.530518 1199.402832,729.935059 
	C1200.148804,729.946289 1200.574463,729.973145 1201.000000,730.000000 
	C1201.000000,804.020874 1201.000000,878.041809 1201.000000,952.531311 
z"/>
<path fill="#6036CA" opacity="1.000000" stroke="none" 
	d="
M1201.000000,729.531372 
	C1200.574463,729.973145 1200.148804,729.946289 1199.361938,729.473328 
	C1199.057983,704.652466 1199.115356,680.277710 1199.498291,655.789185 
	C1200.216064,655.783569 1200.608032,655.891785 1201.000000,656.000000 
	C1201.000000,680.354248 1201.000000,704.708435 1201.000000,729.531372 
z"/>
<path fill="#8000FF" opacity="1.000000" stroke="none" 
	d="
M1201.000000,655.531372 
	C1200.608032,655.891785 1200.216064,655.783569 1199.437012,655.331543 
	C1199.035034,642.987244 1199.020142,630.986694 1199.005371,618.986206 
	C1199.502075,619.208862 1199.998779,619.431519 1200.747803,619.327087 
	C1201.000000,631.020874 1201.000000,643.041809 1201.000000,655.531372 
z"/>
<path fill="#FFFFFF" opacity="1.000000" stroke="none" 
	d="
M216.027145,894.904175 
	C203.535019,871.907837 192.343353,848.338989 183.552490,823.635315 
	C172.565338,792.759644 164.949249,761.091125 161.137909,728.581848 
	C150.221130,635.465759 166.152191,547.153870 210.391724,464.410461 
	C251.342773,387.817657 310.098480,328.309875 385.745422,285.594482 
	C432.045776,259.450195 481.593842,242.489395 534.086792,234.258179 
	C561.593384,229.944977 589.315674,228.100586 617.163696,229.115417 
	C681.899780,231.474487 743.558289,246.386887 801.533142,275.477142 
	C869.114197,309.387604 924.729675,357.336823 968.136780,419.300873 
	C974.913635,428.974854 981.120117,439.048309 987.811157,449.326538 
	C987.120667,450.412994 986.274414,451.223022 985.288635,451.790833 
	C922.594177,487.901062 859.890625,523.995361 797.167542,560.055969 
	C795.937622,560.763123 794.467346,561.052185 793.186035,561.194458 
	C785.401917,546.203796 775.209595,533.225098 763.655396,521.428528 
	C713.012329,469.722992 651.393127,447.059784 579.451782,454.017303 
	C526.720337,459.117035 481.497650,481.346436 444.727295,519.317871 
	C399.959045,565.548401 378.988831,621.290588 381.836395,685.782959 
	C383.262878,718.090393 391.864105,748.432495 406.733643,777.057922 
	C407.669830,778.860229 409.169525,780.369812 410.319702,782.408936 
	C418.361481,798.789490 429.228729,812.829956 441.444305,825.813477 
	C467.392426,853.392761 498.389191,873.031982 534.336121,885.173279 
	C551.760620,891.058533 569.631042,894.635803 587.762756,895.692017 
	C602.526978,896.552002 617.521179,895.388123 632.285156,893.872253 
	C653.969971,891.645752 674.678467,885.276001 694.539246,876.264099 
	C714.153137,867.364319 732.113831,855.886169 748.335632,841.695618 
	C767.021057,825.349976 782.877563,806.686829 795.356934,784.932251 
	C796.322388,785.197449 796.950562,785.426758 797.520447,785.756714 
	C860.096619,821.994019 922.670166,858.235718 985.225281,894.509399 
	C986.324707,895.146912 987.198242,896.173889 988.093262,897.371338 
	C987.255676,899.190063 986.586304,900.707336 985.736145,902.115540 
	C961.854309,941.671692 932.786072,976.822388 898.155151,1007.552246 
	C862.171021,1039.483032 822.160278,1064.845337 778.075195,1083.806641 
	C750.548340,1095.645996 722.188904,1105.104614 692.547302,1110.109131 
	C673.343750,1113.351318 654.132629,1117.499390 634.773193,1118.618652 
	C612.286072,1119.918945 589.608276,1118.883179 567.061340,1117.830444 
	C553.230774,1117.184326 539.348267,1115.341309 525.744995,1112.711670 
	C507.945862,1109.270996 490.109039,1105.456787 472.823486,1100.082397 
	C454.282013,1094.317627 435.920441,1087.523438 418.258698,1079.471313 
	C377.817566,1061.033813 340.827881,1037.002686 307.625336,1007.321411 
	C287.610657,989.429321 268.721191,970.385681 252.797241,948.760315 
	C239.916534,931.267761 228.238602,912.889526 216.027145,894.904175 
z"/>
<path fill="#280068" opacity="1.000000" stroke="none" 
	d="
M215.682861,894.986572 
	C228.238602,912.889526 239.916534,931.267761 252.797241,948.760315 
	C268.721191,970.385681 287.610657,989.429321 307.625336,1007.321411 
	C340.827881,1037.002686 377.817566,1061.033813 418.258698,1079.471313 
	C435.920441,1087.523438 454.282013,1094.317627 472.823486,1100.082397 
	C490.109039,1105.456787 507.945862,1109.270996 525.744995,1112.711670 
	C539.348267,1115.341309 553.230774,1117.184326 567.061340,1117.830444 
	C589.608276,1118.883179 612.286072,1119.918945 634.773193,1118.618652 
	C654.132629,1117.499390 673.343750,1113.351318 692.547302,1110.109131 
	C722.188904,1105.104614 750.548340,1095.645996 778.075195,1083.806641 
	C822.160278,1064.845337 862.171021,1039.483032 898.155151,1007.552246 
	C932.786072,976.822388 961.854309,941.671692 985.736145,902.115540 
	C986.586304,900.707336 987.255676,899.190063 988.429016,897.433960 
	C1014.311768,911.820557 1039.792847,926.465881 1065.233765,941.180298 
	C1103.041382,963.047180 1140.836060,984.936829 1178.572144,1006.926880 
	C1180.700195,1008.166992 1182.246948,1010.404480 1184.064331,1012.177795 
	C1181.139282,1016.907898 1178.805054,1022.159912 1175.176270,1026.268433 
	C1165.043213,1037.741333 1153.511475,1047.614258 1140.046997,1055.200928 
	C1121.350952,1065.735474 1102.886597,1076.680542 1084.286255,1087.385986 
	C1067.546509,1097.020630 1050.746094,1106.550049 1033.992920,1116.161499 
	C1017.952942,1125.363892 1001.935425,1134.605469 985.915222,1143.842285 
	C969.039551,1153.572388 952.178589,1163.328003 935.299561,1173.052246 
	C919.133972,1182.365601 902.945801,1191.639771 886.781921,1200.956055 
	C872.338501,1209.280518 857.927429,1217.661011 843.478943,1225.976685 
	C827.311096,1235.281738 811.099365,1244.510742 794.939392,1253.829468 
	C778.634888,1263.231689 762.379456,1272.718872 746.086182,1282.140625 
	C727.510742,1292.882202 709.062012,1303.854004 690.288330,1314.237915 
	C673.698364,1323.414062 657.150757,1332.863892 639.820251,1340.446533 
	C623.631775,1347.529541 606.202209,1349.049927 588.307556,1347.292603 
	C564.148438,1344.920044 543.613464,1334.184326 523.362732,1322.128906 
	C505.772003,1311.657104 487.996796,1301.494385 470.268646,1291.254761 
	C454.119354,1281.927368 437.915924,1272.693726 421.750916,1263.393433 
	C404.866638,1253.679199 388.003540,1243.928223 371.124084,1234.205688 
	C354.960693,1224.895386 338.787750,1215.601562 322.619690,1206.299438 
	C308.026306,1197.903320 293.431519,1189.509644 278.841156,1181.108276 
	C261.958313,1171.386841 245.094482,1161.632324 228.194839,1151.940186 
	C211.296997,1142.249023 194.335861,1132.668213 177.456711,1122.944824 
	C161.290344,1113.631958 145.211960,1104.166626 129.060974,1094.826904 
	C114.903465,1086.640015 100.581123,1078.731445 86.546600,1070.340210 
	C70.989647,1061.038940 55.059021,1052.175171 40.465256,1041.513794 
	C29.992884,1033.863159 21.045288,1023.909424 15.111890,1011.486938 
	C16.133915,1010.243408 17.160009,1009.144775 18.405670,1008.427307 
	C84.038185,970.620789 149.689346,932.846558 215.682861,894.986572 
z"/>
<path fill="#390091" opacity="1.000000" stroke="none" 
	d="
M1184.373047,1012.001465 
	C1182.246948,1010.404480 1180.700195,1008.166992 1178.572144,1006.926880 
	C1140.836060,984.936829 1103.041382,963.047180 1065.233765,941.180298 
	C1039.792847,926.465881 1014.311768,911.820557 988.512939,897.081665 
	C987.198242,896.173889 986.324707,895.146912 985.225281,894.509399 
	C922.670166,858.235718 860.096619,821.994019 797.520447,785.756714 
	C796.950562,785.426758 796.322388,785.197449 795.120972,784.692688 
	C730.284790,747.249023 666.049133,710.033813 602.055115,672.578979 
	C603.286011,671.722229 604.257202,671.073914 605.266846,670.492493 
	C662.997437,637.251587 720.739746,604.031128 778.449219,570.753784 
	C783.446106,567.872375 788.227600,564.617554 793.109131,561.536255 
	C794.467346,561.052185 795.937622,560.763123 797.167542,560.055969 
	C859.890625,523.995361 922.594177,487.901062 985.288635,451.790833 
	C986.274414,451.223022 987.120667,450.412994 988.167236,449.392883 
	C989.672241,448.585541 991.156860,448.300964 992.395264,447.588470 
	C1054.224365,412.017944 1116.030396,376.407562 1177.850830,340.822083 
	C1179.854858,339.668549 1181.981812,338.728455 1184.417725,337.705994 
	C1190.849854,345.951447 1193.572998,355.575531 1196.045654,365.250275 
	C1199.185791,377.536469 1199.054077,390.106842 1199.039795,402.688416 
	C1198.958008,474.475739 1199.000610,546.263245 1199.003174,618.518433 
	C1199.020142,630.986694 1199.035034,642.987244 1199.111328,655.445312 
	C1199.115356,680.277710 1199.057983,704.652466 1199.041504,729.488953 
	C1199.050049,791.530518 1199.014648,853.110291 1198.988159,914.690125 
	C1198.982788,927.172607 1199.011108,939.655151 1199.067749,952.609070 
	C1199.702637,972.445190 1195.645996,990.797607 1187.061523,1008.149841 
	C1186.418701,1009.449341 1185.481812,1010.603455 1184.373047,1012.001465 
M854.936462,640.905762 
	C875.169556,640.905762 895.402649,640.905762 915.498779,640.905762 
	C915.498779,662.396545 915.498779,683.114014 915.498779,704.247009 
	C894.379089,704.247009 873.627747,704.247009 853.088013,704.247009 
	C853.088013,714.919617 853.088013,725.167603 853.088013,735.954773 
	C874.178284,735.954773 894.893860,735.954773 916.137817,735.954773 
	C916.137817,757.210571 916.137817,777.916748 916.137817,798.530457 
	C926.769836,798.530457 936.855713,798.530457 947.468445,798.530457 
	C947.468445,777.492371 947.468445,756.761292 947.468445,736.034790 
	C968.724121,736.034790 989.442871,736.034790 1010.762024,736.034790 
	C1010.762024,757.098572 1010.762024,777.808289 1010.762024,798.586914 
	C1021.450745,798.586914 1031.533081,798.586914 1042.206177,798.586914 
	C1042.206177,777.891968 1042.206177,757.449768 1042.558716,736.725830 
	C1042.780762,736.509155 1042.926270,736.249512 1043.908569,735.716980 
	C1064.168335,735.716980 1084.428223,735.716980 1104.932617,735.716980 
	C1104.932617,724.929993 1104.932617,714.701904 1104.932617,703.835999 
	C1084.180054,703.835999 1063.594849,703.835999 1042.802979,703.499084 
	C1042.645874,703.280273 1042.446899,703.110962 1042.076660,702.062927 
	C1042.119751,682.044800 1042.162964,662.026611 1042.541016,641.776062 
	C1042.744385,641.588745 1042.899780,641.367676 1043.930664,640.947510 
	C1063.948853,640.892334 1083.967041,640.837158 1104.537842,640.896606 
	C1104.676514,640.596375 1104.815186,640.296143 1105.149414,639.076904 
	C1105.149414,629.189636 1105.149414,619.302429 1105.149414,608.966858 
	C1083.887695,608.966858 1063.445068,608.966858 1042.822998,608.577820 
	C1042.664551,608.332886 1042.458862,608.137634 1042.076660,607.063721 
	C1042.009399,587.046082 1041.942139,567.028442 1041.937988,546.467468 
	C1041.622803,546.383301 1041.307739,546.299133 1040.063721,546.089661 
	C1030.314941,546.089661 1020.566284,546.089661 1010.491577,546.089661 
	C1010.491577,567.432068 1010.491577,588.057007 1010.491577,608.786133 
	C989.293274,608.786133 968.441528,608.786133 947.296082,608.786133 
	C947.296082,606.069641 947.305603,603.756104 947.294556,601.442688 
	C947.208191,583.293945 947.117859,565.145264 947.043823,546.419373 
	C946.693970,546.351196 946.344177,546.283081 945.065308,546.089600 
	C935.714539,546.131348 926.363831,546.173096 916.466248,546.102600 
	C916.336792,546.403503 916.207275,546.704407 915.897461,547.926819 
	C915.897461,568.186401 915.897461,588.446045 915.897461,609.207214 
	C894.663330,609.207214 873.945496,609.207214 852.973755,609.207214 
	C852.973755,619.806885 852.973755,629.905151 852.959534,640.580017 
	C853.308838,640.647278 853.658142,640.714539 854.936462,640.905762 
z"/>
<path fill="#A179DC" opacity="1.000000" stroke="none" 
	d="
M793.186035,561.194397 
	C788.227600,564.617554 783.446106,567.872375 778.449219,570.753784 
	C720.739746,604.031128 662.997437,637.251587 605.266846,670.492493 
	C604.257202,671.073914 603.286011,671.722229 601.712830,672.655029 
	C546.997864,704.109253 492.880463,735.271545 438.722961,766.363953 
	C429.371399,771.732849 419.850006,776.805847 410.407074,782.015564 
	C409.169525,780.369812 407.669830,778.860229 406.733643,777.057922 
	C391.864105,748.432495 383.262878,718.090393 381.836395,685.782959 
	C378.988831,621.290588 399.959045,565.548401 444.727295,519.317871 
	C481.497650,481.346436 526.720337,459.117035 579.451782,454.017303 
	C651.393127,447.059784 713.012329,469.722992 763.655396,521.428528 
	C775.209595,533.225098 785.401917,546.203796 793.186035,561.194397 
z"/>
<path fill="#280068" opacity="1.000000" stroke="none" 
	d="
M410.319702,782.408936 
	C419.850006,776.805847 429.371399,771.732849 438.722961,766.363953 
	C492.880463,735.271545 546.997864,704.109253 601.471130,672.894653 
	C666.049133,710.033813 730.284790,747.249023 794.756470,784.703857 
	C782.877563,806.686829 767.021057,825.349976 748.335632,841.695618 
	C732.113831,855.886169 714.153137,867.364319 694.539246,876.264099 
	C674.678467,885.276001 653.969971,891.645752 632.285156,893.872253 
	C617.521179,895.388123 602.526978,896.552002 587.762756,895.692017 
	C569.631042,894.635803 551.760620,891.058533 534.336121,885.173279 
	C498.389191,873.031982 467.392426,853.392761 441.444305,825.813477 
	C429.228729,812.829956 418.361481,798.789490 410.319702,782.408936 
z"/>
<path fill="#FFFFFF" opacity="1.000000" stroke="none" 
	d="
M917.013062,546.214844 
	C926.363831,546.173096 935.714539,546.131348 945.664185,546.328857 
	C946.474976,546.788269 946.730164,546.931091 947.028748,546.996521 
	C947.117859,565.145264 947.208191,583.293945 947.294556,601.442688 
	C947.305603,603.756104 947.296082,606.069641 947.296082,608.786133 
	C968.441528,608.786133 989.293274,608.786133 1010.491577,608.786133 
	C1010.491577,588.057007 1010.491577,567.432068 1010.491577,546.089661 
	C1020.566284,546.089661 1030.314941,546.089661 1040.638306,546.321899 
	C1041.400146,546.754883 1041.620728,546.907104 1041.874878,547.010803 
	C1041.942139,567.028442 1042.009399,587.046082 1042.088623,607.807129 
	C1042.401245,608.689270 1042.701904,608.828064 1043.002563,608.966858 
	C1063.445068,608.966858 1083.887695,608.966858 1105.149414,608.966858 
	C1105.149414,619.302429 1105.149414,629.189636 1104.856201,639.621521 
	C1104.313232,640.317810 1104.120605,640.523071 1103.985229,640.781982 
	C1083.967041,640.837158 1063.948853,640.892334 1043.195312,640.998718 
	C1042.375366,641.369446 1042.290771,641.688965 1042.206055,642.008484 
	C1042.162964,662.026611 1042.119751,682.044800 1042.087769,702.790833 
	C1042.402466,703.624512 1042.705933,703.730225 1043.009521,703.835999 
	C1063.594849,703.835999 1084.180054,703.835999 1104.932617,703.835999 
	C1104.932617,714.701904 1104.932617,724.929993 1104.932617,735.716980 
	C1084.428223,735.716980 1064.168335,735.716980 1043.158936,735.826050 
	C1042.341675,736.292603 1042.273926,736.650085 1042.206299,737.007568 
	C1042.206177,757.449768 1042.206177,777.891968 1042.206177,798.586914 
	C1031.533081,798.586914 1021.450745,798.586914 1010.762024,798.586914 
	C1010.762024,777.808289 1010.762024,757.098572 1010.762024,736.034790 
	C989.442871,736.034790 968.724121,736.034790 947.468445,736.034790 
	C947.468445,756.761292 947.468445,777.492371 947.468445,798.530457 
	C936.855713,798.530457 926.769836,798.530457 916.137817,798.530457 
	C916.137817,777.916748 916.137817,757.210571 916.137817,735.954773 
	C894.893860,735.954773 874.178284,735.954773 853.088013,735.954773 
	C853.088013,725.167603 853.088013,714.919617 853.088013,704.247009 
	C873.627747,704.247009 894.379089,704.247009 915.498779,704.247009 
	C915.498779,683.114014 915.498779,662.396545 915.498779,640.905762 
	C895.402649,640.905762 875.169556,640.905762 854.338379,640.666992 
	C853.528015,640.208435 853.272522,640.066833 852.973755,640.003418 
	C852.973755,629.905151 852.973755,619.806885 852.973755,609.207214 
	C873.945496,609.207214 894.663330,609.207214 915.897461,609.207214 
	C915.897461,588.446045 915.897461,568.186401 916.175537,547.375366 
	C916.694519,546.670898 916.880981,546.467896 917.013062,546.214844 
M948.881470,640.954773 
	C948.353210,642.486938 947.374451,644.016479 947.365479,645.551697 
	C947.258728,663.713013 947.289978,681.875244 947.311829,700.037231 
	C947.313354,701.298828 947.528320,702.560120 947.628723,703.654541 
	C968.773560,703.654541 989.504578,703.654541 1010.159912,703.654541 
	C1010.159912,682.593262 1010.159912,661.883728 1010.159912,640.927124 
	C989.786194,640.927124 969.803589,640.927124 948.881470,640.954773 
z"/>
<path fill="#E6DFF1" opacity="1.000000" stroke="none" 
	d="
M1041.906494,546.739136 
	C1041.620728,546.907104 1041.400146,546.754883 1041.102783,546.384521 
	C1041.307739,546.299133 1041.622803,546.383301 1041.906494,546.739136 
z"/>
<path fill="#4E1B9D" opacity="1.000000" stroke="none" 
	d="
M1042.912842,608.772339 
	C1042.701904,608.828064 1042.401245,608.689270 1042.153320,608.271240 
	C1042.458862,608.137634 1042.664551,608.332886 1042.912842,608.772339 
z"/>
<path fill="#E5DDF0" opacity="1.000000" stroke="none" 
	d="
M852.966675,640.291748 
	C853.272522,640.066833 853.528015,640.208435 853.873840,640.604980 
	C853.658142,640.714539 853.308838,640.647278 852.966675,640.291748 
z"/>
<path fill="#E5DDF0" opacity="1.000000" stroke="none" 
	d="
M1104.261475,640.839294 
	C1104.120605,640.523071 1104.313232,640.317810 1104.758301,640.081055 
	C1104.815186,640.296143 1104.676514,640.596375 1104.261475,640.839294 
z"/>
<path fill="#4E1B9D" opacity="1.000000" stroke="none" 
	d="
M1042.373535,641.892273 
	C1042.290771,641.688965 1042.375366,641.369446 1042.733643,641.081421 
	C1042.899780,641.367676 1042.744385,641.588745 1042.373535,641.892273 
z"/>
<path fill="#4E1B9D" opacity="1.000000" stroke="none" 
	d="
M1042.906250,703.667542 
	C1042.705933,703.730225 1042.402466,703.624512 1042.152344,703.254944 
	C1042.446899,703.110962 1042.645874,703.280273 1042.906250,703.667542 
z"/>
<path fill="#4E1B9D" opacity="1.000000" stroke="none" 
	d="
M1042.382568,736.866699 
	C1042.273926,736.650085 1042.341675,736.292603 1042.702148,735.941040 
	C1042.926270,736.249512 1042.780762,736.509155 1042.382568,736.866699 
z"/>
<path fill="#E6DFF1" opacity="1.000000" stroke="none" 
	d="
M947.036255,546.707947 
	C946.730164,546.931091 946.474976,546.788269 946.128662,546.391479 
	C946.344177,546.283081 946.693970,546.351196 947.036255,546.707947 
z"/>
<path fill="#E6DFF1" opacity="1.000000" stroke="none" 
	d="
M916.739624,546.158752 
	C916.880981,546.467896 916.694519,546.670898 916.265747,546.914612 
	C916.207275,546.704407 916.336792,546.403503 916.739624,546.158752 
z"/>
<path fill="#390091" opacity="1.000000" stroke="none" 
	d="
M949.351196,640.940918 
	C969.803589,640.927124 989.786194,640.927124 1010.159912,640.927124 
	C1010.159912,661.883728 1010.159912,682.593262 1010.159912,703.654541 
	C989.504578,703.654541 968.773560,703.654541 947.628723,703.654541 
	C947.528320,702.560120 947.313354,701.298828 947.311829,700.037231 
	C947.289978,681.875244 947.258728,663.713013 947.365479,645.551697 
	C947.374451,644.016479 948.353210,642.486938 949.351196,640.940918 
z"/>
</svg>