<svg version="1.1" id="Layer_1" xmlns="http://www.w3.org/2000/svg" xmlns:xlink="http://www.w3.org/1999/xlink" x="0px" y="0px"
	 width="100%" viewBox="0 0 2048 2048" enable-background="new 0 0 2048 2048" xml:space="preserve">
<path fill="#FEFEFE" opacity="1.000000" stroke="none" 
	d="
M2049.000000,904.000000 
	C2049.000000,987.687561 2049.000000,1071.375122 2048.622559,1155.227783 
	C2047.830811,1156.237793 2047.140503,1157.052734 2047.044556,1157.932373 
	C2045.647949,1170.751831 2044.924805,1183.677002 2042.846924,1196.381836 
	C2040.114380,1213.090698 2036.903442,1229.768433 2032.872314,1246.207886 
	C2025.835205,1274.905151 2018.592285,1303.578491 2010.327271,1331.939087 
	C2004.509277,1351.902588 1997.517334,1371.592896 1989.867310,1390.937622 
	C1978.325317,1420.123413 1966.231812,1449.115723 1953.436157,1477.771973 
	C1945.843628,1494.775513 1936.894775,1511.224487 1927.759644,1527.475220 
	C1916.261353,1547.929565 1904.458618,1568.251343 1891.846558,1588.030273 
	C1879.192627,1607.875122 1865.961914,1627.413818 1851.916260,1646.292358 
	C1837.547485,1665.604980 1822.195312,1684.216309 1806.690552,1702.644165 
	C1793.369263,1718.476929 1779.822998,1734.207764 1765.294434,1748.915161 
	C1746.819092,1767.618408 1727.430664,1785.436768 1708.092163,1803.263916 
	C1696.177979,1814.246704 1683.987061,1824.996460 1671.267944,1835.023315 
	C1652.695801,1849.664429 1634.016968,1864.260986 1614.530518,1877.633423 
	C1572.473389,1906.494751 1529.196411,1933.421143 1482.825562,1954.984619 
	C1467.409058,1962.153687 1452.153809,1969.847046 1436.250610,1975.755249 
	C1404.277588,1987.633423 1371.999756,1998.715820 1339.667236,2009.590820 
	C1323.569580,2015.005249 1307.157593,2019.550659 1290.735962,2023.918457 
	C1272.095703,2028.876099 1253.338013,2033.426147 1234.529419,2037.705566 
	C1223.350830,2040.249023 1212.016724,2042.199097 1200.676758,2043.915771 
	C1191.328613,2045.331055 1181.865601,2045.979858 1172.468262,2047.093384 
	C1171.911377,2047.159424 1171.486450,2048.338623 1171.000000,2049.000000 
	C1080.312500,2049.000000 989.624878,2049.000000 898.771973,2048.624756 
	C897.930298,2047.839233 897.287781,2047.146973 896.572449,2047.060791 
	C887.666626,2045.989990 878.706909,2045.290771 869.845947,2043.939575 
	C853.848145,2041.500000 837.871521,2038.882935 821.951233,2035.982422 
	C791.697998,2030.470459 762.139343,2022.133179 732.853760,2012.913086 
	C714.515442,2007.139648 696.243225,2000.996338 678.377991,1993.916992 
	C651.130737,1983.119751 623.837708,1972.266235 597.354675,1959.762207 
	C572.372437,1947.967041 548.184814,1934.412109 524.076111,1920.868530 
	C506.142822,1910.794312 488.574860,1899.982666 471.432251,1888.613037 
	C455.271790,1877.894775 439.576508,1866.410522 424.224792,1854.553467 
	C403.616760,1838.636719 383.255310,1822.371216 363.326874,1805.614502 
	C349.959717,1794.375000 337.187988,1782.366821 324.767639,1770.078003 
	C311.120392,1756.575317 297.864624,1742.641846 285.016724,1728.375244 
	C269.893860,1711.582031 255.057922,1694.503662 240.725296,1677.033936 
	C229.005371,1662.748413 217.758209,1648.022949 207.115906,1632.918823 
	C194.403534,1614.876709 182.086853,1596.515503 170.466400,1577.755127 
	C158.112808,1557.811035 145.984329,1537.647583 135.196350,1516.834106 
	C122.042908,1491.457031 109.805962,1465.559570 98.274384,1439.401611 
	C89.303612,1419.052368 81.567726,1398.120850 74.087044,1377.161011 
	C61.285320,1341.292480 50.496937,1304.786865 42.877609,1267.444702 
	C38.449844,1245.744385 34.614040,1223.909058 31.123045,1202.036987 
	C29.118204,1189.476074 28.182415,1176.734009 27.043446,1164.048462 
	C25.854837,1150.810059 24.853470,1137.550659 24.039909,1124.283936 
	C23.192034,1110.457397 22.413181,1096.617676 22.057722,1082.772095 
	C21.503725,1061.193115 21.109509,1039.604736 21.071457,1018.019714 
	C21.042219,1001.435425 21.620941,984.848999 22.015877,968.265564 
	C22.260078,958.011536 22.614666,947.759277 23.020262,937.510193 
	C23.248066,931.753723 23.540373,925.992920 24.048534,920.255737 
	C25.289743,906.242737 26.630934,892.238037 28.014675,878.238220 
	C28.945896,868.816833 29.581701,859.336792 31.131367,850.012878 
	C33.380260,836.481934 35.816227,822.940430 39.097282,809.631409 
	C45.709194,782.811218 52.382549,755.981140 60.101627,729.466980 
	C66.233536,708.404419 73.157036,687.490967 81.168633,667.076294 
	C92.753410,637.556702 105.213081,608.357483 118.137062,579.395325 
	C125.334076,563.267029 133.829178,547.673035 142.457687,532.239868 
	C153.440430,512.595886 164.505112,492.942535 176.690170,474.038208 
	C197.661804,441.502045 219.921982,409.822784 245.157272,380.377075 
	C260.622253,362.331787 275.809814,344.004242 292.088898,326.713806 
	C308.139862,309.665619 325.211029,293.555573 342.209167,277.428802 
	C355.090424,265.207886 368.368713,253.384995 381.823212,241.794601 
	C394.669189,230.728378 407.467957,219.495636 421.183807,209.575378 
	C445.497498,191.990021 470.043304,174.642914 495.331482,158.512131 
	C517.944458,144.087814 541.281982,130.658707 565.053528,118.232437 
	C587.221436,106.644463 610.135681,96.375450 633.174255,86.592346 
	C656.453125,76.707169 679.971680,67.178780 703.956055,59.212490 
	C737.426636,48.095371 771.335632,38.257065 805.229126,28.467173 
	C833.775330,20.221794 863.051208,15.506328 892.651917,13.064934 
	C905.457336,12.008770 918.314697,11.424239 931.160828,11.056082 
	C950.405945,10.504532 969.662781,10.014851 988.913147,10.067126 
	C1025.997437,10.167828 1063.083008,10.503619 1100.163330,11.060416 
	C1122.671875,11.398404 1145.180542,12.120249 1167.671265,13.088306 
	C1179.110107,13.580670 1190.553711,14.647831 1201.914429,16.090618 
	C1214.768677,17.723045 1227.769287,19.130390 1240.287354,22.293186 
	C1268.611816,29.449505 1296.845215,37.076553 1324.795044,45.567448 
	C1345.318359,51.802208 1365.333496,59.709534 1385.573853,66.875412 
	C1419.327637,78.825661 1451.828491,93.726768 1484.108521,109.096375 
	C1497.168701,115.314812 1509.973511,122.132263 1522.563965,129.260834 
	C1542.568848,140.587479 1562.713013,151.755997 1582.032349,164.182404 
	C1604.417603,178.580856 1626.305176,193.815506 1647.786499,209.537216 
	C1664.840698,222.018799 1681.210571,235.479111 1697.416870,249.062439 
	C1712.387451,261.609924 1727.176880,274.440277 1741.260376,287.964111 
	C1764.772339,310.541809 1787.610596,333.816040 1808.446167,358.955505 
	C1819.797363,372.651489 1831.985840,385.742706 1842.354492,400.145020 
	C1861.957642,427.374176 1881.151123,454.946411 1899.307983,483.153015 
	C1912.862061,504.209473 1925.505493,525.989746 1936.776978,548.344055 
	C1951.657349,577.856079 1965.778320,607.840149 1978.396240,638.377258 
	C1989.636475,665.580811 1998.740723,693.694092 2008.144043,721.622620 
	C2019.542969,755.478394 2028.008789,790.125793 2035.157471,825.137939 
	C2040.324097,850.442566 2045.297974,875.721863 2047.078247,901.535400 
	C2047.137695,902.396973 2048.333740,903.180237 2049.000000,904.000000 
M693.057861,417.387451 
	C692.656921,416.975098 692.255920,416.562714 691.979675,416.063721 
	C691.979675,416.063721 691.838257,416.118896 691.973755,415.398224 
	C682.370300,396.492950 669.399109,380.475311 651.509521,368.804199 
	C628.084778,353.521973 602.919800,341.857788 576.228943,333.574677 
	C535.500061,320.935028 494.075348,316.550568 452.077484,325.735352 
	C388.583557,339.621307 342.552216,377.155334 313.270355,434.208649 
	C287.471832,484.475067 274.010712,538.357971 275.054688,595.328979 
	C275.655121,628.097229 276.275696,660.865173 276.954742,693.631836 
	C277.167816,703.914185 277.463867,714.198669 277.963226,724.470459 
	C278.842590,742.558594 279.813446,760.643494 280.916931,778.719299 
	C282.582703,806.006042 286.524078,832.990356 292.445984,859.666382 
	C308.735687,933.045288 331.353973,1004.512207 357.997894,1074.731201 
	C399.049194,1182.920166 448.167908,1287.347778 505.122040,1388.063354 
	C547.968506,1463.831299 594.751160,1536.998413 649.754395,1604.676758 
	C698.718750,1664.924561 755.950195,1715.847778 821.432312,1757.511841 
	C825.160706,1759.884277 829.200989,1761.766479 833.017273,1763.996460 
	C833.017273,1763.996460 833.112061,1763.888672 833.197388,1764.573120 
	C834.821106,1765.354614 836.444885,1766.136108 838.000000,1767.000000 
	C838.000000,1767.000000 838.072998,1766.921387 838.206787,1767.594971 
	C839.839539,1768.350098 841.472290,1769.105225 843.048035,1769.994385 
	C843.048035,1769.994385 843.129578,1769.873169 843.266357,1770.496704 
	C843.851746,1770.656250 844.437073,1770.815918 845.000000,1771.000000 
	C845.000000,1771.000000 845.018250,1770.972778 845.181152,1771.609009 
	C846.128052,1772.049561 847.074951,1772.490112 848.705811,1773.152954 
	C867.262024,1782.281738 885.515930,1792.106201 904.461182,1800.339844 
	C922.649048,1808.244385 941.191467,1815.618042 961.119934,1818.379639 
	C976.364563,1820.492188 991.531067,1823.311768 1006.829468,1824.853638 
	C1023.101562,1826.493530 1039.481201,1827.701050 1055.825928,1827.861206 
	C1095.804810,1828.252808 1135.793945,1828.219971 1175.772095,1827.756836 
	C1192.049316,1827.568481 1208.346558,1825.629761 1223.450806,1818.889771 
	C1234.821777,1813.815918 1245.930420,1808.114258 1256.950439,1802.302734 
	C1279.265991,1790.534546 1302.726929,1787.637451 1326.983887,1793.857666 
	C1347.561523,1799.134277 1367.865112,1805.487305 1388.261963,1811.459595 
	C1405.278564,1816.442139 1422.321167,1822.086426 1440.267456,1820.799438 
	C1454.733032,1819.761963 1469.127808,1817.277710 1483.451782,1814.836304 
	C1503.002686,1811.503784 1522.178223,1806.647095 1540.151733,1797.936279 
	C1560.075439,1788.280396 1575.655884,1774.484985 1582.478271,1752.615356 
	C1585.550171,1742.767944 1584.947876,1733.244385 1578.983032,1724.471069 
	C1576.363892,1720.618774 1573.654907,1716.827759 1571.003052,1712.460938 
	C1570.764648,1712.210327 1570.526245,1711.959839 1570.126709,1711.375977 
	C1570.126709,1711.375977 1569.908081,1711.077393 1570.007080,1710.438354 
	C1569.607910,1710.030273 1569.208740,1709.622314 1568.880493,1709.148315 
	C1568.880493,1709.148315 1568.783691,1709.147217 1568.974365,1708.441772 
	C1566.613037,1705.662231 1564.251709,1702.882690 1561.654419,1699.684692 
	C1561.464478,1699.419067 1561.226074,1699.208252 1560.894287,1698.517334 
	C1560.603149,1698.333008 1560.312134,1698.148682 1559.654175,1697.385742 
	C1551.397705,1685.543701 1548.536865,1671.752197 1547.288818,1657.943970 
	C1546.221680,1646.137329 1546.680420,1633.983765 1548.166016,1622.198242 
	C1551.343018,1596.996216 1555.236450,1571.866943 1559.550781,1546.830811 
	C1564.393066,1518.730225 1570.777588,1490.880493 1575.080566,1462.706177 
	C1578.749390,1438.683716 1580.712524,1414.381714 1582.862427,1390.153076 
	C1584.132812,1375.834717 1584.767578,1361.421021 1584.850098,1347.045410 
	C1584.968262,1326.438477 1584.484863,1305.823120 1583.942749,1285.219482 
	C1583.578003,1271.346924 1582.902954,1257.472534 1581.938843,1243.628662 
	C1580.885010,1228.495361 1579.559570,1213.372803 1577.946045,1198.289062 
	C1576.230347,1182.249023 1574.415649,1166.202393 1571.982178,1150.259644 
	C1565.118774,1105.294434 1555.055786,1061.056519 1540.274780,1017.987976 
	C1530.406006,989.232910 1518.812988,961.100281 1511.364624,931.481812 
	C1506.210083,910.984497 1505.772827,891.115845 1513.567139,871.390137 
	C1524.371094,844.047974 1535.258545,816.737122 1546.362549,789.515808 
	C1554.645386,769.209961 1563.862305,749.271790 1571.700195,728.801147 
	C1582.007446,701.881104 1582.708618,673.331543 1583.981079,644.983337 
	C1584.546143,632.393066 1584.640869,619.782104 1585.028320,607.182983 
	C1585.103760,604.730896 1585.734863,602.293518 1585.780151,599.843262 
	C1585.893433,593.717285 1585.817383,587.587830 1585.817383,580.121338 
	C1584.419067,582.953064 1583.685669,584.438354 1582.331787,585.436523 
	C1581.555908,577.750549 1580.786011,570.063965 1580.002930,562.378723 
	C1578.622803,548.837402 1577.462036,535.268982 1575.802856,521.761841 
	C1572.241455,492.770294 1560.906128,466.073486 1550.950073,438.125336 
	C1551.657227,425.242798 1552.551514,412.366730 1552.998535,399.475159 
	C1553.251099,392.188812 1551.611084,385.307709 1545.989746,379.329132 
	C1545.271484,374.094604 1542.165039,370.555603 1537.357300,369.089630 
	C1532.389893,367.575043 1527.164551,366.052216 1522.045898,366.031097 
	C1495.417358,365.921143 1468.716064,365.057770 1442.339111,369.991730 
	C1424.135254,373.396851 1405.869751,376.556396 1387.805664,380.601593 
	C1366.678711,385.332611 1345.387207,388.362946 1323.773438,388.956421 
	C1303.742676,389.506439 1283.650513,389.964203 1263.898560,385.827728 
	C1253.532715,383.656921 1243.079590,381.296722 1234.273071,374.714325 
	C1214.557739,359.978302 1193.088257,350.587585 1167.756226,351.889282 
	C1156.978516,352.443054 1147.455933,355.842468 1139.366943,362.583740 
	C1136.411987,365.046448 1133.853027,369.241943 1133.247192,372.991699 
	C1132.146484,379.804260 1132.036133,386.923645 1132.590942,393.828339 
	C1134.056396,412.069122 1136.009888,430.273163 1137.973877,448.469727 
	C1138.471802,453.084045 1137.413696,456.576996 1134.218384,460.138885 
	C1112.750732,484.069916 1091.464233,508.164246 1070.208374,532.284424 
	C1042.763672,563.427429 1016.346069,595.380737 994.539978,630.843018 
	C981.935791,651.340637 970.927673,672.603149 966.457092,696.571228 
	C962.979431,715.215942 965.207703,732.808655 977.703552,747.945007 
	C986.153259,758.180298 997.148560,765.006287 1009.214233,770.244995 
	C1016.231750,773.291809 1023.264465,776.315674 1030.166382,779.609558 
	C1032.191895,780.576172 1033.792969,782.432434 1035.588501,783.880981 
	C1035.354004,784.470154 1035.119385,785.059326 1034.884888,785.648499 
	C1030.036621,785.648499 1025.068359,786.345947 1020.359741,785.535400 
	C989.523499,780.227112 959.464905,772.697937 933.758972,752.251831 
	C932.105713,749.187317 930.225525,746.221863 928.837402,743.041626 
	C921.913208,727.178101 920.351013,710.435913 920.880127,693.351135 
	C921.890442,660.722656 929.681946,629.469604 940.606628,598.969604 
	C968.277527,521.716736 1010.125671,452.848358 1064.831909,391.817902 
	C1094.885010,358.290466 1128.411133,328.738831 1167.254395,305.563629 
	C1209.800781,280.178894 1255.622070,266.239990 1305.351074,266.018066 
	C1310.787842,265.993774 1316.242798,266.502197 1321.663208,267.031708 
	C1333.321167,268.170563 1345.109253,268.716675 1356.573730,270.915497 
	C1371.817383,273.839172 1386.803467,278.106506 1402.773560,281.916870 
	C1406.801147,282.248566 1410.828735,282.580292 1414.856323,282.912018 
	C1415.107178,282.432831 1415.358032,281.953644 1415.608887,281.474457 
	C1414.034912,279.740112 1412.709473,277.656219 1410.844971,276.330688 
	C1401.761230,269.872528 1392.699585,263.357971 1383.322144,257.343384 
	C1363.158936,244.410767 1341.630127,234.688095 1317.237061,234.235397 
	C1289.111084,233.713409 1260.959961,233.738770 1232.834839,234.290741 
	C1218.849854,234.565201 1205.059570,237.387115 1191.924683,242.567276 
	C1166.705811,252.513107 1143.425049,266.092712 1120.956421,281.076996 
	C1080.755737,307.886719 1043.238281,338.030670 1011.238953,374.364197 
	C994.864380,392.956665 980.203674,413.065582 964.948425,432.629547 
	C962.580444,435.666351 960.262573,437.022461 956.304504,436.983307 
	C935.812073,436.780518 915.315430,436.807159 894.822144,436.973969 
	C886.508179,437.041656 878.172363,437.372925 869.894226,438.116058 
	C860.510742,438.958374 855.684387,442.766418 853.939331,451.904480 
	C851.199707,466.250946 848.478821,480.698425 847.323914,495.228241 
	C845.373352,519.767639 851.926880,543.005127 860.315979,565.841064 
	C867.994324,586.742310 875.330627,607.772888 882.541016,628.841064 
	C887.474609,643.256714 887.178711,657.563843 880.486694,671.546936 
	C871.299011,690.744690 863.116394,710.479919 852.966858,729.149658 
	C827.675415,775.672485 802.837036,822.384033 781.902832,871.077148 
	C775.334961,886.354065 768.510132,901.520569 761.719482,915.761292 
	C761.436157,913.177734 761.152832,910.594238 760.950867,907.356812 
	C760.909119,906.920593 760.867310,906.484436 761.080688,905.133667 
	C760.766418,898.030273 760.452148,890.926880 760.202087,882.909912 
	C760.039062,875.628845 759.876099,868.347717 759.881775,860.555054 
	C759.617432,860.329529 759.353088,860.104004 759.009888,858.959290 
	C758.673279,844.522522 758.356201,830.085205 757.993896,815.649109 
	C757.690308,803.549377 757.303223,791.451843 757.007141,779.352051 
	C756.320740,751.305176 755.771667,723.254517 754.956665,695.211548 
	C754.538818,680.838074 753.857117,666.465942 752.956604,652.114441 
	C751.819092,633.984924 750.566162,615.856140 748.920227,597.767395 
	C747.881897,586.356750 746.824707,574.849060 744.412781,563.679199 
	C733.623352,513.711609 720.293579,464.572083 694.116577,419.401245 
	C693.733398,418.941864 693.350159,418.482483 693.000000,418.000000 
	C693.000000,418.000000 692.969360,418.026794 693.057861,417.387451 
z"/>
<path fill="#45352F" opacity="1.000000" stroke="none" 
	d="
M693.960571,420.037140 
	C720.293579,464.572083 733.623352,513.711609 744.412781,563.679199 
	C746.824707,574.849060 747.881897,586.356750 748.920227,597.767395 
	C750.566162,615.856140 751.819092,633.984924 752.956604,652.114441 
	C753.857117,666.465942 754.538818,680.838074 754.956665,695.211548 
	C755.771667,723.254517 756.320740,751.305176 757.007141,779.352051 
	C757.303223,791.451843 757.690308,803.549377 757.993896,815.649109 
	C758.356201,830.085205 758.673279,844.522522 759.046387,859.662415 
	C759.170532,860.709229 759.380554,860.942932 759.713074,861.066650 
	C759.876099,868.347717 760.039062,875.628845 760.048462,883.835632 
	C760.205078,891.856995 760.515320,898.952576 760.825500,906.048218 
	C760.867310,906.484436 760.909119,906.920593 760.649780,907.981812 
	C760.508911,911.746216 760.669128,914.885681 760.848633,918.491699 
	C760.867920,934.829163 760.867920,950.700195 760.867920,966.571167 
	C761.376892,966.655823 761.885803,966.740479 762.394775,966.825134 
	C762.961121,965.585999 763.656921,964.388855 764.074890,963.101501 
	C774.875244,929.841614 787.473755,897.305603 802.443604,865.673950 
	C825.231628,817.522034 848.228088,769.493103 876.229675,724.060547 
	C889.248474,702.937439 896.777344,680.012695 896.612000,655.127441 
	C896.475647,634.605164 891.344971,614.940369 882.620544,596.383057 
	C866.516296,562.128357 861.168518,525.993835 863.207581,488.539825 
	C863.603271,481.271027 864.634583,474.002930 865.878906,466.822235 
	C867.703430,456.293671 874.292358,449.773376 884.694763,448.128235 
	C894.671448,446.550415 904.806274,445.516205 914.899536,445.231171 
	C932.547485,444.732819 950.229126,444.588470 967.871582,445.122894 
	C975.364746,445.349884 979.896118,443.030884 984.241943,436.883667 
	C1009.002808,401.858978 1036.486084,369.283447 1069.573242,341.579834 
	C1107.278198,310.009735 1147.502686,282.506561 1192.042358,261.452820 
	C1213.286377,251.410812 1235.607788,246.320663 1259.038330,246.030579 
	C1272.031738,245.869705 1285.049316,245.543045 1298.018188,246.129257 
	C1310.767944,246.705612 1323.578735,247.658112 1336.169434,249.660248 
	C1359.919312,253.436844 1379.925537,265.901184 1399.588989,278.838043 
	C1400.579346,279.489655 1401.139648,280.795380 1401.900146,281.796539 
	C1386.803467,278.106506 1371.817383,273.839172 1356.573730,270.915497 
	C1345.109253,268.716675 1333.321167,268.170563 1321.663208,267.031708 
	C1316.242798,266.502197 1310.787842,265.993774 1305.351074,266.018066 
	C1255.622070,266.239990 1209.800781,280.178894 1167.254395,305.563629 
	C1128.411133,328.738831 1094.885010,358.290466 1064.831909,391.817902 
	C1010.125671,452.848358 968.277527,521.716736 940.606628,598.969604 
	C929.681946,629.469604 921.890442,660.722656 920.880127,693.351135 
	C920.351013,710.435913 921.913208,727.178101 928.837402,743.041626 
	C930.225525,746.221863 932.105713,749.187317 933.912842,752.916870 
	C936.263672,759.474548 938.460632,765.367126 940.657593,771.259705 
	C940.016296,771.654297 939.375000,772.048950 938.733765,772.443542 
	C924.997009,764.422119 916.753723,750.343872 904.529724,739.539673 
	C903.166199,742.951599 902.023438,745.811035 900.592163,748.888184 
	C896.516479,756.688965 892.654297,764.235779 888.954163,771.861206 
	C861.846985,827.725159 840.006287,885.728638 819.464233,944.228149 
	C795.884094,1011.379639 774.303284,1079.136353 763.644714,1149.780151 
	C760.869629,1168.173340 759.003235,1186.793457 758.210144,1205.372925 
	C757.230408,1228.323120 757.499084,1251.343506 757.783875,1274.326782 
	C758.187134,1306.864868 756.962463,1339.424927 759.847473,1371.938477 
	C761.465698,1390.174805 764.817688,1407.998779 769.474304,1425.626831 
	C784.356628,1481.965820 809.165894,1533.998657 838.605591,1583.973877 
	C844.647888,1594.231079 851.505737,1604.007935 858.000366,1614.362061 
	C869.912048,1632.663208 882.763123,1649.769653 900.695251,1662.984985 
	C901.567566,1660.210205 902.279419,1657.486572 901.818542,1654.978149 
	C899.160461,1640.510498 896.473389,1626.038940 893.313232,1611.674927 
	C890.217590,1597.604248 886.067993,1583.756836 883.220276,1569.641968 
	C876.510864,1536.386597 872.686279,1502.702148 870.153870,1468.907471 
	C868.782837,1450.611450 868.441772,1432.219116 868.209961,1413.863037 
	C868.032532,1399.806396 868.584656,1385.731812 869.135437,1371.677979 
	C869.511108,1362.092651 870.100525,1352.489502 871.199585,1342.964233 
	C873.372070,1324.135498 878.403137,1305.980713 885.134766,1288.285034 
	C886.674133,1284.238525 888.178955,1280.178711 889.995361,1275.336670 
	C891.705261,1278.231201 892.897888,1280.204712 894.047241,1282.203125 
	C902.715027,1297.274292 910.902222,1312.646484 920.138306,1327.360596 
	C937.373474,1354.818359 958.297424,1379.425537 981.102295,1402.371826 
	C996.215271,1417.578613 1011.493774,1432.697266 1027.628662,1446.790039 
	C1042.927002,1460.151978 1059.026001,1472.698975 1075.529175,1484.551514 
	C1092.474365,1496.721802 1110.262939,1507.766602 1130.422974,1514.160156 
	C1147.783936,1519.666260 1159.558350,1512.537598 1162.125854,1495.698608 
	C1164.010620,1483.338013 1163.189941,1471.031250 1160.593384,1459.147339 
	C1155.938599,1437.842285 1150.820557,1416.541992 1144.175659,1395.790527 
	C1133.364624,1362.028442 1121.072144,1328.742798 1109.581543,1295.195679 
	C1094.897461,1252.325073 1086.998779,1208.121216 1085.144531,1162.920044 
	C1084.281006,1141.868652 1084.659302,1120.751221 1084.981445,1099.671509 
	C1085.206909,1084.920288 1085.707520,1070.124268 1087.158447,1055.454468 
	C1088.570557,1041.177612 1090.572510,1026.863281 1093.687378,1012.870667 
	C1100.334106,983.011780 1111.844116,954.801208 1125.420898,927.486450 
	C1138.829834,900.509583 1153.280029,874.043945 1166.389526,846.926697 
	C1175.640747,827.790283 1181.127441,807.456177 1181.088989,785.846436 
	C1181.047974,762.767517 1175.266113,740.811340 1169.119019,718.859314 
	C1162.937622,696.785034 1156.926270,674.662659 1150.964355,652.528015 
	C1150.445679,650.602417 1150.851440,648.427856 1150.827881,646.368896 
	C1153.212891,646.723022 1155.986572,646.412354 1157.918091,647.541992 
	C1168.379028,653.660400 1179.136597,659.448730 1188.868164,666.606750 
	C1229.150635,696.236511 1271.783447,721.603027 1318.327637,740.158020 
	C1343.722778,750.281860 1369.735596,757.637512 1397.394043,755.886597 
	C1403.647583,755.490601 1410.282715,753.552795 1415.805542,750.582886 
	C1433.269531,741.191345 1446.071045,726.823364 1455.829102,709.738037 
	C1475.150391,675.908447 1490.271240,640.728027 1491.236938,600.854492 
	C1491.365845,595.532227 1493.161011,590.073608 1495.093872,585.026367 
	C1496.708130,580.810730 1500.222778,580.575684 1502.653809,584.394714 
	C1504.938232,587.983582 1506.793579,592.035339 1507.929810,596.135071 
	C1516.583740,627.359009 1514.918945,659.020935 1511.558960,690.732727 
	C1511.260010,693.553406 1511.101807,696.389099 1510.878174,699.217773 
	C1511.499878,699.532715 1512.121460,699.847656 1512.743164,700.162659 
	C1524.072144,687.379150 1536.290039,675.264893 1546.530396,661.661804 
	C1563.619141,638.960999 1573.170288,612.313904 1582.952148,585.923645 
	C1583.685669,584.438354 1584.419067,582.953064 1585.817383,580.121338 
	C1585.817383,587.587830 1585.893433,593.717285 1585.780151,599.843262 
	C1585.734863,602.293518 1585.103760,604.730896 1585.028320,607.182983 
	C1584.640869,619.782104 1584.546143,632.393066 1583.981079,644.983337 
	C1582.708618,673.331543 1582.007446,701.881104 1571.700195,728.801147 
	C1563.862305,749.271790 1554.645386,769.209961 1546.362549,789.515808 
	C1535.258545,816.737122 1524.371094,844.047974 1513.567139,871.390137 
	C1505.772827,891.115845 1506.210083,910.984497 1511.364624,931.481812 
	C1518.812988,961.100281 1530.406006,989.232910 1540.274780,1017.987976 
	C1555.055786,1061.056519 1565.118774,1105.294434 1571.982178,1150.259644 
	C1574.415649,1166.202393 1576.230347,1182.249023 1577.946045,1198.289062 
	C1579.559570,1213.372803 1580.885010,1228.495361 1581.938843,1243.628662 
	C1582.902954,1257.472534 1583.578003,1271.346924 1583.942749,1285.219482 
	C1584.484863,1305.823120 1584.968262,1326.438477 1584.850098,1347.045410 
	C1584.767578,1361.421021 1584.132812,1375.834717 1582.862427,1390.153076 
	C1580.712524,1414.381714 1578.749390,1438.683716 1575.080566,1462.706177 
	C1570.777588,1490.880493 1564.393066,1518.730225 1559.550781,1546.830811 
	C1555.236450,1571.866943 1551.343018,1596.996216 1548.166016,1622.198242 
	C1546.680420,1633.983765 1546.221680,1646.137329 1547.288818,1657.943970 
	C1548.536865,1671.752197 1551.397705,1685.543701 1559.865356,1697.944946 
	C1560.364014,1698.686890 1560.651611,1698.869629 1560.939087,1699.052368 
	C1561.226074,1699.208252 1561.464478,1699.419067 1561.738770,1700.253784 
	C1564.143188,1703.597656 1566.463501,1706.372437 1568.783691,1709.147217 
	C1568.783691,1709.147217 1568.880493,1709.148315 1568.798096,1709.482178 
	C1569.113159,1710.236450 1569.510620,1710.656982 1569.908081,1711.077393 
	C1569.908081,1711.077393 1570.126709,1711.375977 1570.175537,1711.816406 
	C1570.478516,1712.507568 1570.732544,1712.758301 1570.986694,1713.008911 
	C1573.654907,1716.827759 1576.363892,1720.618774 1578.983032,1724.471069 
	C1584.947876,1733.244385 1585.550171,1742.767944 1582.478271,1752.615356 
	C1575.655884,1774.484985 1560.075439,1788.280396 1540.151733,1797.936279 
	C1522.178223,1806.647095 1503.002686,1811.503784 1483.451782,1814.836304 
	C1469.127808,1817.277710 1454.733032,1819.761963 1440.267456,1820.799438 
	C1422.321167,1822.086426 1405.278564,1816.442139 1388.261963,1811.459595 
	C1367.865112,1805.487305 1347.561523,1799.134277 1326.983887,1793.857666 
	C1302.726929,1787.637451 1279.265991,1790.534546 1256.950439,1802.302734 
	C1245.930420,1808.114258 1234.821777,1813.815918 1223.450806,1818.889771 
	C1208.346558,1825.629761 1192.049316,1827.568481 1175.772095,1827.756836 
	C1135.793945,1828.219971 1095.804810,1828.252808 1055.825928,1827.861206 
	C1039.481201,1827.701050 1023.101562,1826.493530 1006.829468,1824.853638 
	C991.531067,1823.311768 976.364563,1820.492188 961.119934,1818.379639 
	C941.191467,1815.618042 922.649048,1808.244385 904.461182,1800.339844 
	C885.515930,1792.106201 867.262024,1782.281738 848.243347,1772.725220 
	C846.859985,1771.855957 845.939148,1771.414307 845.018250,1770.972778 
	C845.018250,1770.972778 845.000000,1771.000000 844.920044,1770.686768 
	C844.269897,1770.206787 843.699707,1770.040039 843.129578,1769.873169 
	C843.129578,1769.873169 843.048035,1769.994385 843.022766,1769.585083 
	C841.356018,1768.424316 839.714478,1767.672852 838.072998,1766.921387 
	C838.072998,1766.921387 838.000000,1767.000000 838.009644,1766.608887 
	C836.383606,1765.441284 834.747803,1764.665039 833.112061,1763.888672 
	C833.112061,1763.888672 833.017273,1763.996460 833.042480,1763.593262 
	C832.320618,1762.548096 831.636902,1761.808350 830.817566,1761.278076 
	C784.294067,1731.171509 742.326355,1695.580566 705.145935,1654.591187 
	C681.796204,1628.849487 658.784546,1602.662964 637.476562,1575.234741 
	C582.591858,1504.585449 536.188293,1428.388306 494.348083,1349.431519 
	C475.018646,1312.954834 456.690857,1275.933960 438.540771,1238.850586 
	C426.838776,1214.941772 415.593079,1190.758911 405.374603,1166.186523 
	C389.283600,1127.492554 373.681396,1088.574219 358.880219,1049.370361 
	C341.779694,1004.076477 327.855042,957.713623 316.240112,910.713623 
	C304.758270,864.252319 295.352875,817.358398 290.880402,769.635071 
	C288.555511,744.827515 285.999420,719.971619 285.388275,695.092346 
	C284.739258,668.669128 285.415497,642.137939 287.097778,615.754944 
	C288.648743,591.431152 291.430450,567.103821 295.232727,543.024719 
	C300.967529,506.708008 311.504944,471.749969 329.286957,439.270294 
	C345.676636,409.333801 367.961517,384.853302 396.625183,366.257355 
	C436.171173,340.601349 479.629242,331.924988 526.216980,335.726227 
	C556.176819,338.170746 584.920410,344.996490 612.432678,356.995789 
	C640.030151,369.032227 665.521362,384.097992 684.687317,408.100861 
	C686.918579,410.895172 689.447388,413.451965 691.838257,416.118896 
	C691.838257,416.118896 691.979675,416.063721 691.864258,416.416626 
	C692.155701,417.188660 692.562500,417.607727 692.969360,418.026794 
	C692.969360,418.026794 693.000000,418.000000 692.934265,418.319397 
	C693.232544,419.104950 693.596558,419.571045 693.960571,420.037140 
M1454.167847,857.519714 
	C1453.489624,860.590698 1452.292969,863.661499 1452.291992,866.732727 
	C1452.291138,869.343445 1452.927612,873.095337 1454.660278,874.221008 
	C1456.168335,875.200623 1460.100464,873.890381 1462.099609,872.420227 
	C1470.240112,866.433472 1475.004028,857.685486 1479.288208,848.877563 
	C1492.918091,820.854614 1503.443115,791.608276 1512.380249,761.795654 
	C1514.709839,754.024292 1516.235229,746.001831 1517.875977,738.042297 
	C1518.210083,736.422119 1517.402710,734.566589 1517.121582,732.819519 
	C1515.432129,733.177856 1513.547119,733.177063 1512.093140,733.968262 
	C1508.928589,735.690186 1505.983765,737.815796 1502.397217,740.174805 
	C1495.410034,746.307617 1488.586914,752.640137 1481.405640,758.536499 
	C1458.072754,777.694336 1430.905273,786.446106 1400.596680,787.240234 
	C1399.719238,787.430542 1398.841675,787.620850 1397.184448,787.986877 
	C1396.127319,788.121033 1395.070312,788.255188 1393.530884,787.691650 
	C1386.669434,787.556458 1379.806152,787.308044 1372.948364,787.414185 
	C1371.976440,787.429260 1371.031128,789.168701 1369.686401,790.958923 
	C1371.571899,809.261292 1372.975952,827.631042 1375.526855,845.840210 
	C1377.012207,856.443726 1379.466553,867.091064 1385.954712,876.884888 
	C1394.009888,891.412476 1407.218262,895.107788 1421.141235,886.175903 
	C1436.068726,876.599731 1446.258301,862.819702 1454.921021,846.731934 
	C1455.326416,847.452698 1456.141357,848.220032 1456.065552,848.886047 
	C1455.755371,851.613770 1455.173462,854.310608 1454.167847,857.519714 
z"/>
<path fill="#A08470" opacity="1.000000" stroke="none" 
	d="
M1582.641968,585.680054 
	C1573.170288,612.313904 1563.619141,638.960999 1546.530396,661.661804 
	C1536.290039,675.264893 1524.072144,687.379150 1512.743164,700.162659 
	C1512.121460,699.847656 1511.499878,699.532715 1510.878174,699.217773 
	C1511.101807,696.389099 1511.260010,693.553406 1511.558960,690.732727 
	C1514.918945,659.020935 1516.583740,627.359009 1507.929810,596.135071 
	C1506.793579,592.035339 1504.938232,587.983582 1502.653809,584.394714 
	C1500.222778,580.575684 1496.708130,580.810730 1495.093872,585.026367 
	C1493.161011,590.073608 1491.365845,595.532227 1491.236938,600.854492 
	C1490.271240,640.728027 1475.150391,675.908447 1455.829102,709.738037 
	C1446.071045,726.823364 1433.269531,741.191345 1415.805542,750.582886 
	C1410.282715,753.552795 1403.647583,755.490601 1397.394043,755.886597 
	C1369.735596,757.637512 1343.722778,750.281860 1318.327637,740.158020 
	C1271.783447,721.603027 1229.150635,696.236511 1188.868164,666.606750 
	C1179.136597,659.448730 1168.379028,653.660400 1157.918091,647.541992 
	C1155.986572,646.412354 1153.212891,646.723022 1150.827881,646.368896 
	C1150.851440,648.427856 1150.445679,650.602417 1150.964355,652.528015 
	C1156.926270,674.662659 1162.937622,696.785034 1169.119019,718.859314 
	C1175.266113,740.811340 1181.047974,762.767517 1181.088989,785.846436 
	C1181.127441,807.456177 1175.640747,827.790283 1166.389526,846.926697 
	C1153.280029,874.043945 1138.829834,900.509583 1125.420898,927.486450 
	C1111.844116,954.801208 1100.334106,983.011780 1093.687378,1012.870667 
	C1090.572510,1026.863281 1088.570557,1041.177612 1087.158447,1055.454468 
	C1085.707520,1070.124268 1085.206909,1084.920288 1084.981445,1099.671509 
	C1084.659302,1120.751221 1084.281006,1141.868652 1085.144531,1162.920044 
	C1086.998779,1208.121216 1094.897461,1252.325073 1109.581543,1295.195679 
	C1121.072144,1328.742798 1133.364624,1362.028442 1144.175659,1395.790527 
	C1150.820557,1416.541992 1155.938599,1437.842285 1160.593384,1459.147339 
	C1163.189941,1471.031250 1164.010620,1483.338013 1162.125854,1495.698608 
	C1159.558350,1512.537598 1147.783936,1519.666260 1130.422974,1514.160156 
	C1110.262939,1507.766602 1092.474365,1496.721802 1075.529175,1484.551514 
	C1059.026001,1472.698975 1042.927002,1460.151978 1027.628662,1446.790039 
	C1011.493774,1432.697266 996.215271,1417.578613 981.102295,1402.371826 
	C958.297424,1379.425537 937.373474,1354.818359 920.138306,1327.360596 
	C910.902222,1312.646484 902.715027,1297.274292 894.047241,1282.203125 
	C892.897888,1280.204712 891.705261,1278.231201 889.995361,1275.336670 
	C888.178955,1280.178711 886.674133,1284.238525 885.134766,1288.285034 
	C878.403137,1305.980713 873.372070,1324.135498 871.199585,1342.964233 
	C870.100525,1352.489502 869.511108,1362.092651 869.135437,1371.677979 
	C868.584656,1385.731812 868.032532,1399.806396 868.209961,1413.863037 
	C868.441772,1432.219116 868.782837,1450.611450 870.153870,1468.907471 
	C872.686279,1502.702148 876.510864,1536.386597 883.220276,1569.641968 
	C886.067993,1583.756836 890.217590,1597.604248 893.313232,1611.674927 
	C896.473389,1626.038940 899.160461,1640.510498 901.818542,1654.978149 
	C902.279419,1657.486572 901.567566,1660.210205 900.695251,1662.984985 
	C882.763123,1649.769653 869.912048,1632.663208 858.004639,1613.950684 
	C854.129761,1600.126953 850.420288,1587.021484 846.362610,1574.024780 
	C838.919739,1550.185791 830.921448,1526.515137 823.801086,1502.581909 
	C815.658142,1475.211426 808.800293,1447.507324 804.774597,1419.165649 
	C802.718994,1404.694214 799.723267,1390.337524 798.156128,1375.820679 
	C796.225708,1357.939453 794.443542,1339.957520 794.198486,1321.997314 
	C793.743103,1288.612427 792.726135,1255.177124 796.081238,1221.846436 
	C797.461304,1208.136475 798.461060,1194.380737 800.179199,1180.714355 
	C802.171814,1164.864380 804.389893,1149.023071 807.188843,1133.298828 
	C810.866211,1112.639160 814.485535,1091.921631 819.448303,1071.550293 
	C825.262268,1047.685181 831.925598,1023.987305 839.272034,1000.546326 
	C846.417053,977.748108 854.127686,955.062195 862.966248,932.875244 
	C875.540527,901.310303 889.184387,870.164490 902.739807,838.999817 
	C910.526062,821.098755 918.983582,803.487732 927.247131,785.796692 
	C932.121704,775.361023 932.212402,775.410645 923.114685,767.880310 
	C922.506592,767.376953 922.099304,766.632874 921.496582,766.120728 
	C914.636108,760.290466 907.755676,754.483582 900.880676,748.670532 
	C902.023438,745.811035 903.166199,742.951599 904.529724,739.539673 
	C916.753723,750.343872 924.997009,764.422119 938.733765,772.443542 
	C939.375000,772.048950 940.016296,771.654297 940.657593,771.259705 
	C938.460632,765.367126 936.263672,759.474548 934.098267,753.201904 
	C959.464905,772.697937 989.523499,780.227112 1020.359741,785.535400 
	C1025.068359,786.345947 1030.036621,785.648499 1034.884888,785.648499 
	C1035.119385,785.059326 1035.354004,784.470154 1035.588501,783.880981 
	C1033.792969,782.432434 1032.191895,780.576172 1030.166382,779.609558 
	C1023.264465,776.315674 1016.231750,773.291809 1009.214233,770.244995 
	C997.148560,765.006287 986.153259,758.180298 977.703552,747.945007 
	C965.207703,732.808655 962.979431,715.215942 966.457092,696.571228 
	C970.927673,672.603149 981.935791,651.340637 994.539978,630.843018 
	C1016.346069,595.380737 1042.763672,563.427429 1070.208374,532.284424 
	C1091.464233,508.164246 1112.750732,484.069916 1134.218384,460.138885 
	C1137.413696,456.576996 1138.471802,453.084045 1137.973877,448.469727 
	C1136.009888,430.273163 1134.056396,412.069122 1132.590942,393.828339 
	C1132.036133,386.923645 1132.146484,379.804260 1133.247192,372.991699 
	C1133.853027,369.241943 1136.411987,365.046448 1139.366943,362.583740 
	C1147.455933,355.842468 1156.978516,352.443054 1167.756226,351.889282 
	C1193.088257,350.587585 1214.557739,359.978302 1234.273071,374.714325 
	C1243.079590,381.296722 1253.532715,383.656921 1263.898560,385.827728 
	C1283.650513,389.964203 1303.742676,389.506439 1323.773438,388.956421 
	C1345.387207,388.362946 1366.678711,385.332611 1387.805664,380.601593 
	C1405.869751,376.556396 1424.135254,373.396851 1442.339111,369.991730 
	C1468.716064,365.057770 1495.417358,365.921143 1522.045898,366.031097 
	C1527.164551,366.052216 1532.389893,367.575043 1537.357300,369.089630 
	C1542.165039,370.555603 1545.271484,374.094604 1545.570801,379.640320 
	C1533.772095,373.737488 1521.323853,372.511169 1508.812256,373.336548 
	C1493.417358,374.352112 1478.017822,375.914124 1462.752930,378.146942 
	C1437.084961,381.901428 1411.756470,387.395447 1387.170532,395.861847 
	C1372.737671,400.831970 1358.892090,406.904358 1348.599121,418.843079 
	C1340.893921,427.780273 1337.464478,437.975708 1339.748779,449.798492 
	C1343.135986,467.329254 1354.138428,479.920074 1367.102905,490.960175 
	C1392.222900,512.351379 1421.821045,525.497620 1452.601074,536.305420 
	C1460.997070,539.253479 1469.561890,541.761658 1478.312256,537.900452 
	C1483.462524,535.627808 1488.763306,533.325745 1493.279175,530.048767 
	C1515.657837,513.809387 1530.044922,491.374359 1540.920044,466.502594 
	C1544.822021,457.578644 1547.622803,448.173126 1550.926270,438.987427 
	C1560.906128,466.073486 1572.241455,492.770294 1575.802856,521.761841 
	C1577.462036,535.268982 1578.622803,548.837402 1580.002930,562.378723 
	C1580.786011,570.063965 1581.555908,577.750549 1582.641968,585.680054 
M1270.013428,398.482544 
	C1253.658936,390.634003 1237.488403,382.367706 1220.895752,375.060120 
	C1205.770874,368.398987 1189.943481,363.754700 1173.133301,364.081787 
	C1156.556763,364.404266 1146.048828,372.853699 1143.465576,388.756165 
	C1142.467529,394.899536 1142.656006,401.463013 1143.591553,407.640015 
	C1145.005127,416.973602 1147.482666,426.151184 1149.623657,435.368164 
	C1152.984375,449.835449 1151.489624,463.415344 1142.829956,475.888123 
	C1140.751953,478.880859 1139.065552,482.174377 1137.473755,485.462524 
	C1136.771973,486.912140 1136.756470,488.694000 1136.151245,491.712372 
	C1139.503052,490.159332 1141.737305,489.506378 1143.523560,488.227722 
	C1149.877075,483.679749 1156.387817,479.276123 1162.278198,474.170868 
	C1179.587402,459.168945 1198.105957,446.102905 1218.501099,435.525177 
	C1237.864624,425.482574 1258.610962,419.491333 1279.211182,412.953064 
	C1282.743164,411.832031 1286.263062,410.673157 1291.037964,409.127319 
	C1283.377563,405.257019 1277.024048,402.047058 1270.013428,398.482544 
z"/>
<path fill="#45352F" opacity="1.000000" stroke="none" 
	d="
M1550.938232,438.556366 
	C1547.622803,448.173126 1544.822021,457.578644 1540.920044,466.502594 
	C1530.044922,491.374359 1515.657837,513.809387 1493.279175,530.048767 
	C1488.763306,533.325745 1483.462524,535.627808 1478.312256,537.900452 
	C1469.561890,541.761658 1460.997070,539.253479 1452.601074,536.305420 
	C1421.821045,525.497620 1392.222900,512.351379 1367.102905,490.960175 
	C1354.138428,479.920074 1343.135986,467.329254 1339.748779,449.798492 
	C1337.464478,437.975708 1340.893921,427.780273 1348.599121,418.843079 
	C1358.892090,406.904358 1372.737671,400.831970 1387.170532,395.861847 
	C1411.756470,387.395447 1437.084961,381.901428 1462.752930,378.146942 
	C1478.017822,375.914124 1493.417358,374.352112 1508.812256,373.336548 
	C1521.323853,372.511169 1533.772095,373.737488 1545.503052,380.022949 
	C1551.611084,385.307709 1553.251099,392.188812 1552.998535,399.475159 
	C1552.551514,412.366730 1551.657227,425.242798 1550.938232,438.556366 
z"/>
<path fill="#A08471" opacity="1.000000" stroke="none" 
	d="
M691.906006,415.758545 
	C689.447388,413.451965 686.918579,410.895172 684.687317,408.100861 
	C665.521362,384.097992 640.030151,369.032227 612.432678,356.995789 
	C584.920410,344.996490 556.176819,338.170746 526.216980,335.726227 
	C479.629242,331.924988 436.171173,340.601349 396.625183,366.257355 
	C367.961517,384.853302 345.676636,409.333801 329.286957,439.270294 
	C311.504944,471.749969 300.967529,506.708008 295.232727,543.024719 
	C291.430450,567.103821 288.648743,591.431152 287.097778,615.754944 
	C285.415497,642.137939 284.739258,668.669128 285.388275,695.092346 
	C285.999420,719.971619 288.555511,744.827515 290.880402,769.635071 
	C295.352875,817.358398 304.758270,864.252319 316.240112,910.713623 
	C327.855042,957.713623 341.779694,1004.076477 358.880219,1049.370361 
	C373.681396,1088.574219 389.283600,1127.492554 405.374603,1166.186523 
	C415.593079,1190.758911 426.838776,1214.941772 438.540771,1238.850586 
	C456.690857,1275.933960 475.018646,1312.954834 494.348083,1349.431519 
	C536.188293,1428.388306 582.591858,1504.585449 637.476562,1575.234741 
	C658.784546,1602.662964 681.796204,1628.849487 705.145935,1654.591187 
	C742.326355,1695.580566 784.294067,1731.171509 830.817566,1761.278076 
	C831.636902,1761.808350 832.320618,1762.548096 833.081909,1763.533447 
	C829.200989,1761.766479 825.160706,1759.884277 821.432312,1757.511841 
	C755.950195,1715.847778 698.718750,1664.924561 649.754395,1604.676758 
	C594.751160,1536.998413 547.968506,1463.831299 505.122040,1388.063354 
	C448.167908,1287.347778 399.049194,1182.920166 357.997894,1074.731201 
	C331.353973,1004.512207 308.735687,933.045288 292.445984,859.666382 
	C286.524078,832.990356 282.582703,806.006042 280.916931,778.719299 
	C279.813446,760.643494 278.842590,742.558594 277.963226,724.470459 
	C277.463867,714.198669 277.167816,703.914185 276.954742,693.631836 
	C276.275696,660.865173 275.655121,628.097229 275.054688,595.328979 
	C274.010712,538.357971 287.471832,484.475067 313.270355,434.208649 
	C342.552216,377.155334 388.583557,339.621307 452.077484,325.735352 
	C494.075348,316.550568 535.500061,320.935028 576.228943,333.574677 
	C602.919800,341.857788 628.084778,353.521973 651.509521,368.804199 
	C669.399109,380.475311 682.370300,396.492950 691.906006,415.758545 
z"/>
<path fill="#A08470" opacity="1.000000" stroke="none" 
	d="
M1402.336914,281.856689 
	C1401.139648,280.795380 1400.579346,279.489655 1399.588989,278.838043 
	C1379.925537,265.901184 1359.919312,253.436844 1336.169434,249.660248 
	C1323.578735,247.658112 1310.767944,246.705612 1298.018188,246.129257 
	C1285.049316,245.543045 1272.031738,245.869705 1259.038330,246.030579 
	C1235.607788,246.320663 1213.286377,251.410812 1192.042358,261.452820 
	C1147.502686,282.506561 1107.278198,310.009735 1069.573242,341.579834 
	C1036.486084,369.283447 1009.002808,401.858978 984.241943,436.883667 
	C979.896118,443.030884 975.364746,445.349884 967.871582,445.122894 
	C950.229126,444.588470 932.547485,444.732819 914.899536,445.231171 
	C904.806274,445.516205 894.671448,446.550415 884.694763,448.128235 
	C874.292358,449.773376 867.703430,456.293671 865.878906,466.822235 
	C864.634583,474.002930 863.603271,481.271027 863.207581,488.539825 
	C861.168518,525.993835 866.516296,562.128357 882.620544,596.383057 
	C891.344971,614.940369 896.475647,634.605164 896.612000,655.127441 
	C896.777344,680.012695 889.248474,702.937439 876.229675,724.060547 
	C848.228088,769.493103 825.231628,817.522034 802.443604,865.673950 
	C787.473755,897.305603 774.875244,929.841614 764.074890,963.101501 
	C763.656921,964.388855 762.961121,965.585999 762.394775,966.825134 
	C761.885803,966.740479 761.376892,966.655823 760.867920,966.571167 
	C760.867920,950.700195 760.867920,934.829163 761.049316,918.394775 
	C761.421448,917.466797 761.612183,917.102173 761.802856,916.737610 
	C768.510132,901.520569 775.334961,886.354065 781.902832,871.077148 
	C802.837036,822.384033 827.675415,775.672485 852.966858,729.149658 
	C863.116394,710.479919 871.299011,690.744690 880.486694,671.546936 
	C887.178711,657.563843 887.474609,643.256714 882.541016,628.841064 
	C875.330627,607.772888 867.994324,586.742310 860.315979,565.841064 
	C851.926880,543.005127 845.373352,519.767639 847.323914,495.228241 
	C848.478821,480.698425 851.199707,466.250946 853.939331,451.904480 
	C855.684387,442.766418 860.510742,438.958374 869.894226,438.116058 
	C878.172363,437.372925 886.508179,437.041656 894.822144,436.973969 
	C915.315430,436.807159 935.812073,436.780518 956.304504,436.983307 
	C960.262573,437.022461 962.580444,435.666351 964.948425,432.629547 
	C980.203674,413.065582 994.864380,392.956665 1011.238953,374.364197 
	C1043.238281,338.030670 1080.755737,307.886719 1120.956421,281.076996 
	C1143.425049,266.092712 1166.705811,252.513107 1191.924683,242.567276 
	C1205.059570,237.387115 1218.849854,234.565201 1232.834839,234.290741 
	C1260.959961,233.738770 1289.111084,233.713409 1317.237061,234.235397 
	C1341.630127,234.688095 1363.158936,244.410767 1383.322144,257.343384 
	C1392.699585,263.357971 1401.761230,269.872528 1410.844971,276.330688 
	C1412.709473,277.656219 1414.034912,279.740112 1415.608887,281.474457 
	C1415.358032,281.953644 1415.107178,282.432831 1414.856323,282.912018 
	C1410.828735,282.580292 1406.801147,282.248566 1402.336914,281.856689 
z"/>
<path fill="#9E8572" opacity="1.000000" stroke="none" 
	d="
M1568.879028,1708.794434 
	C1566.463501,1706.372437 1564.143188,1703.597656 1561.856689,1700.463013 
	C1564.251709,1702.882690 1566.613037,1705.662231 1568.879028,1708.794434 
z"/>
<path fill="#856F61" opacity="1.000000" stroke="none" 
	d="
M760.953125,905.590942 
	C760.515320,898.952576 760.205078,891.856995 760.016357,884.292419 
	C760.452148,890.926880 760.766418,898.030273 760.953125,905.590942 
z"/>
<path fill="#856F61" opacity="1.000000" stroke="none" 
	d="
M761.761169,916.249451 
	C761.612183,917.102173 761.421448,917.466797 761.030029,917.928284 
	C760.669128,914.885681 760.508911,911.746216 760.609070,908.308716 
	C761.152832,910.594238 761.436157,913.177734 761.761169,916.249451 
z"/>
<path fill="#A08471" opacity="1.000000" stroke="none" 
	d="
M833.154663,1764.230957 
	C834.747803,1764.665039 836.383606,1765.441284 838.044006,1766.567627 
	C836.444885,1766.136108 834.821106,1765.354614 833.154663,1764.230957 
z"/>
<path fill="#A08471" opacity="1.000000" stroke="none" 
	d="
M838.139893,1767.258179 
	C839.714478,1767.672852 841.356018,1768.424316 843.051270,1769.518066 
	C841.472290,1769.105225 839.839539,1768.350098 838.139893,1767.258179 
z"/>
<path fill="#A08471" opacity="1.000000" stroke="none" 
	d="
M845.099731,1771.290894 
	C845.939148,1771.414307 846.859985,1771.855957 847.901367,1772.614136 
	C847.074951,1772.490112 846.128052,1772.049561 845.099731,1771.290894 
z"/>
<path fill="#9E8572" opacity="1.000000" stroke="none" 
	d="
M1569.957520,1710.757812 
	C1569.510620,1710.656982 1569.113159,1710.236450 1568.762695,1709.515137 
	C1569.208740,1709.622314 1569.607910,1710.030273 1569.957520,1710.757812 
z"/>
<path fill="#A08471" opacity="1.000000" stroke="none" 
	d="
M694.038574,419.719177 
	C693.596558,419.571045 693.232544,419.104950 692.917725,418.330994 
	C693.350159,418.482483 693.733398,418.941864 694.038574,419.719177 
z"/>
<path fill="#A08471" opacity="1.000000" stroke="none" 
	d="
M843.197998,1770.184937 
	C843.699707,1770.040039 844.269897,1770.206787 844.931213,1770.674561 
	C844.437073,1770.815918 843.851746,1770.656250 843.197998,1770.184937 
z"/>
<path fill="#A08471" opacity="1.000000" stroke="none" 
	d="
M693.013611,417.707123 
	C692.562500,417.607727 692.155701,417.188660 691.801880,416.459961 
	C692.255920,416.562714 692.656921,416.975098 693.013611,417.707123 
z"/>
<path fill="#856F61" opacity="1.000000" stroke="none" 
	d="
M759.797424,860.810852 
	C759.380554,860.942932 759.170532,860.709229 759.085815,860.121948 
	C759.353088,860.104004 759.617432,860.329529 759.797424,860.810852 
z"/>
<path fill="#9E8572" opacity="1.000000" stroke="none" 
	d="
M1560.916748,1698.784912 
	C1560.651611,1698.869629 1560.364014,1698.686890 1560.048828,1698.234375 
	C1560.312134,1698.148682 1560.603149,1698.333008 1560.916748,1698.784912 
z"/>
<path fill="#9E8572" opacity="1.000000" stroke="none" 
	d="
M1570.994873,1712.734863 
	C1570.732544,1712.758301 1570.478516,1712.507568 1570.256104,1711.983154 
	C1570.526245,1711.959839 1570.764648,1712.210327 1570.994873,1712.734863 
z"/>
<path fill="#FDFDFD" opacity="1.000000" stroke="none" 
	d="
M900.592102,748.888123 
	C907.755676,754.483582 914.636108,760.290466 921.496582,766.120728 
	C922.099304,766.632874 922.506592,767.376953 923.114685,767.880310 
	C932.212402,775.410645 932.121704,775.361023 927.247131,785.796692 
	C918.983582,803.487732 910.526062,821.098755 902.739807,838.999817 
	C889.184387,870.164490 875.540527,901.310303 862.966248,932.875244 
	C854.127686,955.062195 846.417053,977.748108 839.272034,1000.546326 
	C831.925598,1023.987305 825.262268,1047.685181 819.448303,1071.550293 
	C814.485535,1091.921631 810.866211,1112.639160 807.188843,1133.298828 
	C804.389893,1149.023071 802.171814,1164.864380 800.179199,1180.714355 
	C798.461060,1194.380737 797.461304,1208.136475 796.081238,1221.846436 
	C792.726135,1255.177124 793.743103,1288.612427 794.198486,1321.997314 
	C794.443542,1339.957520 796.225708,1357.939453 798.156128,1375.820679 
	C799.723267,1390.337524 802.718994,1404.694214 804.774597,1419.165649 
	C808.800293,1447.507324 815.658142,1475.211426 823.801086,1502.581909 
	C830.921448,1526.515137 838.919739,1550.185791 846.362610,1574.024780 
	C850.420288,1587.021484 854.129761,1600.126953 857.992004,1613.594727 
	C851.505737,1604.007935 844.647888,1594.231079 838.605591,1583.973877 
	C809.165894,1533.998657 784.356628,1481.965820 769.474304,1425.626831 
	C764.817688,1407.998779 761.465698,1390.174805 759.847473,1371.938477 
	C756.962463,1339.424927 758.187134,1306.864868 757.783875,1274.326782 
	C757.499084,1251.343506 757.230408,1228.323120 758.210144,1205.372925 
	C759.003235,1186.793457 760.869629,1168.173340 763.644714,1149.780151 
	C774.303284,1079.136353 795.884094,1011.379639 819.464233,944.228149 
	C840.006287,885.728638 861.846985,827.725159 888.954163,771.861206 
	C892.654297,764.235779 896.516479,756.688965 900.592102,748.888123 
z"/>
<path fill="#FDFDFD" opacity="1.000000" stroke="none" 
	d="
M1394.013184,788.389343 
	C1395.070312,788.255188 1396.127319,788.121033 1397.955322,788.000305 
	C1399.494995,787.887451 1400.263794,787.761108 1401.032471,787.634766 
	C1430.905273,786.446106 1458.072754,777.694336 1481.405640,758.536499 
	C1488.586914,752.640137 1495.410034,746.307617 1503.041016,740.136597 
	C1503.276733,742.489807 1503.228394,745.013611 1502.404297,747.251892 
	C1494.716797,768.132568 1487.209351,789.088562 1479.007446,809.767944 
	C1473.195312,824.422424 1466.439209,838.705078 1459.978760,853.097229 
	C1459.036133,855.196838 1458.239136,858.140747 1454.691528,857.018799 
	C1455.173462,854.310608 1455.755371,851.613770 1456.065552,848.886047 
	C1456.141357,848.220032 1455.326416,847.452698 1454.137573,846.665466 
	C1453.236084,845.118652 1452.894409,843.616699 1453.035400,842.161438 
	C1454.136230,830.795105 1455.344971,819.439148 1456.484863,808.076477 
	C1456.795288,804.982483 1456.984985,801.876404 1457.230103,798.775879 
	C1453.079468,806.338074 1450.222656,814.101318 1446.936157,821.678223 
	C1440.733398,835.978638 1434.586304,850.317383 1427.830566,864.358521 
	C1423.306030,873.761963 1414.999634,878.091858 1404.636108,877.816101 
	C1398.368896,877.649353 1392.121094,876.762756 1385.864502,876.199585 
	C1379.466553,867.091064 1377.012207,856.443726 1375.526855,845.840210 
	C1372.975952,827.631042 1371.571899,809.261292 1370.341797,790.586182 
	C1378.669312,789.605408 1386.341187,788.997375 1394.013184,788.389343 
M1456.811523,845.542297 
	C1456.622803,845.464966 1456.433960,845.387695 1456.245239,845.310425 
	C1456.300659,845.521301 1456.355957,845.732117 1456.811523,845.542297 
z"/>
<path fill="#A08471" opacity="1.000000" stroke="none" 
	d="
M1454.429688,857.269287 
	C1458.239136,858.140747 1459.036133,855.196838 1459.978760,853.097229 
	C1466.439209,838.705078 1473.195312,824.422424 1479.007446,809.767944 
	C1487.209351,789.088562 1494.716797,768.132568 1502.404297,747.251892 
	C1503.228394,745.013611 1503.276733,742.489807 1503.316895,739.937439 
	C1505.983765,737.815796 1508.928589,735.690186 1512.093140,733.968262 
	C1513.547119,733.177063 1515.432129,733.177856 1517.121582,732.819580 
	C1517.402710,734.566589 1518.210083,736.422119 1517.875977,738.042297 
	C1516.235229,746.001831 1514.709839,754.024292 1512.380249,761.795654 
	C1503.443115,791.608276 1492.918091,820.854614 1479.288208,848.877563 
	C1475.004028,857.685486 1470.240112,866.433472 1462.099609,872.420227 
	C1460.100464,873.890381 1456.168335,875.200623 1454.660278,874.221008 
	C1452.927612,873.095337 1452.291138,869.343445 1452.291992,866.732727 
	C1452.292969,863.661499 1453.489624,860.590698 1454.429688,857.269287 
z"/>
<path fill="#A18572" opacity="1.000000" stroke="none" 
	d="
M1385.909668,876.542236 
	C1392.121094,876.762756 1398.368896,877.649353 1404.636108,877.816101 
	C1414.999634,878.091858 1423.306030,873.761963 1427.830566,864.358521 
	C1434.586304,850.317383 1440.733398,835.978638 1446.936157,821.678223 
	C1450.222656,814.101318 1453.079468,806.338074 1457.230103,798.775879 
	C1456.984985,801.876404 1456.795288,804.982483 1456.484863,808.076477 
	C1455.344971,819.439148 1454.136230,830.795105 1453.035400,842.161438 
	C1452.894409,843.616699 1453.236084,845.118652 1453.698975,846.858398 
	C1446.258301,862.819702 1436.068726,876.599731 1421.141235,886.175903 
	C1407.218262,895.107788 1394.009888,891.412476 1385.909668,876.542236 
z"/>
<path fill="#A89180" opacity="1.000000" stroke="none" 
	d="
M1393.771973,788.040527 
	C1386.341187,788.997375 1378.669312,789.605408 1370.535400,790.161743 
	C1371.031128,789.168701 1371.976440,787.429260 1372.948364,787.414185 
	C1379.806152,787.308044 1386.669434,787.556458 1393.771973,788.040527 
z"/>
<path fill="#7A6458" opacity="1.000000" stroke="none" 
	d="
M1400.814575,787.437500 
	C1400.263794,787.761108 1399.494995,787.887451 1398.345215,787.912476 
	C1398.841675,787.620850 1399.719238,787.430542 1400.814575,787.437500 
z"/>
<path fill="#45352F" opacity="1.000000" stroke="none" 
	d="
M1270.342041,398.659821 
	C1277.024048,402.047058 1283.377563,405.257019 1291.037964,409.127319 
	C1286.263062,410.673157 1282.743164,411.832031 1279.211182,412.953064 
	C1258.610962,419.491333 1237.864624,425.482574 1218.501099,435.525177 
	C1198.105957,446.102905 1179.587402,459.168945 1162.278198,474.170868 
	C1156.387817,479.276123 1149.877075,483.679749 1143.523560,488.227722 
	C1141.737305,489.506378 1139.503052,490.159332 1136.151245,491.712372 
	C1136.756470,488.694000 1136.771973,486.912140 1137.473755,485.462524 
	C1139.065552,482.174377 1140.751953,478.880859 1142.829956,475.888123 
	C1151.489624,463.415344 1152.984375,449.835449 1149.623657,435.368164 
	C1147.482666,426.151184 1145.005127,416.973602 1143.591553,407.640015 
	C1142.656006,401.463013 1142.467529,394.899536 1143.465576,388.756165 
	C1146.048828,372.853699 1156.556763,364.404266 1173.133301,364.081787 
	C1189.943481,363.754700 1205.770874,368.398987 1220.895752,375.060120 
	C1237.488403,382.367706 1253.658936,390.634003 1270.342041,398.659821 
z"/>
<path fill="#45352F" opacity="1.000000" stroke="none" 
	d="
M1456.611328,845.742676 
	C1456.355957,845.732117 1456.300659,845.521301 1456.245239,845.310425 
	C1456.433960,845.387695 1456.622803,845.464966 1456.611328,845.742676 
z"/>
</svg>