<svg version="1.1" id="Layer_1" xmlns="http://www.w3.org/2000/svg" xmlns:xlink="http://www.w3.org/1999/xlink" x="0px" y="0px"
	 width="100%" viewBox="0 0 512 512" enable-background="new 0 0 512 512" xml:space="preserve">
<path fill="#ffffff" opacity="1.000000" stroke="none" 
	d="
M513.000000,289.000000 
	C513.000000,363.632660 513.000000,438.265289 513.000000,512.948975 
	C342.445099,512.948975 171.890167,512.948975 1.000000,512.948975 
	C1.000000,438.312775 1.000000,363.625031 1.215768,288.197632 
	C1.712429,287.045898 2.123914,286.671539 2.255338,286.216370 
	C7.079386,269.507233 25.590668,254.584167 43.697102,256.698608 
	C49.405693,257.365295 50.822571,254.301849 51.581966,249.697510 
	C53.901211,235.635513 56.324478,221.590332 58.776978,207.550781 
	C63.111160,182.739349 67.391418,157.917389 71.979729,133.152740 
	C72.633530,129.623978 71.358932,128.544815 68.586578,127.965210 
	C64.209724,127.050156 59.829552,126.109138 55.410721,125.446129 
	C47.885735,124.317085 44.126667,121.439674 42.845737,115.465393 
	C41.777290,110.482132 44.760525,105.576401 50.954571,101.907600 
	C78.550880,85.562073 106.128296,69.184654 133.721634,52.834095 
	C153.023193,41.396851 172.434769,30.141327 191.608719,18.494312 
	C201.106598,12.724923 211.017593,7.608980 220.000000,1.000000 
	C223.692902,1.000000 227.385818,1.000000 231.792984,1.218714 
	C234.207748,3.252594 236.009232,4.984200 237.591873,6.896888 
	C245.948456,16.996222 254.263290,27.130207 262.567352,37.272858 
	C275.596344,53.186596 288.587006,69.131760 301.627716,85.035889 
	C314.460510,100.686424 327.354828,116.286484 340.184204,131.939789 
	C347.651215,141.050385 355.164612,150.127686 362.412170,159.411209 
	C365.458252,163.312973 365.095367,167.852371 362.892059,172.135300 
	C360.959473,175.891983 357.731750,177.306625 353.506927,177.436813 
	C347.276245,177.628799 341.259979,176.276062 335.300079,175.024826 
	C331.329498,174.191238 330.057892,175.622040 329.478546,178.872131 
	C326.775116,194.038010 324.084351,209.206284 321.439728,224.382523 
	C316.377197,253.433487 311.374573,282.494904 306.283539,311.540833 
	C305.337494,316.938416 301.545868,320.934204 296.995911,321.261719 
	C293.867554,321.486877 290.717224,321.525726 287.549255,320.933472 
	C280.227173,319.564636 272.852936,318.476562 265.508240,317.225250 
	C264.176270,316.998352 262.928864,316.584076 261.843689,317.845520 
	C259.359558,320.733215 259.555664,328.246399 262.313324,331.018494 
	C273.479034,342.242493 284.589233,353.523926 295.898956,364.601349 
	C300.379883,368.990204 301.335358,373.845917 299.438568,379.578888 
	C296.985107,386.994263 294.575073,394.424011 292.135956,401.844147 
	C291.737885,403.055176 290.820038,404.278137 292.870514,405.779297 
	C303.750458,397.950562 314.768280,390.017944 325.792633,382.094452 
	C327.716034,380.711975 327.288910,379.084595 326.540161,377.233734 
	C322.493073,367.229919 318.484253,357.210297 314.527496,347.170380 
	C311.442108,339.341431 307.752472,331.910004 311.535004,322.835632 
	C319.652710,303.361084 326.971710,283.554596 334.723846,263.925934 
	C336.663483,259.014679 340.132385,256.522949 345.855530,256.543396 
	C388.853424,256.696960 431.852142,256.643127 474.850525,256.599823 
	C480.344238,256.594299 485.277954,258.414642 490.041718,260.800476 
	C501.904877,266.741852 508.906586,276.701660 513.000000,289.000000 
M450.499756,490.620697 
	C461.331848,490.620514 472.163940,490.624298 482.996033,490.618774 
	C490.583923,490.614868 490.622894,490.586029 490.623596,483.177460 
	C490.629303,422.679871 490.634705,362.182281 490.625946,301.684692 
	C490.623962,287.973999 481.928253,279.404968 468.057648,279.400848 
	C432.225769,279.390167 396.393219,279.489838 360.562714,279.266815 
	C355.555206,279.235687 353.073761,280.908569 351.377563,285.490875 
	C346.478729,298.725220 341.337799,311.874451 336.026062,324.949097 
	C334.147583,329.572845 334.211945,333.676941 336.143921,338.302887 
	C341.838989,351.939331 347.212219,365.711945 352.584259,379.480835 
	C355.081055,385.880371 353.524139,391.187042 348.014038,395.166962 
	C330.384460,407.900757 312.694397,420.550903 295.022614,433.226288 
	C288.950806,437.581451 282.822968,441.859741 276.797211,446.277496 
	C272.108063,449.715332 266.991150,450.693756 261.784790,448.239349 
	C256.313385,445.660065 256.243011,440.385254 256.714752,435.261688 
	C256.894409,433.310577 257.561523,431.379761 258.182526,429.497803 
	C263.339142,413.870453 268.425476,398.218079 273.804718,382.667267 
	C275.072449,379.002441 274.596497,376.591614 271.793854,373.860718 
	C260.932983,363.277832 250.280548,352.480286 239.598450,341.715057 
	C235.608551,337.694092 233.944351,333.185089 235.372192,327.251404 
	C238.786255,313.063599 241.522354,298.713409 244.870041,284.508423 
	C245.831573,280.428436 244.531937,279.269958 240.844696,279.399506 
	C239.846207,279.434601 238.845078,279.389374 237.845154,279.389404 
	C174.014374,279.391571 110.183601,279.392426 46.352821,279.399139 
	C31.707420,279.400696 23.380022,287.670013 23.378414,302.232330 
	C23.371777,362.396576 23.375656,422.560852 23.375868,482.725098 
	C23.375872,483.558411 23.442369,484.397369 23.368895,485.224030 
	C23.033422,488.998260 24.552858,490.925232 28.517929,490.631439 
	C30.009460,490.520935 31.516430,490.621216 33.016361,490.621216 
	C171.844147,490.621277 310.671936,490.620911 450.499756,490.620697 
M292.789581,111.614517 
	C292.321228,110.929726 291.901550,110.205040 291.377441,109.565971 
	C277.806366,93.017723 264.237152,76.467941 250.639648,59.941429 
	C242.520355,50.073177 234.255737,40.322281 226.272247,30.345932 
	C224.068710,27.592321 222.140533,27.696186 219.509384,29.286263 
	C215.103180,31.949055 210.601089,34.452599 206.173706,37.081036 
	C174.633804,55.805523 143.098312,74.537430 111.571831,93.284470 
	C104.077339,97.741020 96.622292,102.263885 88.207855,107.322067 
	C97.862778,110.835274 98.409325,117.967049 97.142357,125.316048 
	C89.937607,167.107040 82.514839,208.860443 75.153679,250.624435 
	C74.189873,256.092621 74.542465,256.592438 80.250481,256.610443 
	C91.912788,256.647217 103.577003,256.750153 115.237251,256.591705 
	C129.199478,256.402039 126.670586,259.271637 129.477692,244.292801 
	C135.092010,214.334641 140.371780,184.309647 145.372116,154.242783 
	C147.183456,143.351227 153.839584,141.418274 162.589691,142.904266 
	C189.018204,147.392609 215.409210,152.101944 241.813293,156.734039 
	C250.166534,158.199463 255.231033,163.903534 254.037109,170.800140 
	C249.404114,197.562576 244.770264,224.325699 239.891403,251.043777 
	C239.132126,255.201752 240.266251,256.658203 244.226547,256.629517 
	C249.890778,256.588470 255.556778,256.560059 261.219940,256.653290 
	C268.688202,256.776184 273.490631,262.821594 271.989319,270.077881 
	C271.083282,274.457001 270.137024,278.828033 269.263611,283.213623 
	C267.073883,294.208862 267.120087,293.997772 278.144104,295.673279 
	C287.303040,297.065277 285.163116,295.739990 286.487823,288.885529 
	C289.976562,270.833801 292.916229,252.676147 296.091125,234.563568 
	C300.267181,210.739716 304.577515,186.938522 308.584717,163.086365 
	C310.146820,153.788376 312.077301,151.252457 321.134674,149.140839 
	C321.385620,149.082336 321.550568,148.654892 322.141327,147.919037 
	C312.994446,135.729782 303.112457,123.955811 292.789581,111.614517 
M155.326157,232.396759 
	C154.302414,238.270142 153.272736,244.142517 152.256516,250.017197 
	C151.176956,256.258057 151.428787,256.603027 157.640564,256.612427 
	C174.466370,256.637878 191.298889,256.358002 208.114365,256.776703 
	C213.669373,256.915039 215.737854,254.968567 216.607162,249.822556 
	C220.386841,227.448318 224.391602,205.111954 228.362000,182.770248 
	C228.914825,179.659424 227.699036,177.979996 224.690002,177.451401 
	C207.570053,174.443909 190.419312,171.598572 173.346527,168.343994 
	C168.323547,167.386490 166.245941,168.671570 165.408524,173.767975 
	C162.240097,193.050110 158.744156,212.278412 155.326157,232.396759 
z"/>
</svg>