<svg version="1.1" id="Layer_1" xmlns="http://www.w3.org/2000/svg" xmlns:xlink="http://www.w3.org/1999/xlink" x="0px" y="0px"
	 width="100%" viewBox="0 0 480 480" enable-background="new 0 0 480 480" xml:space="preserve">
<path fill="#242021" opacity="1.000000" stroke="none" 
	d="
M282.031860,437.999878 
	C270.594116,445.134399 259.551361,452.221802 248.343460,459.037689 
	C243.423645,462.029602 238.200897,461.859711 233.237549,458.774780 
	C196.141235,435.717896 159.058929,412.638428 121.960907,389.584259 
	C102.070091,377.223389 82.209892,364.811615 62.218365,352.615448 
	C56.878609,349.357849 54.975151,344.831970 54.980408,338.905182 
	C55.021935,292.086426 55.003483,245.267548 55.003479,198.448715 
	C55.003479,180.121063 55.083881,161.792862 54.959629,143.466049 
	C54.916443,137.096481 57.100674,132.494247 62.750633,129.037262 
	C89.243187,112.827553 115.598709,96.393425 141.971588,79.988678 
	C165.522583,65.339256 189.028564,50.617466 212.562515,35.940651 
	C219.609009,31.546143 226.589172,27.033337 233.776413,22.880537 
	C238.739273,20.012991 243.899948,20.203569 248.883133,23.292986 
	C293.624603,51.031330 338.379242,78.748444 383.123688,106.481979 
	C395.543976,114.180359 408.032806,121.773384 420.322571,129.675430 
	C429.432281,135.532761 429.461395,146.299698 420.289764,152.086349 
	C394.165405,168.569016 367.899231,184.827057 341.679688,201.158691 
	C322.509460,213.099457 303.320740,225.010468 284.152924,236.955048 
	C282.384979,238.056793 280.708862,239.306015 278.218323,241.016953 
	C285.150787,245.414780 291.218109,249.331879 297.352814,253.140350 
	C307.933624,259.708954 318.657715,266.053711 329.102783,272.829834 
	C332.458252,275.006653 334.754822,274.782227 338.046112,272.705627 
	C360.375793,258.617035 382.783875,244.648880 405.317444,230.888824 
	C416.699310,223.938553 426.873932,229.815979 426.963013,243.224106 
	C427.091370,262.550598 426.996979,281.878601 426.997192,301.205933 
	C426.997345,313.868683 426.966248,326.531494 427.010376,339.194092 
	C427.030334,344.921021 425.114655,349.318970 419.961212,352.493469 
	C390.690552,370.524048 361.525269,388.725616 332.318542,406.859985 
	C315.671082,417.196320 299.012970,427.515503 282.031860,437.999878 
M275.699219,69.797150 
	C265.513519,63.482891 255.273239,57.254025 245.177048,50.799755 
	C242.329651,48.979492 240.248810,48.716049 237.141586,50.656372 
	C190.269623,79.925980 143.292816,109.027687 96.348457,138.181427 
	C94.997391,139.020477 93.732574,139.998413 92.122589,141.124969 
	C93.534645,142.139450 94.422379,142.859070 95.385468,143.457413 
	C142.889465,172.970276 190.417542,202.444504 237.862732,232.051590 
	C240.499969,233.697281 242.227417,233.231735 244.528778,231.795486 
	C291.691406,202.362030 338.888123,172.983200 386.068298,143.577850 
	C387.284180,142.820038 388.390594,141.886536 390.092773,140.634232 
	C351.807770,116.916634 314.068329,93.537003 275.699219,69.797150 
M131.563858,316.040344 
	C118.433167,324.218109 105.302483,332.395874 91.630302,340.910889 
	C137.510635,369.390411 182.618317,397.390320 228.465271,425.849121 
	C228.465271,422.987976 228.471207,421.180481 228.464355,419.373016 
	C228.378372,396.721222 228.383011,374.068451 228.145782,351.418243 
	C228.076340,344.787994 230.430374,340.170258 236.231567,336.620697 
	C259.204956,322.563904 281.993134,308.204407 304.844849,293.948914 
	C306.360809,293.003235 307.834106,291.989105 309.496887,290.895233 
	C308.861053,290.313507 308.565338,289.945709 308.187103,289.710846 
	C290.673737,278.836639 273.185242,267.921326 255.565689,257.221741 
	C254.312820,256.460938 251.634796,256.637573 250.397705,257.497681 
	C244.157837,261.835938 238.099518,262.250244 232.001968,257.525848 
	C229.830948,255.843735 228.133179,256.011658 225.793106,257.474976 
	C194.641815,276.955017 163.416107,296.315979 131.563858,316.040344 
M329.371307,378.866302 
	C351.977020,364.829559 374.546051,350.732971 397.230438,336.824554 
	C400.413879,334.872711 401.762726,332.875214 401.680573,328.964600 
	C401.330688,312.309967 401.396057,295.646515 401.322174,278.986237 
	C401.300293,274.049866 401.318787,269.113342 401.318787,263.649811 
	C400.101349,264.156586 399.493042,264.317596 398.982391,264.635529 
	C351.264130,294.343506 303.570892,324.091705 255.792313,353.702332 
	C253.305115,355.243713 253.061783,356.990753 253.073410,359.405304 
	C253.172928,380.063965 253.206329,400.722992 253.283310,421.381775 
	C253.287903,422.616852 253.496429,423.851135 253.678375,425.828033 
	C279.086029,410.039551 303.904724,394.617035 329.371307,378.866302 
M134.480988,284.995239 
	C157.864609,270.467773 181.248215,255.940308 205.296188,241.000092 
	C163.322220,214.932632 122.041168,189.295517 80.398178,163.433624 
	C80.398178,215.442780 80.398178,266.719238 80.398178,318.561249 
	C98.581047,307.275299 116.221962,296.325714 134.480988,284.995239 
z"/>
<path fill="#F48113" opacity="1.000000" stroke="none" 
	d="
M276.014038,69.977264 
	C314.068329,93.537003 351.807770,116.916634 390.092773,140.634232 
	C388.390594,141.886536 387.284180,142.820038 386.068298,143.577850 
	C338.888123,172.983200 291.691406,202.362030 244.528778,231.795486 
	C242.227417,233.231735 240.499969,233.697281 237.862732,232.051590 
	C190.417542,202.444504 142.889465,172.970276 95.385468,143.457413 
	C94.422379,142.859070 93.534645,142.139450 92.122589,141.124969 
	C93.732574,139.998413 94.997391,139.020477 96.348457,138.181427 
	C143.292816,109.027687 190.269623,79.925980 237.141586,50.656372 
	C240.248810,48.716049 242.329651,48.979492 245.177048,50.799755 
	C255.273239,57.254025 265.513519,63.482891 276.014038,69.977264 
z"/>
<path fill="#FEFEFE" opacity="1.000000" stroke="none" 
	d="
M131.886398,315.873474 
	C163.416107,296.315979 194.641815,276.955017 225.793106,257.474976 
	C228.133179,256.011658 229.830948,255.843735 232.001968,257.525848 
	C238.099518,262.250244 244.157837,261.835938 250.397705,257.497681 
	C251.634796,256.637573 254.312820,256.460938 255.565689,257.221741 
	C273.185242,267.921326 290.673737,278.836639 308.187103,289.710846 
	C308.565338,289.945709 308.861053,290.313507 309.496887,290.895233 
	C307.834106,291.989105 306.360809,293.003235 304.844849,293.948914 
	C281.993134,308.204407 259.204956,322.563904 236.231567,336.620697 
	C230.430374,340.170258 228.076340,344.787994 228.145782,351.418243 
	C228.383011,374.068451 228.378372,396.721222 228.464355,419.373016 
	C228.471207,421.180481 228.465271,422.987976 228.465271,425.849121 
	C182.618317,397.390320 137.510635,369.390411 91.630302,340.910889 
	C105.302483,332.395874 118.433167,324.218109 131.886398,315.873474 
z"/>
<path fill="#FDFDFD" opacity="1.000000" stroke="none" 
	d="
M329.047363,379.030396 
	C303.904724,394.617035 279.086029,410.039551 253.678375,425.828033 
	C253.496429,423.851135 253.287903,422.616852 253.283310,421.381775 
	C253.206329,400.722992 253.172928,380.063965 253.073410,359.405304 
	C253.061783,356.990753 253.305115,355.243713 255.792313,353.702332 
	C303.570892,324.091705 351.264130,294.343506 398.982391,264.635529 
	C399.493042,264.317596 400.101349,264.156586 401.318787,263.649811 
	C401.318787,269.113342 401.300293,274.049866 401.322174,278.986237 
	C401.396057,295.646515 401.330688,312.309967 401.680573,328.964600 
	C401.762726,332.875214 400.413879,334.872711 397.230438,336.824554 
	C374.546051,350.732971 351.977020,364.829559 329.047363,379.030396 
z"/>
<path fill="#FEFEFE" opacity="1.000000" stroke="none" 
	d="
M134.171936,285.185669 
	C116.221962,296.325714 98.581047,307.275299 80.398178,318.561249 
	C80.398178,266.719238 80.398178,215.442780 80.398178,163.433624 
	C122.041168,189.295517 163.322220,214.932632 205.296188,241.000092 
	C181.248215,255.940308 157.864609,270.467773 134.171936,285.185669 
z"/>
</svg>