<svg version="1.1" id="Layer_1" xmlns="http://www.w3.org/2000/svg" xmlns:xlink="http://www.w3.org/1999/xlink" x="0px" y="0px"
	 width="100%" viewBox="0 0 2048 2048" enable-background="new 0 0 2048 2048" xml:space="preserve">
<path fill="#FE315D" opacity="1.000000" stroke="none" 
	d="
M980.046753,124.888168 
	C981.033630,126.021286 982.020508,127.154419 982.731323,128.760620 
	C980.525208,130.213455 978.523987,131.075439 976.675415,132.190506 
	C944.557312,151.564514 912.441223,170.941895 880.358826,190.374908 
	C839.902405,214.880203 799.503296,239.480179 759.029724,263.956970 
	C726.080811,283.883118 693.048279,303.670776 660.071899,323.551544 
	C623.116638,345.831055 586.190369,368.158813 549.211304,390.398834 
	C547.739929,391.283813 545.885254,391.763428 544.157837,391.945862 
	C539.386780,392.449707 534.559509,392.488831 529.816528,393.154053 
	C528.118835,393.392090 526.598755,394.896423 524.533752,395.893127 
	C483.405457,395.963470 442.741028,395.963470 401.896881,395.963470 
	C401.896881,402.051971 401.907928,407.367706 401.894989,412.683380 
	C401.830658,439.120758 401.760010,465.558136 401.319885,491.996429 
	C399.120117,492.674622 397.134735,493.088531 395.489227,494.071442 
	C383.811310,501.046936 372.218079,508.163849 360.569702,515.189087 
	C326.048004,536.009338 291.486053,556.763062 256.991608,577.628357 
	C224.771332,597.117981 192.634155,616.744873 160.429230,636.259827 
	C129.073746,655.260010 97.716614,674.258118 66.277473,693.119263 
	C57.052185,698.653748 47.544704,703.717834 38.106544,708.615601 
	C48.859016,678.494080 59.626678,648.738159 70.495796,619.019348 
	C82.872780,585.177490 95.368820,551.379211 107.759804,517.542480 
	C118.197433,489.039795 128.561920,460.510376 138.953186,431.990753 
	C153.291321,392.638641 167.611832,353.280060 181.963531,313.932892 
	C192.253860,285.720551 202.637878,257.542267 212.881149,229.312897 
	C226.443741,191.935730 239.835693,154.496552 253.439209,117.134369 
	C265.772308,83.261314 278.328583,49.469536 290.684265,15.604635 
	C292.420776,10.845130 293.575806,5.873460 295.000000,1.000000 
	C300.688049,1.000000 306.376068,1.000000 312.532043,0.999997 
	C313.409973,1.649431 313.756683,2.812830 314.239227,2.872195 
	C323.346222,3.992594 332.479248,4.901481 341.586304,6.021503 
	C351.312836,7.217708 361.008698,8.663174 370.735199,9.859733 
	C380.005981,11.000227 389.308716,11.880922 398.579529,13.021229 
	C408.307800,14.217804 418.005585,15.662601 427.733856,16.859253 
	C437.004517,17.999622 446.307068,18.880894 455.577789,20.021080 
	C465.305786,21.217514 475.003387,22.661104 484.731354,23.858137 
	C493.996094,24.998177 503.292206,25.882856 512.557312,27.020412 
	C522.286499,28.214949 531.986328,29.647764 541.715271,30.844467 
	C550.984497,31.984627 560.283752,32.879982 569.553040,34.019833 
	C579.282104,35.216221 588.982483,36.646099 598.711548,37.842697 
	C607.982300,38.982925 617.282959,39.879555 626.553711,41.019749 
	C636.282104,42.216221 645.981812,43.645679 655.710205,44.842247 
	C664.980774,45.982510 674.281311,46.879692 683.551941,48.019680 
	C693.280090,49.215919 702.979858,50.643776 712.707947,51.840698 
	C721.972595,52.980606 731.265259,53.891438 740.531921,55.015980 
	C750.594788,56.237137 760.634644,57.648396 770.697937,58.865791 
	C779.965637,59.986954 789.260925,60.881790 798.526245,62.021313 
	C808.259216,63.218353 817.961731,64.662582 827.694641,65.859962 
	C836.958984,66.999710 846.255005,67.881836 855.519470,69.021156 
	C865.252747,70.218132 874.955872,71.660347 884.689148,72.857681 
	C893.954773,73.997482 903.242493,74.958572 912.520203,76.000015 
	C921.469055,77.004532 930.540527,77.440742 939.299622,79.326965 
	C942.361206,79.986267 944.825439,84.069450 947.261353,86.852585 
	C952.775208,93.152275 958.061584,99.650444 963.516724,106.002388 
	C968.231384,111.492035 973.051208,116.891319 977.694336,122.839401 
	C977.578369,124.074051 977.592651,124.799873 977.606873,125.525696 
	C978.420166,125.313194 979.233459,125.100685 980.046753,124.888168 
z"/>
<path fill="#F63462" opacity="1.000000" stroke="none" 
	d="
M1.000005,806.437500 
	C1.668075,805.480164 2.704350,805.094910 2.950692,804.420898 
	C10.341744,784.196960 17.600737,763.924744 25.001120,743.704285 
	C29.168383,732.317871 33.548588,721.009338 37.999710,709.331665 
	C47.544704,703.717834 57.052185,698.653748 66.277473,693.119263 
	C97.716614,674.258118 129.073746,655.260010 160.429230,636.259827 
	C192.634155,616.744873 224.771332,597.117981 256.991608,577.628357 
	C291.486053,556.763062 326.048004,536.009338 360.569702,515.189087 
	C372.218079,508.163849 383.811310,501.046936 395.489227,494.071442 
	C397.134735,493.088531 399.120117,492.674622 401.406982,492.458160 
	C401.807098,522.944458 401.748352,552.969910 401.318054,582.996338 
	C399.525421,583.387085 397.933350,583.487854 396.709900,584.211670 
	C384.856232,591.224670 373.032471,598.289429 361.260712,605.439209 
	C319.851227,630.589905 278.500610,655.837524 237.059998,680.936829 
	C204.132278,700.880005 171.091949,720.637268 138.126801,740.518799 
	C101.469002,762.627502 64.808624,784.732422 28.236423,806.982056 
	C23.555851,809.829651 19.398834,813.537781 14.999269,816.847290 
	C10.572100,815.399231 6.144925,813.951111 1.358875,812.751526 
	C1.000000,810.958313 1.000000,808.916687 1.000005,806.437500 
z"/>
<path fill="#1D7CE6" opacity="1.000000" stroke="none" 
	d="
M2049.000000,608.531311 
	C2048.327637,610.119019 2047.655518,611.238037 2046.576416,612.742554 
	C2045.630737,613.725647 2044.958008,614.247864 2044.572876,614.932129 
	C2038.298706,626.080017 2032.022339,637.226929 2025.822510,648.416260 
	C2006.735718,682.863647 1987.677979,717.327087 1968.615845,751.788025 
	C1954.701294,776.942932 1940.799316,802.104858 1926.887939,827.261536 
	C1909.518921,858.671265 1892.155762,890.084351 1874.771484,921.485657 
	C1859.480469,949.106140 1844.154053,976.706909 1828.861206,1004.326355 
	C1809.784668,1038.779541 1790.723755,1073.241333 1771.661255,1107.702393 
	C1757.746582,1132.857544 1743.818848,1158.005615 1729.934937,1183.177734 
	C1711.715576,1216.209961 1693.640747,1249.322998 1675.202881,1282.232666 
	C1672.825562,1286.475952 1671.944336,1292.329102 1665.955444,1293.538818 
	C1665.925659,1263.385010 1665.985474,1233.692505 1666.394043,1203.959473 
	C1667.479614,1203.303589 1668.479736,1202.834717 1668.915039,1202.052002 
	C1679.489746,1183.036499 1690.015869,1163.994019 1700.525879,1144.942627 
	C1709.833374,1128.071045 1719.072021,1111.161499 1728.411133,1094.307495 
	C1741.370239,1070.921021 1754.425415,1047.587769 1767.381348,1024.199463 
	C1776.718262,1007.344299 1785.928589,990.418945 1795.253174,973.556824 
	C1808.755615,949.139954 1822.327759,924.761658 1835.835327,900.347595 
	C1843.394287,886.685120 1850.842285,872.961182 1858.412964,859.305237 
	C1869.604736,839.117310 1880.896729,818.984802 1892.079590,798.791931 
	C1901.575928,781.644592 1910.935669,764.421631 1920.432617,747.274597 
	C1933.386719,723.885559 1946.412598,700.536255 1959.410156,677.171265 
	C1967.483154,662.658997 1975.687500,648.217590 1983.568848,633.601990 
	C1986.439209,628.279297 1988.545166,622.544373 1991.147705,616.696899 
	C2007.866943,596.600830 2024.438354,576.805420 2041.278809,556.820068 
	C2044.031982,554.086670 2046.515991,551.543396 2049.000000,549.000000 
	C2049.000000,568.687561 2049.000000,588.375122 2049.000000,608.531311 
z"/>
<path fill="#1D7CE6" opacity="1.000000" stroke="none" 
	d="
M1275.992920,2028.855835 
	C1260.359131,2035.086426 1244.724243,2041.314575 1229.099121,2047.566772 
	C1228.833740,2047.672852 1228.684204,2048.068359 1228.740234,2048.664551 
	C1226.299927,2049.000000 1223.599976,2049.000000 1220.449951,2049.000000 
	C1219.492310,2048.037109 1219.235107,2046.691162 1218.438599,2046.170532 
	C1210.438110,2040.942749 1202.348877,2035.850830 1194.163818,2030.058838 
	C1195.043457,2027.892456 1196.159546,2026.451416 1197.027466,2024.873779 
	C1208.395386,2004.208130 1219.721436,1983.519531 1231.071899,1962.844238 
	C1238.425293,1949.449463 1245.762939,1936.045654 1253.175415,1922.683594 
	C1266.305542,1899.014038 1279.516602,1875.389526 1292.637329,1851.714844 
	C1301.896118,1835.008667 1311.024048,1818.229980 1320.277466,1801.520752 
	C1333.471069,1777.696411 1346.717407,1753.901123 1359.957764,1730.102783 
	C1367.869019,1715.883057 1375.902588,1701.730225 1383.707275,1687.452393 
	C1388.637695,1678.432495 1393.247925,1669.237549 1398.465088,1660.045288 
	C1425.286255,1660.020386 1451.644043,1660.071289 1477.995117,1660.490601 
	C1477.406372,1662.399414 1477.005859,1664.040894 1476.214722,1665.465332 
	C1461.781006,1691.453857 1447.263916,1717.396118 1432.839478,1743.389771 
	C1417.123169,1771.711426 1401.487549,1800.077881 1385.809204,1828.420776 
	C1366.754150,1862.867920 1347.688721,1897.309326 1328.632446,1931.755737 
	C1313.033813,1959.952271 1297.409424,1988.134644 1281.882812,2016.370728 
	C1279.669800,2020.395142 1277.944214,2024.687500 1275.992920,2028.855835 
z"/>
<path fill="#336FDE" opacity="1.000000" stroke="none" 
	d="
M2049.000000,548.625000 
	C2046.515991,551.543396 2044.031982,554.086670 2041.133057,556.496460 
	C2039.248291,552.523682 2036.607544,554.627441 2034.515625,555.328430 
	C1988.344727,570.799866 1942.218140,586.403625 1896.038086,601.847778 
	C1832.199463,623.197632 1768.332153,644.462402 1704.456421,665.701721 
	C1691.700073,669.943359 1678.851196,673.907288 1665.960815,677.536987 
	C1665.932617,658.382812 1665.988525,639.690918 1666.417236,620.955566 
	C1737.298950,597.290039 1807.802490,573.651855 1878.319092,550.052856 
	C1912.950317,538.463074 1947.598877,526.925293 1982.255493,515.411621 
	C1990.005859,512.836731 1997.644775,508.718018 2006.116089,512.958313 
	C2020.215332,524.157349 2034.314575,535.356384 2048.707031,546.277710 
	C2049.000000,546.750000 2049.000000,547.500000 2049.000000,548.625000 
z"/>
<path fill="#F97A12" opacity="1.000000" stroke="none" 
	d="
M282.952515,1412.119995 
	C267.104889,1399.677734 251.213745,1387.290527 235.423645,1374.775757 
	C223.225342,1365.107788 211.197800,1355.224487 199.014313,1345.537598 
	C185.677322,1334.933472 172.227325,1324.471436 158.865311,1313.898560 
	C146.649323,1304.232422 134.504913,1294.475708 122.292473,1284.804932 
	C110.102478,1275.151978 97.844147,1265.585327 85.657822,1255.927734 
	C72.167244,1245.236450 58.721527,1234.488525 45.261772,1223.758423 
	C38.102867,1218.051270 30.955576,1212.329590 23.578014,1206.434692 
	C32.642212,1189.761719 41.527103,1173.423828 50.406738,1157.083008 
	C55.242161,1148.184692 60.107754,1139.302490 64.892212,1130.376831 
	C81.629646,1099.152222 98.304649,1067.893921 115.066360,1036.682373 
	C131.445480,1006.183228 147.889648,975.718994 164.327911,945.251587 
	C176.109390,923.415283 187.928238,901.599121 200.242447,879.412415 
	C207.840195,881.315857 214.925888,883.580811 222.372681,885.962891 
	C228.538391,888.097229 234.335999,890.134949 240.149048,892.127625 
	C254.756989,897.134949 269.371887,902.121948 283.988831,907.578430 
	C283.995819,1073.798584 284.002045,1239.557373 283.956482,1405.316284 
	C283.955872,1407.584351 283.301666,1409.852051 282.952515,1412.119995 
z"/>
<path fill="#8058AD" opacity="1.000000" stroke="none" 
	d="
M538.999695,1863.833862 
	C522.128784,1869.982544 505.255920,1876.125854 488.387299,1882.280640 
	C456.314728,1893.983276 424.253204,1905.716431 392.171112,1917.392944 
	C354.462280,1931.117676 316.738495,1944.801514 279.016785,1958.490845 
	C266.605347,1962.994873 254.180237,1967.461182 241.426453,1971.552246 
	C242.016449,1970.271362 242.817520,1969.181030 243.885468,1968.526123 
	C254.921341,1961.758667 266.005219,1955.069336 277.066193,1948.342651 
	C307.412811,1929.887573 337.714508,1911.357910 368.110657,1892.984741 
	C396.662994,1875.725830 425.355957,1858.699707 453.908844,1841.441772 
	C484.447205,1822.983887 514.856140,1804.312012 545.391846,1785.849609 
	C573.800415,1768.673462 602.334290,1751.704712 630.753479,1734.546143 
	C666.843323,1712.756592 702.896484,1690.906006 738.897644,1668.970581 
	C743.150085,1666.379517 746.976196,1663.088501 751.463623,1660.048096 
	C762.223694,1659.963013 772.520203,1659.928223 782.816528,1659.945312 
	C811.210999,1659.992432 839.605530,1660.061279 867.992432,1660.479492 
	C866.969360,1662.040405 866.180725,1663.616821 864.905029,1664.391602 
	C837.383728,1681.105103 809.805725,1697.724976 782.243469,1714.371094 
	C750.987915,1733.247681 719.735779,1752.130127 688.484314,1771.013550 
	C658.937561,1788.866943 629.391663,1806.721558 599.849060,1824.582031 
	C580.817078,1836.088013 561.765442,1847.562134 542.810791,1859.194336 
	C541.198608,1860.183838 540.254272,1862.261597 538.999695,1863.833862 
z"/>
<path fill="#227CE1" opacity="1.000000" stroke="none" 
	d="
M1398.001831,1660.121094 
	C1393.247925,1669.237549 1388.637695,1678.432495 1383.707275,1687.452393 
	C1375.902588,1701.730225 1367.869019,1715.883057 1359.957764,1730.102783 
	C1346.717407,1753.901123 1333.471069,1777.696411 1320.277466,1801.520752 
	C1311.024048,1818.229980 1301.896118,1835.008667 1292.637329,1851.714844 
	C1279.516602,1875.389526 1266.305542,1899.014038 1253.175415,1922.683594 
	C1245.762939,1936.045654 1238.425293,1949.449463 1231.071899,1962.844238 
	C1219.721436,1983.519531 1208.395386,2004.208130 1197.027466,2024.873779 
	C1196.159546,2026.451416 1195.043457,2027.892456 1193.999756,2029.755615 
	C1184.757690,2024.361450 1175.519531,2018.669800 1166.369751,2012.839600 
	C1155.953979,2006.202515 1145.617432,1999.441284 1135.145508,1992.063477 
	C1141.004272,1980.651611 1146.982300,1969.920288 1152.919800,1959.166626 
	C1162.075317,1942.584839 1171.170166,1925.969849 1180.350708,1909.401978 
	C1191.703125,1888.914429 1203.146606,1868.477417 1214.494507,1847.987427 
	C1223.832764,1831.126221 1233.048340,1814.197266 1242.391846,1797.339111 
	C1255.275879,1774.092529 1268.230103,1750.884888 1281.151978,1727.659302 
	C1291.005371,1709.948853 1300.942993,1692.284180 1310.646484,1674.492065 
	C1313.145630,1669.909546 1314.903687,1664.922852 1317.465576,1660.046753 
	C1344.619873,1660.021362 1371.310913,1660.071167 1398.001831,1660.121094 
z"/>
<path fill="#8556AA" opacity="1.000000" stroke="none" 
	d="
M751.000000,1660.122070 
	C746.976196,1663.088501 743.150085,1666.379517 738.897644,1668.970581 
	C702.896484,1690.906006 666.843323,1712.756592 630.753479,1734.546143 
	C602.334290,1751.704712 573.800415,1768.673462 545.391846,1785.849609 
	C514.856140,1804.312012 484.447205,1822.983887 453.908844,1841.441772 
	C425.355957,1858.699707 396.662994,1875.725830 368.110657,1892.984741 
	C337.714508,1911.357910 307.412811,1929.887573 277.066193,1948.342651 
	C266.005219,1955.069336 254.921341,1961.758667 243.885468,1968.526123 
	C242.817520,1969.181030 242.016449,1970.271362 241.045731,1971.496582 
	C231.741364,1975.345215 222.510590,1978.932495 213.218033,1982.351929 
	C197.073196,1988.292480 180.890152,1994.129150 164.050430,2000.254028 
	C168.222977,1985.243652 172.234650,1970.811890 176.913910,1956.225830 
	C178.432373,1956.967529 179.283264,1957.863525 180.436081,1959.077515 
	C187.120041,1954.973633 193.726074,1950.856079 200.390701,1946.835571 
	C236.628433,1924.975830 272.907776,1903.185059 309.120178,1881.283569 
	C344.478119,1859.899048 379.743439,1838.361206 415.102783,1816.979004 
	C458.985138,1790.442749 502.927032,1764.005249 546.834595,1737.510620 
	C585.199036,1714.360840 623.566895,1691.216553 661.885803,1667.991821 
	C665.757935,1665.644775 669.303101,1662.758301 673.463623,1660.047852 
	C699.618225,1660.023071 725.309082,1660.072632 751.000000,1660.122070 
z"/>
<path fill="#377CCD" opacity="1.000000" stroke="none" 
	d="
M1036.004761,1928.834106 
	C1010.749695,1912.768066 985.494629,1896.702026 960.415344,1880.278320 
	C965.446777,1871.496338 970.412659,1863.133301 975.134827,1854.635010 
	C984.564819,1837.664307 993.829651,1820.601807 1003.220154,1803.609131 
	C1016.781799,1779.068604 1030.372192,1754.543701 1043.994385,1730.036743 
	C1051.488892,1716.553589 1059.186279,1703.182007 1066.581055,1689.644775 
	C1071.902954,1679.902466 1076.875732,1669.969604 1082.468018,1660.050049 
	C1116.288696,1660.025879 1149.645752,1660.073486 1182.959229,1660.473389 
	C1179.179932,1668.057373 1175.603271,1675.376709 1171.678589,1682.504395 
	C1160.228394,1703.299683 1148.613525,1724.004272 1137.112549,1744.771851 
	C1127.942383,1761.330444 1118.878784,1777.948364 1109.706909,1794.506104 
	C1096.514404,1818.322021 1083.275024,1842.111938 1070.038818,1865.903687 
	C1062.130127,1880.119507 1054.105469,1894.271606 1046.300537,1908.543945 
	C1042.663452,1915.195190 1039.424316,1922.063965 1036.004761,1928.834106 
z"/>
<path fill="#EE3667" opacity="1.000000" stroke="none" 
	d="
M15.381273,816.922852 
	C19.398834,813.537781 23.555851,809.829651 28.236423,806.982056 
	C64.808624,784.732422 101.469002,762.627502 138.126801,740.518799 
	C171.091949,720.637268 204.132278,700.880005 237.059998,680.936829 
	C278.500610,655.837524 319.851227,630.589905 361.260712,605.439209 
	C373.032471,598.289429 384.856232,591.224670 396.709900,584.211670 
	C397.933350,583.487854 399.525421,583.387085 401.405121,583.458008 
	C401.806091,604.277954 401.748413,624.637024 401.333435,645.004395 
	C392.184998,649.981201 383.269836,654.744019 374.624908,659.955078 
	C342.490845,679.324768 310.461517,698.868042 278.362671,718.296265 
	C245.410553,738.240967 212.422867,758.126953 179.451035,778.039124 
	C148.184540,796.921387 116.908791,815.788452 85.677353,834.728516 
	C83.930717,835.787720 82.550621,837.451294 80.999893,838.833496 
	C65.683136,833.733276 50.363148,828.642700 35.051174,823.528259 
	C28.613125,821.377808 22.192060,819.176514 15.381273,816.922852 
z"/>
<path fill="#7A5AB1" opacity="1.000000" stroke="none" 
	d="
M539.374756,1863.892090 
	C540.254272,1862.261597 541.198608,1860.183838 542.810791,1859.194336 
	C561.765442,1847.562134 580.817078,1836.088013 599.849060,1824.582031 
	C629.391663,1806.721558 658.937561,1788.866943 688.484314,1771.013550 
	C719.735779,1752.130127 750.987915,1733.247681 782.243469,1714.371094 
	C809.805725,1697.724976 837.383728,1681.105103 864.905029,1664.391602 
	C866.180725,1663.616821 866.969360,1662.040405 868.456055,1660.405273 
	C900.180115,1659.961792 931.432861,1659.927734 962.685669,1659.947876 
	C979.471680,1659.958618 996.257629,1660.062622 1012.988037,1660.465576 
	C1004.764832,1673.302490 996.648438,1685.832764 988.363464,1698.250488 
	C987.345459,1699.776367 985.603088,1701.144043 983.893555,1701.826904 
	C976.659607,1704.717041 969.311218,1707.320312 961.631592,1710.057373 
	C953.608826,1712.855591 945.955383,1715.615112 938.309753,1718.395996 
	C901.948853,1731.621338 865.578857,1744.821533 829.236572,1758.098022 
	C816.763428,1762.654541 804.362061,1767.407593 791.927979,1772.070801 
	C779.986023,1776.502930 768.065430,1780.993530 756.096985,1785.352539 
	C739.528931,1791.386597 722.912231,1797.286987 706.338562,1803.305786 
	C661.211975,1819.693848 616.095459,1836.109619 570.978394,1852.523926 
	C560.561951,1856.313599 550.159058,1860.140503 539.374756,1863.892090 
z"/>
<path fill="#2E7CD6" opacity="1.000000" stroke="none" 
	d="
M1036.319580,1928.989258 
	C1039.424316,1922.063965 1042.663452,1915.195190 1046.300537,1908.543945 
	C1054.105469,1894.271606 1062.130127,1880.119507 1070.038818,1865.903687 
	C1083.275024,1842.111938 1096.514404,1818.322021 1109.706909,1794.506104 
	C1118.878784,1777.948364 1127.942383,1761.330444 1137.112549,1744.771851 
	C1148.613525,1724.004272 1160.228394,1703.299683 1171.678589,1682.504395 
	C1175.603271,1675.376709 1179.179932,1668.057373 1183.422607,1660.399658 
	C1208.953857,1660.023438 1233.977783,1660.072998 1258.958496,1660.474487 
	C1254.912476,1668.286499 1250.966309,1675.777344 1246.896240,1683.200562 
	C1235.876587,1703.299072 1224.838257,1723.387817 1213.744385,1743.445557 
	C1200.482544,1767.422729 1187.128662,1791.348999 1173.865479,1815.325317 
	C1164.458496,1832.330933 1155.173706,1849.404053 1145.765991,1866.409180 
	C1132.501709,1890.385132 1119.219116,1914.351196 1105.850464,1938.268921 
	C1101.003418,1946.940796 1095.886108,1955.461426 1090.891968,1964.051025 
	C1072.806152,1952.415527 1054.720215,1940.779907 1036.319580,1928.989258 
z"/>
<path fill="#8855A8" opacity="1.000000" stroke="none" 
	d="
M673.000000,1660.122192 
	C669.303101,1662.758301 665.757935,1665.644775 661.885803,1667.991821 
	C623.566895,1691.216553 585.199036,1714.360840 546.834595,1737.510620 
	C502.927032,1764.005249 458.985138,1790.442749 415.102783,1816.979004 
	C379.743439,1838.361206 344.478119,1859.899048 309.120178,1881.283569 
	C272.907776,1903.185059 236.628433,1924.975830 200.390701,1946.835571 
	C193.726074,1950.856079 187.120041,1954.973633 180.436081,1959.077515 
	C179.283264,1957.863525 178.432373,1956.967529 177.233994,1956.014893 
	C181.862396,1938.533203 186.838287,1921.108276 192.355530,1903.334961 
	C194.585129,1902.326782 196.408096,1901.891113 197.940689,1900.971558 
	C212.737564,1892.094360 227.492661,1883.147583 242.246017,1874.198120 
	C272.886871,1855.611450 303.491791,1836.965332 334.163452,1818.429810 
	C364.126740,1800.322266 394.184082,1782.370483 424.146179,1764.261108 
	C453.254883,1746.667725 482.267487,1728.915527 511.373657,1711.318115 
	C537.783386,1695.351074 564.271912,1679.514038 590.682739,1663.548584 
	C591.998230,1662.753296 592.903625,1661.279663 594.463623,1660.047607 
	C620.951538,1660.022949 646.975769,1660.072632 673.000000,1660.122192 
z"/>
<path fill="#8C54A6" opacity="1.000000" stroke="none" 
	d="
M594.000000,1660.121826 
	C592.903625,1661.279663 591.998230,1662.753296 590.682739,1663.548584 
	C564.271912,1679.514038 537.783386,1695.351074 511.373657,1711.318115 
	C482.267487,1728.915527 453.254883,1746.667725 424.146179,1764.261108 
	C394.184082,1782.370483 364.126740,1800.322266 334.163452,1818.429810 
	C303.491791,1836.965332 272.886871,1855.611450 242.246017,1874.198120 
	C227.492661,1883.147583 212.737564,1892.094360 197.940689,1900.971558 
	C196.408096,1901.891113 194.585129,1902.326782 192.531647,1902.993408 
	C194.734467,1893.456909 197.268219,1883.904297 199.878677,1874.372803 
	C203.624573,1860.695435 207.426422,1847.033447 211.913239,1833.166748 
	C217.559616,1830.329834 222.622177,1827.898926 227.414322,1825.018066 
	C257.150024,1807.142212 286.816528,1789.151367 316.522522,1771.225830 
	C341.396057,1756.216431 366.315674,1741.283081 391.172424,1726.246094 
	C421.993652,1707.600830 452.797180,1688.925903 483.541016,1670.153564 
	C488.539154,1667.101685 493.189087,1663.479736 498.463623,1660.046997 
	C530.618164,1660.022339 562.309082,1660.072144 594.000000,1660.121826 
z"/>
<path fill="#287CDB" opacity="1.000000" stroke="none" 
	d="
M1091.059082,1964.358765 
	C1095.886108,1955.461426 1101.003418,1946.940796 1105.850464,1938.268921 
	C1119.219116,1914.351196 1132.501709,1890.385132 1145.765991,1866.409180 
	C1155.173706,1849.404053 1164.458496,1832.330933 1173.865479,1815.325317 
	C1187.128662,1791.348999 1200.482544,1767.422729 1213.744385,1743.445557 
	C1224.838257,1723.387817 1235.876587,1703.299072 1246.896240,1683.200562 
	C1250.966309,1675.777344 1254.912476,1668.286499 1259.421753,1660.399414 
	C1278.953003,1660.022339 1297.977661,1660.072144 1317.002197,1660.122070 
	C1314.903687,1664.922852 1313.145630,1669.909546 1310.646484,1674.492065 
	C1300.942993,1692.284180 1291.005371,1709.948853 1281.151978,1727.659302 
	C1268.230103,1750.884888 1255.275879,1774.092529 1242.391846,1797.339111 
	C1233.048340,1814.197266 1223.832764,1831.126221 1214.494507,1847.987427 
	C1203.146606,1868.477417 1191.703125,1888.914429 1180.350708,1909.401978 
	C1171.170166,1925.969849 1162.075317,1942.584839 1152.919800,1959.166626 
	C1146.982300,1969.920288 1141.004272,1980.651611 1135.000488,1991.753174 
	C1134.791504,1992.073853 1134.626709,1992.034424 1134.087158,1991.722290 
	C1133.478027,1991.219727 1133.197998,1991.082886 1132.872559,1991.038940 
	C1118.990479,1982.248047 1105.108398,1973.457275 1091.059082,1964.358765 
z"/>
<path fill="#9053A3" opacity="1.000000" stroke="none" 
	d="
M498.000000,1660.121338 
	C493.189087,1663.479736 488.539154,1667.101685 483.541016,1670.153564 
	C452.797180,1688.925903 421.993652,1707.600830 391.172424,1726.246094 
	C366.315674,1741.283081 341.396057,1756.216431 316.522522,1771.225830 
	C286.816528,1789.151367 257.150024,1807.142212 227.414322,1825.018066 
	C222.622177,1827.898926 217.559616,1830.329834 212.235718,1832.957520 
	C215.592896,1819.315674 219.261826,1805.664185 223.097275,1792.059448 
	C229.086533,1770.815063 235.188660,1749.602417 241.975952,1728.179321 
	C245.028091,1727.276489 247.583969,1726.978394 249.625000,1725.793457 
	C257.949921,1720.960205 266.104523,1715.834351 274.344940,1710.854614 
	C310.860077,1688.788696 347.362762,1666.702026 383.924500,1644.713623 
	C389.704620,1641.237305 395.764282,1638.225708 401.778442,1635.461182 
	C401.931976,1643.614624 402.001862,1651.306152 402.075653,1659.259521 
	C402.387054,1659.616577 402.694519,1659.711792 403.467712,1659.859375 
	C407.251801,1659.920898 410.570221,1659.931519 413.888611,1659.938721 
	C441.925751,1660.000000 469.962860,1660.060547 498.000000,1660.121338 
z"/>
<path fill="#E7386C" opacity="1.000000" stroke="none" 
	d="
M81.338882,839.010864 
	C82.550621,837.451294 83.930717,835.787720 85.677353,834.728516 
	C116.908791,815.788452 148.184540,796.921387 179.451035,778.039124 
	C212.422867,758.126953 245.410553,738.240967 278.362671,718.296265 
	C310.461517,698.868042 342.490845,679.324768 374.624908,659.955078 
	C383.269836,654.744019 392.184998,649.981201 401.419861,645.466187 
	C401.805969,666.278442 401.748383,686.637085 401.333496,707.004089 
	C398.876221,707.961426 396.654755,708.708862 394.694855,709.890137 
	C371.543823,723.844727 348.444305,737.884644 325.306427,751.861023 
	C300.464874,766.866394 275.621613,781.869141 250.734604,796.799011 
	C215.496063,817.938721 180.216797,839.010620 144.954941,860.111572 
	C131.050247,855.622925 117.129532,851.183105 103.247444,846.625610 
	C96.022400,844.253662 88.865540,841.674072 81.338882,839.010864 
z"/>
<path fill="#457CBF" opacity="1.000000" stroke="none" 
	d="
M962.004639,1710.028564 
	C969.311218,1707.320312 976.659607,1704.717041 983.893555,1701.826904 
	C985.603088,1701.144043 987.345459,1699.776367 988.363464,1698.250488 
	C996.648438,1685.832764 1004.764832,1673.302490 1013.447083,1660.392700 
	C1036.642578,1660.026489 1059.323364,1660.074097 1082.004272,1660.121704 
	C1076.875732,1669.969604 1071.902954,1679.902466 1066.581055,1689.644775 
	C1059.186279,1703.182007 1051.488892,1716.553589 1043.994385,1730.036743 
	C1030.372192,1754.543701 1016.781799,1779.068604 1003.220154,1803.609131 
	C993.829651,1820.601807 984.564819,1837.664307 975.134827,1854.635010 
	C970.412659,1863.133301 965.446777,1871.496338 960.237061,1879.973999 
	C944.871521,1870.460327 929.864868,1860.885376 914.846375,1851.329102 
	C907.668884,1846.762329 900.468750,1842.231079 893.259155,1837.051270 
	C894.235962,1834.139282 895.059204,1831.763672 896.256714,1829.594604 
	C906.130493,1811.710815 916.065613,1793.860596 925.998779,1776.009644 
	C933.831543,1761.933228 941.755920,1747.907471 949.507568,1733.786621 
	C953.812927,1725.943970 957.847839,1717.952759 962.004639,1710.028564 
z"/>
<path fill="#97519E" opacity="1.000000" stroke="none" 
	d="
M401.694763,1634.999268 
	C395.764282,1638.225708 389.704620,1641.237305 383.924500,1644.713623 
	C347.362762,1666.702026 310.860077,1688.788696 274.344940,1710.854614 
	C266.104523,1715.834351 257.949921,1720.960205 249.625000,1725.793457 
	C247.583969,1726.978394 245.028091,1727.276489 242.296082,1727.970215 
	C244.228821,1719.373535 246.492157,1710.765503 248.934464,1702.208374 
	C258.571747,1668.442139 268.265808,1634.692017 277.935486,1600.935059 
	C278.243866,1599.858643 278.515778,1598.771851 279.376892,1597.344971 
	C281.514221,1596.625122 283.256042,1596.569458 284.612671,1595.818115 
	C289.536865,1593.091064 294.354950,1590.168701 299.172058,1587.252197 
	C331.606781,1567.614380 364.020325,1547.941406 396.493713,1528.367798 
	C397.960571,1527.483521 399.938477,1527.447144 401.732849,1527.420776 
	C401.825562,1539.790283 401.910309,1551.755249 401.892242,1563.719849 
	C401.856354,1587.479614 401.763885,1611.239502 401.694763,1634.999268 
z"/>
<path fill="#DF3A71" opacity="1.000000" stroke="none" 
	d="
M145.146606,860.432739 
	C180.216797,839.010620 215.496063,817.938721 250.734604,796.799011 
	C275.621613,781.869141 300.464874,766.866394 325.306427,751.861023 
	C348.444305,737.884644 371.543823,723.844727 394.694855,709.890137 
	C396.654755,708.708862 398.876221,707.961426 401.419739,707.465942 
	C401.805847,730.942749 401.748322,753.965942 401.319275,776.991882 
	C398.515656,777.956604 395.891602,778.599487 393.680420,779.929016 
	C363.971100,797.791870 334.315186,815.743652 304.654572,833.687500 
	C277.832825,849.914001 251.010864,866.140320 224.245529,882.459473 
	C223.201004,883.096375 222.742935,884.695190 222.011597,885.845764 
	C214.925888,883.580811 207.840195,881.315857 200.366180,879.088684 
	C181.764664,873.002258 163.551468,866.878113 145.146606,860.432739 
z"/>
<path fill="#A04E99" opacity="1.000000" stroke="none" 
	d="
M401.678375,1527.015991 
	C399.938477,1527.447144 397.960571,1527.483521 396.493713,1528.367798 
	C364.020325,1547.941406 331.606781,1567.614380 299.172058,1587.252197 
	C294.354950,1590.168701 289.536865,1593.091064 284.612671,1595.818115 
	C283.256042,1596.569458 281.514221,1596.625122 279.557587,1596.999756 
	C284.102081,1579.239502 288.787415,1561.405151 294.029816,1543.736084 
	C303.036102,1513.381592 312.390137,1483.130371 321.597290,1452.835449 
	C322.389252,1450.229492 323.174622,1447.621704 324.270294,1444.416748 
	C325.102631,1442.549927 325.627686,1441.281372 326.527039,1440.008301 
	C328.005920,1439.737915 329.261383,1439.723999 330.192200,1439.167236 
	C342.857239,1431.593262 355.422211,1423.850830 368.125061,1416.341431 
	C379.240204,1409.770386 390.497894,1403.440430 401.776917,1397.465088 
	C401.874817,1428.000610 401.912018,1458.074951 401.891174,1488.149292 
	C401.882202,1501.104858 401.752960,1514.060425 401.678375,1527.015991 
z"/>
<path fill="#EE7A1C" opacity="1.000000" stroke="none" 
	d="
M283.105591,1412.424683 
	C283.301666,1409.852051 283.955872,1407.584351 283.956482,1405.316284 
	C284.002045,1239.557373 283.995819,1073.798584 284.365356,907.587524 
	C292.127136,909.497620 299.517273,911.859863 307.047058,914.417236 
	C307.437378,914.815063 307.704651,914.992798 307.991821,915.605103 
	C307.996735,1085.130615 308.003021,1254.196655 307.957001,1423.262695 
	C307.956299,1425.878906 307.310699,1428.494751 306.966064,1431.110840 
	C299.063599,1424.983643 291.161133,1418.856445 283.105591,1412.424683 
z"/>
<path fill="#E77A24" opacity="1.000000" stroke="none" 
	d="
M307.123047,1431.411621 
	C307.310699,1428.494751 307.956299,1425.878906 307.957001,1423.262695 
	C308.003021,1254.196655 307.996735,1085.130615 308.367126,915.608398 
	C314.822906,917.474792 320.906647,919.797302 326.993835,922.577759 
	C326.998169,1089.059082 326.989929,1255.082520 327.082764,1421.105957 
	C327.084229,1423.737549 328.326721,1426.368286 328.915344,1429.368042 
	C327.944672,1433.161987 327.048706,1436.587280 326.152740,1440.012695 
	C325.627686,1441.281372 325.102631,1442.549927 324.315002,1444.043091 
	C319.400024,1440.716675 314.753693,1437.157593 310.089722,1433.621704 
	C309.188599,1432.938599 308.218384,1432.346436 307.123047,1431.411621 
z"/>
<path fill="#507BB4" opacity="1.000000" stroke="none" 
	d="
M961.631592,1710.057373 
	C957.847839,1717.952759 953.812927,1725.943970 949.507568,1733.786621 
	C941.755920,1747.907471 933.831543,1761.933228 925.998779,1776.009644 
	C916.065613,1793.860596 906.130493,1811.710815 896.256714,1829.594604 
	C895.059204,1831.763672 894.235962,1834.139282 893.087524,1836.750732 
	C873.141724,1824.403809 853.351257,1811.719604 833.552307,1799.048706 
	C819.797058,1790.245850 806.030212,1781.461426 792.098267,1772.369873 
	C804.362061,1767.407593 816.763428,1762.654541 829.236572,1758.098022 
	C865.578857,1744.821533 901.948853,1731.621338 938.309753,1718.395996 
	C945.955383,1715.615112 953.608826,1712.855591 961.631592,1710.057373 
z"/>
<path fill="#227CE1" opacity="1.000000" stroke="none" 
	d="
M1132.967896,1991.283936 
	C1133.197998,1991.082886 1133.478027,1991.219727 1133.844604,1991.646240 
	C1133.672241,1991.738281 1133.367676,1991.633545 1132.967896,1991.283936 
z"/>
<path fill="#0E7AF6" opacity="1.000000" stroke="none" 
	d="
M1162.302246,332.187866 
	C1173.570557,318.645477 1184.870361,305.129089 1196.097900,291.553101 
	C1206.610474,278.841827 1217.003784,266.031952 1227.528198,253.330750 
	C1237.947388,240.756699 1248.499146,228.292648 1258.930542,215.728760 
	C1271.332886,200.791016 1283.633789,185.769226 1296.043823,170.838058 
	C1306.689575,158.029602 1317.480469,145.341690 1328.107666,132.517868 
	C1336.948975,121.849007 1345.580200,111.006088 1354.424194,100.339409 
	C1363.360107,89.562012 1372.493408,78.948494 1381.447144,68.185768 
	C1390.409912,57.411953 1399.305542,46.581169 1408.120239,35.686096 
	C1410.175415,33.145695 1411.529419,32.551693 1414.470459,34.964840 
	C1431.125732,48.630322 1448.053833,61.962318 1464.803467,75.513618 
	C1479.628540,87.507874 1494.277344,99.720230 1509.121704,111.690269 
	C1525.209839,124.663284 1541.484009,137.405350 1557.582153,150.366043 
	C1569.101807,159.640549 1580.401489,169.188004 1591.913818,178.471695 
	C1606.466675,190.207214 1621.215454,201.700409 1635.728516,213.484360 
	C1646.511597,222.239761 1656.975098,231.388000 1667.723511,240.187057 
	C1681.400757,251.383957 1695.224976,262.401215 1708.980103,273.503113 
	C1719.167847,281.725647 1729.367554,289.933533 1739.523560,298.195160 
	C1750.835693,307.397339 1762.104126,316.653198 1773.895630,326.249359 
	C1774.950195,326.723450 1775.500854,326.833832 1776.051392,326.944214 
	C1776.051392,326.944244 1776.000000,326.997559 1776.006470,327.383698 
	C1776.873535,332.363770 1773.266113,332.786194 1770.346558,333.759979 
	C1713.378662,352.760864 1656.439087,371.847443 1599.386841,390.591705 
	C1592.903198,392.721893 1585.814819,393.440063 1578.947876,393.867371 
	C1570.166260,394.413849 1561.323364,393.914551 1552.510864,394.082001 
	C1550.995117,394.110779 1549.499878,395.215637 1547.531250,395.892120 
	C1437.879150,395.971100 1328.691162,395.981934 1219.503052,395.984375 
	C1218.341431,395.984406 1217.179688,395.874268 1215.879150,395.519714 
	C1198.938599,375.992706 1182.116089,356.779572 1165.375244,337.495483 
	C1164.059204,335.979492 1163.313232,333.968689 1162.302246,332.187866 
z"/>
<path fill="#F83361" opacity="1.000000" stroke="none" 
	d="
M524.997620,395.822815 
	C526.598755,394.896423 528.118835,393.392090 529.816528,393.154053 
	C534.559509,392.488831 539.386780,392.449707 544.157837,391.945862 
	C545.885254,391.763428 547.739929,391.283813 549.211304,390.398834 
	C586.190369,368.158813 623.116638,345.831055 660.071899,323.551544 
	C693.048279,303.670776 726.080811,283.883118 759.029724,263.956970 
	C799.503296,239.480179 839.902405,214.880203 880.358826,190.374908 
	C912.441223,170.941895 944.557312,151.564514 976.675415,132.190506 
	C978.523987,131.075439 980.525208,130.213455 982.782776,129.093918 
	C990.101868,136.761902 997.105408,144.559113 1004.081604,152.380661 
	C1009.882568,158.884659 1015.672180,165.399078 1021.426880,171.943970 
	C1024.988770,175.995041 1028.476074,180.111862 1031.870361,184.861237 
	C1014.761658,195.885025 997.812317,206.301300 980.789490,216.595993 
	C954.096985,232.738449 927.329285,248.756760 900.640503,264.905273 
	C871.823303,282.341553 843.076904,299.894745 814.268677,317.345795 
	C786.452393,334.195862 758.751648,351.245087 730.697876,367.691132 
	C714.871643,376.968933 700.269165,388.515045 682.600159,394.517700 
	C682.287292,394.623993 682.192932,395.373260 681.532776,395.892090 
	C646.827087,395.972168 612.585205,396.002991 578.343384,395.984924 
	C560.561462,395.975525 542.779541,395.879639 524.997620,395.822815 
z"/>
<path fill="#1A76EF" opacity="1.000000" stroke="none" 
	d="
M1547.995117,395.823425 
	C1549.499878,395.215637 1550.995117,394.110779 1552.510864,394.082001 
	C1561.323364,393.914551 1570.166260,394.413849 1578.947876,393.867371 
	C1585.814819,393.440063 1592.903198,392.721893 1599.386841,390.591705 
	C1656.439087,371.847443 1713.378662,352.760864 1770.346558,333.759979 
	C1773.266113,332.786194 1776.873535,332.363770 1776.034180,327.359863 
	C1791.724121,339.506378 1807.484985,351.950317 1823.033203,364.654388 
	C1835.771484,375.062439 1848.229370,385.813019 1860.867798,396.344299 
	C1865.752319,400.414551 1870.791504,404.299347 1875.888306,408.980560 
	C1876.452271,413.426178 1873.345337,413.333130 1871.155640,414.064972 
	C1815.423218,432.691803 1759.689819,451.316101 1703.931885,469.866516 
	C1691.350220,474.052368 1678.676392,477.962097 1665.959106,481.537048 
	C1665.873169,452.844360 1665.873169,424.613617 1665.873169,395.995911 
	C1663.249146,395.995911 1661.282104,395.998505 1659.315186,395.995514 
	C1622.208496,395.938538 1585.101807,395.880920 1547.995117,395.823425 
z"/>
<path fill="#2374E9" opacity="1.000000" stroke="none" 
	d="
M1666.045166,481.998962 
	C1678.676392,477.962097 1691.350220,474.052368 1703.931885,469.866516 
	C1759.689819,451.316101 1815.423218,432.691803 1871.155640,414.064972 
	C1873.345337,413.333130 1876.452271,413.426178 1876.029541,409.290314 
	C1895.623535,424.350525 1915.212402,439.802490 1934.777832,455.284210 
	C1938.489014,458.220825 1942.106812,461.275513 1945.888550,464.967285 
	C1944.300049,467.159302 1942.834961,469.371338 1940.845215,470.053741 
	C1908.628296,481.102386 1876.370605,492.033417 1844.070923,502.838470 
	C1787.183716,521.868591 1730.265869,540.807556 1673.339111,559.718994 
	C1671.021851,560.488831 1668.481445,560.587646 1665.959473,560.537048 
	C1665.930908,534.049683 1665.988037,508.024323 1666.045166,481.998962 
z"/>
<path fill="#F03666" opacity="1.000000" stroke="none" 
	d="
M681.996643,395.822540 
	C682.192932,395.373260 682.287292,394.623993 682.600159,394.517700 
	C700.269165,388.515045 714.871643,376.968933 730.697876,367.691132 
	C758.751648,351.245087 786.452393,334.195862 814.268677,317.345795 
	C843.076904,299.894745 871.823303,282.341553 900.640503,264.905273 
	C927.329285,248.756760 954.096985,232.738449 980.789490,216.595993 
	C997.812317,206.301300 1014.761658,195.885025 1031.897705,185.209351 
	C1039.057007,192.703903 1046.052856,200.521118 1053.071777,208.317612 
	C1057.603760,213.351715 1062.169678,218.355377 1066.415283,223.740234 
	C1065.270020,224.629547 1064.435791,225.161255 1063.588867,225.671539 
	C1017.946472,253.174622 972.287659,280.650421 926.664062,308.184631 
	C881.893494,335.204010 837.178284,362.315155 792.364502,389.262604 
	C789.351379,391.074463 785.698730,391.810516 782.369385,393.113098 
	C780.220947,393.953644 778.119934,394.915253 775.533752,395.892517 
	C744.045410,395.915771 713.021057,395.869141 681.996643,395.822540 
z"/>
<path fill="#2B71E3" opacity="1.000000" stroke="none" 
	d="
M1666.045044,560.999084 
	C1668.481445,560.587646 1671.021851,560.488831 1673.339111,559.718994 
	C1730.265869,540.807556 1787.183716,521.868591 1844.070923,502.838470 
	C1876.370605,492.033417 1908.628296,481.102386 1940.845215,470.053741 
	C1942.834961,469.371338 1944.300049,467.159302 1946.025879,465.272705 
	C1950.691284,468.418579 1955.402588,471.871582 1959.976685,475.497650 
	C1972.898315,485.741211 1985.770264,496.047485 1998.645020,506.349945 
	C2001.076050,508.295166 2003.429932,510.336609 2005.967773,512.645996 
	C1997.644775,508.718018 1990.005859,512.836731 1982.255493,515.411621 
	C1947.598877,526.925293 1912.950317,538.463074 1878.319092,550.052856 
	C1807.802490,573.651855 1737.298950,597.290039 1666.332520,620.493408 
	C1665.931641,600.382812 1665.988403,580.690979 1666.045044,560.999084 
z"/>
<path fill="#EA376A" opacity="1.000000" stroke="none" 
	d="
M775.997681,395.822632 
	C778.119934,394.915253 780.220947,393.953644 782.369385,393.113098 
	C785.698730,391.810516 789.351379,391.074463 792.364502,389.262604 
	C837.178284,362.315155 881.893494,335.204010 926.664062,308.184631 
	C972.287659,280.650421 1017.946472,253.174622 1063.588867,225.671539 
	C1064.435791,225.161255 1065.270020,224.629547 1066.448486,224.070679 
	C1074.449463,232.782654 1082.112305,241.531738 1089.765137,250.900848 
	C1087.587769,253.304382 1085.601562,255.387100 1083.225708,256.826477 
	C1047.591187,278.415771 1011.931946,299.964844 976.224182,321.432892 
	C936.249207,345.466522 896.216125,369.403503 856.233582,393.424713 
	C855.333313,393.965607 854.737000,395.012512 853.534912,395.893860 
	C827.379883,395.917084 801.688782,395.869873 775.997681,395.822632 
z"/>
<path fill="#E7386C" opacity="1.000000" stroke="none" 
	d="
M853.998901,395.823395 
	C854.737000,395.012512 855.333313,393.965607 856.233582,393.424713 
	C896.216125,369.403503 936.249207,345.466522 976.224182,321.432892 
	C1011.931946,299.964844 1047.591187,278.415771 1083.225708,256.826477 
	C1085.601562,255.387100 1087.587769,253.304382 1089.902588,251.208405 
	C1098.007690,259.811615 1105.968262,268.724915 1113.921265,277.644836 
	C1115.886963,279.849396 1117.828125,282.075714 1119.704590,284.879089 
	C1109.931396,291.210266 1100.198486,296.895416 1090.542603,302.708679 
	C1043.324219,331.136475 996.126709,359.598724 948.921143,388.047729 
	C944.614807,390.642975 940.304016,393.230835 935.531494,395.891174 
	C908.044739,395.914612 881.021851,395.869019 853.998901,395.823395 
z"/>
<path fill="#DF3A71" opacity="1.000000" stroke="none" 
	d="
M935.995361,395.822083 
	C940.304016,393.230835 944.614807,390.642975 948.921143,388.047729 
	C996.126709,359.598724 1043.324219,331.136475 1090.542603,302.708679 
	C1100.198486,296.895416 1109.931396,291.210266 1119.840088,285.183289 
	C1131.960571,298.363770 1143.869629,311.826965 1155.757324,325.908722 
	C1155.101074,327.047913 1154.518311,327.654053 1153.823730,328.076599 
	C1139.073730,337.049622 1124.479126,346.294769 1109.511841,354.890350 
	C1086.536255,368.084930 1065.280029,384.279907 1040.600952,394.513977 
	C1040.274414,394.649414 1040.192017,395.373932 1039.531494,395.891449 
	C1004.710144,395.913635 970.352722,395.867889 935.995361,395.822083 
z"/>
<path fill="#D33E78" opacity="1.000000" stroke="none" 
	d="
M1039.995605,395.823486 
	C1040.192017,395.373932 1040.274414,394.649414 1040.600952,394.513977 
	C1065.280029,384.279907 1086.536255,368.084930 1109.511841,354.890350 
	C1124.479126,346.294769 1139.073730,337.049622 1153.823730,328.076599 
	C1154.518311,327.654053 1155.101074,327.047913 1155.887451,326.214935 
	C1157.898193,327.920929 1159.757568,329.939270 1161.959473,332.072754 
	C1163.313232,333.968689 1164.059204,335.979492 1165.375244,337.495483 
	C1182.116089,356.779572 1198.938599,375.992706 1215.413452,395.584991 
	C1167.195312,395.962616 1119.303955,395.989716 1071.412720,395.987274 
	C1060.940308,395.986725 1050.468018,395.880829 1039.995605,395.823486 
z"/>
<path fill="#F83361" opacity="1.000000" stroke="none" 
	d="
M979.949463,124.620590 
	C979.233459,125.100685 978.420166,125.313194 977.606873,125.525696 
	C977.592651,124.799873 977.578369,124.074051 977.836304,123.149734 
	C978.689758,123.418503 979.270935,123.885757 979.949463,124.620590 
z"/>
<path fill="#1A76EF" opacity="1.000000" stroke="none" 
	d="
M1775.945801,326.643646 
	C1775.500854,326.833832 1774.950195,326.723450 1774.210449,326.397217 
	C1774.627563,326.235260 1775.234009,326.289185 1775.945801,326.643646 
z"/>
<path fill="#000000" opacity="1.000000" stroke="none" 
	d="
M1039.531494,395.891418 
	C1050.468018,395.880829 1060.940308,395.986725 1071.412720,395.987274 
	C1119.303955,395.989716 1167.195312,395.962616 1215.552246,395.880859 
	C1217.179688,395.874268 1218.341431,395.984406 1219.503052,395.984375 
	C1328.691162,395.981934 1437.879150,395.971100 1547.531250,395.892090 
	C1585.101807,395.880920 1622.208496,395.938538 1659.315186,395.995514 
	C1661.282104,395.998505 1663.249146,395.995911 1665.873169,395.995911 
	C1665.873169,424.613617 1665.873169,452.844360 1665.959229,481.537018 
	C1665.988037,508.024323 1665.930908,534.049683 1665.959473,560.537048 
	C1665.988403,580.690979 1665.931641,600.382812 1665.959717,620.536865 
	C1665.988525,639.690918 1665.932617,658.382812 1665.873291,677.998840 
	C1665.928467,697.281433 1665.986816,715.639954 1665.958008,734.460449 
	C1665.928711,755.281067 1665.986694,775.639648 1665.958984,796.460571 
	C1665.930664,813.281738 1665.988037,829.640686 1665.960938,846.461914 
	C1665.932007,858.617310 1665.987549,870.310364 1665.959961,882.465698 
	C1665.933594,909.615051 1665.990479,936.302124 1665.964111,963.452881 
	C1665.935913,976.276978 1665.991089,988.637512 1665.968506,1001.461426 
	C1665.872681,1021.854126 1665.820435,1041.783447 1665.845947,1061.712769 
	C1665.869629,1080.141846 1665.976562,1098.571045 1665.959961,1117.461914 
	C1665.930420,1146.615967 1665.987915,1175.307983 1666.045288,1204.000122 
	C1665.985474,1233.692505 1665.925659,1263.385010 1665.868530,1294.000732 
	C1665.855957,1334.644165 1665.828735,1374.364136 1665.835815,1414.084229 
	C1665.837158,1421.723022 1665.972046,1429.361816 1665.958496,1437.462402 
	C1665.856812,1507.957642 1665.841064,1577.990845 1665.836426,1648.024170 
	C1665.836426,1649.016235 1665.973511,1650.008179 1665.958984,1651.440552 
	C1664.649536,1654.660156 1668.848267,1659.984497 1661.538574,1660.043457 
	C1649.449829,1659.954346 1637.823975,1659.920044 1626.198120,1659.939819 
	C1598.466187,1659.987305 1570.734253,1660.060181 1542.539307,1660.043213 
	C1520.718018,1660.016479 1499.359985,1660.069336 1478.001831,1660.122192 
	C1451.644043,1660.071289 1425.286255,1660.020386 1398.465088,1660.045166 
	C1371.310913,1660.071167 1344.619873,1660.021362 1317.465576,1660.046875 
	C1297.977661,1660.072144 1278.953003,1660.022339 1259.465088,1660.047607 
	C1233.977783,1660.072998 1208.953857,1660.023438 1183.466309,1660.047363 
	C1149.645752,1660.073486 1116.288696,1660.025879 1082.468018,1660.050049 
	C1059.323364,1660.074097 1036.642578,1660.026489 1013.502686,1660.051758 
	C996.257629,1660.062622 979.471680,1659.958618 962.685669,1659.947876 
	C931.432861,1659.927734 900.180115,1659.961792 868.463623,1660.047363 
	C839.605530,1660.061279 811.210999,1659.992432 782.816528,1659.945312 
	C772.520203,1659.928223 762.223694,1659.963013 751.463623,1660.048096 
	C725.309082,1660.072632 699.618225,1660.023071 673.463623,1660.047852 
	C646.975769,1660.072632 620.951538,1660.022949 594.463623,1660.047607 
	C562.309082,1660.072144 530.618164,1660.022339 498.463623,1660.046997 
	C469.962860,1660.060547 441.925751,1660.000000 413.888611,1659.938721 
	C410.570221,1659.931519 407.251801,1659.920898 403.354736,1659.680908 
	C402.583221,1659.233887 402.348450,1659.083008 402.071716,1658.997559 
	C402.001862,1651.306152 401.931976,1643.614624 401.778442,1635.461182 
	C401.763885,1611.239502 401.856354,1587.479614 401.892242,1563.719849 
	C401.910309,1551.755249 401.825562,1539.790283 401.732849,1527.420776 
	C401.752960,1514.060425 401.882202,1501.104858 401.891174,1488.149292 
	C401.912018,1458.074951 401.874817,1428.000610 401.859650,1397.002686 
	C401.872711,1330.190918 401.887970,1264.302734 401.893280,1198.414551 
	C401.893372,1197.587646 401.765625,1196.760742 401.780762,1195.549805 
	C401.808868,1194.119385 401.753693,1193.072876 401.769501,1191.561157 
	C401.857117,1110.289673 401.874390,1029.483521 401.881470,948.677307 
	C401.881561,947.850037 401.747467,947.022705 401.763489,945.721924 
	C401.797485,915.496521 401.744049,885.744568 401.772308,855.531250 
	C401.799591,829.042969 401.745209,803.016113 401.690796,776.989197 
	C401.748322,753.965942 401.805847,730.942749 401.777069,707.457642 
	C401.748383,686.637085 401.805969,666.278442 401.777130,645.457947 
	C401.748413,624.637024 401.806091,604.277954 401.776672,583.457092 
	C401.748352,552.969910 401.807098,522.944458 401.778687,492.457245 
	C401.760010,465.558136 401.830658,439.120758 401.894989,412.683380 
	C401.907928,407.367706 401.896881,402.051971 401.896881,395.963470 
	C442.741028,395.963470 483.405457,395.963470 524.533752,395.893127 
	C542.779541,395.879639 560.561462,395.975525 578.343384,395.984924 
	C612.585205,396.002991 646.827087,395.972168 681.532776,395.892090 
	C713.021057,395.869141 744.045410,395.915771 775.533752,395.892517 
	C801.688782,395.869873 827.379883,395.917084 853.534912,395.893860 
	C881.021851,395.869019 908.044739,395.914612 935.531494,395.891174 
	C970.352722,395.867889 1004.710144,395.913635 1039.531494,395.891418 
M520.901978,1501.926270 
	C678.124573,1501.926270 835.347107,1501.926270 992.686951,1501.926270 
	C992.686951,1475.554688 992.686951,1449.764282 992.839966,1423.499268 
	C992.674377,1423.098877 992.400330,1423.000610 991.105774,1422.964111 
	C833.756348,1422.964111 676.406860,1422.964111 519.152588,1422.964111 
	C519.152588,1449.406128 519.152588,1475.208130 519.060547,1501.530518 
	C519.365540,1501.605347 519.670532,1501.680054 520.901978,1501.926270 
M672.067261,986.969421 
	C647.457275,986.969421 622.847229,986.969421 598.170593,986.969421 
	C598.170593,1019.348389 598.170593,1051.244751 598.170593,1083.308105 
	C685.859924,1083.308105 773.285706,1083.308105 860.874023,1083.308105 
	C860.874023,1051.170166 860.874023,1019.260376 860.874023,986.970947 
	C836.576294,986.970947 812.496399,986.970947 788.348511,986.970947 
	C788.348511,876.573853 788.348511,766.557068 788.348511,656.089661 
	C812.747986,656.089661 836.805298,656.089661 860.735352,656.089661 
	C860.735352,623.751343 860.735352,591.865356 860.735352,560.180176 
	C772.964966,560.180176 685.555054,560.180176 598.243103,560.180176 
	C598.243103,592.377686 598.243103,624.278076 598.243103,656.447327 
	C623.534058,656.447327 648.489685,656.447327 673.952881,656.447327 
	C673.952881,658.313110 673.952942,659.932617 673.952942,661.552185 
	C673.952881,768.202942 673.953613,874.853760 673.946167,981.504517 
	C673.946045,983.000305 673.845215,984.496094 673.430786,986.160706 
	C673.210815,986.327942 673.064392,986.544800 672.067261,986.969421 
M1046.907471,960.572754 
	C1036.477905,951.226318 1026.048340,941.879822 1015.372681,932.312866 
	C991.620178,958.919006 967.411682,986.035889 942.982239,1013.400208 
	C947.345276,1018.036682 951.453918,1022.533508 955.702148,1026.894287 
	C972.308228,1043.940186 990.946411,1058.570923 1011.825989,1069.797607 
	C1038.716309,1084.255981 1067.947266,1090.987793 1098.449341,1091.927612 
	C1115.143921,1092.441895 1131.873535,1092.510376 1148.301758,1088.986084 
	C1158.910034,1086.710327 1169.583740,1084.337524 1179.816406,1080.813232 
	C1192.678833,1076.383057 1206.016846,1072.233643 1217.579834,1065.332764 
	C1255.949951,1042.432495 1280.885620,1008.705994 1290.699341,965.085510 
	C1294.741455,947.118469 1296.646240,928.310791 1296.733276,909.872314 
	C1297.277588,794.551392 1297.033936,679.226685 1297.039062,563.903259 
	C1297.039062,562.628601 1296.877075,561.354004 1296.797363,560.177917 
	C1257.744995,560.177917 1219.015259,560.177917 1180.032837,560.177917 
	C1180.032837,562.288269 1180.032837,564.097778 1180.032837,565.907288 
	C1180.032837,669.898438 1180.112305,773.889709 1179.942627,877.880615 
	C1179.918701,892.576294 1178.837036,907.279541 1177.951782,921.961548 
	C1177.305420,932.679932 1174.394897,942.901306 1169.583496,952.504883 
	C1155.555298,980.504517 1122.833252,986.500916 1098.363647,983.497742 
	C1079.462524,981.178040 1062.711182,972.443970 1046.907471,960.572754 
z"/>
<path fill="#107CF3" opacity="1.000000" stroke="none" 
	d="
M1662.001465,1660.122925 
	C1668.848267,1659.984497 1664.649536,1654.660156 1666.305298,1651.400635 
	C1668.127563,1649.342163 1669.846069,1647.948853 1670.851196,1646.155518 
	C1678.242432,1632.968140 1685.500000,1619.705444 1692.783081,1606.457397 
	C1703.907715,1586.221069 1714.960571,1565.945190 1726.149658,1545.744751 
	C1742.567505,1516.103882 1759.101685,1486.527466 1775.542847,1456.899414 
	C1789.406128,1431.916870 1803.197144,1406.894409 1817.038696,1381.899902 
	C1835.788940,1348.041626 1854.565430,1314.197632 1873.314331,1280.338379 
	C1888.925171,1252.145874 1904.510986,1223.939697 1920.110718,1195.740967 
	C1939.168091,1161.291992 1958.253296,1126.858276 1977.279297,1092.391846 
	C1993.818481,1062.430420 2010.241699,1032.404907 2026.853149,1002.483826 
	C2029.103882,998.429810 2032.153320,994.819153 2034.832764,991.003174 
	C2034.551147,1008.906799 2034.327759,1026.811646 2033.955688,1044.713501 
	C2033.829102,1050.811646 2033.206787,1056.898315 2033.023682,1062.996704 
	C2032.611206,1076.734497 2032.395630,1090.478149 2031.983765,1104.215820 
	C2031.375854,1124.497925 2030.700806,1144.778076 2029.972778,1165.056152 
	C2029.827515,1169.099731 2029.316895,1173.130249 2028.541260,1177.590088 
	C2026.693726,1179.442139 2024.866577,1180.642334 2023.929932,1182.335205 
	C2015.481567,1197.604614 2007.279297,1213.010254 1998.829834,1228.279053 
	C1986.040771,1251.390259 1973.068237,1274.399780 1960.258179,1297.499390 
	C1952.360229,1311.741333 1944.689697,1326.109497 1936.792480,1340.351929 
	C1923.983398,1363.452026 1911.012817,1386.462646 1898.223145,1409.573608 
	C1888.325928,1427.457520 1878.662354,1445.470703 1868.784912,1463.365967 
	C1855.538574,1487.364624 1842.170410,1511.296021 1828.885010,1535.273193 
	C1819.785034,1551.697021 1810.769287,1568.167358 1801.658447,1584.585083 
	C1788.760864,1607.825928 1775.775391,1631.018188 1762.894531,1654.268311 
	C1753.472900,1671.274780 1744.190918,1688.358521 1734.789062,1705.376099 
	C1721.211304,1729.952393 1707.569336,1754.493164 1693.978638,1779.062378 
	C1686.498291,1792.584961 1679.086670,1806.145386 1671.609619,1819.669800 
	C1661.561890,1837.844238 1651.514282,1856.018921 1641.380981,1874.145630 
	C1639.677856,1877.192017 1639.740723,1879.451904 1643.118530,1881.052979 
	C1618.679810,1891.013794 1594.254150,1901.006958 1569.797852,1910.924438 
	C1551.793457,1918.225464 1533.750244,1925.431152 1515.715820,1932.658325 
	C1515.125732,1932.894775 1514.443604,1932.901245 1513.443237,1932.693848 
	C1513.662109,1930.828979 1514.058594,1929.183228 1514.849487,1927.756226 
	C1529.003662,1902.218628 1543.229492,1876.720703 1557.390381,1851.186768 
	C1571.311035,1826.086060 1585.174438,1800.953247 1599.066040,1775.836304 
	C1618.177612,1741.282104 1637.317749,1706.743652 1656.368896,1672.156250 
	C1658.501099,1668.285278 1660.135986,1664.140625 1662.001465,1660.122925 
z"/>
<path fill="#137CF0" opacity="1.000000" stroke="none" 
	d="
M2034.904419,990.561157 
	C2032.153320,994.819153 2029.103882,998.429810 2026.853149,1002.483826 
	C2010.241699,1032.404907 1993.818481,1062.430420 1977.279297,1092.391846 
	C1958.253296,1126.858276 1939.168091,1161.291992 1920.110718,1195.740967 
	C1904.510986,1223.939697 1888.925171,1252.145874 1873.314331,1280.338379 
	C1854.565430,1314.197632 1835.788940,1348.041626 1817.038696,1381.899902 
	C1803.197144,1406.894409 1789.406128,1431.916870 1775.542847,1456.899414 
	C1759.101685,1486.527466 1742.567505,1516.103882 1726.149658,1545.744751 
	C1714.960571,1565.945190 1703.907715,1586.221069 1692.783081,1606.457397 
	C1685.500000,1619.705444 1678.242432,1632.968140 1670.851196,1646.155518 
	C1669.846069,1647.948853 1668.127563,1649.342163 1666.392944,1650.960449 
	C1665.973511,1650.008179 1665.836426,1649.016235 1665.836426,1648.024170 
	C1665.841064,1577.990845 1665.856812,1507.957642 1666.306641,1437.423584 
	C1668.126343,1435.360840 1669.853760,1433.989014 1670.842773,1432.207397 
	C1680.360474,1415.061890 1689.701782,1397.818481 1699.195312,1380.659424 
	C1712.386841,1356.816650 1725.703003,1333.042480 1738.895508,1309.200195 
	C1748.389893,1292.041382 1757.730835,1274.797974 1767.209595,1257.630493 
	C1780.782593,1233.047729 1794.421021,1208.501099 1808.026978,1183.936646 
	C1816.802979,1168.092163 1825.555420,1152.234741 1834.346680,1136.398560 
	C1845.797852,1115.770508 1857.316284,1095.179932 1868.730835,1074.531738 
	C1878.298950,1057.223633 1887.713379,1039.830688 1897.280396,1022.522095 
	C1908.774292,1001.727844 1920.383057,980.997070 1931.894653,960.212524 
	C1941.073242,943.640137 1950.140869,927.006226 1959.328491,910.439026 
	C1973.993896,883.994751 1988.760010,857.606323 2003.403320,831.149902 
	C2014.750732,810.648193 2025.923950,790.049866 2037.321167,769.576172 
	C2038.686890,767.122864 2040.973877,765.182617 2042.833862,763.004639 
	C2042.554810,771.576782 2042.250000,780.148254 2042.003052,788.721313 
	C2041.645386,801.140320 2041.354736,813.561157 2040.988037,825.979858 
	C2040.694824,835.911682 2040.320801,845.841125 2040.001465,855.772156 
	C2039.655884,866.527832 2039.339966,877.284363 2038.996460,888.040100 
	C2038.674316,898.129456 2038.326294,908.218018 2038.001587,918.307312 
	C2037.660645,928.898865 2037.339600,939.491089 2036.998535,950.082642 
	C2036.673706,960.171509 2036.390625,970.262207 2035.969238,980.347168 
	C2035.832886,983.612610 2035.317871,986.862305 2034.904419,990.561157 
z"/>
<path fill="#197CEA" opacity="1.000000" stroke="none" 
	d="
M2042.905884,762.540527 
	C2040.973877,765.182617 2038.686890,767.122864 2037.321167,769.576172 
	C2025.923950,790.049866 2014.750732,810.648193 2003.403320,831.149902 
	C1988.760010,857.606323 1973.993896,883.994751 1959.328491,910.439026 
	C1950.140869,927.006226 1941.073242,943.640137 1931.894653,960.212524 
	C1920.383057,980.997070 1908.774292,1001.727844 1897.280396,1022.522095 
	C1887.713379,1039.830688 1878.298950,1057.223633 1868.730835,1074.531738 
	C1857.316284,1095.179932 1845.797852,1115.770508 1834.346680,1136.398560 
	C1825.555420,1152.234741 1816.802979,1168.092163 1808.026978,1183.936646 
	C1794.421021,1208.501099 1780.782593,1233.047729 1767.209595,1257.630493 
	C1757.730835,1274.797974 1748.389893,1292.041382 1738.895508,1309.200195 
	C1725.703003,1333.042480 1712.386841,1356.816650 1699.195312,1380.659424 
	C1689.701782,1397.818481 1680.360474,1415.061890 1670.842773,1432.207397 
	C1669.853760,1433.989014 1668.126343,1435.360840 1666.393433,1436.961670 
	C1665.972046,1429.361816 1665.837158,1421.723022 1665.835815,1414.084229 
	C1665.828735,1374.364136 1665.855957,1334.644165 1665.958130,1294.462158 
	C1671.944336,1292.329102 1672.825562,1286.475952 1675.202881,1282.232666 
	C1693.640747,1249.322998 1711.715576,1216.209961 1729.934937,1183.177734 
	C1743.818848,1158.005615 1757.746582,1132.857544 1771.661255,1107.702393 
	C1790.723755,1073.241333 1809.784668,1038.779541 1828.861206,1004.326355 
	C1844.154053,976.706909 1859.480469,949.106140 1874.771484,921.485657 
	C1892.155762,890.084351 1909.518921,858.671265 1926.887939,827.261536 
	C1940.799316,802.104858 1954.701294,776.942932 1968.615845,751.788025 
	C1987.677979,717.327087 2006.735718,682.863647 2025.822510,648.416260 
	C2032.022339,637.226929 2038.298706,626.080017 2044.572876,614.932129 
	C2044.958008,614.247864 2045.630737,613.725647 2046.501709,613.065796 
	C2046.230347,633.426697 2045.626831,653.849792 2045.024414,674.272888 
	C2045.009644,674.770874 2045.010376,675.269348 2045.000610,675.767456 
	C2044.667847,692.644226 2044.374023,709.521851 2043.988159,726.397400 
	C2043.716309,738.291870 2043.319092,750.183533 2042.905884,762.540527 
z"/>
<path fill="#0D7CF5" opacity="1.000000" stroke="none" 
	d="
M1643.493652,1881.017700 
	C1639.740723,1879.451904 1639.677856,1877.192017 1641.380981,1874.145630 
	C1651.514282,1856.018921 1661.561890,1837.844238 1671.609619,1819.669800 
	C1679.086670,1806.145386 1686.498291,1792.584961 1693.978638,1779.062378 
	C1707.569336,1754.493164 1721.211304,1729.952393 1734.789062,1705.376099 
	C1744.190918,1688.358521 1753.472900,1671.274780 1762.894531,1654.268311 
	C1775.775391,1631.018188 1788.760864,1607.825928 1801.658447,1584.585083 
	C1810.769287,1568.167358 1819.785034,1551.697021 1828.885010,1535.273193 
	C1842.170410,1511.296021 1855.538574,1487.364624 1868.784912,1463.365967 
	C1878.662354,1445.470703 1888.325928,1427.457520 1898.223145,1409.573608 
	C1911.012817,1386.462646 1923.983398,1363.452026 1936.792480,1340.351929 
	C1944.689697,1326.109497 1952.360229,1311.741333 1960.258179,1297.499390 
	C1973.068237,1274.399780 1986.040771,1251.390259 1998.829834,1228.279053 
	C2007.279297,1213.010254 2015.481567,1197.604614 2023.929932,1182.335205 
	C2024.866577,1180.642334 2026.693726,1179.442139 2028.470459,1178.007080 
	C2028.879639,1179.391846 2028.926270,1180.782715 2028.552856,1182.632080 
	C2026.845825,1184.862549 2025.558716,1186.634766 2024.271484,1188.406982 
	C2025.792114,1189.271973 2027.312500,1190.136963 2028.833008,1191.001953 
	C2028.878296,1191.447021 2028.923584,1191.892090 2028.509277,1192.670410 
	C2024.452637,1194.182007 2024.345947,1199.097168 2027.833008,1202.999146 
	C2027.552856,1222.914185 2027.331909,1242.830322 2026.960571,1262.743652 
	C2026.831421,1269.674683 2026.233398,1276.595703 2026.021362,1283.526489 
	C2025.615601,1296.780640 2025.388550,1310.040161 2024.975708,1323.294067 
	C2024.770142,1329.891602 2024.317627,1336.481201 2023.565674,1343.583984 
	C2022.437134,1344.733154 2021.479492,1345.238770 2021.037476,1346.031860 
	C2009.072388,1367.501587 1997.128540,1388.983154 1985.249146,1410.500366 
	C1975.695801,1427.804443 1966.281860,1445.185425 1956.716064,1462.482544 
	C1943.536011,1486.315063 1930.249634,1510.088745 1917.049561,1533.910278 
	C1907.872314,1550.471802 1898.791870,1567.087158 1889.618286,1583.650879 
	C1876.423584,1607.475098 1863.154907,1631.258423 1849.972168,1655.089111 
	C1840.484741,1672.239868 1831.131836,1689.464966 1821.637451,1706.611694 
	C1808.606079,1730.146240 1795.498535,1753.638672 1782.421143,1777.147583 
	C1774.429688,1791.513672 1766.322388,1805.816650 1758.494019,1820.270874 
	C1755.363403,1826.051025 1752.842651,1832.161377 1750.044189,1838.121338 
	C1714.652344,1852.408325 1679.260620,1866.695435 1643.493652,1881.017700 
z"/>
<path fill="#0B7CF7" opacity="1.000000" stroke="none" 
	d="
M1750.421387,1838.060425 
	C1752.842651,1832.161377 1755.363403,1826.051025 1758.494019,1820.270874 
	C1766.322388,1805.816650 1774.429688,1791.513672 1782.421143,1777.147583 
	C1795.498535,1753.638672 1808.606079,1730.146240 1821.637451,1706.611694 
	C1831.131836,1689.464966 1840.484741,1672.239868 1849.972168,1655.089111 
	C1863.154907,1631.258423 1876.423584,1607.475098 1889.618286,1583.650879 
	C1898.791870,1567.087158 1907.872314,1550.471802 1917.049561,1533.910278 
	C1930.249634,1510.088745 1943.536011,1486.315063 1956.716064,1462.482544 
	C1966.281860,1445.185425 1975.695801,1427.804443 1985.249146,1410.500366 
	C1997.128540,1388.983154 2009.072388,1367.501587 2021.037476,1346.031860 
	C2021.479492,1345.238770 2022.437134,1344.733154 2023.494141,1344.047363 
	C2023.225220,1359.681763 2022.616333,1375.362427 2022.009277,1391.042969 
	C2021.996338,1391.375732 2022.007446,1391.709351 2022.000000,1392.042358 
	C2021.667114,1406.971924 2021.338135,1421.901489 2020.998657,1436.830933 
	C2020.670410,1451.260010 2020.369263,1465.689697 2019.984375,1480.117310 
	C2019.719604,1490.044312 2019.321533,1499.967651 2019.002441,1509.893311 
	C2018.656738,1520.653442 2018.343994,1531.414673 2017.997803,1542.174805 
	C2017.678223,1552.099976 2017.322510,1562.023804 2017.003052,1571.948975 
	C2016.656616,1582.708008 2016.339966,1593.468018 2015.998901,1604.227295 
	C2015.673950,1614.485474 2015.329102,1624.742920 2015.002197,1635.000977 
	C2014.332275,1656.024414 2013.674805,1677.048218 2012.999878,1698.071411 
	C2012.681274,1707.996460 2012.225220,1717.918945 2012.054932,1727.846313 
	C2011.988037,1731.739502 2010.838745,1733.671753 2006.770386,1735.253662 
	C1982.370972,1744.740845 1958.190552,1754.789062 1933.895874,1764.547485 
	C1912.524780,1773.131470 1891.069580,1781.506714 1869.706787,1790.111572 
	C1846.465454,1799.472900 1823.309814,1809.047363 1800.074951,1818.425049 
	C1783.685791,1825.039673 1767.226562,1831.480835 1750.421387,1838.060425 
z"/>
<path fill="#137CF0" opacity="1.000000" stroke="none" 
	d="
M1661.538574,1660.043457 
	C1660.135986,1664.140625 1658.501099,1668.285278 1656.368896,1672.156250 
	C1637.317749,1706.743652 1618.177612,1741.282104 1599.066040,1775.836304 
	C1585.174438,1800.953247 1571.311035,1826.086060 1557.390381,1851.186768 
	C1543.229492,1876.720703 1529.003662,1902.218628 1514.849487,1927.756226 
	C1514.058594,1929.183228 1513.662109,1930.828979 1513.058350,1932.747803 
	C1462.265747,1953.658203 1411.496826,1974.193726 1360.370483,1994.420166 
	C1360.370239,1993.206421 1360.631470,1992.248535 1361.098877,1991.404907 
	C1370.111816,1975.130371 1379.177490,1958.885010 1388.173462,1942.601318 
	C1397.573364,1925.586670 1406.873779,1908.516968 1416.285889,1891.509155 
	C1427.786743,1870.726685 1439.384033,1849.997559 1450.891968,1829.218872 
	C1460.067627,1812.651245 1469.140381,1796.026733 1478.315063,1779.458496 
	C1489.821411,1758.679199 1501.377441,1737.927246 1512.926758,1717.171631 
	C1520.840820,1702.948608 1528.885132,1688.796509 1536.645996,1674.490601 
	C1539.135254,1669.902222 1540.903931,1664.923096 1543.002319,1660.122681 
	C1570.734253,1660.060181 1598.466187,1659.987305 1626.198120,1659.939819 
	C1637.823975,1659.920044 1649.449829,1659.954346 1661.538574,1660.043457 
z"/>
<path fill="#187CEB" opacity="1.000000" stroke="none" 
	d="
M1542.539307,1660.043213 
	C1540.903931,1664.923096 1539.135254,1669.902222 1536.645996,1674.490601 
	C1528.885132,1688.796509 1520.840820,1702.948608 1512.926758,1717.171631 
	C1501.377441,1737.927246 1489.821411,1758.679199 1478.315063,1779.458496 
	C1469.140381,1796.026733 1460.067627,1812.651245 1450.891968,1829.218872 
	C1439.384033,1849.997559 1427.786743,1870.726685 1416.285889,1891.509155 
	C1406.873779,1908.516968 1397.573364,1925.586670 1388.173462,1942.601318 
	C1379.177490,1958.885010 1370.111816,1975.130371 1361.098877,1991.404907 
	C1360.631470,1992.248535 1360.370239,1993.206421 1360.007324,1994.471802 
	C1338.505981,2003.553711 1317.006470,2012.265015 1295.517334,2021.002197 
	C1289.235229,2023.556274 1282.983032,2026.183838 1276.355103,2028.816895 
	C1277.944214,2024.687500 1279.669800,2020.395142 1281.882812,2016.370728 
	C1297.409424,1988.134644 1313.033813,1959.952271 1328.632446,1931.755737 
	C1347.688721,1897.309326 1366.754150,1862.867920 1385.809204,1828.420776 
	C1401.487549,1800.077881 1417.123169,1771.711426 1432.839478,1743.389771 
	C1447.263916,1717.396118 1461.781006,1691.453857 1476.214722,1665.465332 
	C1477.005859,1664.040894 1477.406372,1662.399414 1477.995117,1660.490601 
	C1499.359985,1660.069336 1520.718018,1660.016479 1542.539307,1660.043213 
z"/>
<path fill="#107CF3" opacity="1.000000" stroke="none" 
	d="
M2028.904297,1190.562012 
	C2027.312500,1190.136963 2025.792114,1189.271973 2024.271484,1188.406982 
	C2025.558716,1186.634766 2026.845825,1184.862549 2028.482910,1183.044678 
	C2028.880493,1185.373291 2028.927979,1187.747681 2028.904297,1190.562012 
z"/>
<path fill="#107CF3" opacity="1.000000" stroke="none" 
	d="
M2028.028564,1202.628418 
	C2024.345947,1199.097168 2024.452637,1194.182007 2028.441406,1193.000854 
	C2028.630127,1196.084595 2028.427124,1199.171265 2028.028564,1202.628418 
z"/>
<path fill="#207CE3" opacity="1.000000" stroke="none" 
	d="
M1666.394043,1203.959473 
	C1665.987915,1175.307983 1665.930420,1146.615967 1666.309326,1117.421143 
	C1667.552979,1116.152100 1668.617920,1115.527588 1669.130127,1114.598389 
	C1678.833618,1096.995239 1688.458862,1079.348877 1698.127441,1061.726318 
	C1705.478271,1048.328247 1712.824097,1034.927124 1720.248779,1021.569824 
	C1731.301880,1001.684570 1742.475342,981.866211 1753.497925,961.964172 
	C1763.156006,944.525879 1772.625244,926.982971 1782.271606,909.538086 
	C1795.451416,885.702820 1808.685669,861.897583 1821.963013,838.116516 
	C1830.380493,823.040161 1838.981201,808.065857 1847.359863,792.968201 
	C1849.502075,789.107971 1851.113281,784.953003 1853.016602,780.595642 
	C1856.731812,775.799561 1860.373535,771.320251 1864.070801,766.887146 
	C1873.277344,755.847839 1882.520508,744.838989 1891.726318,733.799011 
	C1895.527100,729.240723 1899.269897,724.634155 1903.336914,719.894653 
	C1912.522827,709.242615 1921.444946,698.774109 1930.291504,688.242310 
	C1944.893066,670.859497 1959.445923,653.435852 1974.319824,635.877441 
	C1980.080322,629.482910 1985.540161,623.240234 1991.000000,616.997559 
	C1988.545166,622.544373 1986.439209,628.279297 1983.568848,633.601990 
	C1975.687500,648.217590 1967.483154,662.658997 1959.410156,677.171265 
	C1946.412598,700.536255 1933.386719,723.885559 1920.432617,747.274597 
	C1910.935669,764.421631 1901.575928,781.644592 1892.079590,798.791931 
	C1880.896729,818.984802 1869.604736,839.117310 1858.412964,859.305237 
	C1850.842285,872.961182 1843.394287,886.685120 1835.835327,900.347595 
	C1822.327759,924.761658 1808.755615,949.139954 1795.253174,973.556824 
	C1785.928589,990.418945 1776.718262,1007.344299 1767.381348,1024.199463 
	C1754.425415,1047.587769 1741.370239,1070.921021 1728.411133,1094.307495 
	C1719.072021,1111.161499 1709.833374,1128.071045 1700.525879,1144.942627 
	C1690.015869,1163.994019 1679.489746,1183.036499 1668.915039,1202.052002 
	C1668.479736,1202.834717 1667.479614,1203.303589 1666.394043,1203.959473 
z"/>
<path fill="#3C6CD9" opacity="1.000000" stroke="none" 
	d="
M1991.147827,616.696899 
	C1985.540161,623.240234 1980.080322,629.482910 1974.311279,635.475037 
	C1973.941895,630.063232 1970.727295,632.292725 1968.496094,633.040710 
	C1942.832153,641.643555 1917.211182,650.374573 1891.546387,658.975037 
	C1860.050415,669.529602 1828.529297,680.009155 1797.009277,690.491638 
	C1753.359375,705.008301 1709.700317,719.497498 1666.045166,733.998413 
	C1665.986816,715.639954 1665.928467,697.281433 1665.957520,678.461060 
	C1678.851196,673.907288 1691.700073,669.943359 1704.456421,665.701721 
	C1768.332153,644.462402 1832.199463,623.197632 1896.038086,601.847778 
	C1942.218140,586.403625 1988.344727,570.799866 2034.515625,555.328430 
	C2036.607544,554.627441 2039.248291,552.523682 2040.863892,556.686462 
	C2024.438354,576.805420 2007.866943,596.600830 1991.147827,616.696899 
z"/>
<path fill="#D33E78" opacity="1.000000" stroke="none" 
	d="
M401.319305,776.991882 
	C401.745209,803.016113 401.799591,829.042969 401.435272,855.584351 
	C399.370544,856.885559 397.645752,857.541443 396.090240,858.478333 
	C367.028076,875.981323 337.977814,893.504211 308.976288,911.107422 
	C308.011810,911.692810 307.584839,913.163818 306.907349,914.222046 
	C299.517273,911.859863 292.127136,909.497620 284.360504,907.126221 
	C269.371887,902.121948 254.756989,897.134949 240.149048,892.127625 
	C234.335999,890.134949 228.538391,888.097229 222.372665,885.962891 
	C222.742935,884.695190 223.201004,883.096375 224.245529,882.459473 
	C251.010864,866.140320 277.832825,849.914001 304.654572,833.687500 
	C334.315186,815.743652 363.971100,797.791870 393.680420,779.929016 
	C395.891602,778.599487 398.515656,777.956604 401.319305,776.991882 
z"/>
<path fill="#171717" opacity="1.000000" stroke="none" 
	d="
M402.075653,1659.259521 
	C402.348450,1659.083008 402.583221,1659.233887 402.889038,1659.628540 
	C402.694519,1659.711792 402.387054,1659.616577 402.075653,1659.259521 
z"/>
<path fill="#AA4B92" opacity="1.000000" stroke="none" 
	d="
M401.697540,1195.933838 
	C401.765625,1196.760742 401.893372,1197.587646 401.893280,1198.414551 
	C401.887970,1264.302734 401.872711,1330.190918 401.775391,1396.541504 
	C390.497894,1403.440430 379.240204,1409.770386 368.125061,1416.341431 
	C355.422211,1423.850830 342.857239,1431.593262 330.192200,1439.167236 
	C329.261383,1439.723999 328.005920,1439.737915 326.527039,1440.008301 
	C327.048706,1436.587280 327.944672,1433.161987 329.097778,1429.047363 
	C336.551086,1404.572266 343.747284,1380.786255 351.123566,1356.675537 
	C356.533813,1339.280640 361.810059,1322.224487 366.975769,1305.135132 
	C369.794800,1295.808960 372.426575,1286.426147 375.393250,1276.807617 
	C380.168213,1261.641235 384.625000,1246.714966 389.238312,1231.837402 
	C393.055511,1219.527100 397.057404,1207.274292 401.054962,1195.182983 
	C401.261749,1195.617065 401.450134,1195.805054 401.697540,1195.933838 
z"/>
<path fill="#C74280" opacity="1.000000" stroke="none" 
	d="
M307.047058,914.417236 
	C307.584839,913.163818 308.011810,911.692810 308.976288,911.107422 
	C337.977814,893.504211 367.028076,875.981323 396.090240,858.478333 
	C397.645752,857.541443 399.370544,856.885559 401.353577,856.045776 
	C401.744049,885.744568 401.797485,915.496521 401.383789,945.669067 
	C391.606445,943.092773 382.296234,940.095947 372.656128,936.931152 
	C364.546570,934.214417 356.766876,931.665527 348.651733,928.958679 
	C341.207642,926.573730 334.098999,924.346802 326.990387,922.119812 
	C320.906647,919.797302 314.822906,917.474792 308.363831,915.148926 
	C307.704651,914.992798 307.437378,914.815063 307.047058,914.417236 
z"/>
<path fill="#DF7A2B" opacity="1.000000" stroke="none" 
	d="
M326.993835,922.577759 
	C334.098999,924.346802 341.207642,926.573730 348.656372,929.415955 
	C348.997650,1070.049927 348.998718,1210.068604 349.000549,1350.087280 
	C349.000580,1351.585693 348.781494,1353.134277 349.097137,1354.564087 
	C349.296692,1355.468018 350.300446,1356.194336 350.943481,1357.000366 
	C343.747284,1380.786255 336.551086,1404.572266 329.172485,1428.678833 
	C328.326721,1426.368286 327.084229,1423.737549 327.082764,1421.105957 
	C326.989929,1255.082520 326.998169,1089.059082 326.993835,922.577759 
z"/>
<path fill="#FFFFFF" opacity="1.000000" stroke="none" 
	d="
M673.791382,985.991882 
	C673.845215,984.496094 673.946045,983.000305 673.946167,981.504517 
	C673.953613,874.853760 673.952881,768.202942 673.952942,661.552185 
	C673.952942,659.932617 673.952881,658.313110 673.952881,656.447327 
	C648.489685,656.447327 623.534058,656.447327 598.243103,656.447327 
	C598.243103,624.278076 598.243103,592.377686 598.243103,560.180176 
	C685.555054,560.180176 772.964966,560.180176 860.735352,560.180176 
	C860.735352,591.865356 860.735352,623.751343 860.735352,656.089661 
	C836.805298,656.089661 812.747986,656.089661 788.348511,656.089661 
	C788.348511,766.557068 788.348511,876.573853 788.348511,986.970947 
	C812.496399,986.970947 836.576294,986.970947 860.874023,986.970947 
	C860.874023,1019.260376 860.874023,1051.170166 860.874023,1083.308105 
	C773.285706,1083.308105 685.859924,1083.308105 598.170593,1083.308105 
	C598.170593,1051.244751 598.170593,1019.348389 598.170593,986.969421 
	C622.847229,986.969421 647.457275,986.969421 672.798340,986.941772 
	C673.616821,986.606689 673.704102,986.299255 673.791382,985.991882 
z"/>
<path fill="#FFFFFF" opacity="1.000000" stroke="none" 
	d="
M1047.200684,960.784790 
	C1062.711182,972.443970 1079.462524,981.178040 1098.363647,983.497742 
	C1122.833252,986.500916 1155.555298,980.504517 1169.583496,952.504883 
	C1174.394897,942.901306 1177.305420,932.679932 1177.951782,921.961548 
	C1178.837036,907.279541 1179.918701,892.576294 1179.942627,877.880615 
	C1180.112305,773.889709 1180.032837,669.898438 1180.032837,565.907288 
	C1180.032837,564.097778 1180.032837,562.288269 1180.032837,560.177917 
	C1219.015259,560.177917 1257.744995,560.177917 1296.797363,560.177917 
	C1296.877075,561.354004 1297.039062,562.628601 1297.039062,563.903259 
	C1297.033936,679.226685 1297.277588,794.551392 1296.733276,909.872314 
	C1296.646240,928.310791 1294.741455,947.118469 1290.699341,965.085510 
	C1280.885620,1008.705994 1255.949951,1042.432495 1217.579834,1065.332764 
	C1206.016846,1072.233643 1192.678833,1076.383057 1179.816406,1080.813232 
	C1169.583740,1084.337524 1158.910034,1086.710327 1148.301758,1088.986084 
	C1131.873535,1092.510376 1115.143921,1092.441895 1098.449341,1091.927612 
	C1067.947266,1090.987793 1038.716309,1084.255981 1011.825989,1069.797607 
	C990.946411,1058.570923 972.308228,1043.940186 955.702148,1026.894287 
	C951.453918,1022.533508 947.345276,1018.036682 942.982239,1013.400208 
	C967.411682,986.035889 991.620178,958.919006 1015.372681,932.312866 
	C1026.048340,941.879822 1036.477905,951.226318 1047.200684,960.784790 
z"/>
<path fill="#FFFFFF" opacity="1.000000" stroke="none" 
	d="
M992.686951,1423.973877 
	C992.686951,1449.764282 992.686951,1475.554688 992.686951,1501.926270 
	C835.347107,1501.926270 678.124573,1501.926270 520.341309,1501.676758 
	C519.611877,1501.227173 519.402527,1501.088013 519.152588,1501.010010 
	C519.152588,1475.208130 519.152588,1449.406128 519.152588,1422.964111 
	C676.406860,1422.964111 833.756348,1422.964111 991.635681,1423.242188 
	C992.296997,1423.720337 992.470764,1423.871460 992.686951,1423.973877 
z"/>
<path fill="#4868D1" opacity="1.000000" stroke="none" 
	d="
M1665.958008,734.460449 
	C1709.700317,719.497498 1753.359375,705.008301 1797.009277,690.491638 
	C1828.529297,680.009155 1860.050415,669.529602 1891.546387,658.975037 
	C1917.211182,650.374573 1942.832153,641.643555 1968.496094,633.040710 
	C1970.727295,632.292725 1973.941895,630.063232 1974.010742,635.626953 
	C1959.445923,653.435852 1944.893066,670.859497 1930.291504,688.242310 
	C1921.444946,698.774109 1912.522827,709.242615 1903.158936,719.566895 
	C1900.396729,719.320435 1897.896240,718.596680 1895.856201,719.269348 
	C1858.606567,731.551147 1821.405884,743.981873 1784.207764,756.419373 
	C1744.812988,769.591370 1705.431763,782.803650 1666.044556,795.998291 
	C1665.986694,775.639648 1665.928711,755.281067 1665.958008,734.460449 
z"/>
<path fill="#227CE1" opacity="1.000000" stroke="none" 
	d="
M1852.968506,780.933472 
	C1851.113281,784.953003 1849.502075,789.107971 1847.359863,792.968201 
	C1838.981201,808.065857 1830.380493,823.040161 1821.963013,838.116516 
	C1808.685669,861.897583 1795.451416,885.702820 1782.271606,909.538086 
	C1772.625244,926.982971 1763.156006,944.525879 1753.497925,961.964172 
	C1742.475342,981.866211 1731.301880,1001.684570 1720.248779,1021.569824 
	C1712.824097,1034.927124 1705.478271,1048.328247 1698.127441,1061.726318 
	C1688.458862,1079.348877 1678.833618,1096.995239 1669.130127,1114.598389 
	C1668.617920,1115.527588 1667.552979,1116.152100 1666.396118,1116.959351 
	C1665.976562,1098.571045 1665.869629,1080.141846 1665.845947,1061.712769 
	C1665.820435,1041.783447 1665.872681,1021.854126 1666.256836,1001.297852 
	C1671.734497,994.618713 1676.879883,988.594421 1681.950684,982.508118 
	C1690.384521,972.385071 1698.770630,962.222229 1707.463257,951.909424 
	C1708.845093,950.499512 1709.978760,949.287781 1711.029785,948.008179 
	C1717.853394,939.701111 1724.560669,931.296204 1731.496704,923.084351 
	C1739.288208,913.859619 1747.344482,904.859009 1755.171875,895.664062 
	C1768.695190,879.778625 1782.153442,863.837585 1795.585205,847.874512 
	C1798.548218,844.353210 1801.285767,840.642212 1804.417358,836.868958 
	C1817.814209,821.163757 1830.920898,805.608093 1844.326416,789.897339 
	C1847.406372,786.805908 1850.187500,783.869751 1852.968506,780.933472 
z"/>
<path fill="#5365CA" opacity="1.000000" stroke="none" 
	d="
M1853.016602,780.595703 
	C1850.187500,783.869751 1847.406372,786.805908 1844.248535,789.521851 
	C1841.306396,789.343689 1838.529419,788.749390 1836.207275,789.522156 
	C1792.407349,804.098206 1748.674805,818.875854 1704.895874,833.515381 
	C1691.996582,837.828857 1678.998291,841.846375 1666.045410,845.999634 
	C1665.988037,829.640686 1665.930664,813.281738 1665.958984,796.460571 
	C1705.431763,782.803650 1744.812988,769.591370 1784.207764,756.419373 
	C1821.405884,743.981873 1858.606567,731.551147 1895.856201,719.269348 
	C1897.896240,718.596680 1900.396729,719.320435 1902.861084,719.721924 
	C1899.269897,724.634155 1895.527100,729.240723 1891.726318,733.799011 
	C1882.520508,744.838989 1873.277344,755.847839 1864.070801,766.887146 
	C1860.373535,771.320251 1856.731812,775.799561 1853.016602,780.595703 
z"/>
<path fill="#CD7B3D" opacity="1.000000" stroke="none" 
	d="
M372.986023,937.099060 
	C382.296234,940.095947 391.606445,943.092773 401.296326,946.142578 
	C401.747467,947.022705 401.881561,947.850037 401.881470,948.677307 
	C401.874390,1029.483521 401.857117,1110.289673 401.574615,1191.807373 
	C401.198334,1193.344482 401.087952,1194.170288 400.977539,1194.995972 
	C397.057404,1207.274292 393.055511,1219.527100 389.238312,1231.837402 
	C384.625000,1246.714966 380.168213,1261.641235 375.029297,1276.612305 
	C373.943207,1274.503418 373.060364,1272.329102 373.058960,1270.154175 
	C372.987274,1159.135864 372.990662,1048.117432 372.986023,937.099060 
z"/>
<path fill="#6A5EBB" opacity="1.000000" stroke="none" 
	d="
M1804.127197,837.018433 
	C1801.285767,840.642212 1798.548218,844.353210 1795.585205,847.874512 
	C1782.153442,863.837585 1768.695190,879.778625 1755.171875,895.664062 
	C1747.344482,904.859009 1739.288208,913.859619 1731.496704,923.084351 
	C1724.560669,931.296204 1717.853394,939.701111 1711.029785,948.008179 
	C1709.978760,949.287781 1708.845093,950.499512 1707.091431,951.748718 
	C1704.219238,951.809570 1701.850952,951.368286 1699.817139,952.001465 
	C1688.515625,955.519836 1677.295410,959.299194 1666.047363,962.989258 
	C1665.990479,936.302124 1665.933594,909.615051 1666.340576,882.419067 
	C1681.435913,877.142273 1696.099854,872.470947 1710.692139,867.586182 
	C1739.917603,857.802917 1769.099121,847.887878 1798.318726,838.087097 
	C1800.166504,837.467285 1802.186890,837.362671 1804.127197,837.018433 
z"/>
<path fill="#5E62C3" opacity="1.000000" stroke="none" 
	d="
M1804.417236,836.868896 
	C1802.186890,837.362671 1800.166504,837.467285 1798.318726,838.087097 
	C1769.099121,847.887878 1739.917603,857.802917 1710.692139,867.586182 
	C1696.099854,872.470947 1681.435913,877.142273 1666.423828,881.956787 
	C1665.987549,870.310364 1665.932007,858.617310 1665.960938,846.461914 
	C1678.998291,841.846375 1691.996582,837.828857 1704.895874,833.515381 
	C1748.674805,818.875854 1792.407349,804.098206 1836.207275,789.522156 
	C1838.529419,788.749390 1841.306396,789.343689 1843.949585,789.677002 
	C1830.920898,805.608093 1817.814209,821.163757 1804.417236,836.868896 
z"/>
<path fill="#7A5AB1" opacity="1.000000" stroke="none" 
	d="
M1665.964111,963.452881 
	C1677.295410,959.299194 1688.515625,955.519836 1699.817139,952.001465 
	C1701.850952,951.368286 1704.219238,951.809570 1706.804932,951.915527 
	C1698.770630,962.222229 1690.384521,972.385071 1681.950684,982.508118 
	C1676.879883,988.594421 1671.734497,994.618713 1666.334473,1000.834473 
	C1665.991089,988.637512 1665.935913,976.276978 1665.964111,963.452881 
z"/>
<path fill="#A04E99" opacity="1.000000" stroke="none" 
	d="
M401.054993,1195.182983 
	C401.087952,1194.170288 401.198334,1193.344482 401.503632,1192.272583 
	C401.753693,1193.072876 401.808868,1194.119385 401.780762,1195.549805 
	C401.450134,1195.805054 401.261749,1195.617065 401.054993,1195.182983 
z"/>
<path fill="#FFFFFF" opacity="1.000000" stroke="none" 
	d="
M519.106567,1501.270264 
	C519.402527,1501.088013 519.611877,1501.227173 519.878113,1501.591064 
	C519.670532,1501.680054 519.365540,1501.605347 519.106567,1501.270264 
z"/>
<path fill="#FFFFFF" opacity="1.000000" stroke="none" 
	d="
M992.763428,1423.736572 
	C992.470764,1423.871460 992.296997,1423.720337 992.091797,1423.362305 
	C992.400330,1423.000610 992.674377,1423.098877 992.763428,1423.736572 
z"/>
<path fill="#171717" opacity="1.000000" stroke="none" 
	d="
M673.611084,986.076294 
	C673.704102,986.299255 673.616821,986.606689 673.260559,986.862732 
	C673.064392,986.544800 673.210815,986.327942 673.611084,986.076294 
z"/>
<path fill="#D67A33" opacity="1.000000" stroke="none" 
	d="
M372.656128,936.931152 
	C372.990662,1048.117432 372.987274,1159.135864 373.058960,1270.154175 
	C373.060364,1272.329102 373.943207,1274.503418 374.778809,1276.873535 
	C372.426575,1286.426147 369.794800,1295.808960 366.975769,1305.135132 
	C361.810059,1322.224487 356.533813,1339.280640 351.123596,1356.675537 
	C350.300446,1356.194336 349.296692,1355.468018 349.097137,1354.564087 
	C348.781494,1353.134277 349.000580,1351.585693 349.000549,1350.087280 
	C348.998718,1210.068604 348.997650,1070.049927 348.991852,929.573914 
	C356.766876,931.665527 364.546570,934.214417 372.656128,936.931152 
z"/>
</svg>