<svg version="1.1" id="Layer_1" xmlns="http://www.w3.org/2000/svg" xmlns:xlink="http://www.w3.org/1999/xlink" x="0px" y="0px"
	 width="100%" viewBox="0 0 1200 776" enable-background="new 0 0 1200 776" xml:space="preserve">
<path fill="#1A1A1A" opacity="1.000000" stroke="none" 
	d="
M1201.000000,636.531372 
	C1169.334839,637.000183 1137.669556,637.009155 1106.004395,636.993347 
	C1099.236084,636.989990 1099.031616,636.756714 1099.005127,629.910095 
	C1098.982666,624.139404 1099.000488,618.368591 1099.000488,611.205627 
	C1093.431641,615.384155 1088.944946,618.672852 1084.541138,622.068787 
	C1066.172241,636.233215 1045.136475,642.376099 1022.213318,643.015564 
	C1005.988281,643.468201 989.940002,642.700867 974.266113,637.857666 
	C937.428101,626.474792 913.634766,597.313110 912.886414,557.883240 
	C912.273315,525.583496 927.616211,502.080322 951.914917,483.084747 
	C973.707581,466.048309 998.607666,454.832489 1024.473755,445.818359 
	C1047.895020,437.656219 1071.670654,430.512909 1095.227539,422.731445 
	C1096.731079,422.234741 1098.750610,420.109833 1098.753418,418.738739 
	C1098.794434,398.812592 1100.556030,378.784271 1094.281982,359.264374 
	C1086.925537,336.377045 1068.644531,329.457672 1047.748413,331.420166 
	C1035.742920,332.547668 1025.025635,336.736298 1018.059814,347.461823 
	C1013.647400,354.255707 1012.442139,361.936401 1011.974121,369.841187 
	C1011.640564,375.475952 1011.557434,381.198853 1010.457764,386.701599 
	C1006.791870,405.045776 996.599670,415.144440 977.733398,418.192078 
	C963.541138,420.484650 949.467285,419.795807 936.800049,411.520782 
	C920.053406,400.580841 913.244873,381.440765 919.050781,362.247894 
	C924.281189,344.957458 936.420349,333.299103 950.708313,323.667511 
	C970.072693,310.614014 991.812378,302.950592 1014.686035,299.350525 
	C1032.374512,296.566589 1050.358765,294.436066 1068.226807,294.316254 
	C1093.058228,294.149780 1117.750854,297.332001 1141.382202,305.695465 
	C1161.638550,312.864502 1179.239746,323.931824 1190.470581,342.955994 
	C1193.649048,348.339996 1195.472778,354.521637 1197.944580,360.326050 
	C1198.712280,362.128784 1199.568359,363.893890 1200.691895,365.838135 
	C1201.000000,456.020905 1201.000000,546.041809 1201.000000,636.531372 
M1018.981018,561.400146 
	C1020.469421,564.559448 1021.650330,567.913086 1023.501953,570.842712 
	C1029.841797,580.873413 1038.500732,587.595520 1048.998535,585.740906 
	C1054.344116,584.796387 1059.995239,583.592834 1064.618286,580.949768 
	C1074.986694,575.021729 1084.911987,568.283813 1094.733276,561.465881 
	C1096.514160,560.229553 1097.777222,557.067627 1097.848755,554.750671 
	C1098.176758,544.108093 1097.957275,533.449646 1098.013062,522.797302 
	C1098.052246,515.314941 1098.219971,507.833221 1098.326660,500.351166 
	C1098.487793,489.057312 1098.659180,477.763489 1098.763550,466.469116 
	C1098.768555,465.928680 1098.170288,465.382690 1097.906372,464.930756 
	C1097.326050,464.930756 1096.953857,464.826721 1096.677612,464.945587 
	C1072.095459,475.522003 1049.161865,488.477753 1030.270264,508.011078 
	C1015.365723,523.421997 1011.443054,540.666321 1018.981018,561.400146 
z"/>
<path fill="#1A1A1A" opacity="1.000000" stroke="none" 
	d="
M0.999992,718.468567 
	C2.013553,716.960266 3.302125,716.077576 3.998818,714.856995 
	C12.374421,700.184143 25.427471,694.258484 41.834919,692.837036 
	C63.380844,690.970459 77.449860,701.927429 89.021194,718.017395 
	C93.158829,723.770752 97.614151,729.024353 104.233002,732.063171 
	C110.763954,735.061584 117.770523,733.383423 120.752098,726.806763 
	C123.248856,721.299438 124.699333,715.171875 125.687027,709.166626 
	C126.706993,702.965271 126.946976,696.580200 126.950493,690.275208 
	C127.017464,570.152954 126.993439,450.030731 127.006882,329.908478 
	C127.008217,317.940796 126.044167,319.717590 137.062408,316.715637 
	C166.138962,308.793640 195.172852,300.715149 224.228561,292.716492 
	C225.774948,292.290833 227.365753,292.026520 229.531570,291.558289 
	C229.715958,294.070709 229.981186,296.000366 229.981522,297.930084 
	C230.001221,415.053436 230.380737,532.178955 229.714447,649.298462 
	C229.559723,676.497192 224.630325,703.435242 210.302979,727.467285 
	C195.551651,752.210449 173.133224,765.968872 145.162308,770.885010 
	C134.049240,772.838196 122.741188,773.675415 111.531746,775.098206 
	C110.454285,775.234985 109.446838,775.923279 108.203445,776.677795 
	C97.645775,777.000000 87.291542,777.000000 76.269592,776.677979 
	C74.398216,775.913696 73.227676,775.253784 71.985504,775.064697 
	C64.437698,773.916321 56.718697,773.499084 49.346764,771.669617 
	C33.431831,767.719849 17.936110,762.605347 7.347290,748.748657 
	C5.160387,745.886780 3.112135,742.919006 0.999994,740.000000 
	C1.000000,732.979065 1.000000,725.958069 0.999992,718.468567 
z"/>
<path fill="#399746" opacity="1.000000" stroke="none" 
	d="
M918.541931,1.000003 
	C920.017273,1.664402 920.992920,2.828778 922.058105,2.917514 
	C936.010254,4.079712 948.220825,9.538578 958.787537,18.411211 
	C970.746521,28.452847 979.012268,41.112095 982.215271,56.528286 
	C987.231812,80.673203 981.851135,102.164162 964.984253,120.557358 
	C954.446350,132.048813 941.400696,139.098358 926.240784,141.650253 
	C905.204468,145.191345 886.112122,140.152023 869.277893,126.810173 
	C855.159241,115.620567 846.840942,100.837654 844.440918,83.350792 
	C841.720581,63.529476 845.775452,44.929672 858.632996,28.824781 
	C869.327881,15.428877 883.110962,7.227251 899.735657,3.574148 
	C902.527466,2.960686 905.333130,2.410337 908.066162,1.415410 
	C911.361267,1.000000 914.722595,1.000000 918.541931,1.000003 
z"/>
<path fill="#000000" opacity="1.000000" stroke="none" 
	d="
M0.999994,740.468628 
	C3.112135,742.919006 5.160387,745.886780 7.347290,748.748657 
	C17.936110,762.605347 33.431831,767.719849 49.346764,771.669617 
	C56.718697,773.499084 64.437698,773.916321 71.985504,775.064697 
	C73.227676,775.253784 74.398216,775.913696 75.800934,776.677979 
	C51.098049,777.000000 26.196098,777.000000 1.000000,777.000000 
	C1.000000,764.980713 1.000000,752.958984 0.999994,740.468628 
z"/>
<path fill="#1A1A1A" opacity="1.000000" stroke="none" 
	d="
M379.001770,510.000000 
	C379.001587,518.331848 379.464783,526.196411 378.915314,533.989563 
	C377.180145,558.599060 398.320679,576.804871 418.562531,580.889343 
	C429.715607,583.139893 439.306396,579.700134 448.235352,573.721130 
	C459.113159,566.437195 468.171722,557.173828 476.148163,546.808533 
	C479.030548,543.062805 480.083649,539.052429 480.076843,534.307129 
	C479.969696,459.487915 480.001587,384.668488 480.001923,309.849121 
	C480.001923,308.182770 480.129028,306.505554 479.983612,304.852173 
	C479.608612,300.588257 481.356354,298.848511 485.736816,298.948181 
	C494.896973,299.156525 504.065277,299.005951 513.230225,299.006012 
	C534.392944,299.006134 555.556519,299.110596 576.717712,298.931488 
	C581.508789,298.890900 583.071655,300.584869 583.067627,305.327698 
	C582.975098,413.807373 582.973694,522.287170 583.070251,630.766907 
	C583.074524,635.603699 581.332825,637.095154 576.635803,637.072510 
	C546.642151,636.928101 516.647339,637.011658 486.652954,636.990112 
	C480.314026,636.985535 480.034515,636.659485 480.009460,630.053711 
	C479.982391,622.924561 480.003296,615.795288 480.003296,607.391663 
	C477.222870,609.352905 475.365845,610.575073 473.602478,611.920105 
	C454.033508,626.846191 433.077057,638.953430 408.190491,642.164124 
	C387.400299,644.846252 366.931396,642.949951 347.292725,635.202087 
	C315.583252,622.691956 292.593933,601.242493 281.565125,568.532166 
	C278.742371,560.160217 277.228943,550.939209 277.191589,542.099487 
	C276.861572,463.948761 276.999115,385.796082 277.001404,307.643982 
	C277.001648,299.018127 277.010223,299.008728 285.462708,299.007507 
	C314.290649,299.003418 343.118622,298.997498 371.946564,299.013641 
	C378.765472,299.017487 378.992828,299.240356 378.993958,306.039520 
	C379.005157,373.859680 379.001343,441.679840 379.001770,510.000000 
z"/>
<path fill="#1A1A1A" opacity="1.000000" stroke="none" 
	d="
M629.004333,167.976929 
	C644.224915,163.676773 659.431885,159.327972 674.669678,155.089615 
	C691.034424,150.537811 707.434998,146.115326 723.805481,141.584076 
	C730.519348,139.725723 730.992737,139.992767 730.993042,146.860931 
	C731.000732,307.831116 731.000549,468.801300 730.993591,629.771484 
	C730.993286,636.827087 730.817200,636.993103 723.632812,636.996094 
	C694.304932,637.008423 664.976990,637.011719 635.649109,636.978394 
	C633.668457,636.976135 631.688110,636.644287 629.342651,635.806885 
	C628.986572,479.424316 628.995422,323.700623 629.004333,167.976929 
z"/>
<path fill="#1A1A1A" opacity="1.000000" stroke="none" 
	d="
M887.695862,294.190735 
	C887.877563,296.718719 887.993958,298.881409 887.994141,301.044128 
	C888.002991,409.832825 888.002075,518.621521 888.001343,627.410217 
	C888.001282,628.909607 887.915222,630.413330 888.001160,631.907471 
	C888.206787,635.482727 886.645142,637.025208 883.000122,637.018311 
	C852.013000,636.959534 821.025635,636.960022 790.038513,637.018616 
	C786.422668,637.025513 784.783325,635.546753 785.004395,631.943665 
	C785.075684,630.782227 785.000793,629.612061 785.000793,628.445923 
	C785.000061,528.486938 784.999451,428.527924 785.001099,328.568939 
	C785.001221,320.265717 785.039001,320.378296 792.963013,318.214355 
	C822.836853,310.056427 852.682861,301.796631 882.566223,293.674103 
	C884.108582,293.254822 885.900574,293.753906 887.695862,294.190735 
z"/>
<path fill="#9259A3" opacity="1.000000" stroke="none" 
	d="
M1047.250977,267.249268 
	C1020.300171,294.661469 974.168274,295.161194 946.451965,265.888184 
	C920.832947,238.830139 919.991516,195.101562 948.625427,167.124603 
	C975.547058,140.820786 1020.094604,139.558350 1048.465332,168.978653 
	C1074.541504,196.019623 1074.732056,240.050735 1047.250977,267.249268 
z"/>
<path fill="#4D64AE" opacity="1.000000" stroke="none" 
	d="
M142.346313,155.279846 
	C152.370819,149.749390 163.059235,147.072479 173.826050,147.228622 
	C196.611969,147.559067 215.941742,156.016571 230.274597,174.554947 
	C241.367416,188.902603 246.276413,205.185623 244.864197,222.987579 
	C242.739304,249.773666 225.610992,273.891541 199.351746,283.285278 
	C176.466248,291.472168 154.744461,289.031281 134.737793,275.240845 
	C115.977264,262.309326 106.084801,244.275391 104.909714,221.300415 
	C104.063873,204.762711 108.267342,190.038330 117.721275,176.474503 
	C124.101662,167.320389 132.361862,160.667877 142.346313,155.279846 
z"/>
<path fill="#CA3C32" opacity="1.000000" stroke="none" 
	d="
M803.458618,282.747620 
	C786.692993,275.425354 774.101624,264.014191 766.489441,247.823944 
	C754.392212,222.094772 758.763916,190.098862 779.132629,169.181259 
	C790.008972,158.011917 802.815796,150.616867 817.902466,148.317963 
	C840.426941,144.885696 860.696106,150.271072 877.888916,166.222015 
	C890.289917,177.727386 897.815002,191.791992 899.697693,208.152573 
	C902.011841,228.261963 897.354370,246.888809 883.774170,262.866730 
	C872.639038,275.967743 858.493042,283.356628 842.057312,286.869293 
	C828.937439,289.673248 816.264771,287.108551 803.458618,282.747620 
z"/>
<path fill="#1A1A1A" opacity="1.000000" stroke="none" 
	d="
M628.765198,168.319733 
	C628.995422,323.700623 628.986572,479.424316 628.968994,635.627441 
	C628.622314,634.001892 627.989014,631.897095 627.988403,629.792114 
	C627.942261,477.891144 627.944397,325.990143 627.970398,174.089157 
	C627.970703,172.280243 628.332825,170.471405 628.765198,168.319733 
z"/>
<path fill="#000000" opacity="1.000000" stroke="none" 
	d="
M1018.859497,561.027710 
	C1011.443054,540.666321 1015.365723,523.421997 1030.270264,508.011078 
	C1049.161865,488.477753 1072.095459,475.522003 1096.677612,464.945587 
	C1096.953857,464.826721 1097.326050,464.930756 1097.906372,464.930756 
	C1098.170288,465.382690 1098.768555,465.928680 1098.763550,466.469116 
	C1098.659180,477.763489 1098.487793,489.057312 1098.326660,500.351166 
	C1098.219971,507.833221 1098.052246,515.314941 1098.013062,522.797302 
	C1097.957275,533.449646 1098.176758,544.108093 1097.848755,554.750671 
	C1097.777222,557.067627 1096.514160,560.229553 1094.733276,561.465881 
	C1084.911987,568.283813 1074.986694,575.021729 1064.618286,580.949768 
	C1059.995239,583.592834 1054.344116,584.796387 1048.998535,585.740906 
	C1038.500732,587.595520 1029.841797,580.873413 1023.501953,570.842712 
	C1021.650330,567.913086 1020.469421,564.559448 1018.859497,561.027710 
z"/>
</svg>