<svg version="1.1" id="Layer_1" xmlns="http://www.w3.org/2000/svg" xmlns:xlink="http://www.w3.org/1999/xlink" x="0px" y="0px"
	 width="100%" viewBox="0 0 1200 1391" enable-background="new 0 0 1200 1391" xml:space="preserve">
<path fill="#F37726" opacity="1.000000" stroke="none" 
	d="
M868.037109,205.003479 
	C891.151489,218.276581 913.259277,232.454910 933.606995,249.176651 
	C945.531067,258.975952 957.229736,269.064667 968.739136,279.348511 
	C977.143677,286.858093 985.740662,294.322601 993.079834,302.819489 
	C1009.372192,321.681763 1025.651855,340.636688 1040.606445,360.552582 
	C1060.719849,387.338684 1077.149170,416.512390 1091.322998,446.864105 
	C1097.822388,460.781830 1103.416748,475.122131 1108.036987,486.008698 
	C1103.041138,481.666840 1095.367432,475.794617 1088.631226,468.994049 
	C1068.305298,448.474091 1046.265869,430.013733 1022.197266,414.154327 
	C1005.207214,402.959106 987.641968,392.575836 969.913147,382.575226 
	C931.064270,360.660950 889.597656,344.847412 847.121460,331.642334 
	C819.324280,323.000702 791.119873,315.879883 762.391052,310.962585 
	C747.467834,308.408325 732.617004,305.396790 717.650635,303.141022 
	C707.437988,301.601715 697.093872,300.867828 686.787476,300.033661 
	C672.674744,298.891388 658.546387,297.927032 644.416077,297.021637 
	C636.826111,296.535370 629.216858,296.354767 621.618408,295.993408 
	C615.350159,295.695312 609.081970,295.009613 602.818909,295.065674 
	C587.721497,295.200836 572.614868,295.401550 557.534912,296.082733 
	C543.556458,296.714233 529.572327,297.660248 515.655334,299.094604 
	C500.366974,300.670288 485.058350,302.422516 469.926666,305.061859 
	C443.628113,309.648987 417.297150,314.265076 391.275482,320.171753 
	C357.678406,327.797882 324.886505,338.333405 293.032104,351.563904 
	C278.167053,357.738007 263.197449,363.764008 248.763824,370.852112 
	C216.225464,386.831024 185.215683,405.359863 156.144791,427.178284 
	C134.372818,443.518677 114.874550,462.228241 95.936790,481.621613 
	C93.432823,484.185852 91.278587,487.091644 88.962395,489.839264 
	C88.596046,489.644867 88.229698,489.450500 87.863358,489.256104 
	C90.891907,481.601898 93.594429,473.798370 97.016846,466.324524 
	C104.142921,450.762604 111.119102,435.094025 119.122314,419.980499 
	C131.799423,396.040619 146.046982,372.991180 162.896545,351.718170 
	C174.200180,337.447052 185.984955,323.546478 197.842545,309.727295 
	C212.741394,292.363739 229.720688,277.148102 247.062271,262.255432 
	C265.454102,246.460785 284.980347,232.291519 305.325867,219.210068 
	C329.608795,203.597046 354.840759,189.691864 381.617310,178.812317 
	C397.847961,172.217636 414.028687,165.238083 430.768341,160.221664 
	C453.922913,153.282837 477.472412,147.537521 501.070587,142.253799 
	C513.621582,139.443558 526.648438,138.801071 539.430847,136.972580 
	C566.791138,133.058746 594.327148,133.662048 621.804443,134.186279 
	C636.549744,134.467560 651.271606,136.530792 665.981079,138.017288 
	C695.745056,141.025101 724.784668,147.694061 753.444519,156.033417 
	C787.471008,165.934326 820.082458,179.409256 851.467773,195.844315 
	C856.951599,198.715927 862.273132,201.897415 868.037109,205.003479 
z"/>
<path fill="#F37726" opacity="1.000000" stroke="none" 
	d="
M1078.302002,922.282593 
	C1066.790039,940.853577 1056.037720,959.481995 1044.052734,977.280273 
	C1034.947388,990.802002 1024.799683,1003.719910 1014.162720,1016.086731 
	C1001.447205,1030.870239 988.260376,1045.339233 974.291809,1058.931396 
	C955.842651,1076.883423 935.900146,1093.163940 914.851440,1108.098145 
	C888.456177,1126.825562 860.784729,1143.288818 831.534485,1157.120850 
	C804.175781,1170.058472 776.068054,1181.136108 746.800598,1188.805664 
	C726.998657,1193.995117 706.917786,1198.368408 686.739380,1201.798950 
	C669.007812,1204.813599 651.011414,1206.806396 633.051636,1207.804443 
	C611.506287,1209.001831 589.854858,1209.386841 568.289124,1208.758301 
	C552.104492,1208.286499 535.811462,1206.616089 519.873474,1203.764526 
	C496.204620,1199.529907 472.597717,1194.578857 449.341736,1188.491333 
	C412.241913,1178.780273 377.007996,1163.962891 343.159027,1145.983887 
	C318.516602,1132.895142 295.067413,1117.899658 272.626770,1101.254883 
	C247.226089,1082.414551 223.717804,1061.463379 202.173111,1038.415039 
	C189.758438,1025.133911 177.976761,1011.134827 167.113907,996.561646 
	C153.972656,978.931763 141.267242,960.857178 129.933807,942.035278 
	C119.790833,925.190369 111.510033,907.194092 102.907135,889.463440 
	C97.952911,879.252747 93.975319,868.567200 89.601295,858.077393 
	C89.086899,856.843750 88.846954,855.495605 88.121643,852.937378 
	C90.069733,854.726624 91.040787,855.555664 91.941460,856.455200 
	C104.124535,868.623413 115.798195,881.360291 128.614883,892.819031 
	C141.277420,904.139954 154.703491,914.711060 168.484665,924.654663 
	C195.794495,944.359924 224.866501,961.292786 255.610458,975.008545 
	C278.274323,985.119446 301.240936,994.805176 324.722321,1002.763428 
	C351.746185,1011.922180 379.276520,1019.816284 406.982574,1026.656860 
	C427.659943,1031.762207 448.907410,1034.708130 470.009827,1037.895142 
	C487.168091,1040.486572 504.471436,1042.168579 521.742371,1043.942871 
	C531.567200,1044.952026 541.447998,1045.517578 551.317993,1045.962891 
	C569.174927,1046.768311 587.042664,1047.854614 604.905823,1047.853516 
	C622.771912,1047.852295 640.664856,1047.067627 658.496155,1045.878540 
	C675.346008,1044.754883 692.239075,1043.368164 708.919678,1040.827515 
	C734.835083,1036.880615 760.638855,1032.131836 786.394226,1027.220459 
	C818.058655,1021.182434 848.883728,1011.922302 879.132812,1000.911072 
	C896.516785,994.582947 913.611450,987.394104 930.579773,980.003723 
	C964.423401,965.263489 996.725769,947.611206 1026.641602,925.940369 
	C1041.352051,915.284241 1055.505005,903.789001 1069.302002,891.963867 
	C1079.747070,883.011414 1089.285889,872.992920 1099.104614,863.323608 
	C1102.120361,860.353760 1104.728760,856.970337 1107.523804,853.776367 
	C1107.936523,853.996765 1108.349365,854.217163 1108.762207,854.437561 
	C1105.829712,861.939575 1103.047607,869.504944 1099.922852,876.925964 
	C1096.703979,884.570923 1093.274414,892.134033 1089.709473,899.624573 
	C1086.129517,907.146851 1082.269165,914.535706 1078.302002,922.282593 
z"/>
<path fill="#9E9E9E" opacity="1.000000" stroke="none" 
	d="
M213.291229,1382.357178 
	C189.249130,1386.196289 166.601151,1383.279907 145.215698,1372.043823 
	C128.254395,1363.132202 114.907333,1350.437866 105.022552,1334.073242 
	C93.682739,1315.299805 88.588043,1294.841797 90.117020,1273.062012 
	C91.673798,1250.886353 99.396721,1230.968628 113.749023,1213.627441 
	C127.583519,1196.911987 144.793091,1185.543701 165.587250,1179.902832 
	C199.665009,1170.658325 231.225266,1176.479004 259.279480,1197.980957 
	C279.990448,1213.854736 292.561523,1235.482666 296.701996,1260.989990 
	C301.747070,1292.069946 295.105225,1320.734375 274.849518,1345.791748 
	C259.671814,1364.567139 240.041275,1375.739258 217.135742,1381.899170 
	C216.036240,1382.194946 214.816666,1382.044189 213.291229,1382.357178 
z"/>
<path fill="#767677" opacity="1.000000" stroke="none" 
	d="
M916.070679,81.291840 
	C920.711243,66.214348 927.810791,53.107563 939.071228,42.356224 
	C950.528076,31.417404 964.005005,24.316603 979.367676,21.139231 
	C1001.340454,16.594723 1022.211609,19.969547 1041.228271,32.115631 
	C1062.006104,45.386417 1074.308594,64.336197 1078.052612,88.832771 
	C1080.054199,101.929573 1079.460083,114.810326 1075.255981,127.358528 
	C1066.301270,154.086197 1048.492432,172.277863 1021.598877,180.909515 
	C993.707336,189.861465 967.608276,184.927750 944.899170,167.009811 
	C924.704468,151.075821 913.695496,129.600662 914.086121,103.283989 
	C914.192932,96.083549 915.346558,88.898636 916.070679,81.291840 
z"/>
<path fill="#4E4E4E" opacity="1.000000" stroke="none" 
	d="
M403.225189,605.275513 
	C414.705627,592.608093 428.154205,583.990967 444.956238,581.550537 
	C469.374207,578.003906 491.430695,582.388733 509.920013,600.263184 
	C524.662720,614.515625 531.935364,632.041077 535.042480,651.795227 
	C538.420044,673.268677 536.735657,694.246399 529.177429,714.700867 
	C518.776367,742.848572 493.690887,763.694214 462.827881,766.250977 
	C449.910431,767.321045 437.786102,766.354797 426.048828,761.101196 
	C417.252838,757.164246 409.251587,752.070007 403.432434,744.104614 
	C402.675385,743.068298 401.660767,742.220154 400.001556,740.486877 
	C400.001556,743.160828 400.001556,744.893005 400.001556,746.625183 
	C400.001495,774.279907 400.004517,801.934631 399.998932,829.589355 
	C399.997650,835.985962 399.984009,835.991333 393.382721,835.998352 
	C386.885529,836.005249 380.388336,836.003967 373.891144,835.998840 
	C367.009460,835.993347 367.004547,835.989441 367.003113,828.857239 
	C366.999878,812.864136 367.002106,796.871033 367.001923,780.877930 
	C367.001312,722.403198 367.026855,663.928345 366.956818,605.453735 
	C366.950256,599.996826 366.387512,594.537170 365.988495,589.085693 
	C365.772583,586.136414 366.837036,584.890686 369.946808,584.957764 
	C377.273560,585.115967 384.609955,585.149963 391.934479,584.946045 
	C395.432343,584.848694 395.978821,586.460938 396.063751,589.466064 
	C396.274109,596.909424 396.830994,604.343018 397.304810,612.780396 
	C399.518829,609.949158 401.247131,607.739136 403.225189,605.275513 
M448.553711,740.000061 
	C470.697113,740.674683 486.174774,730.468506 495.623566,710.806763 
	C502.511536,696.473755 504.198212,681.294556 503.115784,665.487488 
	C501.824738,646.633545 495.722656,630.083252 481.067993,617.810852 
	C471.425629,609.735962 460.044434,605.558411 447.007538,607.819092 
	C433.108612,610.229309 421.707458,616.557373 412.729340,627.666809 
	C406.506622,635.366760 401.816925,643.883301 401.220459,653.506226 
	C400.311005,668.179077 400.393707,682.978210 401.111115,697.672180 
	C402.215057,720.282898 425.509247,740.528687 448.553711,740.000061 
z"/>
<path fill="#4E4E4E" opacity="1.000000" stroke="none" 
	d="
M1012.310730,763.318848 
	C994.805481,767.844788 977.286255,767.886475 959.951599,766.741699 
	C942.198425,765.569214 926.629578,757.959534 913.371155,745.889954 
	C899.682495,733.428772 890.455627,718.249268 887.727478,699.966248 
	C886.232422,689.946838 886.379578,679.522217 887.114258,669.376465 
	C887.812195,659.736389 889.553772,650.037598 892.058594,640.692200 
	C896.432312,624.373840 905.378113,610.573486 918.193665,599.502258 
	C928.780579,590.356384 941.150635,584.780579 954.963013,582.522766 
	C976.854248,578.944214 997.690918,581.419006 1015.648376,595.403076 
	C1027.592773,604.704529 1034.670410,617.622437 1039.035034,632.075195 
	C1043.352539,646.372131 1044.227905,660.997742 1044.104492,675.811035 
	C1044.069092,680.050720 1042.702271,681.093140 1038.655762,681.078857 
	C1001.005676,680.945801 963.355042,680.998901 925.704529,681.003052 
	C918.620789,681.003845 918.331055,681.180603 919.047180,688.312256 
	C921.937561,717.096008 945.469971,740.013123 974.582031,740.103271 
	C990.102478,740.151306 1005.383301,739.399780 1020.126282,734.070557 
	C1022.734619,733.127686 1025.317383,732.114258 1028.672729,730.845886 
	C1029.840210,735.027771 1030.946533,738.890930 1031.982178,742.772949 
	C1032.235596,743.722961 1032.172974,744.754517 1032.397705,745.715332 
	C1034.923218,756.509399 1034.946411,756.556580 1024.122314,760.029053 
	C1020.367676,761.233643 1016.514099,762.129639 1012.310730,763.318848 
M935.503418,655.000122 
	C959.789001,654.999451 984.075012,654.926880 1008.359741,655.067627 
	C1012.499023,655.091675 1014.675842,653.393311 1013.887512,649.566956 
	C1012.309326,641.907349 1011.670227,633.486572 1007.913208,626.949097 
	C996.288818,606.721191 973.736511,596.284058 949.523376,608.270386 
	C930.536987,617.669250 921.475403,633.752625 919.261536,655.000122 
	C924.598999,655.000122 929.552551,655.000122 935.503418,655.000122 
z"/>
<path fill="#4E4E4E" opacity="1.000000" stroke="none" 
	d="
M634.685120,692.293396 
	C637.997803,702.387085 641.118042,712.136536 644.656494,723.192810 
	C646.338135,717.907104 647.605774,713.758484 648.975464,709.643860 
	C658.799072,680.132385 668.614990,650.618225 678.495972,621.125916 
	C682.223450,610.000549 686.053955,598.908142 690.010681,587.862793 
	C690.532898,586.404968 692.057800,584.249756 693.164368,584.221497 
	C703.937195,583.946655 714.719788,584.056152 726.437195,584.056152 
	C723.934265,590.886292 721.819397,596.908386 719.529785,602.863342 
	C707.361816,634.511658 695.654480,666.349548 682.807983,697.720703 
	C670.580750,727.579590 657.923767,757.316772 643.980164,786.399963 
	C634.242554,806.710510 619.498108,823.595032 599.353088,834.697266 
	C593.034668,838.179443 585.933350,840.283508 579.080994,842.709412 
	C578.024353,843.083435 575.440735,842.098267 575.147339,841.215393 
	C572.349304,832.794556 569.892761,824.260254 567.650940,816.799683 
	C576.994385,811.183594 585.767578,806.569458 593.819824,800.926453 
	C608.459595,790.666992 618.042603,776.214539 624.676208,759.900146 
	C625.911194,756.862915 625.166260,752.335571 623.882812,749.066040 
	C611.973633,718.729065 599.789734,688.499451 587.597290,658.274231 
	C578.084290,634.691467 568.442444,611.160645 558.877808,587.598633 
	C558.527161,586.734985 558.387207,585.785828 557.919556,584.000000 
	C564.840942,584.000000 571.261963,583.977173 577.682739,584.007080 
	C583.012390,584.031921 589.519287,582.275085 593.331665,584.709900 
	C596.958923,587.026550 597.954346,593.681335 599.790344,598.548157 
	C608.828979,622.506409 617.779724,646.497925 626.721985,670.492493 
	C629.378296,677.620117 631.906067,684.795593 634.685120,692.293396 
z"/>
<path fill="#4E4E4E" opacity="1.000000" stroke="none" 
	d="
M155.000046,638.000000 
	C155.000748,621.666870 155.118561,605.832214 154.920029,590.001587 
	C154.870239,586.032043 156.133850,584.800598 160.042862,584.925476 
	C168.034622,585.180847 176.047531,585.204529 184.037125,584.917542 
	C188.082321,584.772217 189.083511,586.242920 189.069031,590.076050 
	C188.945572,622.741943 188.856125,655.409424 189.074509,688.074280 
	C189.154831,700.088623 191.235031,711.866455 197.748795,722.281921 
	C203.767105,731.905090 212.830002,737.011780 224.038330,737.935181 
	C237.443161,739.039490 249.570679,735.060303 259.270844,725.939819 
	C269.002136,716.790100 273.954865,704.960449 273.979309,691.419922 
	C274.040649,657.420410 273.997375,623.420715 274.002777,589.421082 
	C274.003784,583.019287 274.018250,583.012878 280.619965,583.007690 
	C287.953217,583.001892 295.288757,583.117615 302.618591,582.960266 
	C305.752289,582.893066 307.055542,583.794678 307.048401,587.167542 
	C306.961151,628.333557 306.987793,669.499756 306.990021,710.665955 
	C306.990814,725.081848 306.950867,739.498169 307.062378,753.913269 
	C307.083557,756.649841 307.730286,759.381470 308.151459,762.597290 
	C297.959198,762.597290 288.396271,762.597290 278.234741,762.597290 
	C277.530762,754.095947 276.834045,745.682495 276.150726,737.430603 
	C269.843811,743.363525 264.383026,749.771362 257.728668,754.499084 
	C243.314087,764.740051 227.113968,768.739441 209.294937,766.338501 
	C199.657608,765.039978 190.575302,762.797363 182.602097,757.078003 
	C171.116684,748.839233 163.999207,737.627747 159.979691,724.181702 
	C155.855423,710.385193 155.300476,696.199524 155.055405,681.998657 
	C154.805237,667.503113 155.000046,652.999878 155.000046,638.000000 
z"/>
<path fill="#616262" opacity="1.000000" stroke="none" 
	d="
M163.323334,177.726196 
	C168.931839,187.676453 172.485703,197.912094 171.938995,209.067230 
	C170.940140,229.448044 162.934036,246.246948 145.761063,258.082642 
	C126.564384,271.313110 106.031258,272.884735 85.414742,262.898682 
	C64.547394,252.791107 53.145699,235.590302 51.940048,211.925415 
	C50.797569,189.500381 59.753902,171.973587 77.583054,159.158188 
	C86.445908,152.787659 96.742592,149.395828 108.042564,148.878159 
	C126.701271,148.023407 142.418243,154.192413 155.534866,167.147522 
	C158.525909,170.101761 160.615173,173.969025 163.323334,177.726196 
z"/>
<path fill="#4E4E4E" opacity="1.000000" stroke="none" 
	d="
M776.689575,609.022339 
	C769.554993,609.004517 762.887146,608.865417 756.228333,609.050964 
	C752.929016,609.142883 751.840637,607.913025 751.951599,604.696960 
	C752.141052,599.205566 752.152893,593.697510 751.949158,588.207153 
	C751.825745,584.880676 753.132996,583.863342 756.323486,583.952271 
	C762.649414,584.128540 768.992432,583.799866 775.311584,584.071716 
	C779.148071,584.236816 780.129822,582.775818 780.067871,579.152710 
	C779.876953,567.993591 780.109741,556.827332 779.936340,545.667664 
	C779.883301,542.249878 780.897034,540.621094 784.404602,539.882080 
	C793.771606,537.908264 803.056396,535.544250 812.989868,533.189270 
	C812.989868,540.781677 812.989563,548.014465 812.989990,555.247314 
	C812.990417,563.244263 813.156494,571.246155 812.919556,579.236084 
	C812.809021,582.965515 814.041321,584.141296 817.763123,584.077271 
	C829.421875,583.876648 841.086365,584.005005 852.748596,584.005859 
	C854.550903,584.006042 856.353210,584.005920 858.915955,584.005920 
	C858.915955,592.230835 859.038757,599.992432 858.732544,607.737000 
	C858.700745,608.542114 856.131958,609.877991 854.724609,609.898560 
	C842.731750,610.073914 830.729919,610.207031 818.742371,609.900635 
	C814.112915,609.782288 812.868408,611.236633 812.894470,615.788452 
	C813.078857,647.941895 812.807251,680.098694 813.122803,712.250122 
	C813.213440,721.485657 815.357788,730.440491 824.361633,735.702576 
	C830.840271,739.489014 837.864441,739.595154 845.026489,738.497375 
	C848.401428,737.980042 851.773621,737.445374 855.708557,736.830872 
	C856.153625,744.668213 856.695618,751.903015 856.846130,759.145996 
	C856.871094,760.347656 855.406982,762.367004 854.261108,762.687927 
	C837.844238,767.286438 821.304688,768.517212 805.142273,761.987366 
	C793.193298,757.159912 787.039856,746.860596 783.051392,735.305847 
	C779.693909,725.579163 777.481995,715.572266 779.905640,705.150574 
	C780.163940,704.039978 779.996582,702.826294 779.996704,701.660400 
	C780.000122,672.671387 780.028809,643.682373 779.939148,614.693604 
	C779.932556,612.565369 781.365723,609.285583 776.689575,609.022339 
z"/>
<path fill="#4E4E4E" opacity="1.000000" stroke="none" 
	d="
M96.003624,741.786255 
	C99.247086,765.281006 94.345268,786.528992 82.832909,806.625916 
	C73.750687,822.480652 59.087296,829.985229 42.587318,834.753052 
	C36.143364,836.615112 29.269411,837.022095 22.573345,837.964111 
	C19.473604,838.400146 18.215096,836.906067 17.926804,833.702271 
	C17.324499,827.009033 16.268032,820.356567 15.310957,813.019104 
	C17.636349,812.667969 19.847851,812.316528 22.064625,812.002197 
	C35.175114,810.142578 47.341736,805.621826 54.146759,793.789185 
	C58.031204,787.034912 59.925529,778.623413 60.810352,770.744141 
	C64.978607,733.626282 62.454845,696.325623 62.944099,659.102844 
	C63.246181,636.120483 62.998444,613.130859 63.001163,590.144531 
	C63.002010,583.005432 63.007450,583.003723 70.383133,583.000488 
	C76.379570,582.997864 82.376228,582.967224 88.372391,583.007874 
	C96.790741,583.064941 95.984688,582.182495 95.988495,590.397827 
	C96.011795,640.701294 96.000938,691.004761 96.003624,741.786255 
z"/>
<path fill="#4E4E4E" opacity="1.000000" stroke="none" 
	d="
M1105.999756,583.998596 
	C1109.995239,584.001221 1113.499512,584.140625 1116.988037,583.965149 
	C1120.025513,583.812378 1121.079834,585.000305 1121.040283,588.020020 
	C1120.911743,597.815735 1120.992188,607.614197 1121.349487,617.552002 
	C1124.983154,608.072144 1130.591187,600.077209 1138.092407,593.405701 
	C1149.199829,583.527039 1162.307861,579.406555 1176.995483,580.155457 
	C1178.033203,580.208374 1179.810181,582.009033 1179.838989,583.036377 
	C1180.072266,591.356873 1179.933105,599.687073 1179.986450,608.013733 
	C1180.008667,611.472656 1177.556885,610.927063 1175.459961,610.991699 
	C1166.297363,611.274048 1157.280640,612.237244 1149.139526,616.961365 
	C1136.264648,624.432495 1127.792236,635.228210 1126.121948,650.210205 
	C1124.822021,661.871521 1124.237549,673.654968 1124.089478,685.393616 
	C1123.788818,709.205688 1123.938965,733.024658 1124.061157,756.839966 
	C1124.080200,760.533752 1123.311768,762.256653 1119.128906,762.088196 
	C1111.313965,761.773438 1103.474854,761.880310 1095.651001,762.052368 
	C1092.340698,762.125122 1090.926880,761.273560 1090.937500,757.621704 
	C1091.047729,719.649719 1090.916016,681.677063 1091.051880,643.705261 
	C1091.104126,629.091431 1091.759277,614.480713 1091.941895,599.866028 
	C1091.993408,595.751953 1091.352539,591.628357 1091.012207,587.510498 
	C1090.800537,584.950134 1091.939575,583.905151 1094.510742,583.984802 
	C1098.170898,584.098206 1101.837769,584.004028 1105.999756,583.998596 
z"/>
</svg>