<svg version="1.1" id="Layer_1" xmlns="http://www.w3.org/2000/svg" xmlns:xlink="http://www.w3.org/1999/xlink" x="0px" y="0px"
	 width="100%" viewBox="0 0 1024 416" enable-background="new 0 0 1024 416" xml:space="preserve">
<path fill="#000000" opacity="1.000000" stroke="none" 
	d="
M573.000000,389.245819 
	C555.167969,389.248291 537.833130,389.078461 520.505554,389.357330 
	C515.274780,389.441498 514.498535,387.129364 514.570740,382.734253 
	C514.639160,378.575562 514.868164,375.744232 520.317383,375.864014 
	C528.115540,376.035400 535.984863,376.414124 543.717407,374.738007 
	C550.901733,373.180725 553.643188,370.022125 553.647644,362.566742 
	C553.689636,293.071960 553.686646,223.577118 553.642395,154.082336 
	C553.637878,147.024658 550.835938,143.974762 543.781067,142.416733 
	C536.042053,140.707626 528.184998,141.080933 520.383240,141.277557 
	C515.495728,141.400726 514.490967,139.289230 514.588074,134.987534 
	C514.677795,131.015594 514.898071,128.229614 520.133667,128.576279 
	C526.272461,128.982758 532.460815,128.582840 538.625305,128.681305 
	C541.667480,128.729904 542.960754,127.418091 542.621155,124.459641 
	C541.123230,111.409729 540.140015,98.266808 536.413452,85.584160 
	C531.249451,68.009453 520.061096,59.404259 500.623901,57.274319 
	C485.821350,55.652248 471.005035,56.188492 456.188354,56.368282 
	C449.982239,56.443592 447.563507,58.806034 446.646027,64.997238 
	C446.330780,67.124397 446.376465,69.315483 446.376282,71.477379 
	C446.370544,138.139130 446.376465,204.800873 446.389221,271.462616 
	C446.391571,283.777893 450.061920,287.368011 462.572906,288.802765 
	C473.721832,290.081329 484.870422,289.456421 496.016449,289.768738 
	C498.053619,289.825806 500.952393,288.801208 501.784943,291.372650 
	C502.851532,294.666962 502.841766,298.318329 501.718994,301.676147 
	C501.275726,303.001678 499.488068,302.777191 498.132385,302.736908 
	C452.313995,301.375366 406.491730,301.783875 360.671570,302.579193 
	C357.251221,302.638519 355.356781,301.778137 355.892303,298.245697 
	C356.382111,295.014954 353.490356,289.905487 360.232483,289.756195 
	C371.880035,289.498352 383.553223,290.354218 395.175293,288.786102 
	C398.332550,288.360077 401.411530,287.802124 404.387268,286.692139 
	C409.146118,284.917114 411.490387,281.422302 411.642303,276.398315 
	C411.677551,275.232635 411.667114,274.065369 411.667145,272.898834 
	C411.669403,205.237152 411.673187,137.575485 411.669220,69.913803 
	C411.668579,58.779106 409.406982,56.338860 398.253174,56.305111 
	C383.283325,56.259808 368.325043,55.597160 353.384247,57.951160 
	C334.633484,60.905437 324.281982,71.905777 320.295013,89.904175 
	C317.733887,101.465919 316.109680,113.169235 315.442291,124.956665 
	C315.153351,130.060028 312.629822,130.397644 308.668427,130.367432 
	C304.113556,130.332703 304.590332,127.381027 304.828552,124.553589 
	C306.713440,102.182892 308.625275,79.814369 310.593109,57.450840 
	C310.994019,52.894394 309.037628,47.045830 312.791382,44.183002 
	C316.089996,41.667286 321.492950,43.679977 325.960693,43.625847 
	C347.119476,43.369484 368.280365,43.125797 389.440186,43.151363 
	C437.431854,43.209351 485.423309,43.428215 533.414856,43.581085 
	C534.581421,43.584801 535.748047,43.590359 536.914551,43.580303 
	C546.990906,43.493427 546.643677,43.516926 547.379761,53.944942 
	C548.655762,72.022560 550.410645,90.066360 551.961670,108.124611 
	C552.402954,113.262566 553.113342,118.397903 553.178162,123.541031 
	C553.227356,127.442253 554.603271,128.785934 558.497925,128.705353 
	C568.326233,128.502014 578.161743,128.648834 587.994324,128.648560 
	C633.324280,128.647293 678.654297,128.641312 723.984253,128.643433 
	C730.722168,128.643738 730.576416,128.677719 731.407959,135.333328 
	C734.519836,160.239899 737.744446,185.132370 740.896973,210.033890 
	C741.175049,212.230591 742.247070,215.217422 738.462341,215.208176 
	C735.390991,215.200668 731.168396,217.167542 730.413574,211.428848 
	C729.221313,202.365570 727.876648,193.326904 725.720703,184.411591 
	C719.287170,157.807083 704.706116,144.888153 677.423340,142.341446 
	C651.489990,139.920700 625.483032,141.503403 599.509766,141.417862 
	C592.063904,141.393341 589.286682,144.550156 589.269653,151.943634 
	C589.200867,181.941147 589.239685,211.938873 589.200439,241.936478 
	C589.196777,244.706665 589.440002,246.928040 593.098450,246.813339 
	C608.564941,246.328400 624.085327,247.934341 639.505615,245.695419 
	C653.759094,243.625916 661.372498,235.505844 662.698669,221.229202 
	C663.144775,216.425827 663.998596,211.646500 663.661377,206.802643 
	C663.352966,202.371658 666.335083,202.714172 669.261475,202.637253 
	C672.283203,202.557816 674.349915,202.961731 674.339111,206.851135 
	C674.252441,238.015198 674.255188,269.179840 674.371521,300.343781 
	C674.386597,304.381989 672.336182,305.043518 669.062134,304.993530 
	C665.945801,304.945953 663.404053,304.675415 663.614563,300.483704 
	C663.823242,296.330353 663.376038,292.191437 662.899170,288.038330 
	C660.743164,269.261780 652.622925,261.149567 633.903381,260.424561 
	C620.588684,259.908875 607.241577,260.287170 593.913879,260.020477 
	C589.534119,259.932892 589.147644,262.234711 589.158936,265.665955 
	C589.235901,289.163971 589.200562,312.662354 589.211792,336.160614 
	C589.216553,346.159729 589.165771,356.159851 589.294128,366.157532 
	C589.372375,372.257294 591.945007,375.463898 597.929199,375.558746 
	C624.737549,375.983795 651.572083,377.065491 678.346313,374.873657 
	C707.273499,372.505646 725.659119,357.144379 733.247681,329.084503 
	C735.157166,322.023834 736.714783,314.867889 738.430969,307.755005 
	C739.184570,304.631653 738.184387,302.898712 734.735840,303.028931 
	C733.238464,303.085510 731.736633,303.016144 730.236816,303.016510 
	C722.487976,303.018341 722.762390,303.009521 722.483582,295.527283 
	C722.305420,290.746399 724.259888,289.748810 728.617065,289.612671 
	C750.230347,288.937378 767.543091,280.877686 779.819153,261.933502 
	C798.299194,233.415359 817.757751,205.528809 836.987732,177.502365 
	C839.442017,173.925400 839.516052,171.470703 837.075195,167.820679 
	C814.845947,134.579773 792.727600,101.263359 770.815186,67.812889 
	C764.983398,58.910408 757.039307,54.663898 746.683777,54.209644 
	C741.527771,53.983471 736.378357,53.525841 731.221130,53.430080 
	C724.370667,53.302868 727.382385,48.176670 726.916504,44.991135 
	C726.394165,41.419010 728.714539,41.210606 731.672180,41.300873 
	C763.991516,42.287224 796.317139,42.130188 828.641968,41.534397 
	C830.758972,41.495377 833.655701,40.611290 833.206299,44.072235 
	C832.764526,47.474258 836.164917,52.716640 829.761169,53.807308 
	C824.821960,54.648556 819.866760,55.232353 815.356506,57.590149 
	C808.717041,61.061054 807.824341,64.084770 811.915771,70.237839 
	C827.139221,93.131889 842.425476,115.984184 857.725891,138.826904 
	C858.433960,139.884033 858.863831,141.282440 860.836609,141.912354 
	C862.638123,139.359970 864.566284,136.709778 866.410339,134.002258 
	C878.134460,116.788750 889.784851,99.524757 901.569153,82.352654 
	C910.973999,68.647995 905.715393,56.592716 889.086853,54.321663 
	C885.387207,53.816380 882.830627,53.171993 882.978516,48.462780 
	C883.202515,41.327679 883.318726,40.900291 890.590881,40.895420 
	C917.088928,40.877678 943.587036,40.899937 970.084961,40.852673 
	C973.112671,40.847271 976.196899,40.752232 975.592102,45.013794 
	C975.107422,48.429043 978.202698,53.774162 970.691467,53.826405 
	C964.569336,53.868988 958.442627,54.759476 952.409668,56.195938 
	C939.394409,59.294907 928.811707,65.821899 921.185974,77.014267 
	C904.393738,101.660820 887.552490,126.274605 870.581055,150.797836 
	C868.522766,153.772018 868.647278,155.862930 870.585815,158.781387 
	C896.308044,197.504807 922.034668,236.226562 947.476440,275.134277 
	C953.965088,285.057312 962.856323,289.438354 974.278015,289.673004 
	C978.776184,289.765442 983.286133,289.565765 987.774170,289.806580 
	C994.227844,290.152863 991.522705,295.267334 991.939697,298.564178 
	C992.395569,302.168274 990.215942,302.915344 986.936523,302.781097 
	C954.787964,301.465057 922.628662,301.768280 890.473267,302.496826 
	C887.227539,302.570435 884.516174,302.580017 885.013550,298.400177 
	C885.421448,294.972809 882.735779,289.837402 889.719849,289.619781 
	C894.559875,289.468994 899.291260,288.240723 903.617615,285.950958 
	C910.560242,282.276550 911.262695,279.393890 906.955078,272.898010 
	C897.654907,258.873413 888.345642,244.854935 879.028625,230.841583 
	C869.803650,216.966537 860.569458,203.097702 851.323853,189.236465 
	C850.504333,188.007797 849.570740,186.855148 848.762878,185.765244 
	C846.382751,185.776596 845.894226,187.617249 845.019287,188.910568 
	C828.774597,212.923676 812.559875,236.957077 796.336487,260.984558 
	C786.752136,275.179352 792.086060,286.924713 809.319458,289.565491 
	C815.214050,290.468781 815.323792,290.968811 815.055725,298.380524 
	C814.865295,303.643555 811.345093,302.994202 808.056641,302.999573 
	C790.724609,303.027893 773.391174,303.141968 756.061401,302.946869 
	C751.460876,302.895081 749.814514,304.457184 749.107605,309.077911 
	C745.311462,333.891022 741.060364,358.634186 737.122498,383.426331 
	C736.426453,387.808228 734.646240,389.392029 729.985107,389.376068 
	C677.823914,389.197235 625.661804,389.253052 573.000000,389.245819 
z"/>
<path fill="#000000" opacity="1.000000" stroke="none" 
	d="
M73.701309,150.999939 
	C73.695259,123.503174 73.706367,96.506409 73.675491,69.509689 
	C73.663193,58.750519 70.402039,55.187645 59.591793,54.382877 
	C52.950367,53.888470 46.276237,53.369583 39.631264,53.516476 
	C32.925907,53.664707 35.067474,49.017365 34.680573,45.618069 
	C34.201141,41.405781 36.541206,41.413628 39.909824,41.471237 
	C77.729477,42.118050 115.554268,42.432442 153.368332,41.263611 
	C157.334717,41.141010 158.167068,42.935444 157.867371,45.916443 
	C157.569885,48.875603 160.005478,53.521217 153.758438,53.447922 
	C142.929718,53.320869 132.084808,53.429741 121.381638,55.245903 
	C111.412979,56.937424 109.229858,59.581829 109.225571,69.496040 
	C109.195564,138.820969 109.203140,208.145905 109.240105,277.470825 
	C109.245178,286.986115 111.844231,289.715637 121.443398,289.650024 
	C138.588913,289.532867 155.827255,291.173248 172.863327,288.856781 
	C205.537231,284.413940 221.797043,269.257751 229.724014,237.265793 
	C232.172455,227.384277 233.162247,217.285080 234.406006,207.235229 
	C235.117767,201.484161 239.093536,203.072159 242.238892,203.217819 
	C246.127457,203.397888 245.144882,206.434998 244.888123,208.874893 
	C243.026001,226.569870 241.179184,244.266464 239.298462,261.959473 
	C237.980225,274.360870 236.567108,286.752502 235.313889,299.160339 
	C235.064438,301.630005 233.935455,302.782898 231.580505,302.902527 
	C230.083740,302.978546 228.583420,303.017609 227.084702,303.017792 
	C165.425476,303.024750 103.766235,303.027679 42.107002,303.023743 
	C35.373764,303.023315 32.113396,297.759186 34.957691,291.576660 
	C35.968975,289.378448 37.953728,289.844025 39.710236,289.763702 
	C47.016762,289.429535 54.342896,290.204773 61.641434,288.867218 
	C71.247581,287.106750 73.672722,284.468414 73.679161,274.484558 
	C73.705612,233.489700 73.697212,192.494812 73.701309,150.999939 
z"/>
<path fill="#000000" opacity="1.000000" stroke="none" 
	d="
M254.723984,165.303528 
	C232.936600,165.302795 211.610779,165.389374 190.286926,165.222809 
	C186.502319,165.193237 184.598587,166.487823 183.309982,169.989197 
	C180.263504,178.266891 176.867752,186.416107 173.608795,194.615509 
	C168.936569,206.370621 172.295685,212.456848 184.717468,215.092163 
	C186.998489,215.576080 190.203568,214.776413 190.399857,219.056641 
	C190.698410,225.566971 190.332947,226.253876 183.786926,226.257980 
	C167.793060,226.267975 151.799210,226.251434 135.805344,226.264648 
	C132.703949,226.267212 129.791565,226.507690 129.658127,221.898834 
	C129.538330,217.760666 130.267426,215.471298 135.155121,215.276016 
	C149.825943,214.689880 157.768204,206.311996 162.946152,192.868759 
	C182.453094,142.223923 202.681076,91.856873 222.619217,41.377960 
	C223.938019,38.039051 225.182632,34.966248 229.608093,34.632751 
	C234.595184,34.256927 237.119766,36.425556 238.896835,40.970779 
	C250.231750,69.962433 261.777954,98.871483 273.255737,127.807281 
	C283.200012,152.877106 293.454498,177.830719 302.910919,203.083206 
	C305.915649,211.107117 310.466522,215.224487 318.849731,215.363083 
	C321.344574,215.404327 323.836670,215.603943 326.331543,215.649826 
	C331.987549,215.753860 332.480042,216.391891 332.297699,222.064209 
	C332.203339,224.998856 331.087463,226.275406 328.110443,226.268616 
	C305.286133,226.216507 282.461548,226.195618 259.637299,226.254807 
	C255.664459,226.265121 255.569473,223.811508 255.613922,220.939224 
	C255.656219,218.206696 255.327850,215.589905 259.485596,215.565063 
	C263.795624,215.539307 268.153320,215.128830 272.256409,213.600266 
	C276.717224,211.938400 277.914246,209.459991 276.194702,204.992157 
	C271.589935,193.027771 266.716278,181.165268 262.237885,169.154739 
	C260.856293,165.449463 258.366302,165.059616 254.723984,165.303528 
M235.236984,101.153763 
	C231.282776,91.185905 227.328568,81.218056 222.902771,70.061440 
	C211.595734,98.751373 200.788879,126.172134 189.785721,154.091034 
	C212.403076,154.091034 233.857361,154.091034 256.071777,154.091034 
	C249.031464,136.178055 242.287491,119.019104 235.236984,101.153763 
z"/>
</svg>