<svg version="1.1" id="Layer_1" xmlns="http://www.w3.org/2000/svg" xmlns:xlink="http://www.w3.org/1999/xlink" x="0px" y="0px"
	 width="100%" viewBox="0 0 4750 1000" enable-background="new 0 0 4750 1000" xml:space="preserve">
<path fill="#FEFEFF" opacity="1.000000" stroke="none" 
	d="
M4752.000000,344.000000 
	C4752.000000,563.299988 4752.000000,782.599976 4752.000000,1002.000000 
	C3209.934570,1002.000000 1667.869141,1002.000000 125.333069,1001.399170 
	C142.366089,996.747131 157.983948,989.108521 171.627579,977.238892 
	C294.777435,870.101379 418.000610,763.048218 541.187073,655.952820 
	C566.074890,634.315918 591.514343,613.265381 615.615479,590.782471 
	C657.965149,551.276306 658.118652,485.793762 617.187012,445.153229 
	C565.412292,393.746704 513.834351,342.141724 462.227600,290.566315 
	C376.214203,204.605225 290.217377,118.627502 204.286087,32.584366 
	C190.494720,18.775061 174.262772,9.596242 155.357758,4.962873 
	C152.186920,4.185739 149.116714,2.998008 146.000000,2.000001 
	C1681.333374,2.000000 3216.666748,2.000000 4752.000000,2.000000 
	C4752.000000,108.897743 4752.000000,215.547058 4751.354492,322.832825 
	C4748.612305,316.182465 4743.333984,312.607574 4736.233398,311.516418 
	C4732.308105,310.913269 4728.292480,310.669525 4724.316895,310.664581 
	C4680.652832,310.610443 4636.988281,310.645081 4593.324219,310.620056 
	C4589.860352,310.618042 4586.396484,310.351166 4582.288086,310.180634 
	C4587.391602,286.542969 4592.214844,264.115936 4597.079590,241.697906 
	C4605.972656,200.709763 4614.987793,159.747650 4623.759766,118.733543 
	C4628.449219,96.806870 4619.860840,85.965088 4597.751953,85.863708 
	C4566.420898,85.720032 4535.088867,85.937065 4503.757324,85.837029 
	C4495.759766,85.811485 4488.603516,87.943588 4482.308594,92.753052 
	C4475.415527,98.019363 4471.392090,105.014114 4469.567871,113.567123 
	C4462.483887,146.771164 4455.177246,179.927689 4447.962402,213.103821 
	C4440.969727,245.257324 4433.986816,277.412933 4426.767090,310.637115 
	C4423.339844,310.637115 4420.109863,310.637390 4416.879883,310.637054 
	C4390.214844,310.634399 4363.548828,310.526581 4336.884277,310.662384 
	C4315.989746,310.768829 4302.324707,322.150848 4298.203125,342.461853 
	C4296.349609,351.596741 4294.476074,360.727661 4292.628906,369.863892 
	C4290.055664,382.590332 4287.442383,395.308868 4284.948242,408.050934 
	C4281.334961,426.516541 4289.980469,437.315521 4308.521484,437.607971 
	C4310.854004,437.644775 4313.187988,437.617950 4315.520996,437.618805 
	C4341.186523,437.628174 4366.851562,437.618195 4392.517090,437.676788 
	C4394.989746,437.682434 4397.461426,438.113434 4400.135742,438.366028 
	C4399.884277,440.458374 4399.832520,441.792480 4399.553223,443.077179 
	C4381.259277,527.323853 4362.995117,611.577087 4344.614746,695.804810 
	C4336.981934,730.781006 4331.639160,765.902527 4335.900391,801.849976 
	C4340.202637,838.143860 4354.473633,869.032410 4384.332031,891.472656 
	C4398.066406,901.794495 4413.482422,908.835571 4429.808594,913.893311 
	C4457.725586,922.541992 4486.441895,925.854431 4515.555664,926.126282 
	C4536.551758,926.322327 4557.550293,926.312073 4578.547363,926.336914 
	C4589.878418,926.350281 4601.225586,926.601685 4612.537109,926.104431 
	C4627.708984,925.437500 4640.655273,915.527588 4643.901855,901.151245 
	C4649.767578,875.179626 4655.329590,849.113708 4659.990234,822.904297 
	C4663.273926,804.437500 4654.682129,795.140930 4635.916016,794.591614 
	C4633.917480,794.533081 4631.916016,794.580139 4629.916016,794.580139 
	C4603.917480,794.580566 4577.915527,794.816528 4551.922363,794.456177 
	C4542.653320,794.327759 4533.214355,793.625977 4524.187500,791.654114 
	C4506.821777,787.860657 4496.634277,776.085510 4494.223633,758.431213 
	C4493.550293,753.502258 4493.104492,748.399170 4493.597656,743.480652 
	C4495.089844,728.596191 4495.980957,713.526001 4499.084961,698.949524 
	C4515.863770,620.161987 4533.229492,541.499207 4550.426758,462.800995 
	C4552.247559,454.467560 4554.301758,446.185028 4556.308105,437.621063 
	C4560.838379,437.621063 4564.480957,437.621155 4568.123535,437.621094 
	C4609.121094,437.620361 4650.119141,437.620514 4691.116699,437.617554 
	C4695.449707,437.617249 4699.789062,437.748901 4704.114746,437.561829 
	C4721.107422,436.826843 4733.531250,426.278992 4737.141113,409.609406 
	C4740.169922,395.620758 4743.077637,381.605469 4746.198242,367.637482 
	C4747.966309,359.721313 4750.055176,351.876740 4752.000000,344.000000 
M1615.108398,409.624084 
	C1605.391724,455.544250 1595.670532,501.463470 1585.959595,547.384827 
	C1567.570801,634.341858 1549.192383,721.301086 1530.799805,808.257324 
	C1524.668823,837.243469 1518.354614,866.191772 1512.413330,895.216614 
	C1508.335449,915.137756 1517.312866,926.140869 1537.643066,926.248108 
	C1570.305054,926.420410 1602.973389,925.977112 1635.629272,926.457397 
	C1652.186646,926.700928 1668.498291,915.175964 1672.431274,896.429504 
	C1695.803711,785.024048 1719.906372,673.771973 1743.693481,562.453308 
	C1770.958862,434.857880 1798.165161,307.249817 1825.358643,179.639008 
	C1829.242920,161.410736 1833.589478,143.242905 1836.477783,124.851685 
	C1839.100952,108.148056 1829.628662,97.974319 1812.679810,97.884300 
	C1781.017578,97.716148 1749.353638,97.886093 1717.690796,97.794418 
	C1710.143799,97.772560 1702.719482,99.062737 1696.819824,103.466988 
	C1689.438599,108.977348 1681.890991,114.926750 1676.383179,122.180885 
	C1628.627563,185.076996 1581.303345,248.300644 1533.871582,311.442627 
	C1477.638794,386.300934 1421.431885,461.178711 1365.181763,536.023987 
	C1363.541016,538.207153 1361.541260,540.120728 1359.162720,542.767944 
	C1317.844482,416.407776 1276.987061,291.466125 1236.138672,166.521439 
	C1231.383179,151.976151 1226.847534,137.356613 1221.905518,122.875404 
	C1216.384399,106.697090 1205.751099,98.024483 1190.683472,97.919991 
	C1157.688721,97.691177 1124.689819,97.646400 1091.695679,97.916389 
	C1075.112061,98.052086 1061.900269,109.194649 1057.942017,125.358482 
	C1057.229492,128.267883 1056.670898,131.215134 1056.050049,134.146790 
	C1045.774902,182.666702 1035.515991,231.190063 1025.224121,279.706421 
	C1006.159058,369.578583 987.073303,459.446320 967.999390,549.316528 
	C947.542908,645.701050 927.089844,742.086182 906.635620,838.471069 
	C902.627380,857.358826 898.598572,876.242249 894.624390,895.137146 
	C893.154968,902.123596 892.763855,909.130188 896.600769,915.528442 
	C901.594482,923.855835 909.495911,926.359131 918.781555,926.332886 
	C951.777466,926.239685 984.774414,926.437866 1017.769958,926.296814 
	C1037.577637,926.212158 1050.157959,915.951294 1054.359253,896.396851 
	C1062.537964,858.329346 1070.454590,820.205444 1078.496094,782.108398 
	C1100.427124,678.210327 1122.358398,574.312378 1144.308350,470.418365 
	C1150.290527,442.103333 1156.339355,413.802429 1162.728149,383.752533 
	C1164.364136,388.094299 1165.523560,390.798370 1166.414062,393.588257 
	C1191.006958,470.635223 1215.582520,547.687744 1240.137329,624.746948 
	C1248.219238,650.110291 1256.141724,675.524780 1264.313232,700.859070 
	C1270.308228,719.445923 1281.216064,727.434631 1300.541382,727.585022 
	C1316.205322,727.706970 1331.871582,727.521118 1347.535645,727.636353 
	C1358.277466,727.715332 1368.184204,725.002075 1376.184692,717.847595 
	C1383.840332,711.001343 1391.697876,704.024719 1397.808594,695.863892 
	C1441.144409,637.990234 1484.031006,579.780396 1527.107422,521.712219 
	C1555.290649,483.720612 1583.552002,445.786896 1613.611572,407.893951 
	C1614.223022,407.899109 1614.834595,407.904236 1615.108398,409.624084 
M3804.139404,633.007019 
	C3816.620850,582.834839 3822.493408,532.110291 3815.989014,480.503967 
	C3811.110107,441.798157 3798.095947,406.215210 3773.744873,375.254333 
	C3743.449219,336.736237 3702.773682,315.866821 3655.702393,305.959198 
	C3622.533203,298.977722 3588.986572,297.852753 3555.258545,299.831818 
	C3507.811279,302.615906 3462.469482,313.657715 3420.024658,335.280212 
	C3342.960693,374.538544 3289.009766,435.396820 3254.185791,513.947632 
	C3237.624512,551.304565 3227.927246,590.672668 3219.432373,630.455139 
	C3209.740723,675.843445 3206.625244,721.499329 3213.966553,767.421997 
	C3226.599854,846.446289 3270.765381,899.289978 3347.161133,924.112610 
	C3396.923096,940.281372 3448.081055,940.806946 3499.495361,935.194214 
	C3547.047607,930.002930 3591.671875,915.093384 3634.189209,893.441162 
	C3670.748047,874.823608 3703.725098,851.489563 3731.051514,820.633972 
	C3741.475586,808.863770 3750.695557,796.346924 3756.269287,781.374207 
	C3762.095459,765.722595 3751.389404,753.210205 3736.839355,753.355347 
	C3699.855957,753.724487 3662.867676,753.671143 3625.881348,753.644165 
	C3616.007324,753.636963 3607.694336,757.146667 3600.549805,763.692627 
	C3594.901855,768.867554 3589.479492,774.289612 3583.809814,779.439758 
	C3549.380615,810.714844 3509.819824,828.607971 3462.365723,826.374146 
	C3421.187988,824.435730 3391.905029,803.023010 3378.175781,764.174377 
	C3368.239258,736.058350 3368.597412,707.299866 3373.221680,678.336365 
	C3373.937988,673.849487 3375.208740,669.451233 3376.312256,664.622742 
	C3381.104248,664.622742 3385.077637,664.622742 3389.050781,664.622742 
	C3514.013184,664.622620 3638.975830,664.633057 3763.938232,664.612427 
	C3786.227051,664.608765 3797.634521,655.976318 3804.139404,633.007019 
M2126.028564,310.860809 
	C2060.875000,326.924957 2006.514771,360.350586 1963.484863,411.970642 
	C1933.662720,447.745941 1912.543457,488.310669 1898.202393,532.421082 
	C1884.700073,573.951599 1875.530884,616.544983 1867.628174,659.476013 
	C1861.305054,693.826416 1858.808716,728.155640 1863.894531,762.801208 
	C1869.975098,804.223328 1886.838623,840.397034 1916.632568,870.266724 
	C1946.449951,900.159729 1982.617065,918.497620 2023.273682,927.974976 
	C2089.344727,943.376465 2155.483643,941.478516 2221.285645,926.076050 
	C2288.579590,910.324280 2343.601562,874.897766 2386.692383,820.932922 
	C2419.821777,779.443115 2442.320557,732.449768 2455.736084,681.398376 
	C2465.198975,645.386780 2472.608887,608.805176 2479.992920,572.287598 
	C2485.886963,543.139709 2487.936035,513.659973 2484.353760,483.865356 
	C2476.754150,420.657349 2446.724854,371.685242 2392.619629,337.903625 
	C2354.110840,313.859680 2311.263428,303.551544 2266.596191,300.250946 
	C2219.839600,296.795929 2173.401367,299.510315 2126.028564,310.860809 
M2814.258057,723.252808 
	C2809.928467,729.940979 2806.725342,737.424683 2800.645996,744.666016 
	C2790.674072,683.983887 2781.037598,625.177612 2771.341553,566.381165 
	C2760.886963,502.983734 2750.395752,439.592377 2739.876465,376.205597 
	C2737.479248,361.760254 2735.287109,347.264343 2732.297119,332.938507 
	C2729.364502,318.888733 2721.674072,312.407227 2707.632568,310.854584 
	C2704.664795,310.526367 2701.642578,310.639099 2698.645264,310.637390 
	C2673.316650,310.622864 2647.988281,310.619446 2622.659668,310.637543 
	C2617.997314,310.640869 2613.299316,310.408112 2608.678955,310.881287 
	C2590.199463,312.773590 2582.185547,322.719696 2583.971680,341.204376 
	C2584.131592,342.860321 2584.354004,344.516785 2584.664795,346.150726 
	C2597.345703,412.862061 2610.042236,479.570374 2622.732666,546.279968 
	C2643.261963,654.197571 2663.750977,762.122986 2684.367920,870.023926 
	C2686.675293,882.100891 2688.956299,894.271973 2692.592773,905.982300 
	C2696.647217,919.037964 2706.129150,926.166199 2720.307129,926.150635 
	C2754.297607,926.113220 2788.288086,926.207458 2822.278076,926.066895 
	C2834.253906,926.017395 2844.412109,921.214966 2852.098145,912.109741 
	C2857.230713,906.029297 2861.938232,899.497314 2866.130859,892.730530 
	C2899.285156,839.221558 2932.273926,785.609802 2965.305664,732.024902 
	C3039.406738,611.815979 3113.506104,491.606171 3187.595947,371.390289 
	C3192.837646,362.885132 3198.474854,354.578796 3203.093750,345.743958 
	C3213.346436,326.134399 3204.051270,310.834229 3182.168945,310.629791 
	C3181.502441,310.623566 3180.835938,310.628937 3180.169434,310.628967 
	C3149.508545,310.629883 3118.831787,311.230896 3088.192139,310.424805 
	C3067.111816,309.870178 3052.867676,318.796722 3042.442871,336.503265 
	C2966.747559,465.070770 2890.857178,593.523438 2814.258057,723.252808 
M3963.002930,615.985413 
	C3962.471436,618.593262 3961.963379,621.206116 3961.404541,623.808105 
	C3941.979248,714.255127 3922.728760,804.740356 3902.966309,895.113708 
	C3899.076416,912.901978 3908.632812,926.782532 3928.068359,926.462708 
	C3965.375244,925.848694 4002.700195,926.415649 4040.016602,926.241394 
	C4056.951904,926.162292 4069.707031,915.778381 4074.011230,899.313843 
	C4074.684326,896.740295 4075.275391,894.143066 4075.828369,891.540649 
	C4085.578369,845.652527 4095.291504,799.756470 4105.061523,753.872498 
	C4124.741211,661.447144 4144.437988,569.025391 4164.151855,476.607178 
	C4183.798340,384.504272 4203.484375,292.409760 4223.129395,200.306549 
	C4228.474121,175.246185 4233.991699,150.218262 4238.936035,125.078201 
	C4241.899902,110.007050 4232.454102,98.032104 4217.496094,97.930191 
	C4178.181641,97.662300 4138.862305,97.634666 4099.548828,97.961235 
	C4084.569824,98.085655 4071.446289,109.770576 4068.361328,124.309578 
	C4062.214355,153.277069 4056.141357,182.260376 4049.928467,211.213715 
	C4032.823486,290.929169 4015.637207,370.627136 3998.531250,450.342377 
	C3986.801025,505.005585 3975.151367,559.686157 3963.002930,615.985413 
z"/>
<path fill="#0C59F7" opacity="1.000000" stroke="none" 
	d="
M145.070709,2.000001 
	C149.116714,2.998008 152.186920,4.185739 155.357758,4.962873 
	C174.262772,9.596242 190.494720,18.775061 204.286087,32.584366 
	C290.217377,118.627502 376.214203,204.605225 462.227600,290.566315 
	C513.834351,342.141724 565.412292,393.746704 617.187012,445.153229 
	C658.118652,485.793762 657.965149,551.276306 615.615479,590.782471 
	C591.514343,613.265381 566.074890,634.315918 541.187073,655.952820 
	C418.000610,763.048218 294.777435,870.101379 171.627579,977.238892 
	C157.983948,989.108521 142.366089,996.747131 124.431259,1001.399170 
	C112.623917,1002.000000 101.247841,1002.000000 88.304588,1001.619446 
	C43.578075,991.378235 16.009668,965.556335 5.532002,922.113647 
	C4.850859,919.289429 3.199859,916.699097 2.000010,914.000000 
	C2.000000,905.950928 2.000000,897.901794 2.559959,888.456421 
	C4.010100,884.562744 5.175833,882.126648 5.747231,879.558411 
	C10.698742,857.302795 22.136433,839.002808 39.247593,824.109497 
	C51.056465,813.831360 62.842674,803.527161 74.660095,793.258789 
	C180.016068,701.713806 285.372314,610.169067 390.766144,518.667603 
	C392.964325,516.759216 395.613129,515.369751 398.513062,513.429443 
	C394.271484,508.987396 391.827759,506.323181 389.274017,503.768921 
	C293.407593,407.881836 197.522247,312.013702 101.664841,216.117630 
	C86.593353,201.040070 70.841629,186.546982 56.779495,170.573151 
	C6.383066,113.325554 33.229645,25.484337 106.779694,5.555790 
	C110.563179,4.530644 114.261841,3.192447 118.000000,1.999999 
	C126.713799,2.000000 135.427597,2.000000 145.070709,2.000001 
M166.836609,47.984940 
	C163.881561,46.454239 161.004257,44.744823 157.959457,43.420437 
	C126.961327,29.937281 91.087784,42.475964 74.629059,72.488449 
	C58.443665,102.002518 67.808395,139.111862 96.226196,158.070724 
	C123.953148,176.568695 161.817688,170.956116 182.751572,145.037109 
	C209.433273,112.001480 198.324249,68.374260 166.836609,47.984940 
M483.071411,555.754822 
	C496.990967,573.906006 515.203186,583.511719 538.256775,582.527100 
	C566.423279,581.324036 585.921143,566.883545 596.817017,541.358582 
	C607.150574,517.151001 600.748169,489.446716 581.595642,470.495605 
	C563.332642,452.424652 535.092041,447.017120 511.192108,456.831635 
	C473.825409,472.176270 457.727875,519.205444 483.071411,555.754822 
M56.802952,936.001709 
	C70.562958,956.255554 89.497406,967.099548 114.167816,966.177795 
	C140.933075,965.177734 160.503418,951.949585 171.555634,927.836609 
	C182.682922,903.559998 179.228622,879.988647 162.319168,859.477356 
	C145.370743,838.918762 122.885597,831.638794 96.866074,837.525452 
	C55.691700,846.840759 32.356556,894.825012 56.802952,936.001709 
z"/>
<path fill="#1A1B20" opacity="1.000000" stroke="none" 
	d="
M4752.000000,343.091797 
	C4750.055176,351.876740 4747.966309,359.721313 4746.198242,367.637482 
	C4743.077637,381.605469 4740.169922,395.620758 4737.141113,409.609406 
	C4733.531250,426.278992 4721.107422,436.826843 4704.114746,437.561829 
	C4699.789062,437.748901 4695.449707,437.617249 4691.116699,437.617554 
	C4650.119141,437.620514 4609.121094,437.620361 4568.123535,437.621094 
	C4564.480957,437.621155 4560.838379,437.621063 4556.308105,437.621063 
	C4554.301758,446.185028 4552.247559,454.467560 4550.426758,462.800995 
	C4533.229492,541.499207 4515.863770,620.161987 4499.084961,698.949524 
	C4495.980957,713.526001 4495.089844,728.596191 4493.597656,743.480652 
	C4493.104492,748.399170 4493.550293,753.502258 4494.223633,758.431213 
	C4496.634277,776.085510 4506.821777,787.860657 4524.187500,791.654114 
	C4533.214355,793.625977 4542.653320,794.327759 4551.922363,794.456177 
	C4577.915527,794.816528 4603.917480,794.580566 4629.916016,794.580139 
	C4631.916016,794.580139 4633.917480,794.533081 4635.916016,794.591614 
	C4654.682129,795.140930 4663.273926,804.437500 4659.990234,822.904297 
	C4655.329590,849.113708 4649.767578,875.179626 4643.901855,901.151245 
	C4640.655273,915.527588 4627.708984,925.437500 4612.537109,926.104431 
	C4601.225586,926.601685 4589.878418,926.350281 4578.547363,926.336914 
	C4557.550293,926.312073 4536.551758,926.322327 4515.555664,926.126282 
	C4486.441895,925.854431 4457.725586,922.541992 4429.808594,913.893311 
	C4413.482422,908.835571 4398.066406,901.794495 4384.332031,891.472656 
	C4354.473633,869.032410 4340.202637,838.143860 4335.900391,801.849976 
	C4331.639160,765.902527 4336.981934,730.781006 4344.614746,695.804810 
	C4362.995117,611.577087 4381.259277,527.323853 4399.553223,443.077179 
	C4399.832520,441.792480 4399.884277,440.458374 4400.135742,438.366028 
	C4397.461426,438.113434 4394.989746,437.682434 4392.517090,437.676788 
	C4366.851562,437.618195 4341.186523,437.628174 4315.520996,437.618805 
	C4313.187988,437.617950 4310.854004,437.644775 4308.521484,437.607971 
	C4289.980469,437.315521 4281.334961,426.516541 4284.948242,408.050934 
	C4287.442383,395.308868 4290.055664,382.590332 4292.628906,369.863892 
	C4294.476074,360.727661 4296.349609,351.596741 4298.203125,342.461853 
	C4302.324707,322.150848 4315.989746,310.768829 4336.884277,310.662384 
	C4363.548828,310.526581 4390.214844,310.634399 4416.879883,310.637054 
	C4420.109863,310.637390 4423.339844,310.637115 4426.767090,310.637115 
	C4433.986816,277.412933 4440.969727,245.257324 4447.962402,213.103821 
	C4455.177246,179.927689 4462.483887,146.771164 4469.567871,113.567123 
	C4471.392090,105.014114 4475.415527,98.019363 4482.308594,92.753052 
	C4488.603516,87.943588 4495.759766,85.811485 4503.757324,85.837029 
	C4535.088867,85.937065 4566.420898,85.720032 4597.751953,85.863708 
	C4619.860840,85.965088 4628.449219,96.806870 4623.759766,118.733543 
	C4614.987793,159.747650 4605.972656,200.709763 4597.079590,241.697906 
	C4592.214844,264.115936 4587.391602,286.542969 4582.288086,310.180634 
	C4586.396484,310.351166 4589.860352,310.618042 4593.324219,310.620056 
	C4636.988281,310.645081 4680.652832,310.610443 4724.316895,310.664581 
	C4728.292480,310.669525 4732.308105,310.913269 4736.233398,311.516418 
	C4743.333984,312.607574 4748.612305,316.182465 4751.354492,323.734619 
	C4752.000000,330.061188 4752.000000,336.122375 4752.000000,343.091797 
z"/>
<path fill="#FEFFFF" opacity="1.000000" stroke="none" 
	d="
M117.062683,1.999999 
	C114.261841,3.192447 110.563179,4.530644 106.779694,5.555790 
	C33.229645,25.484337 6.383066,113.325554 56.779495,170.573151 
	C70.841629,186.546982 86.593353,201.040070 101.664841,216.117630 
	C197.522247,312.013702 293.407593,407.881836 389.274017,503.768921 
	C391.827759,506.323181 394.271484,508.987396 398.513062,513.429443 
	C395.613129,515.369751 392.964325,516.759216 390.766144,518.667603 
	C285.372314,610.169067 180.016068,701.713806 74.660095,793.258789 
	C62.842674,803.527161 51.056465,813.831360 39.247593,824.109497 
	C22.136433,839.002808 10.698742,857.302795 5.747231,879.558411 
	C5.175833,882.126648 4.010100,884.562744 2.559959,887.530029 
	C2.000000,592.666626 2.000000,297.333282 2.000000,2.000000 
	C40.191853,2.000000 78.158607,2.000000 117.062683,1.999999 
z"/>
<path fill="#F7FBFD" opacity="1.000000" stroke="none" 
	d="
M2.000010,914.937317 
	C3.199859,916.699097 4.850859,919.289429 5.532002,922.113647 
	C16.009668,965.556335 43.578075,991.378235 87.368713,1001.619446 
	C59.478264,1002.000000 30.956524,1002.000000 2.000000,1002.000000 
	C2.000000,973.293030 2.000000,944.583801 2.000010,914.937317 
z"/>
<path fill="#1A1B20" opacity="1.000000" stroke="none" 
	d="
M1611.778320,407.827271 
	C1583.552002,445.786896 1555.290649,483.720612 1527.107422,521.712219 
	C1484.031006,579.780396 1441.144409,637.990234 1397.808594,695.863892 
	C1391.697876,704.024719 1383.840332,711.001343 1376.184692,717.847595 
	C1368.184204,725.002075 1358.277466,727.715332 1347.535645,727.636353 
	C1331.871582,727.521118 1316.205322,727.706970 1300.541382,727.585022 
	C1281.216064,727.434631 1270.308228,719.445923 1264.313232,700.859070 
	C1256.141724,675.524780 1248.219238,650.110291 1240.137329,624.746948 
	C1215.582520,547.687744 1191.006958,470.635223 1166.414062,393.588257 
	C1165.523560,390.798370 1164.364136,388.094299 1162.728149,383.752533 
	C1156.339355,413.802429 1150.290527,442.103333 1144.308350,470.418365 
	C1122.358398,574.312378 1100.427124,678.210327 1078.496094,782.108398 
	C1070.454590,820.205444 1062.537964,858.329346 1054.359253,896.396851 
	C1050.157959,915.951294 1037.577637,926.212158 1017.769958,926.296814 
	C984.774414,926.437866 951.777466,926.239685 918.781555,926.332886 
	C909.495911,926.359131 901.594482,923.855835 896.600769,915.528442 
	C892.763855,909.130188 893.154968,902.123596 894.624390,895.137146 
	C898.598572,876.242249 902.627380,857.358826 906.635620,838.471069 
	C927.089844,742.086182 947.542908,645.701050 967.999390,549.316528 
	C987.073303,459.446320 1006.159058,369.578583 1025.224121,279.706421 
	C1035.515991,231.190063 1045.774902,182.666702 1056.050049,134.146790 
	C1056.670898,131.215134 1057.229492,128.267883 1057.942017,125.358482 
	C1061.900269,109.194649 1075.112061,98.052086 1091.695679,97.916389 
	C1124.689819,97.646400 1157.688721,97.691177 1190.683472,97.919991 
	C1205.751099,98.024483 1216.384399,106.697090 1221.905518,122.875404 
	C1226.847534,137.356613 1231.383179,151.976151 1236.138672,166.521439 
	C1276.987061,291.466125 1317.844482,416.407776 1359.162720,542.767944 
	C1361.541260,540.120728 1363.541016,538.207153 1365.181763,536.023987 
	C1421.431885,461.178711 1477.638794,386.300934 1533.871582,311.442627 
	C1581.303345,248.300644 1628.627563,185.076996 1676.383179,122.180885 
	C1681.890991,114.926750 1689.438599,108.977348 1696.819824,103.466988 
	C1702.719482,99.062737 1710.143799,97.772560 1717.690796,97.794418 
	C1749.353638,97.886093 1781.017578,97.716148 1812.679810,97.884300 
	C1829.628662,97.974319 1839.100952,108.148056 1836.477783,124.851685 
	C1833.589478,143.242905 1829.242920,161.410736 1825.358643,179.639008 
	C1798.165161,307.249817 1770.958862,434.857880 1743.693481,562.453308 
	C1719.906372,673.771973 1695.803711,785.024048 1672.431274,896.429504 
	C1668.498291,915.175964 1652.186646,926.700928 1635.629272,926.457397 
	C1602.973389,925.977112 1570.305054,926.420410 1537.643066,926.248108 
	C1517.312866,926.140869 1508.335449,915.137756 1512.413330,895.216614 
	C1518.354614,866.191772 1524.668823,837.243469 1530.799805,808.257324 
	C1549.192383,721.301086 1567.570801,634.341858 1585.959595,547.384827 
	C1595.670532,501.463470 1605.391724,455.544250 1615.620117,408.273499 
	C1615.961914,405.539917 1615.791870,404.156982 1615.403564,400.996552 
	C1613.598022,404.398560 1612.688232,406.112885 1611.778320,407.827271 
z"/>
<path fill="#1A1B20" opacity="1.000000" stroke="none" 
	d="
M3804.011719,633.804443 
	C3797.634521,655.976318 3786.227051,664.608765 3763.938232,664.612427 
	C3638.975830,664.633057 3514.013184,664.622620 3389.050781,664.622742 
	C3385.077637,664.622742 3381.104248,664.622742 3376.312256,664.622742 
	C3375.208740,669.451233 3373.937988,673.849487 3373.221680,678.336365 
	C3368.597412,707.299866 3368.239258,736.058350 3378.175781,764.174377 
	C3391.905029,803.023010 3421.187988,824.435730 3462.365723,826.374146 
	C3509.819824,828.607971 3549.380615,810.714844 3583.809814,779.439758 
	C3589.479492,774.289612 3594.901855,768.867554 3600.549805,763.692627 
	C3607.694336,757.146667 3616.007324,753.636963 3625.881348,753.644165 
	C3662.867676,753.671143 3699.855957,753.724487 3736.839355,753.355347 
	C3751.389404,753.210205 3762.095459,765.722595 3756.269287,781.374207 
	C3750.695557,796.346924 3741.475586,808.863770 3731.051514,820.633972 
	C3703.725098,851.489563 3670.748047,874.823608 3634.189209,893.441162 
	C3591.671875,915.093384 3547.047607,930.002930 3499.495361,935.194214 
	C3448.081055,940.806946 3396.923096,940.281372 3347.161133,924.112610 
	C3270.765381,899.289978 3226.599854,846.446289 3213.966553,767.421997 
	C3206.625244,721.499329 3209.740723,675.843445 3219.432373,630.455139 
	C3227.927246,590.672668 3237.624512,551.304565 3254.185791,513.947632 
	C3289.009766,435.396820 3342.960693,374.538544 3420.024658,335.280212 
	C3462.469482,313.657715 3507.811279,302.615906 3555.258545,299.831818 
	C3588.986572,297.852753 3622.533203,298.977722 3655.702393,305.959198 
	C3702.773682,315.866821 3743.449219,336.736237 3773.744873,375.254333 
	C3798.095947,406.215210 3811.110107,441.798157 3815.989014,480.503967 
	C3822.493408,532.110291 3816.620850,582.834839 3804.011719,633.804443 
M3559.000000,564.009338 
	C3591.236816,564.009338 3623.473877,564.009338 3655.841309,564.009338 
	C3661.724854,535.705383 3663.831055,508.147217 3657.248291,480.819305 
	C3648.620605,445.002625 3627.637451,419.699371 3590.431152,411.623718 
	C3543.230469,401.378815 3500.412354,411.849121 3463.361572,442.992950 
	C3427.154297,473.427948 3407.751221,513.676392 3398.042969,559.186279 
	C3397.776367,560.436096 3398.009521,561.792542 3398.009521,564.009338 
	C3451.156006,564.009338 3504.077881,564.009338 3559.000000,564.009338 
z"/>
<path fill="#1A1B20" opacity="1.000000" stroke="none" 
	d="
M2126.829590,310.642456 
	C2173.401367,299.510315 2219.839600,296.795929 2266.596191,300.250946 
	C2311.263428,303.551544 2354.110840,313.859680 2392.619629,337.903625 
	C2446.724854,371.685242 2476.754150,420.657349 2484.353760,483.865356 
	C2487.936035,513.659973 2485.886963,543.139709 2479.992920,572.287598 
	C2472.608887,608.805176 2465.198975,645.386780 2455.736084,681.398376 
	C2442.320557,732.449768 2419.821777,779.443115 2386.692383,820.932922 
	C2343.601562,874.897766 2288.579590,910.324280 2221.285645,926.076050 
	C2155.483643,941.478516 2089.344727,943.376465 2023.273682,927.974976 
	C1982.617065,918.497620 1946.449951,900.159729 1916.632568,870.266724 
	C1886.838623,840.397034 1869.975098,804.223328 1863.894531,762.801208 
	C1858.808716,728.155640 1861.305054,693.826416 1867.628174,659.476013 
	C1875.530884,616.544983 1884.700073,573.951599 1898.202393,532.421082 
	C1912.543457,488.310669 1933.662720,447.745941 1963.484863,411.970642 
	C2006.514771,360.350586 2060.875000,326.924957 2126.829590,310.642456 
M2070.240967,807.007996 
	C2076.461670,809.340942 2082.504883,812.513367 2088.931396,813.874451 
	C2142.257812,825.169067 2190.889648,815.707703 2232.871826,779.595947 
	C2259.894287,756.352234 2277.503906,726.492920 2287.768311,692.899780 
	C2296.696045,663.680725 2303.047119,633.658386 2310.101318,603.887756 
	C2316.171875,578.268921 2321.111816,552.426514 2321.499023,525.953918 
	C2321.733643,509.894440 2320.441406,493.986664 2315.822754,478.523865 
	C2306.873291,448.561554 2287.362793,428.835663 2256.845947,422.069763 
	C2205.872314,410.768555 2158.869141,419.496429 2118.089844,453.702515 
	C2090.256836,477.048920 2072.293701,507.226959 2060.416016,541.038757 
	C2045.933228,582.266052 2036.042236,624.659241 2029.866211,667.963379 
	C2026.227539,693.476379 2023.825073,718.927551 2028.075806,744.528625 
	C2032.489746,771.110535 2044.246338,793.013855 2070.240967,807.007996 
z"/>
<path fill="#1A1B20" opacity="1.000000" stroke="none" 
	d="
M2814.643311,722.632690 
	C2890.857178,593.523438 2966.747559,465.070770 3042.442871,336.503265 
	C3052.867676,318.796722 3067.111816,309.870178 3088.192139,310.424805 
	C3118.831787,311.230896 3149.508545,310.629883 3180.169434,310.628967 
	C3180.835938,310.628937 3181.502441,310.623566 3182.168945,310.629791 
	C3204.051270,310.834229 3213.346436,326.134399 3203.093750,345.743958 
	C3198.474854,354.578796 3192.837646,362.885132 3187.595947,371.390289 
	C3113.506104,491.606171 3039.406738,611.815979 2965.305664,732.024902 
	C2932.273926,785.609802 2899.285156,839.221558 2866.130859,892.730530 
	C2861.938232,899.497314 2857.230713,906.029297 2852.098145,912.109741 
	C2844.412109,921.214966 2834.253906,926.017395 2822.278076,926.066895 
	C2788.288086,926.207458 2754.297607,926.113220 2720.307129,926.150635 
	C2706.129150,926.166199 2696.647217,919.037964 2692.592773,905.982300 
	C2688.956299,894.271973 2686.675293,882.100891 2684.367920,870.023926 
	C2663.750977,762.122986 2643.261963,654.197571 2622.732666,546.279968 
	C2610.042236,479.570374 2597.345703,412.862061 2584.664795,346.150726 
	C2584.354004,344.516785 2584.131592,342.860321 2583.971680,341.204376 
	C2582.185547,322.719696 2590.199463,312.773590 2608.678955,310.881287 
	C2613.299316,310.408112 2617.997314,310.640869 2622.659668,310.637543 
	C2647.988281,310.619446 2673.316650,310.622864 2698.645264,310.637390 
	C2701.642578,310.639099 2704.664795,310.526367 2707.632568,310.854584 
	C2721.674072,312.407227 2729.364502,318.888733 2732.297119,332.938507 
	C2735.287109,347.264343 2737.479248,361.760254 2739.876465,376.205597 
	C2750.395752,439.592377 2760.886963,502.983734 2771.341553,566.381165 
	C2781.037598,625.177612 2790.674072,683.983887 2800.645996,744.666016 
	C2806.725342,737.424683 2809.928467,729.940979 2814.643311,722.632690 
z"/>
<path fill="#1A1B20" opacity="1.000000" stroke="none" 
	d="
M3963.234375,615.172180 
	C3975.151367,559.686157 3986.801025,505.005585 3998.531250,450.342377 
	C4015.637207,370.627136 4032.823486,290.929169 4049.928467,211.213715 
	C4056.141357,182.260376 4062.214355,153.277069 4068.361328,124.309578 
	C4071.446289,109.770576 4084.569824,98.085655 4099.548828,97.961235 
	C4138.862305,97.634666 4178.181641,97.662300 4217.496094,97.930191 
	C4232.454102,98.032104 4241.899902,110.007050 4238.936035,125.078201 
	C4233.991699,150.218262 4228.474121,175.246185 4223.129395,200.306549 
	C4203.484375,292.409760 4183.798340,384.504272 4164.151855,476.607178 
	C4144.437988,569.025391 4124.741211,661.447144 4105.061523,753.872498 
	C4095.291504,799.756470 4085.578369,845.652527 4075.828369,891.540649 
	C4075.275391,894.143066 4074.684326,896.740295 4074.011230,899.313843 
	C4069.707031,915.778381 4056.951904,926.162292 4040.016602,926.241394 
	C4002.700195,926.415649 3965.375244,925.848694 3928.068359,926.462708 
	C3908.632812,926.782532 3899.076416,912.901978 3902.966309,895.113708 
	C3922.728760,804.740356 3941.979248,714.255127 3961.404541,623.808105 
	C3961.963379,621.206116 3962.471436,618.593262 3963.234375,615.172180 
z"/>
<path fill="#AEADB1" opacity="1.000000" stroke="none" 
	d="
M1612.694946,407.860596 
	C1612.688232,406.112885 1613.598022,404.398560 1615.403564,400.996552 
	C1615.791870,404.156982 1615.961914,405.539917 1615.788940,407.416138 
	C1614.834595,407.904236 1614.223022,407.899109 1612.694946,407.860596 
z"/>
<path fill="#FBFDFE" opacity="1.000000" stroke="none" 
	d="
M167.455505,48.370586 
	C198.324249,68.374260 209.433273,112.001480 182.751572,145.037109 
	C161.817688,170.956116 123.953148,176.568695 96.226196,158.070724 
	C67.808395,139.111862 58.443665,102.002518 74.629059,72.488449 
	C91.087784,42.475964 126.961327,29.937281 157.959457,43.420437 
	C161.004257,44.744823 163.881561,46.454239 167.455505,48.370586 
z"/>
<path fill="#FBFDFE" opacity="1.000000" stroke="none" 
	d="
M482.644318,555.171265 
	C457.727875,519.205444 473.825409,472.176270 511.192108,456.831635 
	C535.092041,447.017120 563.332642,452.424652 581.595642,470.495605 
	C600.748169,489.446716 607.150574,517.151001 596.817017,541.358582 
	C585.921143,566.883545 566.423279,581.324036 538.256775,582.527100 
	C515.203186,583.511719 496.990967,573.906006 482.644318,555.171265 
z"/>
<path fill="#FBFDFE" opacity="1.000000" stroke="none" 
	d="
M56.408520,935.378662 
	C32.356556,894.825012 55.691700,846.840759 96.866074,837.525452 
	C122.885597,831.638794 145.370743,838.918762 162.319168,859.477356 
	C179.228622,879.988647 182.682922,903.559998 171.555634,927.836609 
	C160.503418,951.949585 140.933075,965.177734 114.167816,966.177795 
	C89.497406,967.099548 70.562958,956.255554 56.408520,935.378662 
z"/>
<path fill="#FDFDFD" opacity="1.000000" stroke="none" 
	d="
M3558.000000,564.009338 
	C3504.077881,564.009338 3451.156006,564.009338 3398.009521,564.009338 
	C3398.009521,561.792542 3397.776367,560.436096 3398.042969,559.186279 
	C3407.751221,513.676392 3427.154297,473.427948 3463.361572,442.992950 
	C3500.412354,411.849121 3543.230469,401.378815 3590.431152,411.623718 
	C3627.637451,419.699371 3648.620605,445.002625 3657.248291,480.819305 
	C3663.831055,508.147217 3661.724854,535.705383 3655.841309,564.009338 
	C3623.473877,564.009338 3591.236816,564.009338 3558.000000,564.009338 
z"/>
<path fill="#FEFEFE" opacity="1.000000" stroke="none" 
	d="
M2069.598633,806.624634 
	C2044.246338,793.013855 2032.489746,771.110535 2028.075806,744.528625 
	C2023.825073,718.927551 2026.227539,693.476379 2029.866211,667.963379 
	C2036.042236,624.659241 2045.933228,582.266052 2060.416016,541.038757 
	C2072.293701,507.226959 2090.256836,477.048920 2118.089844,453.702515 
	C2158.869141,419.496429 2205.872314,410.768555 2256.845947,422.069763 
	C2287.362793,428.835663 2306.873291,448.561554 2315.822754,478.523865 
	C2320.441406,493.986664 2321.733643,509.894440 2321.499023,525.953918 
	C2321.111816,552.426514 2316.171875,578.268921 2310.101318,603.887756 
	C2303.047119,633.658386 2296.696045,663.680725 2287.768311,692.899780 
	C2277.503906,726.492920 2259.894287,756.352234 2232.871826,779.595947 
	C2190.889648,815.707703 2142.257812,825.169067 2088.931396,813.874451 
	C2082.504883,812.513367 2076.461670,809.340942 2069.598633,806.624634 
z"/>
</svg>