<svg version="1.1" id="Layer_1" xmlns="http://www.w3.org/2000/svg" xmlns:xlink="http://www.w3.org/1999/xlink" x="0px" y="0px"
	 width="100%" viewBox="0 0 391 202" enable-background="new 0 0 391 202" xml:space="preserve">
<path fill="#015F8B" opacity="1.000000" stroke="none" 
	d="
M1.000000,130.468658 
	C5.130645,125.500130 10.137066,123.420967 16.331583,123.954514 
	C21.172405,124.371468 24.888166,126.170525 26.930632,130.771454 
	C32.349159,142.977448 37.762367,155.185806 43.210472,167.378586 
	C43.879204,168.875198 44.747482,170.282639 46.099876,172.808136 
	C47.717739,169.178146 48.959084,166.279114 50.291893,163.422745 
	C55.318813,152.649445 60.239372,141.823395 65.467018,131.147949 
	C69.190529,123.544128 81.879448,121.128113 88.126747,126.902435 
	C89.733688,128.387726 90.836586,131.243561 90.861046,133.484070 
	C91.042915,150.141418 90.896606,166.802383 90.833572,183.462143 
	C90.832466,183.755539 90.586807,184.048019 90.308556,184.667572 
	C86.545761,184.667572 82.642975,184.667572 77.703491,184.667572 
	C77.703491,170.009583 77.703491,155.483429 77.703491,140.957275 
	C77.105911,140.823486 76.508339,140.689713 75.910759,140.555939 
	C73.643867,145.319443 71.350418,150.070526 69.115906,154.849197 
	C65.132111,163.368774 61.179707,171.903076 57.222500,180.435074 
	C54.974331,185.282227 50.722290,186.173630 46.033813,185.972244 
	C41.483643,185.776779 37.233627,185.086502 35.000278,180.133713 
	C29.235569,167.349579 23.294842,154.644791 17.409151,141.915359 
	C16.998413,141.027039 16.462458,140.196609 15.255407,138.030350 
	C15.255407,154.299530 15.255407,169.226059 15.255407,184.788284 
	C10.402560,184.788284 6.157045,184.788284 1.455765,184.894135 
	C1.000000,166.979111 1.000000,148.958206 1.000000,130.468658 
z"/>
<path fill="#015E8B" opacity="1.000000" stroke="none" 
	d="
M259.539368,1.000000 
	C260.334534,1.624504 260.509277,2.542145 261.029633,2.825832 
	C264.349243,4.635648 267.655945,6.522027 271.142029,7.958045 
	C274.292847,9.255953 277.703369,9.906973 280.934906,11.028873 
	C286.968597,13.123592 293.600616,14.346824 298.844727,17.709095 
	C316.768127,29.200743 330.554810,44.429211 338.430054,64.649139 
	C341.303467,72.026703 345.064728,79.076729 348.739929,86.109474 
	C349.542603,87.645370 351.642426,88.571045 353.255951,89.604294 
	C362.244507,95.360138 371.369629,100.911964 380.192596,106.909393 
	C381.974091,108.120377 382.655731,110.949387 383.844482,113.032425 
	C381.731171,114.024872 379.703552,115.326210 377.485626,115.941612 
	C373.589661,117.022606 369.577209,117.683762 364.553650,118.744583 
	C373.547241,126.633736 383.536377,132.140900 389.113495,141.908356 
	C388.630737,142.497406 388.147949,143.086456 387.665161,143.675507 
	C377.386414,136.227585 366.854797,129.095840 356.953827,121.175682 
	C353.010345,118.021133 354.186279,114.900734 359.137177,113.498344 
	C364.124969,112.085503 369.262238,111.200386 375.769043,109.768196 
	C371.556854,106.925789 368.417206,104.423409 364.937958,102.552696 
	C360.172882,99.990616 355.302124,97.461456 350.202118,95.724144 
	C342.389313,93.062729 340.276581,86.052101 337.160828,79.856850 
	C331.170990,67.946861 327.129120,55.011505 318.308838,44.611748 
	C306.549194,30.746323 293.740723,18.922308 274.327026,16.636368 
	C268.934448,16.001398 264.039093,11.675871 258.743591,9.453331 
	C256.198181,8.384999 253.252518,8.270244 249.104034,7.449996 
	C250.738571,10.989262 251.613831,13.059970 252.631561,15.058100 
	C257.324615,24.271915 262.035248,33.476955 266.789276,42.659401 
	C268.219696,45.422237 269.469421,48.379860 271.405457,50.756641 
	C274.527924,54.589985 274.694885,58.503799 273.034424,62.825562 
	C268.061890,75.767754 269.046600,86.818756 276.610382,97.930092 
	C277.451660,94.294632 278.067566,91.241562 278.882141,88.242455 
	C279.481628,86.035240 280.094452,83.765770 281.167145,81.775063 
	C281.941162,80.338676 283.481079,79.315025 284.679413,78.107292 
	C285.739288,79.269226 287.069702,80.280556 287.814148,81.618050 
	C291.973663,89.091331 295.762268,96.780602 300.149536,104.113716 
	C302.521820,108.078873 305.833710,111.481880 308.165680,115.610069 
	C299.108032,109.437805 291.482697,101.962799 285.773041,91.208954 
	C285.203735,94.517128 285.283630,97.049492 284.279785,99.033531 
	C283.297821,100.974319 281.444153,103.312286 279.557678,103.772339 
	C276.238892,104.581680 273.033478,103.997826 270.558380,100.398254 
	C263.899414,90.713890 264.519348,80.039696 265.503967,69.274193 
	C265.769867,66.366966 267.026062,63.562637 267.600861,60.666065 
	C267.880707,59.255730 268.113861,57.523129 267.556061,56.309761 
	C263.575195,47.650524 259.512115,39.023048 255.201508,30.524265 
	C253.349304,26.872438 251.060791,23.388285 248.588257,20.116863 
	C244.549988,14.773834 242.744827,7.250196 248.124023,1.366587 
	C251.692917,1.000000 255.385818,1.000000 259.539368,1.000000 
z"/>
<path fill="#015F8B" opacity="1.000000" stroke="none" 
	d="
M102.468658,203.000000 
	C102.000000,200.211975 102.000000,197.423935 102.000000,193.736496 
	C115.748962,193.483749 128.971924,193.248276 142.194504,192.993942 
	C147.676102,192.888519 149.044525,191.314606 148.605881,185.237915 
	C138.434265,184.826904 128.203400,184.448868 117.977089,183.973068 
	C115.696381,183.866974 113.388359,183.604446 111.167747,183.090561 
	C104.735420,181.601959 101.274635,177.326736 101.087288,170.850296 
	C100.837334,162.209473 101.025505,153.555954 101.025505,144.455566 
	C105.323639,144.455566 109.339363,144.455566 114.000000,144.455566 
	C114.000000,149.183472 113.999290,153.796494 114.000320,158.409515 
	C114.000801,160.574463 113.733589,162.780518 114.054489,164.897171 
	C115.355247,173.476654 114.783554,176.284485 125.724472,176.032547 
	C133.196228,175.860519 140.675156,175.999649 149.279419,175.999649 
	C149.279419,164.989227 149.279419,154.324341 149.279419,143.332932 
	C154.330185,143.332932 158.252319,143.332932 162.730576,143.332932 
	C162.821182,145.121094 162.983780,146.882629 162.987732,148.644531 
	C163.011932,159.469269 162.539917,170.319687 163.140060,181.111115 
	C163.658936,190.441071 162.012238,198.072250 152.872009,202.650177 
	C136.312439,203.000000 119.624878,203.000000 102.468658,203.000000 
z"/>
<path fill="#E58C00" opacity="1.000000" stroke="none" 
	d="
M392.000000,181.541931 
	C390.063629,183.302719 388.236359,184.822037 386.168488,185.863815 
	C381.613037,188.158844 376.559479,186.574844 373.596313,182.168869 
	C370.792328,177.999603 371.400024,172.811890 375.091431,169.405319 
	C378.408905,166.343842 384.667297,166.003906 388.204254,168.749603 
	C389.372253,169.656326 390.426575,170.709412 391.766449,171.347778 
	C392.000000,174.361282 392.000000,177.722580 392.000000,181.541931 
z"/>
<path fill="#E48C00" opacity="1.000000" stroke="none" 
	d="
M301.999878,157.998596 
	C301.999908,161.660919 301.748199,164.848312 302.054260,167.981201 
	C302.626495,173.838196 301.444794,178.839920 294.680695,183.001114 
	C298.793060,186.679535 302.407227,189.912308 306.728424,193.777527 
	C297.801086,194.039688 289.931122,195.642853 283.780304,187.733261 
	C282.090546,185.560318 277.278534,185.353958 273.835724,185.097137 
	C265.452423,184.471786 256.957916,184.921265 248.647522,183.853546 
	C240.668930,182.828445 237.202057,178.169449 237.044861,170.023712 
	C236.858627,160.372437 236.885712,150.712997 237.038284,141.060562 
	C237.156326,133.591675 241.362503,128.022324 248.926392,126.656509 
	C263.420502,124.039330 278.066803,123.422256 292.494904,127.096451 
	C299.458862,128.869858 301.945831,132.822449 301.992096,140.020462 
	C302.029572,145.846436 301.999817,151.672836 301.999878,157.998596 
M262.684509,175.998611 
	C264.922943,175.998611 267.161407,175.998611 270.315155,175.998611 
	C267.172455,172.715286 264.754333,170.188950 262.078735,167.393631 
	C271.642548,166.225128 280.291107,166.081177 287.012634,174.773636 
	C287.597900,172.559036 287.964813,171.811340 287.967926,171.062149 
	C288.008606,161.231583 287.883392,151.398819 288.050873,141.570908 
	C288.128540,137.011215 285.450775,135.232803 281.709808,135.089401 
	C274.238373,134.802994 266.742249,134.831741 259.268768,135.090164 
	C256.290588,135.193161 253.269806,136.332352 253.038086,140.096909 
	C252.592651,147.333771 252.000259,154.585907 252.078735,161.825104 
	C252.199875,173.001663 252.534592,173.168472 262.684509,175.998611 
z"/>
<path fill="#E48C00" opacity="1.000000" stroke="none" 
	d="
M228.723724,124.079529 
	C229.557144,127.171875 229.925323,130.206955 230.417374,134.263031 
	C218.104355,134.517197 206.419281,134.806381 194.732498,134.981491 
	C187.843399,135.084717 183.795853,141.304062 187.436020,147.274734 
	C188.504227,149.026794 192.217880,149.671432 194.800522,149.898880 
	C202.201569,150.550674 209.743759,150.095749 217.047165,151.242828 
	C227.630676,152.905075 231.128021,159.527588 230.042633,172.831940 
	C229.464828,179.914490 221.646927,184.756943 213.467850,184.946686 
	C203.811188,185.170685 194.143631,184.893631 184.484344,185.051392 
	C180.563690,185.115402 176.652390,185.753036 172.353348,186.166550 
	C172.353348,182.779007 172.353348,179.710907 172.353348,176.000244 
	C174.052170,176.000244 175.821625,176.045975 177.588104,175.992737 
	C188.180725,175.673492 198.774750,175.385208 209.363892,174.973251 
	C214.282135,174.781906 214.997177,173.470108 215.036957,166.831009 
	C215.062943,162.495590 213.565002,160.167313 208.838242,159.930771 
	C200.481445,159.512589 192.041550,159.261856 183.831436,157.826019 
	C175.646591,156.394592 171.624939,152.067520 171.904709,143.289215 
	C172.283386,131.408432 178.452255,125.132309 190.478928,124.966125 
	C203.074066,124.792099 215.665451,124.348198 228.723724,124.079529 
z"/>
<path fill="#E48C00" opacity="1.000000" stroke="none" 
	d="
M322.999817,131.113098 
	C322.999939,141.091766 322.906189,150.586334 323.048035,160.077362 
	C323.101746,163.672119 323.113037,167.465546 324.278748,170.767715 
	C324.927063,172.604218 327.843628,174.691376 329.856049,174.820190 
	C340.919830,175.528442 352.019958,175.669525 363.107910,175.995972 
	C364.234009,176.029129 365.361938,176.000412 366.742371,176.000412 
	C366.742371,179.025406 366.742371,181.629974 366.742371,184.655258 
	C365.624908,184.760895 364.362762,184.981003 363.100128,184.983887 
	C351.441925,185.010620 339.781342,185.126907 328.126862,184.916489 
	C324.947998,184.859085 321.709320,184.047577 318.634125,183.127472 
	C311.256256,180.920074 309.234131,174.791656 309.093170,168.153244 
	C308.792999,154.016891 309.001434,139.869751 309.001434,125.364502 
	C313.605072,125.364502 317.990417,125.364502 322.999725,125.364502 
	C322.999725,127.091843 322.999725,128.859726 322.999817,131.113098 
z"/>
<path fill="#015E8B" opacity="1.000000" stroke="none" 
	d="
M274.330963,28.376591 
	C275.673309,27.372662 277.129730,26.365913 278.649872,26.258207 
	C279.356140,26.208166 280.655548,27.812103 280.857544,28.830587 
	C281.221008,30.663242 280.960175,32.619724 280.960175,34.524471 
	C280.529388,34.740280 280.098602,34.956093 279.667816,35.171906 
	C277.935577,33.028515 276.203369,30.885126 274.330963,28.376591 
z"/>
</svg>