<svg version="1.1" id="Layer_1" xmlns="http://www.w3.org/2000/svg" xmlns:xlink="http://www.w3.org/1999/xlink" x="0px" y="0px"
	 width="100%" viewBox="0 0 225 225" enable-background="new 0 0 225 225" xml:space="preserve">
<path fill="#FDFDFD" opacity="1.000000" stroke="none" 
	d="
M1.000000,106.437500 
	C1.509010,105.948929 2.175387,106.088852 2.503657,105.818405 
	C8.296547,101.045723 14.512616,100.661964 21.033499,104.054825 
	C27.799719,107.575317 34.454891,111.314339 41.286999,114.698654 
	C42.605404,115.351723 44.830677,115.398613 46.104359,114.721733 
	C55.439194,109.760841 64.638176,104.544312 74.215019,99.222221 
	C60.914005,90.581970 47.707249,82.003632 34.501431,73.423843 
	C32.414639,72.068062 30.241058,70.825195 28.267084,69.320862 
	C24.520512,66.465637 24.415428,62.048744 28.124496,59.247169 
	C35.980003,53.313660 44.646019,51.054008 54.399342,53.656094 
	C78.588081,60.109390 102.785706,66.531372 127.028908,72.775124 
	C129.206116,73.335861 131.857880,72.916847 134.089035,72.266251 
	C149.343689,67.818108 164.449280,62.821312 179.812195,58.801128 
	C185.611298,57.283611 191.965576,57.887585 198.066772,57.524487 
	C198.172546,57.937317 198.278305,58.350147 198.384079,58.762978 
	C192.785599,61.306709 187.308533,64.181839 181.551041,66.291580 
	C176.758698,68.047638 175.011215,70.866814 176.325912,76.057068 
	C186.234375,71.506424 196.130554,66.964783 206.023743,62.416672 
	C213.070236,59.177261 218.963913,60.601849 223.832199,66.721001 
	C224.336777,67.355240 224.892395,67.948868 225.712158,68.280670 
	C226.000000,71.361290 226.000000,74.722572 226.000000,78.541931 
	C225.609833,78.927879 224.933487,78.694214 224.870102,78.806526 
	C217.225494,92.350098 203.999985,98.946190 190.936234,105.396408 
	C160.959869,120.197235 129.191818,130.231567 97.004242,138.809250 
	C75.235008,144.610550 53.211311,149.504608 31.180010,154.239502 
	C26.015728,155.349380 20.180838,154.998703 14.972191,153.862946 
	C6.643655,152.046875 5.233338,145.911728 11.067677,139.611816 
	C12.302550,138.278397 13.734864,137.127838 15.330409,135.659027 
	C10.673182,127.788651 6.143950,120.134590 1.307360,112.740265 
	C1.000000,110.958336 1.000000,108.916664 1.000000,106.437500 
z"/>
<path fill="#FCFCFC" opacity="1.000000" stroke="none" 
	d="
M176.521698,121.369797 
	C177.853165,126.911613 178.976410,132.212570 179.784286,137.561188 
	C180.603699,142.986160 181.111023,148.458252 181.756088,153.909592 
	C182.892105,163.510010 176.452850,173.060516 167.068665,174.724014 
	C164.771698,175.131195 161.266922,173.994522 159.684341,172.294907 
	C150.384918,162.307617 141.479538,151.952850 132.466492,141.699829 
	C130.070297,138.973984 130.024734,136.523697 133.827377,135.167526 
	C147.099228,130.434219 160.400269,125.782394 173.709305,121.154465 
	C174.443054,120.899323 175.349228,121.139969 176.521698,121.369797 
z"/>
</svg>