<svg version="1.1" id="Layer_1" xmlns="http://www.w3.org/2000/svg" xmlns:xlink="http://www.w3.org/1999/xlink" x="0px" y="0px"
	 width="100%" viewBox="0 0 993 1024" enable-background="new 0 0 993 1024" xml:space="preserve">
<path fill="#FEFEFE" opacity="1.000000" stroke="none" 
	d="
M580.000000,1025.000000 
	C387.035004,1025.000000 194.070007,1025.000000 1.052509,1025.000000 
	C1.052509,683.763611 1.052509,342.527161 1.052509,1.000000 
	C231.027954,1.000000 461.056030,1.000000 691.343140,1.380391 
	C661.141785,3.924906 631.142273,8.767529 601.680054,16.913494 
	C598.258484,17.859526 594.467773,18.164038 590.924744,17.863483 
	C570.041992,16.091978 549.219360,13.189824 528.306458,12.280250 
	C481.707306,10.253498 437.267731,18.824940 396.204865,42.015007 
	C394.616608,42.911968 392.021698,43.010349 390.236877,42.430717 
	C351.031433,29.698689 311.083252,20.477283 269.976349,16.669956 
	C225.257111,12.528053 181.135147,14.571748 138.364166,29.848413 
	C96.378242,44.844681 63.028198,70.801796 39.339855,108.717049 
	C18.184027,142.578796 8.260410,180.122177 4.185386,219.418030 
	C0.123044,258.591614 2.159719,297.547089 9.150038,336.276550 
	C22.275335,408.996552 39.483246,480.703125 62.596497,550.930298 
	C77.221184,595.365967 93.778130,639.009644 117.177895,679.725403 
	C130.926117,703.647461 146.632675,726.089111 168.971771,742.912720 
	C198.511734,765.159363 230.356689,770.659546 264.480103,754.285461 
	C272.021729,750.666626 278.858154,745.578125 286.552887,740.837769 
	C288.387360,742.794128 290.267944,745.124451 292.470032,747.095581 
	C307.263031,760.337280 324.958954,767.596985 344.074219,771.841980 
	C381.984558,780.260986 419.366241,779.877808 455.873840,765.056763 
	C456.827484,764.669617 457.895721,764.564636 459.135437,764.275635 
	C459.218323,765.388489 459.277863,766.036499 459.313354,766.685852 
	C461.191986,801.088562 462.457855,835.538696 465.116791,869.880920 
	C467.789490,904.400269 477.580841,937.229858 493.718384,967.859802 
	C508.710999,996.316528 532.193359,1014.433777 563.800232,1021.564697 
	C569.184387,1022.779419 574.599304,1023.858398 580.000000,1025.000000 
z"/>
<path fill="#040404" opacity="1.000000" stroke="none" 
	d="
M580.468262,1025.000000 
	C574.599304,1023.858398 569.184387,1022.779419 563.800232,1021.564697 
	C532.193359,1014.433777 508.710999,996.316528 493.718384,967.859802 
	C477.580841,937.229858 467.789490,904.400269 465.116791,869.880920 
	C462.457855,835.538696 461.191986,801.088562 459.313354,766.685852 
	C459.277863,766.036499 459.218323,765.388489 459.135437,764.275635 
	C457.895721,764.564636 456.827484,764.669617 455.873840,765.056763 
	C419.366241,779.877808 381.984558,780.260986 344.074219,771.841980 
	C324.958954,767.596985 307.263031,760.337280 292.470032,747.095581 
	C290.267944,745.124451 288.387360,742.794128 286.552887,740.837769 
	C278.858154,745.578125 272.021729,750.666626 264.480103,754.285461 
	C230.356689,770.659546 198.511734,765.159363 168.971771,742.912720 
	C146.632675,726.089111 130.926117,703.647461 117.177895,679.725403 
	C93.778130,639.009644 77.221184,595.365967 62.596497,550.930298 
	C39.483246,480.703125 22.275335,408.996552 9.150038,336.276550 
	C2.159719,297.547089 0.123044,258.591614 4.185386,219.418030 
	C8.260410,180.122177 18.184027,142.578796 39.339855,108.717049 
	C63.028198,70.801796 96.378242,44.844681 138.364166,29.848413 
	C181.135147,14.571748 225.257111,12.528053 269.976349,16.669956 
	C311.083252,20.477283 351.031433,29.698689 390.236877,42.430717 
	C392.021698,43.010349 394.616608,42.911968 396.204865,42.015007 
	C437.267731,18.824940 481.707306,10.253498 528.306458,12.280250 
	C549.219360,13.189824 570.041992,16.091978 590.924744,17.863483 
	C594.467773,18.164038 598.258484,17.859526 601.680054,16.913494 
	C631.142273,8.767529 661.141785,3.924906 691.801025,1.380391 
	C707.687561,1.000000 723.375122,1.000000 739.734436,1.381764 
	C745.544495,2.170427 750.692627,2.480151 755.819641,2.998806 
	C832.043945,10.709800 897.320312,40.761238 950.025574,97.212288 
	C970.166382,118.784416 983.490356,143.136566 987.430115,172.654251 
	C991.906311,206.191437 989.494568,239.456909 984.498657,272.623444 
	C979.065674,308.692535 970.225464,344.002747 959.351318,378.808655 
	C938.307556,446.165497 910.253906,510.480927 875.575500,571.921570 
	C872.508484,577.355591 869.355957,582.741455 865.735779,589.031250 
	C868.800659,588.872009 870.903809,588.928955 872.955139,588.630188 
	C891.545044,585.923645 910.092407,582.896912 928.718994,580.478027 
	C946.831177,578.125977 963.885010,580.766724 978.381165,593.115234 
	C986.482971,600.016602 990.685730,609.230591 994.000000,619.000000 
	C994.000000,626.020935 994.000000,633.041931 993.656006,640.693848 
	C990.020325,648.530212 987.631897,656.344055 983.266174,662.826111 
	C970.523743,681.745667 952.181885,694.515930 932.884827,705.934753 
	C891.531677,730.405090 846.060059,737.153320 798.963562,736.681396 
	C795.516296,736.646912 792.073303,736.175049 788.214050,735.874207 
	C787.724182,740.549622 787.165771,744.807556 786.848511,749.083374 
	C784.841309,776.134521 783.535339,803.256592 780.747803,830.226013 
	C777.455139,862.082642 770.556885,893.240479 757.858459,922.843628 
	C745.737854,951.099731 728.166565,975.081726 702.234314,992.280151 
	C675.277588,1010.157959 644.703491,1017.647888 613.380615,1022.897827 
	C608.603821,1023.698425 603.794373,1024.304077 599.000000,1025.000000 
	C592.978821,1025.000000 586.957703,1025.000000 580.468262,1025.000000 
M281.884705,44.669014 
	C254.026459,40.983162 226.106323,40.126423 198.150452,43.284252 
	C169.752686,46.491997 142.645966,54.110332 117.835144,68.601387 
	C86.618202,86.834000 64.516174,113.174873 50.283623,146.242569 
	C35.633041,180.281479 30.894499,216.199005 29.984293,252.892426 
	C29.144255,286.757202 34.533207,319.884094 40.884533,352.948853 
	C53.125999,416.677429 68.815781,479.524933 89.122208,541.171570 
	C103.288925,584.179260 119.283821,626.457275 142.153641,665.771057 
	C153.673599,685.574097 166.812469,704.108398 185.061340,718.453003 
	C207.762924,736.297607 233.250854,738.426697 256.610931,724.249634 
	C267.707825,717.515076 276.270142,707.982239 284.742432,698.313843 
	C308.955688,670.682068 333.357697,643.215942 357.607941,615.616577 
	C359.908203,612.998657 361.607117,612.578430 365.130585,614.046021 
	C374.456726,617.930481 384.007843,621.463013 393.749603,624.100952 
	C401.346344,626.158020 409.363556,626.662476 417.566772,627.913696 
	C417.244415,628.805969 417.133453,629.846863 416.580261,630.529297 
	C411.567078,636.713257 406.428711,642.795837 401.422089,648.985046 
	C396.361755,655.240723 390.064667,659.801453 382.370148,661.964355 
	C369.735443,665.515869 357.010040,668.760071 344.265594,671.901367 
	C332.280640,674.855347 320.298279,677.760315 310.419220,685.741516 
	C298.780151,695.144531 297.380829,710.541321 307.881653,721.244202 
	C312.799072,726.256226 318.839966,730.500305 325.041992,733.852051 
	C340.539551,742.227356 357.711517,745.009583 374.987854,746.558899 
	C404.479584,749.203613 432.828613,745.112610 458.768677,729.907043 
	C466.699432,725.258179 474.031219,719.587463 481.857452,714.234192 
	C481.857452,715.675171 481.862549,716.982605 481.856720,718.290039 
	C481.643311,766.098816 481.971069,813.898132 485.924591,861.581848 
	C488.042328,887.124512 490.546265,912.492981 502.156067,936.160645 
	C522.107544,976.833679 553.424316,999.155579 599.497498,997.711426 
	C627.251404,996.841370 653.736389,989.695679 678.759644,977.644104 
	C703.244202,965.852051 720.858826,947.289307 731.596558,922.292114 
	C738.737976,905.666931 742.852051,888.215515 745.279785,870.354797 
	C750.950806,828.633606 756.567322,786.904724 762.091980,745.163940 
	C763.987183,730.845337 765.543762,716.481873 767.283875,701.897461 
	C785.844238,707.066711 804.451843,707.275879 823.125122,706.099243 
	C861.613342,703.674011 898.057129,694.739380 930.071777,671.978088 
	C942.311890,663.275757 954.297729,654.249084 961.789001,640.788696 
	C970.136597,625.789673 963.157104,610.442139 946.205383,607.794617 
	C939.163086,606.694763 931.575378,607.383484 924.479614,608.638184 
	C899.860901,612.991394 875.289917,617.448853 850.123657,615.916504 
	C840.632629,615.338501 831.329895,613.837769 822.572693,609.711243 
	C819.290833,608.164795 819.035950,606.976013 820.952393,603.817444 
	C833.459473,583.204468 846.459961,562.839783 857.896790,541.637512 
	C902.748840,458.488220 936.627075,371.263092 953.499451,277.941010 
	C959.296631,245.876328 962.376953,213.584778 958.944641,181.013824 
	C957.080750,163.325928 953.041626,146.171509 941.847290,131.687729 
	C922.337830,106.445580 899.023315,85.392632 871.766785,68.750443 
	C832.164551,44.570164 788.808411,32.359947 742.841553,29.190247 
	C692.807983,25.740126 643.797668,31.611462 595.999878,47.085171 
	C593.916382,47.759644 591.370605,47.839390 589.224670,47.363747 
	C552.662537,39.259556 515.844421,36.451347 478.639221,41.934490 
	C451.150513,45.985664 425.495087,55.213753 402.080139,70.243423 
	C398.771393,72.367271 396.357666,72.713310 392.637817,71.387566 
	C356.960052,58.671978 320.361298,49.645493 281.884705,44.669014 
M506.579468,14.923701 
	C513.636230,14.923701 520.692993,14.923701 527.749817,14.923701 
	C527.742126,14.762144 527.734436,14.600587 527.726746,14.439030 
	C520.493774,14.439030 513.260742,14.439030 506.579468,14.923701 
M536.094727,14.543221 
	C535.058228,14.374211 534.021790,14.205202 532.985291,14.036192 
	C532.964355,14.323977 532.943359,14.611763 532.922424,14.899549 
	C533.829285,14.899549 534.736206,14.899549 536.094727,14.543221 
z"/>
<path fill="#FFFFFF" opacity="1.000000" stroke="none" 
	d="
M599.468628,1025.000000 
	C603.794373,1024.304077 608.603821,1023.698425 613.380615,1022.897827 
	C644.703491,1017.647888 675.277588,1010.157959 702.234314,992.280151 
	C728.166565,975.081726 745.737854,951.099731 757.858459,922.843628 
	C770.556885,893.240479 777.455139,862.082642 780.747803,830.226013 
	C783.535339,803.256592 784.841309,776.134521 786.848511,749.083374 
	C787.165771,744.807556 787.724182,740.549622 788.214050,735.874207 
	C792.073303,736.175049 795.516296,736.646912 798.963562,736.681396 
	C846.060059,737.153320 891.531677,730.405090 932.884827,705.934753 
	C952.181885,694.515930 970.523743,681.745667 983.266174,662.826111 
	C987.631897,656.344055 990.020325,648.530212 993.656006,641.162354 
	C994.000000,768.928101 994.000000,896.856201 994.000000,1025.000000 
	C862.645874,1025.000000 731.291565,1025.000000 599.468628,1025.000000 
z"/>
<path fill="#FEFEFE" opacity="1.000000" stroke="none" 
	d="
M994.000000,618.531372 
	C990.685730,609.230591 986.482971,600.016602 978.381165,593.115234 
	C963.885010,580.766724 946.831177,578.125977 928.718994,580.478027 
	C910.092407,582.896912 891.545044,585.923645 872.955139,588.630188 
	C870.903809,588.928955 868.800659,588.872009 865.735779,589.031250 
	C869.355957,582.741455 872.508484,577.355591 875.575500,571.921570 
	C910.253906,510.480927 938.307556,446.165497 959.351318,378.808655 
	C970.225464,344.002747 979.065674,308.692535 984.498657,272.623444 
	C989.494568,239.456909 991.906311,206.191437 987.430115,172.654251 
	C983.490356,143.136566 970.166382,118.784416 950.025574,97.212288 
	C897.320312,40.761238 832.043945,10.709800 755.819641,2.998806 
	C750.692627,2.480151 745.544495,2.170427 740.203125,1.381764 
	C824.624146,1.000000 909.248352,1.000000 994.000000,1.000000 
	C994.000000,206.687546 994.000000,412.375122 994.000000,618.531372 
z"/>
<path fill="#FBFDFD" opacity="1.000000" stroke="none" 
	d="
M282.330322,44.705330 
	C320.361298,49.645493 356.960052,58.671978 392.637817,71.387566 
	C396.357666,72.713310 398.771393,72.367271 402.080139,70.243423 
	C425.495087,55.213753 451.150513,45.985664 478.639221,41.934490 
	C515.844421,36.451347 552.662537,39.259556 589.224670,47.363747 
	C591.370605,47.839390 593.916382,47.759644 595.999878,47.085171 
	C643.797668,31.611462 692.807983,25.740126 742.841553,29.190247 
	C788.808411,32.359947 832.164551,44.570164 871.766785,68.750443 
	C899.023315,85.392632 922.337830,106.445580 941.847290,131.687729 
	C953.041626,146.171509 957.080750,163.325928 958.944641,181.013824 
	C962.376953,213.584778 959.296631,245.876328 953.499451,277.941010 
	C936.627075,371.263092 902.748840,458.488220 857.896790,541.637512 
	C846.459961,562.839783 833.459473,583.204468 820.952393,603.817444 
	C819.035950,606.976013 819.290833,608.164795 822.572693,609.711243 
	C831.329895,613.837769 840.632629,615.338501 850.123657,615.916504 
	C875.289917,617.448853 899.860901,612.991394 924.479614,608.638184 
	C931.575378,607.383484 939.163086,606.694763 946.205383,607.794617 
	C963.157104,610.442139 970.136597,625.789673 961.789001,640.788696 
	C954.297729,654.249084 942.311890,663.275757 930.071777,671.978088 
	C898.057129,694.739380 861.613342,703.674011 823.125122,706.099243 
	C804.451843,707.275879 785.844238,707.066711 767.283875,701.897461 
	C765.543762,716.481873 763.987183,730.845337 762.091980,745.163940 
	C756.567322,786.904724 750.950806,828.633606 745.279785,870.354797 
	C742.852051,888.215515 738.737976,905.666931 731.596558,922.292114 
	C720.858826,947.289307 703.244202,965.852051 678.759644,977.644104 
	C653.736389,989.695679 627.251404,996.841370 599.497498,997.711426 
	C553.424316,999.155579 522.107544,976.833679 502.156067,936.160645 
	C490.546265,912.492981 488.042328,887.124512 485.924591,861.581848 
	C481.971069,813.898132 481.643311,766.098816 481.856720,718.290039 
	C481.862549,716.982605 481.857452,715.675171 481.857452,714.234192 
	C474.031219,719.587463 466.699432,725.258179 458.768677,729.907043 
	C432.828613,745.112610 404.479584,749.203613 374.987854,746.558899 
	C357.711517,745.009583 340.539551,742.227356 325.041992,733.852051 
	C318.839966,730.500305 312.799072,726.256226 307.881653,721.244202 
	C297.380829,710.541321 298.780151,695.144531 310.419220,685.741516 
	C320.298279,677.760315 332.280640,674.855347 344.265594,671.901367 
	C357.010040,668.760071 369.735443,665.515869 382.370148,661.964355 
	C390.064667,659.801453 396.361755,655.240723 401.422089,648.985046 
	C406.428711,642.795837 411.567078,636.713257 416.580261,630.529297 
	C417.133453,629.846863 417.244415,628.805969 417.566772,627.913696 
	C409.363556,626.662476 401.346344,626.158020 393.749603,624.100952 
	C384.007843,621.463013 374.456726,617.930481 365.130585,614.046021 
	C361.607117,612.578430 359.908203,612.998657 357.607941,615.616577 
	C333.357697,643.215942 308.955688,670.682068 284.742432,698.313843 
	C276.270142,707.982239 267.707825,717.515076 256.610931,724.249634 
	C233.250854,738.426697 207.762924,736.297607 185.061340,718.453003 
	C166.812469,704.108398 153.673599,685.574097 142.153641,665.771057 
	C119.283821,626.457275 103.288925,584.179260 89.122208,541.171570 
	C68.815781,479.524933 53.125999,416.677429 40.884533,352.948853 
	C34.533207,319.884094 29.144255,286.757202 29.984293,252.892426 
	C30.894499,216.199005 35.633041,180.281479 50.283623,146.242569 
	C64.516174,113.174873 86.618202,86.834000 117.835144,68.601387 
	C142.645966,54.110332 169.752686,46.491997 198.150452,43.284252 
	C226.106323,40.126423 254.026459,40.983162 282.330322,44.705330 
M564.561157,71.842308 
	C540.618225,67.921555 516.573425,66.618690 492.385406,69.050323 
	C467.714325,71.530518 444.431183,78.489151 422.974487,91.031219 
	C393.531982,108.241211 372.344818,133.169220 356.371674,162.903366 
	C338.335419,196.478058 328.667358,232.666595 322.979126,270.076080 
	C321.638214,278.895050 320.783356,287.787933 319.599884,297.509399 
	C325.254608,294.762177 329.959198,292.361328 334.757324,290.164856 
	C359.356415,278.903931 384.823090,271.054169 412.206512,271.393036 
	C450.856781,271.871277 477.072174,292.596680 486.164886,330.130707 
	C491.973694,354.109070 495.661926,378.460114 497.398987,403.091248 
	C499.967346,439.510071 497.716156,475.456940 484.887146,509.964996 
	C476.484589,532.566589 466.712341,554.655518 457.850616,577.091370 
	C454.330444,586.003601 451.612762,595.232727 448.338562,604.880981 
	C450.212524,604.880981 451.185608,605.010437 452.113800,604.861023 
	C461.733704,603.312988 470.596161,605.851379 479.181885,609.844238 
	C499.285065,619.193481 511.756317,642.344666 511.254547,667.413330 
	C509.927246,733.719177 509.455902,800.025269 515.082581,866.200500 
	C516.906738,887.654724 519.737671,908.753845 530.268494,928.256897 
	C544.708130,954.999084 565.949341,969.849915 596.917603,969.039124 
	C621.226501,968.402588 644.260132,962.231567 666.146240,951.871399 
	C682.796204,943.989807 695.267395,931.724548 703.344055,915.001099 
	C709.999390,901.220581 713.790100,886.603760 716.040466,871.622314 
	C720.416748,842.487793 724.578125,813.315979 728.370605,784.100220 
	C732.205688,754.556091 735.707642,724.964050 738.914185,695.345215 
	C740.452393,681.136536 740.454102,666.758484 742.070862,652.561890 
	C744.760254,628.946655 756.838074,612.378418 780.156067,605.050232 
	C781.164734,604.733215 782.095581,604.168457 783.342102,603.589294 
	C782.639160,602.538208 782.210449,601.855469 781.741333,601.201782 
	C772.822510,588.775391 762.883728,576.944702 755.209900,563.792358 
	C743.164490,543.147522 732.764221,521.548340 721.453552,500.467957 
	C704.202576,468.316284 687.950073,435.725708 677.296143,400.677979 
	C670.724426,379.059235 666.142395,357.139832 668.840271,334.297455 
	C672.248230,305.443695 687.046021,285.175110 714.200500,274.459778 
	C731.685974,267.559906 750.060181,265.994202 768.682739,266.605927 
	C775.280579,266.822632 781.873779,267.182556 789.342407,267.516083 
	C788.120117,264.228729 787.224976,261.618378 786.188965,259.065247 
	C766.976624,211.718262 738.596619,170.779160 700.381226,136.786957 
	C661.608215,102.298889 616.623535,80.633728 564.561157,71.842308 
M75.867508,159.460693 
	C59.309498,199.569321 56.222546,241.718170 59.807083,284.137543 
	C62.222137,312.717285 67.684494,341.151276 73.425797,369.315704 
	C86.601135,433.948517 103.469551,497.635956 125.872932,559.758240 
	C137.627869,592.353516 150.786026,624.330872 168.648849,654.155823 
	C178.002029,669.772522 188.312805,684.679443 202.902557,695.992737 
	C218.456131,708.053406 231.883652,707.925720 247.282684,695.614502 
	C250.766830,692.828979 254.034851,689.680725 256.980286,686.328552 
	C278.390808,661.961792 299.669769,637.479431 321.047089,613.083374 
	C326.173065,607.233521 331.512756,601.570984 336.655670,595.930298 
	C336.182312,595.186829 336.055603,594.852844 335.820374,594.637329 
	C298.208374,560.168396 282.576355,517.289978 286.941467,466.785004 
	C288.517395,448.551270 291.204620,430.348572 291.593781,412.093506 
	C292.100830,388.310638 291.073486,364.481323 290.264343,340.687012 
	C288.682159,294.159698 294.962494,248.719757 308.480225,204.242905 
	C318.236450,172.142410 332.295105,142.144180 352.975250,115.531937 
	C358.550629,108.357292 364.712067,101.638077 370.825897,94.449501 
	C369.857330,94.003044 369.042358,93.493034 368.154205,93.238510 
	C357.917542,90.305092 347.734589,87.153419 337.413757,84.549866 
	C292.441284,73.204987 247.002472,66.508125 200.488693,71.932220 
	C178.000412,74.554634 156.381775,80.277924 136.336151,91.119591 
	C108.111458,106.384911 88.566109,129.402969 75.867508,159.460693 
M894.180420,389.569061 
	C905.780640,356.396790 915.646790,322.727722 922.441772,288.229187 
	C929.438171,252.708374 934.587097,216.997269 930.027222,180.663849 
	C928.328918,167.131592 924.163086,154.686478 915.079590,143.841949 
	C880.034790,102.002907 835.829712,75.555840 782.693909,63.809700 
	C743.844910,55.221775 704.723450,55.167618 665.478699,60.529995 
	C658.000183,61.551853 650.578369,62.987759 643.130371,64.232628 
	C644.239441,66.012650 645.488220,66.631950 646.697266,67.320831 
	C660.832947,75.375046 675.638611,82.460724 688.976807,91.671143 
	C746.606079,131.465866 787.004211,185.131409 813.305969,249.660095 
	C817.746155,260.553650 821.791199,271.747192 821.837219,283.849213 
	C821.925598,307.069519 818.903992,329.983856 815.301880,352.857635 
	C811.841797,374.829010 811.135254,396.828674 813.739807,419.020935 
	C816.259277,440.488312 818.533752,462.036438 819.566895,483.613708 
	C821.018738,513.933411 815.057434,542.926880 799.808655,569.519836 
	C797.247314,573.986694 797.870728,576.765320 802.401794,579.824951 
	C840.117188,520.052612 870.449219,456.851959 894.180420,389.569061 
M320.904633,392.499786 
	C319.309570,416.067108 318.327728,439.696411 315.952881,463.184875 
	C313.401062,488.423798 315.087250,512.841736 326.669861,535.720154 
	C345.359283,572.636230 374.271576,595.277100 416.627777,598.562683 
	C419.451233,598.781677 420.596375,598.210571 421.636810,595.396240 
	C430.454834,571.543518 439.033997,547.584167 448.640442,524.046814 
	C456.777191,504.110321 464.187531,484.109894 467.240997,462.662811 
	C470.502319,439.756104 470.712280,416.764801 467.770538,393.937897 
	C465.096466,373.188019 461.450531,352.492310 456.844696,332.086090 
	C453.493774,317.239594 443.725952,306.873810 428.607330,302.482880 
	C418.019318,299.407806 407.247772,299.400818 396.434296,300.999512 
	C369.653381,304.959015 345.197601,314.895233 322.637787,329.726227 
	C319.710846,331.650452 318.691162,333.983215 318.862915,337.593231 
	C319.717407,355.553925 320.256775,373.529572 320.904633,392.499786 
M736.338867,467.158722 
	C750.508850,493.701569 764.678833,520.244446 779.215271,547.473755 
	C780.637451,543.953003 781.866455,541.085632 782.962952,538.168518 
	C792.546631,512.672607 792.109375,486.323212 789.553650,459.807404 
	C787.543945,438.956757 784.796631,418.151062 783.596497,397.255341 
	C782.186279,372.699860 787.075134,348.556000 790.434692,324.340942 
	C791.678467,315.376221 792.296387,306.324646 793.197449,297.335724 
	C790.051453,296.920746 787.917236,296.574005 785.769531,296.366211 
	C767.142517,294.564148 748.544800,293.998535 730.307617,299.199463 
	C712.278687,304.341034 700.517578,315.426514 697.683960,334.673248 
	C695.839905,347.198517 696.881592,359.592590 699.468628,371.867462 
	C706.530334,405.372986 720.641968,436.183380 736.338867,467.158722 
M434.739441,653.241089 
	C432.390106,656.262756 430.029266,659.275635 427.693604,662.307861 
	C419.558838,672.868408 410.208282,682.264160 397.465881,686.750671 
	C384.805695,691.208313 371.705322,694.438599 358.742737,698.006531 
	C350.301361,700.330017 341.761292,702.294983 332.355774,704.648132 
	C333.906677,706.014404 334.338013,706.535034 334.887207,706.850220 
	C336.183136,707.593811 337.507629,708.300659 338.868774,708.915588 
	C353.062195,715.328003 368.161102,717.479553 383.526581,718.362793 
	C418.769440,720.388550 448.638977,709.049255 472.037537,682.248901 
	C476.306641,677.359131 481.496338,672.777588 482.210327,665.497192 
	C483.092468,656.502014 480.697083,648.348877 474.640289,641.980530 
	C464.963074,631.805298 455.081512,628.749817 444.873627,641.300598 
	C441.729431,645.166504 438.411224,648.890991 434.739441,653.241089 
M819.306274,639.241577 
	C813.525330,636.362976 807.750610,633.471741 801.957275,630.618225 
	C800.988098,630.140808 799.906860,629.422058 798.930481,629.497864 
	C781.286743,630.867493 770.649109,641.530762 770.097046,659.245789 
	C769.638123,673.973511 766.521729,673.619934 783.320801,675.924316 
	C822.688782,681.324646 860.961182,676.445068 896.924866,658.504028 
	C907.738831,653.109253 917.825439,646.464905 927.432373,637.612000 
	C925.772339,637.612000 925.019897,637.515991 924.298950,637.626160 
	C911.314636,639.611511 898.384705,642.078491 885.341370,643.524048 
	C863.399902,645.955750 841.493591,646.038330 819.306274,639.241577 
z"/>
<path fill="#151515" opacity="1.000000" stroke="none" 
	d="
M506.303589,14.681366 
	C513.260742,14.439030 520.493774,14.439030 527.726746,14.439030 
	C527.734436,14.600587 527.742126,14.762144 527.749817,14.923701 
	C520.692993,14.923701 513.636230,14.923701 506.303589,14.681366 
z"/>
<path fill="#151515" opacity="1.000000" stroke="none" 
	d="
M535.868896,14.721384 
	C534.736206,14.899549 533.829285,14.899549 532.922424,14.899549 
	C532.943359,14.611763 532.964355,14.323977 532.985291,14.036192 
	C534.021790,14.205202 535.058228,14.374211 535.868896,14.721384 
z"/>
<path fill="#346691" opacity="1.000000" stroke="none" 
	d="
M565.001465,71.873627 
	C616.623535,80.633728 661.608215,102.298889 700.381226,136.786957 
	C738.596619,170.779160 766.976624,211.718262 786.188965,259.065247 
	C787.224976,261.618378 788.120117,264.228729 789.342407,267.516083 
	C781.873779,267.182556 775.280579,266.822632 768.682739,266.605927 
	C750.060181,265.994202 731.685974,267.559906 714.200500,274.459778 
	C687.046021,285.175110 672.248230,305.443695 668.840271,334.297455 
	C666.142395,357.139832 670.724426,379.059235 677.296143,400.677979 
	C687.950073,435.725708 704.202576,468.316284 721.453552,500.467957 
	C732.764221,521.548340 743.164490,543.147522 755.209900,563.792358 
	C762.883728,576.944702 772.822510,588.775391 781.741333,601.201782 
	C782.210449,601.855469 782.639160,602.538208 783.342102,603.589294 
	C782.095581,604.168457 781.164734,604.733215 780.156067,605.050232 
	C756.838074,612.378418 744.760254,628.946655 742.070862,652.561890 
	C740.454102,666.758484 740.452393,681.136536 738.914185,695.345215 
	C735.707642,724.964050 732.205688,754.556091 728.370605,784.100220 
	C724.578125,813.315979 720.416748,842.487793 716.040466,871.622314 
	C713.790100,886.603760 709.999390,901.220581 703.344055,915.001099 
	C695.267395,931.724548 682.796204,943.989807 666.146240,951.871399 
	C644.260132,962.231567 621.226501,968.402588 596.917603,969.039124 
	C565.949341,969.849915 544.708130,954.999084 530.268494,928.256897 
	C519.737671,908.753845 516.906738,887.654724 515.082581,866.200500 
	C509.455902,800.025269 509.927246,733.719177 511.254547,667.413330 
	C511.756317,642.344666 499.285065,619.193481 479.181885,609.844238 
	C470.596161,605.851379 461.733704,603.312988 452.113800,604.861023 
	C451.185608,605.010437 450.212524,604.880981 448.338562,604.880981 
	C451.612762,595.232727 454.330444,586.003601 457.850616,577.091370 
	C466.712341,554.655518 476.484589,532.566589 484.887146,509.964996 
	C497.716156,475.456940 499.967346,439.510071 497.398987,403.091248 
	C495.661926,378.460114 491.973694,354.109070 486.164886,330.130707 
	C477.072174,292.596680 450.856781,271.871277 412.206512,271.393036 
	C384.823090,271.054169 359.356415,278.903931 334.757324,290.164856 
	C329.959198,292.361328 325.254608,294.762177 319.599884,297.509399 
	C320.783356,287.787933 321.638214,278.895050 322.979126,270.076080 
	C328.667358,232.666595 338.335419,196.478058 356.371674,162.903366 
	C372.344818,133.169220 393.531982,108.241211 422.974487,91.031219 
	C444.431183,78.489151 467.714325,71.530518 492.385406,69.050323 
	C516.573425,66.618690 540.618225,67.921555 565.001465,71.873627 
z"/>
<path fill="#346691" opacity="1.000000" stroke="none" 
	d="
M76.003677,159.102722 
	C88.566109,129.402969 108.111458,106.384911 136.336151,91.119591 
	C156.381775,80.277924 178.000412,74.554634 200.488693,71.932220 
	C247.002472,66.508125 292.441284,73.204987 337.413757,84.549866 
	C347.734589,87.153419 357.917542,90.305092 368.154205,93.238510 
	C369.042358,93.493034 369.857330,94.003044 370.825897,94.449501 
	C364.712067,101.638077 358.550629,108.357292 352.975250,115.531937 
	C332.295105,142.144180 318.236450,172.142410 308.480225,204.242905 
	C294.962494,248.719757 288.682159,294.159698 290.264343,340.687012 
	C291.073486,364.481323 292.100830,388.310638 291.593781,412.093506 
	C291.204620,430.348572 288.517395,448.551270 286.941467,466.785004 
	C282.576355,517.289978 298.208374,560.168396 335.820374,594.637329 
	C336.055603,594.852844 336.182312,595.186829 336.655670,595.930298 
	C331.512756,601.570984 326.173065,607.233521 321.047089,613.083374 
	C299.669769,637.479431 278.390808,661.961792 256.980286,686.328552 
	C254.034851,689.680725 250.766830,692.828979 247.282684,695.614502 
	C231.883652,707.925720 218.456131,708.053406 202.902557,695.992737 
	C188.312805,684.679443 178.002029,669.772522 168.648849,654.155823 
	C150.786026,624.330872 137.627869,592.353516 125.872932,559.758240 
	C103.469551,497.635956 86.601135,433.948517 73.425797,369.315704 
	C67.684494,341.151276 62.222137,312.717285 59.807083,284.137543 
	C56.222546,241.718170 59.309498,199.569321 76.003677,159.102722 
z"/>
<path fill="#356791" opacity="1.000000" stroke="none" 
	d="
M894.053589,389.940857 
	C870.449219,456.851959 840.117188,520.052612 802.401794,579.824951 
	C797.870728,576.765320 797.247314,573.986694 799.808655,569.519836 
	C815.057434,542.926880 821.018738,513.933411 819.566895,483.613708 
	C818.533752,462.036438 816.259277,440.488312 813.739807,419.020935 
	C811.135254,396.828674 811.841797,374.829010 815.301880,352.857635 
	C818.903992,329.983856 821.925598,307.069519 821.837219,283.849213 
	C821.791199,271.747192 817.746155,260.553650 813.305969,249.660095 
	C787.004211,185.131409 746.606079,131.465866 688.976807,91.671143 
	C675.638611,82.460724 660.832947,75.375046 646.697266,67.320831 
	C645.488220,66.631950 644.239441,66.012650 643.130371,64.232628 
	C650.578369,62.987759 658.000183,61.551853 665.478699,60.529995 
	C704.723450,55.167618 743.844910,55.221775 782.693909,63.809700 
	C835.829712,75.555840 880.034790,102.002907 915.079590,143.841949 
	C924.163086,154.686478 928.328918,167.131592 930.027222,180.663849 
	C934.587097,216.997269 929.438171,252.708374 922.441772,288.229187 
	C915.646790,322.727722 905.780640,356.396790 894.053589,389.940857 
z"/>
<path fill="#346791" opacity="1.000000" stroke="none" 
	d="
M320.905884,391.999878 
	C320.256775,373.529572 319.717407,355.553925 318.862915,337.593231 
	C318.691162,333.983215 319.710846,331.650452 322.637787,329.726227 
	C345.197601,314.895233 369.653381,304.959015 396.434296,300.999512 
	C407.247772,299.400818 418.019318,299.407806 428.607330,302.482880 
	C443.725952,306.873810 453.493774,317.239594 456.844696,332.086090 
	C461.450531,352.492310 465.096466,373.188019 467.770538,393.937897 
	C470.712280,416.764801 470.502319,439.756104 467.240997,462.662811 
	C464.187531,484.109894 456.777191,504.110321 448.640442,524.046814 
	C439.033997,547.584167 430.454834,571.543518 421.636810,595.396240 
	C420.596375,598.210571 419.451233,598.781677 416.627777,598.562683 
	C374.271576,595.277100 345.359283,572.636230 326.669861,535.720154 
	C315.087250,512.841736 313.401062,488.423798 315.952881,463.184875 
	C318.327728,439.696411 319.309570,416.067108 320.905884,391.999878 
M426.029480,317.321899 
	C420.074432,316.928894 414.098022,316.033722 408.170380,316.285614 
	C402.358215,316.532562 395.681030,317.795837 393.386536,323.635925 
	C390.931702,329.884125 394.914703,335.455139 399.279724,340.112915 
	C412.668549,354.399628 433.413055,353.610626 443.659332,338.442139 
	C446.971954,333.538147 446.987518,328.624084 442.220917,325.199432 
	C437.628113,321.899628 432.003174,320.036499 426.029480,317.321899 
z"/>
<path fill="#366791" opacity="1.000000" stroke="none" 
	d="
M736.150757,466.837891 
	C720.641968,436.183380 706.530334,405.372986 699.468628,371.867462 
	C696.881592,359.592590 695.839905,347.198517 697.683960,334.673248 
	C700.517578,315.426514 712.278687,304.341034 730.307617,299.199463 
	C748.544800,293.998535 767.142517,294.564148 785.769531,296.366211 
	C787.917236,296.574005 790.051453,296.920746 793.197449,297.335724 
	C792.296387,306.324646 791.678467,315.376221 790.434692,324.340942 
	C787.075134,348.556000 782.186279,372.699860 783.596497,397.255341 
	C784.796631,418.151062 787.543945,438.956757 789.553650,459.807404 
	C792.109375,486.323212 792.546631,512.672607 782.962952,538.168518 
	C781.866455,541.085632 780.637451,543.953003 779.215271,547.473755 
	C764.678833,520.244446 750.508850,493.701569 736.150757,466.837891 
M746.547424,308.857941 
	C739.199341,310.688690 731.482239,311.650574 724.598206,314.574066 
	C716.326904,318.086670 715.780945,324.415405 722.255737,330.677277 
	C737.165283,345.096497 757.466248,337.960480 765.160522,321.663452 
	C767.560913,316.579224 765.776123,312.383087 760.237061,310.747742 
	C756.159729,309.543945 751.755371,309.448059 746.547424,308.857941 
z"/>
<path fill="#376890" opacity="1.000000" stroke="none" 
	d="
M434.956055,652.960693 
	C438.411224,648.890991 441.729431,645.166504 444.873627,641.300598 
	C455.081512,628.749817 464.963074,631.805298 474.640289,641.980530 
	C480.697083,648.348877 483.092468,656.502014 482.210327,665.497192 
	C481.496338,672.777588 476.306641,677.359131 472.037537,682.248901 
	C448.638977,709.049255 418.769440,720.388550 383.526581,718.362793 
	C368.161102,717.479553 353.062195,715.328003 338.868774,708.915588 
	C337.507629,708.300659 336.183136,707.593811 334.887207,706.850220 
	C334.338013,706.535034 333.906677,706.014404 332.355774,704.648132 
	C341.761292,702.294983 350.301361,700.330017 358.742737,698.006531 
	C371.705322,694.438599 384.805695,691.208313 397.465881,686.750671 
	C410.208282,682.264160 419.558838,672.868408 427.693604,662.307861 
	C430.029266,659.275635 432.390106,656.262756 434.956055,652.960693 
z"/>
<path fill="#386890" opacity="1.000000" stroke="none" 
	d="
M819.676758,639.387939 
	C841.493591,646.038330 863.399902,645.955750 885.341370,643.524048 
	C898.384705,642.078491 911.314636,639.611511 924.298950,637.626160 
	C925.019897,637.515991 925.772339,637.612000 927.432373,637.612000 
	C917.825439,646.464905 907.738831,653.109253 896.924866,658.504028 
	C860.961182,676.445068 822.688782,681.324646 783.320801,675.924316 
	C766.521729,673.619934 769.638123,673.973511 770.097046,659.245789 
	C770.649109,641.530762 781.286743,630.867493 798.930481,629.497864 
	C799.906860,629.422058 800.988098,630.140808 801.957275,630.618225 
	C807.750610,633.471741 813.525330,636.362976 819.676758,639.387939 
z"/>
<path fill="#F8FCFD" opacity="1.000000" stroke="none" 
	d="
M426.430573,317.432068 
	C432.003174,320.036499 437.628113,321.899628 442.220917,325.199432 
	C446.987518,328.624084 446.971954,333.538147 443.659332,338.442139 
	C433.413055,353.610626 412.668549,354.399628 399.279724,340.112915 
	C394.914703,335.455139 390.931702,329.884125 393.386536,323.635925 
	C395.681030,317.795837 402.358215,316.532562 408.170380,316.285614 
	C414.098022,316.033722 420.074432,316.928894 426.430573,317.432068 
z"/>
<path fill="#F8FCFC" opacity="1.000000" stroke="none" 
	d="
M747.022095,308.858215 
	C751.755371,309.448059 756.159729,309.543945 760.237061,310.747742 
	C765.776123,312.383087 767.560913,316.579224 765.160522,321.663452 
	C757.466248,337.960480 737.165283,345.096497 722.255737,330.677277 
	C715.780945,324.415405 716.326904,318.086670 724.598206,314.574066 
	C731.482239,311.650574 739.199341,310.688690 747.022095,308.858215 
z"/>
</svg>