<svg version="1.1" id="Layer_1" xmlns="http://www.w3.org/2000/svg" xmlns:xlink="http://www.w3.org/1999/xlink" x="0px" y="0px"
	 width="100%" viewBox="0 0 256 256" enable-background="new 0 0 256 256" xml:space="preserve">
<path fill="#F16A35" opacity="1.000000" stroke="none" 
	d="
M144.000000,257.000000 
	C133.979111,257.000000 123.958214,257.000000 113.172592,256.796265 
	C103.247833,254.159424 94.087791,251.726303 84.660583,249.169006 
	C84.008957,248.970184 83.624496,248.895569 83.020767,248.557861 
	C80.863190,247.581848 78.924881,246.868927 76.816223,246.039337 
	C76.645859,245.922684 76.240036,245.846268 76.100235,245.628708 
	C75.634560,245.342484 75.308685,245.273819 74.762878,245.046936 
	C74.196022,244.797058 73.849106,244.705368 73.310005,244.344955 
	C71.723511,243.468201 70.329193,242.860184 68.705917,242.048630 
	C67.741798,241.507492 67.006630,241.169891 66.130157,240.603729 
	C65.655113,240.272568 65.321365,240.169968 64.789429,239.866989 
	C64.084770,239.429611 63.578300,239.192627 62.965637,238.740265 
	C62.610294,238.268845 62.314121,238.190460 61.809704,238.144119 
	C61.648483,237.998520 61.240791,237.848358 61.120457,237.605835 
	C60.668411,237.253082 60.336697,237.142853 59.878281,236.918884 
	C59.751579,236.805145 59.420319,236.726227 59.272430,236.469284 
	C58.766678,236.073166 58.408817,235.934006 57.897442,235.621964 
	C57.496872,235.259613 57.225922,235.114853 56.861275,234.794891 
	C56.576260,234.290146 56.299904,234.205963 55.732719,234.085251 
	C54.065296,232.854935 52.627571,231.861786 51.067085,230.596954 
	C50.278847,229.930176 49.613369,229.535095 48.756531,228.909760 
	C47.778687,228.075241 46.992207,227.470947 46.096710,226.581451 
	C45.329639,225.863907 44.671577,225.431549 43.869789,224.800568 
	C43.509823,224.348892 43.250103,224.153687 42.881355,223.776642 
	C42.621204,223.227173 42.341011,223.075073 41.777756,222.812027 
	C38.721172,219.691025 35.862053,216.838608 32.937122,213.665497 
	C31.676695,212.089371 30.482077,210.833923 29.211246,209.417801 
	C29.135031,209.257126 28.850950,209.043091 28.798462,208.750854 
	C28.208445,207.909973 27.670912,207.361328 27.029631,206.531982 
	C26.287155,205.492218 25.648428,204.733170 24.982748,203.663483 
	C24.291401,202.590698 23.627005,201.828552 22.978130,201.040039 
	C22.993652,201.013672 22.933376,201.024307 22.905956,200.756714 
	C22.629347,200.249588 22.380156,200.010056 22.034807,199.519470 
	C21.608074,198.846436 21.277496,198.424469 20.929464,197.732819 
	C20.658794,197.224304 20.405581,196.985443 20.052643,196.449341 
	C19.275675,195.109207 18.598431,194.066299 17.899649,192.754272 
	C17.639568,192.229279 17.401024,191.973434 17.123831,191.527283 
	C17.085180,191.336990 16.860668,191.020081 16.862755,190.755432 
	C16.624620,190.252151 16.384399,190.013519 16.084221,189.577423 
	C16.024261,189.379959 15.760921,189.062149 15.762217,188.728775 
	C14.966172,187.095184 14.168832,185.794968 13.333673,184.229370 
	C13.127851,183.651581 12.959849,183.339172 12.806324,182.766556 
	C12.597693,182.255859 12.374585,182.005371 12.113296,181.554489 
	C12.075113,181.354111 11.841414,181.019745 11.852203,180.667328 
	C10.975207,178.455429 10.087421,176.595932 9.162333,174.446579 
	C8.983591,173.795090 8.842152,173.433472 8.707759,172.692993 
	C6.916018,166.401352 5.117231,160.488556 3.314722,154.217712 
	C2.540667,152.239777 1.770335,150.619888 1.000001,149.000000 
	C1.000000,136.979111 1.000000,124.958214 1.184466,112.157944 
	C2.099339,109.086098 3.083879,106.840668 3.518416,104.493416 
	C6.107252,90.509300 11.720825,77.643654 18.015461,64.857620 
	C18.147217,64.745758 18.248384,64.415222 18.528656,64.221169 
	C26.155592,54.662746 33.502254,45.298374 41.110039,35.791161 
	C41.904003,35.067398 42.436855,34.486488 43.211227,33.852158 
	C43.760052,33.617706 43.936413,33.350304 43.992516,33.001465 
	C44.003193,33.006401 43.999271,32.983421 44.332428,32.913860 
	C51.861641,27.613951 59.057690,22.383600 66.449768,17.115795 
	C66.645798,17.078341 66.961777,16.834459 67.308228,16.818138 
	C69.629974,15.662923 71.605278,14.524026 73.834946,13.357059 
	C74.376732,13.152374 74.664146,12.975761 75.238174,12.814410 
	C76.015785,12.545602 76.506790,12.261531 77.260643,11.946124 
	C77.775917,11.682682 78.028328,11.450576 78.566162,11.175674 
	C79.202904,10.978963 79.554222,10.825047 80.274414,10.669008 
	C87.415520,8.563597 94.198853,6.494950 100.952591,4.333838 
	C102.749344,3.758899 104.455360,2.900359 106.429092,2.048876 
	C106.770096,1.617149 106.885048,1.308574 107.000000,1.000000 
	C107.750000,1.000000 108.500000,1.000000 109.673393,1.360530 
	C111.064522,1.480706 112.032265,1.240353 113.000000,1.000000 
	C124.687561,1.000000 136.375122,1.000000 148.671295,1.340081 
	C154.330688,3.119772 159.379883,4.564892 164.432480,5.998010 
	C183.477936,11.400055 200.147690,21.097637 215.121979,34.221828 
	C215.384567,34.767601 215.664688,34.914635 216.220566,35.174660 
	C219.277496,38.301949 222.143219,41.155243 225.068481,44.306046 
	C225.711777,45.136757 226.295517,45.669968 227.004364,46.476097 
	C227.804443,47.481773 228.479416,48.214527 229.204315,49.241226 
	C229.797684,50.085255 230.341110,50.635338 230.991852,51.464176 
	C231.740036,52.496552 232.380905,53.250172 233.044006,54.315182 
	C233.725983,55.391651 234.385712,56.156734 235.031281,56.950485 
	C235.017120,56.979156 235.080231,56.968742 235.112732,57.235657 
	C235.390594,57.745846 235.635971,57.989124 235.972595,58.484142 
	C236.389877,59.158802 236.715881,59.581715 237.059021,60.277252 
	C237.333725,60.789051 237.591278,61.028225 237.946838,61.563751 
	C238.726440,62.894596 239.408051,63.929096 240.117340,65.281525 
	C240.715378,66.465576 241.285736,67.331680 241.921066,68.404892 
	C241.986023,68.611992 242.274460,68.936409 242.275482,69.269783 
	C243.057571,70.920265 243.838654,72.237373 244.652832,73.815269 
	C244.858047,74.377647 245.030167,74.679237 245.193207,75.240829 
	C245.408432,75.750237 245.632751,75.999619 245.895432,76.451462 
	C245.933792,76.653915 246.179825,76.984528 246.173737,77.335945 
	C247.054581,79.541779 247.941528,81.396194 248.855469,83.543449 
	C249.023056,84.200272 249.163651,84.564247 249.313232,85.306602 
	C251.116318,91.602112 252.910416,97.519249 254.691788,103.760803 
	C254.817825,104.718155 254.956589,105.351097 255.026672,106.385529 
	C255.638657,109.191353 256.319336,111.595680 257.000000,114.000000 
	C257.000000,124.020897 257.000000,134.041794 256.999512,144.951813 
	C256.292206,147.018799 255.256393,148.116074 254.944244,149.390594 
	C254.196671,152.443008 254.227280,155.737961 253.167694,158.652878 
	C248.980301,170.172104 244.494202,181.582733 239.987122,193.151703 
	C239.855347,193.269760 239.762161,193.611115 239.487366,193.806320 
	C237.836792,196.347015 236.461014,198.692505 235.053253,201.033722 
	C235.021255,201.029449 235.045212,201.089386 234.750000,201.239822 
	C229.373764,207.624390 224.292740,213.858521 218.940323,220.252548 
	C217.794525,221.310486 216.920120,222.208527 215.728394,223.213181 
	C209.200150,228.165665 202.989227,233.011566 196.575455,237.924591 
	C196.372589,237.991730 196.070511,238.294052 195.749268,238.313934 
	C194.200684,239.171097 192.973328,240.008377 191.550171,240.884979 
	C191.354385,240.924301 191.040405,241.171173 190.682983,241.196594 
	C184.894577,243.836472 179.463608,246.450928 173.710602,249.086639 
	C172.600800,249.440445 171.813019,249.772995 170.631287,250.069489 
	C163.076492,251.732849 155.905151,253.390030 148.762680,255.163483 
	C147.124130,255.570328 145.584915,256.377197 144.000000,257.000000 
M205.598495,78.983360 
	C205.737823,78.661400 205.877151,78.339439 206.403854,77.617111 
	C206.627106,77.114151 206.850372,76.611198 207.588257,75.608292 
	C207.971375,73.738205 208.354492,71.868118 208.856827,69.208298 
	C208.813873,68.147194 208.770905,67.086090 208.855286,65.473663 
	C208.697174,65.142395 208.539047,64.811127 208.334320,63.841507 
	C208.133286,63.236374 207.932251,62.631241 207.773956,61.519051 
	C207.565323,61.264725 207.356705,61.010399 207.082535,60.358250 
	C207.082535,60.358250 206.870438,60.015362 206.997101,59.548306 
	C206.997101,59.548306 206.994476,59.064224 206.968857,58.354462 
	C205.094086,56.584419 203.219330,54.814381 201.005707,52.679989 
	C200.785355,52.433994 200.569611,52.184036 200.306076,51.547791 
	C199.857819,51.379128 199.409561,51.210461 199.013885,51.027618 
	C199.013885,51.027618 198.975113,51.066669 198.575653,50.672871 
	C198.220978,50.571075 197.866302,50.469280 197.245239,50.294212 
	C197.245239,50.294212 197.031525,50.119099 196.543594,49.669914 
	C195.913193,49.527298 195.282776,49.384678 194.315155,49.228134 
	C194.315155,49.228134 193.996765,49.116131 193.564545,48.754906 
	C192.686081,48.787971 191.807617,48.821037 190.302933,48.917915 
	C189.885696,48.883316 189.468475,48.848713 188.375198,48.467487 
	C183.619125,47.593700 179.680908,48.768681 176.614471,53.495144 
	C175.778091,54.337936 174.941711,55.180729 173.656784,56.284004 
	C173.484482,56.578053 173.312180,56.872101 173.079941,57.040043 
	C173.079941,57.040043 173.171021,57.145901 172.510468,57.378723 
	C167.877411,62.776871 167.621460,72.220406 172.000000,77.000107 
	C172.000000,77.000107 171.976822,77.018730 171.818634,77.680038 
	C170.908295,78.436012 169.997955,79.191978 169.029953,79.981094 
	C169.029953,79.981094 169.042252,79.915726 168.776794,79.271011 
	C163.449692,75.734886 153.524979,78.371002 149.338943,84.401085 
	C149.338943,84.401085 149.348007,84.459885 148.727356,84.455910 
	C148.162918,84.990089 147.598480,85.524261 147.006989,86.000000 
	C147.006989,86.000000 147.053757,86.044586 146.331085,86.060150 
	C141.512863,89.957375 136.694641,93.854599 131.343826,98.080482 
	C130.916290,98.757874 130.488754,99.435265 130.043549,100.047020 
	C130.043549,100.047020 130.108963,100.065483 129.537201,100.212517 
	C129.218597,100.675568 128.900009,101.138626 128.576996,101.688095 
	C128.576996,101.688095 128.490692,101.694328 127.778587,101.560829 
	C126.628159,102.819504 125.477737,104.078186 124.002525,105.011696 
	C124.002525,105.011696 124.331970,105.331429 123.625008,105.344246 
	C120.134460,108.966209 116.643921,112.588173 113.138870,116.122849 
	C113.138870,116.122849 113.226494,116.110504 112.739899,116.353844 
	C112.525848,116.641350 112.311798,116.928856 112.111206,117.129700 
	C112.111206,117.129700 112.197525,117.145149 111.575127,117.267555 
	C111.088623,117.901459 110.602119,118.535362 110.101860,119.099220 
	C110.101860,119.099220 110.170876,119.117447 109.545326,119.260910 
	C109.085793,119.921150 108.626259,120.581383 108.147446,121.644279 
	C108.147446,121.644279 108.020531,122.026909 107.586723,122.501984 
	C107.347404,123.094345 107.108086,123.686699 106.274467,124.223801 
	C105.877991,124.246017 105.481522,124.268242 104.782440,124.143639 
	C104.553314,124.473816 104.324188,124.803993 104.064697,125.064697 
	C104.064697,125.064697 104.136612,125.088745 103.516724,125.243996 
	C103.025444,125.891693 102.534164,126.539398 101.859879,127.553871 
	C101.692619,127.781731 101.475670,127.942566 100.719536,128.286469 
	C100.494675,128.571304 100.269806,128.856140 100.060204,129.066025 
	C100.060204,129.066025 100.134926,129.082291 99.577812,129.240875 
	C99.256676,129.691666 98.935532,130.142456 98.308800,130.223572 
	C98.308800,130.223572 98.587395,130.613922 98.015228,130.765823 
	C97.684883,131.229080 97.354538,131.692352 96.852043,132.542023 
	C96.691284,132.790024 96.469315,132.956314 95.602936,133.193359 
	C95.269104,133.661072 94.935272,134.128784 94.500923,134.603394 
	C94.500923,134.603394 94.587456,134.654999 93.965668,134.678452 
	C91.170731,137.404938 93.285034,138.392120 95.633980,138.500931 
	C97.100204,138.568832 98.621986,137.437103 100.275528,136.724731 
	C100.275528,136.724731 100.452179,136.811325 101.352287,136.914352 
	C104.270828,136.128036 107.189369,135.341736 110.245651,134.464783 
	C110.245651,134.464783 110.341042,134.599289 111.090790,134.747482 
	C111.968132,134.390945 112.845467,134.034424 113.876656,133.747055 
	C113.876656,133.747055 113.716682,133.662155 114.392723,133.563034 
	C116.498856,132.646667 118.810753,130.730042 119.591728,135.116180 
	C119.390305,135.400970 119.188881,135.685776 118.851471,136.066696 
	C118.851471,136.066696 118.828217,136.231598 118.265465,136.137527 
	C117.885963,136.109085 117.506454,136.080643 116.547562,136.186646 
	C116.188698,136.632431 115.829834,137.078201 114.983833,137.131958 
	C115.148064,137.258789 115.312294,137.385620 115.025253,137.674088 
	C114.740730,137.867371 114.583916,138.135345 114.259773,138.268005 
	C114.259773,138.268005 114.531494,138.507477 113.972237,138.670868 
	C113.654709,139.128174 113.337173,139.585464 112.997223,139.999344 
	C112.997223,139.999344 113.042053,140.018814 112.438835,140.125214 
	C111.731880,141.418396 111.024933,142.711578 110.083389,144.550461 
	C109.726463,145.021484 109.369545,145.492508 108.271645,146.008591 
	C106.866905,147.038239 105.462158,148.067902 104.033844,149.033035 
	C104.033844,149.033035 104.098717,149.055634 103.541862,149.210052 
	C103.240753,149.670547 102.939636,150.131042 102.562660,150.559052 
	C102.562660,150.559052 102.590874,150.636612 102.011566,150.769974 
	C101.686165,151.236832 101.360771,151.703674 100.862778,152.558350 
	C100.686455,152.795792 100.454933,152.950745 99.590134,153.183578 
	C99.259979,153.651627 98.929825,154.119675 98.145958,154.125763 
	C98.291580,154.285049 98.437195,154.444321 98.005211,154.751663 
	C97.681137,155.223282 97.357063,155.694916 96.855431,156.556244 
	C96.682266,156.800873 96.450005,156.958328 95.439705,157.079117 
	C94.634270,158.100677 93.828835,159.122238 92.841675,160.537674 
	C92.662376,160.780685 92.426643,160.940460 91.560135,161.176880 
	C91.241997,161.647903 90.923859,162.118942 90.152573,162.116165 
	C90.297974,162.279221 90.443382,162.442291 90.005348,162.745178 
	C89.677254,163.217407 89.349152,163.689651 88.844467,164.549362 
	C88.672234,164.792648 88.441154,164.948959 87.570091,165.172028 
	C87.243843,165.642609 86.917595,166.113190 86.068672,166.067108 
	C86.239105,166.243073 86.409531,166.419037 85.998535,166.730881 
	C85.671883,167.199951 85.345230,167.669037 84.836472,168.531342 
	C84.655952,168.772522 84.420174,168.931992 83.559967,169.176147 
	C83.247078,169.647308 82.934189,170.118469 82.415672,170.410538 
	C82.415672,170.410538 82.587029,170.622665 82.008980,170.754791 
	C81.681015,171.218063 81.353043,171.681351 80.844475,172.539276 
	C80.668823,172.786865 80.433563,172.946732 79.421570,173.072342 
	C78.620956,174.097137 77.820343,175.121933 76.851822,176.541962 
	C76.681244,176.788971 76.450783,176.950592 75.585716,177.184219 
	C75.264656,177.653091 74.943588,178.121948 74.473495,178.481323 
	C74.473495,178.481323 74.584160,178.629486 74.009560,178.757050 
	C73.674721,179.211182 73.339874,179.665329 72.828163,180.518448 
	C72.658920,180.774094 72.425423,180.938431 71.551300,181.166962 
	C71.230392,181.637207 70.909492,182.107437 70.095261,182.080933 
	C70.255264,182.250763 70.415268,182.420593 69.994125,182.728500 
	C69.666687,183.197418 69.339256,183.666321 68.833252,184.527069 
	C68.655037,184.768097 68.420959,184.926651 67.469986,185.164917 
	C65.993156,186.802719 64.516327,188.440521 63.016174,190.015717 
	C63.016174,190.015717 63.075230,190.046951 62.463711,190.177673 
	C61.987186,190.808777 61.510666,191.439896 61.010849,192.013748 
	C61.010849,192.013748 61.072102,192.022018 60.609707,192.237839 
	C60.409260,192.506866 60.208817,192.775879 59.996483,192.994736 
	C59.996483,192.994736 60.043736,193.015381 59.486851,193.177338 
	C59.179100,193.639969 58.871346,194.102600 58.485760,194.514877 
	C58.485760,194.514877 58.513737,194.603241 58.057056,194.727524 
	C57.764008,194.910889 57.613174,195.175354 57.444668,195.397812 
	C57.444668,195.397812 57.568115,195.557449 56.998356,195.693878 
	C56.680416,196.155029 56.362480,196.616180 56.015530,197.017990 
	C56.015530,197.017990 56.077728,197.040222 55.483635,197.251129 
	C55.146984,197.755142 54.810333,198.259155 54.374504,199.254547 
	C54.564449,199.845230 54.754395,200.435898 55.531910,201.527481 
	C64.075195,203.261963 72.621269,205.174561 81.153854,200.672882 
	C81.153854,200.672882 81.070908,200.219177 81.078789,199.608414 
	C81.101631,199.406082 81.124474,199.203766 81.443489,198.413162 
	C80.853241,196.232712 80.263000,194.052261 79.434608,191.336792 
	C79.387962,190.951126 79.341316,190.565475 79.888405,189.894516 
	C81.423393,188.433258 82.958382,186.972015 84.582466,185.396790 
	C84.582466,185.396790 84.727135,185.398148 85.286690,185.465454 
	C85.707092,185.143616 86.127495,184.821777 86.569374,184.430252 
	C86.569374,184.430252 86.641098,184.443497 87.379875,184.529724 
	C90.559792,182.645233 93.739708,180.760742 96.969337,178.974136 
	C96.969337,178.974136 96.892387,178.895767 97.646332,178.922974 
	C103.001175,175.502136 108.356010,172.081299 113.975365,168.986298 
	C113.975365,168.986298 113.719658,168.654160 114.447861,168.674866 
	C117.931564,166.070526 121.415276,163.466187 124.963593,160.973190 
	C124.963593,160.973190 124.874023,160.880661 125.457283,160.807938 
	C125.843178,160.396454 126.229073,159.984985 126.723175,159.662476 
	C126.723175,159.662476 126.654182,159.540543 127.323044,159.556900 
	C128.204865,158.685287 129.086685,157.813675 129.995056,156.996979 
	C129.995056,156.996979 129.943924,156.963669 130.546005,156.844711 
	C130.930267,156.393372 131.314529,155.942047 131.871506,155.264130 
	C131.871506,155.264130 132.123306,155.130829 132.790588,154.975891 
	C134.677872,153.142487 136.565140,151.309067 138.466782,149.429779 
	C138.466782,149.429779 138.512878,149.416153 139.067886,149.298813 
	C139.383255,148.856689 139.698608,148.414566 140.331772,147.510010 
	C140.900665,147.026581 141.469543,146.543137 142.589890,145.910110 
	C142.936279,145.478592 143.282669,145.047073 143.888519,144.921738 
	C143.888519,144.921738 143.647736,144.600983 144.129623,144.402176 
	C144.317200,144.118057 144.504761,143.833923 144.838394,143.285339 
	C144.838394,143.285339 145.074036,143.096252 145.762497,143.001068 
	C146.692612,141.882416 147.622726,140.763748 148.563156,139.576706 
	C148.563156,139.576706 148.632233,139.579910 149.125931,139.396423 
	C149.309937,139.107086 149.493958,138.817764 149.984741,138.098267 
	C150.510742,137.634735 151.036743,137.171204 152.051651,136.512482 
	C152.241791,136.225739 152.431931,135.938980 152.965347,135.927109 
	C152.965347,135.927109 152.632797,135.638474 153.175934,135.458328 
	C153.476685,134.997803 153.777435,134.537277 154.000000,134.000000 
	C154.000000,134.000000 154.079391,134.075653 154.673080,133.928314 
	C155.137253,133.298355 155.601425,132.668411 156.415527,131.547897 
	C157.264862,130.701309 158.114197,129.854736 159.559708,128.837646 
	C160.009430,128.185928 160.459152,127.534210 160.970551,126.957336 
	C160.970551,126.957336 160.883728,126.914162 161.556732,126.765495 
	C163.037415,124.837280 164.518097,122.909073 166.008255,121.006126 
	C166.008255,121.006126 165.981705,121.001579 166.634949,120.837509 
	C167.742188,119.205070 168.849426,117.572639 169.993988,115.993752 
	C169.993988,115.993752 169.935074,115.965675 170.524017,115.763794 
	C170.854416,115.059044 171.184814,114.354286 171.507156,113.581985 
	C171.507156,113.581985 171.573380,113.566391 172.195129,113.377502 
	C172.622696,112.468567 173.050262,111.559639 173.470062,110.582741 
	C173.470062,110.582741 173.536652,110.567078 174.075867,110.295105 
	C174.289719,109.757523 174.503571,109.219948 174.840240,108.332245 
	C174.840240,108.332245 175.063339,108.035774 175.599625,107.836342 
	C176.035263,107.233147 176.470901,106.629944 177.265884,105.570717 
	C177.461868,105.028259 177.657852,104.485802 178.309937,103.385956 
	C178.868301,98.001480 179.426666,92.617004 179.984177,87.240700 
	C191.038010,89.597557 192.703156,89.511276 197.690353,85.946640 
	C197.847977,85.653488 198.005615,85.360344 198.663467,84.882385 
	C199.095001,84.582893 199.526520,84.283401 200.610046,83.855995 
	C201.765884,82.585983 202.921707,81.315971 204.451996,79.757439 
	C204.732834,79.592117 204.945831,79.363548 205.035400,79.004547 
	C205.035400,79.004547 205.062958,79.087120 205.598495,78.983360 
z"/>
<path fill="#FFFDFC" opacity="1.000000" stroke="none" 
	d="
M225.008942,44.008533 
	C222.143219,41.155243 219.277496,38.301949 216.126862,34.958584 
	C215.644531,34.201603 215.382202,34.040134 215.054977,33.984104 
	C200.147690,21.097637 183.477936,11.400055 164.432480,5.998010 
	C159.379883,4.564892 154.330688,3.119772 149.139954,1.340081 
	C184.925919,1.000000 220.851822,1.000000 257.000000,1.000000 
	C257.000000,35.687244 257.000000,70.374962 256.682495,105.537575 
	C255.941803,106.002983 255.518570,105.993507 255.095352,105.984032 
	C254.956589,105.351097 254.817825,104.718155 254.778473,103.318527 
	C253.020004,96.677292 251.162140,90.802757 249.304260,84.928223 
	C249.163651,84.564247 249.023056,84.200272 248.901443,83.176697 
	C248.006897,80.672913 247.093369,78.828720 246.179825,76.984528 
	C246.179825,76.984528 245.933792,76.653915 245.877319,76.200684 
	C245.614670,75.491905 245.408493,75.236366 245.202301,74.980820 
	C245.030167,74.679237 244.858047,74.377647 244.691864,73.456673 
	C243.890045,71.536995 243.082245,70.236702 242.274460,68.936409 
	C242.274460,68.936409 241.986023,68.611992 241.943512,68.067284 
	C241.297226,66.669586 240.693436,65.816589 240.089661,64.963593 
	C239.408051,63.929096 238.726440,62.894596 237.893372,61.308685 
	C237.508560,60.506386 237.275223,60.255508 237.041885,60.004631 
	C236.715881,59.581715 236.389877,59.158802 235.925201,58.226448 
	C235.551102,57.467587 235.315659,57.218166 235.080231,56.968742 
	C235.080231,56.968742 235.017120,56.979156 235.023560,56.625824 
	C234.360580,55.516266 233.691177,54.760033 233.021759,54.003799 
	C232.380905,53.250172 231.740036,52.496552 230.962524,51.158524 
	C230.268707,50.031837 229.711548,49.489559 229.154388,48.947281 
	C228.479416,48.214527 227.804443,47.481773 226.963760,46.165283 
	C226.201675,45.057209 225.605316,44.532871 225.008942,44.008533 
z"/>
<path fill="#FFFDFC" opacity="1.000000" stroke="none" 
	d="
M28.850948,209.043091 
	C28.850950,209.043091 29.135031,209.257126 29.207672,209.771393 
	C30.521191,211.519165 31.762066,212.752670 33.002937,213.986176 
	C35.862053,216.838608 38.721172,219.691025 41.866859,223.033371 
	C42.348248,223.799759 42.612743,223.964096 42.946911,224.016327 
	C43.250103,224.153687 43.509823,224.348892 43.964207,225.099075 
	C44.870140,226.019699 45.537937,226.443161 46.205727,226.866638 
	C46.992207,227.470947 47.778687,228.075241 48.856747,229.201050 
	C49.828831,230.104584 50.509338,230.486603 51.189850,230.868637 
	C52.627571,231.861786 54.065296,232.854935 55.838203,234.266785 
	C56.382507,234.895187 56.635071,235.004959 56.931076,235.014801 
	C57.225922,235.114853 57.496872,235.259613 58.062523,235.859360 
	C58.727520,236.421814 59.073921,236.574020 59.420319,236.726227 
	C59.420319,236.726227 59.751579,236.805145 60.028275,237.129822 
	C60.616913,237.585770 60.928856,237.717056 61.240791,237.848358 
	C61.240791,237.848358 61.648483,237.998520 61.935341,238.335007 
	C62.463833,238.890442 62.747044,238.985153 63.071835,238.955627 
	C63.578300,239.192627 64.084770,239.429611 64.948746,240.074570 
	C65.627991,240.599121 65.949730,240.715698 66.271461,240.832291 
	C67.006630,241.169891 67.741798,241.507492 68.845505,242.356186 
	C70.643417,243.449417 72.072800,244.031555 73.502182,244.613708 
	C73.849106,244.705368 74.196022,244.797058 74.918976,245.242188 
	C75.610008,245.679169 75.925026,245.762726 76.240036,245.846268 
	C76.240036,245.846268 76.645859,245.922684 77.006546,246.325775 
	C79.324829,247.426224 81.282433,248.123581 83.240036,248.820953 
	C83.624496,248.895569 84.008957,248.970184 84.820084,249.466171 
	C87.967216,250.949951 90.641556,252.157166 93.418640,253.041855 
	C97.910240,254.472733 102.469383,255.691605 107.000000,257.000000 
	C71.739037,257.000000 36.478077,257.000000 1.000000,257.000000 
	C1.000000,221.312729 1.000000,185.625031 1.000001,149.468658 
	C1.770335,150.619888 2.540667,152.239777 3.224455,154.658905 
	C4.992177,161.329376 6.846443,167.200607 8.700710,173.071838 
	C8.842152,173.433472 8.983591,173.795090 9.116001,174.813126 
	C10.018451,177.319595 10.929931,179.169678 11.841413,181.019745 
	C11.841414,181.019745 12.075113,181.354111 12.123230,181.806793 
	C12.378181,182.515228 12.585016,182.770996 12.791849,183.026749 
	C12.959849,183.339172 13.127851,183.651581 13.300847,184.584503 
	C14.124200,186.490723 14.942559,187.776443 15.760921,189.062149 
	C15.760921,189.062149 16.024261,189.379959 16.116489,189.826965 
	C16.426037,190.522675 16.643354,190.771378 16.860668,191.020081 
	C16.860668,191.020081 17.085180,191.336990 17.158779,191.790131 
	C17.461979,192.503326 17.691582,192.763367 17.921186,193.023407 
	C18.598431,194.066299 19.275675,195.109207 20.098194,196.705475 
	C20.477949,197.506729 20.712433,197.754608 20.946918,198.002487 
	C21.277496,198.424469 21.608074,198.846436 22.079149,199.777298 
	C22.457560,200.532211 22.695471,200.778259 22.933380,201.024307 
	C22.933376,201.024307 22.993652,201.013672 22.982300,201.366425 
	C23.650530,202.470825 24.330111,203.222473 25.009695,203.974121 
	C25.648428,204.733170 26.287155,205.492218 27.055141,206.836090 
	C27.739916,207.961639 28.295431,208.502365 28.850948,209.043091 
z"/>
<path fill="#FFFFFE" opacity="1.000000" stroke="none" 
	d="
M74.951569,12.799148 
	C74.664146,12.975761 74.376732,13.152374 73.455093,13.317437 
	C70.867844,14.482076 68.914810,15.658266 66.961777,16.834457 
	C66.961777,16.834459 66.645798,17.078341 66.068748,17.095215 
	C56.864723,20.421610 49.399567,25.304434 43.999271,32.983421 
	C43.999271,32.983421 44.003193,33.006401 43.764534,33.076614 
	C43.236473,33.323494 43.051083,33.576408 42.969704,33.905575 
	C42.436855,34.486488 41.904003,35.067398 40.761757,35.812538 
	C38.665607,36.976055 36.871174,37.711090 35.746132,39.021030 
	C31.222824,44.287731 26.688606,49.573608 22.608067,55.179691 
	C20.640034,57.883484 19.670208,61.313854 18.248386,64.415222 
	C18.248384,64.415222 18.147217,64.745758 17.705730,64.975510 
	C16.532866,66.090302 15.512397,66.862160 15.114767,67.877846 
	C11.077888,78.189445 7.162796,88.548637 3.155666,98.872025 
	C2.597408,100.310234 1.726289,101.627007 0.999999,103.000000 
	C1.000000,69.071648 1.000000,35.143303 1.000000,1.000000 
	C36.020599,1.000000 71.041641,1.000000 106.531342,1.000000 
	C106.885048,1.308574 106.770096,1.617149 106.020538,2.073946 
	C97.859665,4.217131 90.315033,6.147540 82.827118,8.277324 
	C81.716179,8.593310 80.872742,9.849776 79.905540,10.671133 
	C79.554222,10.825047 79.202904,10.978963 78.250473,11.084274 
	C77.431618,11.019432 77.213860,11.003195 76.723969,11.081593 
	C75.951752,11.717200 75.451660,12.258174 74.951569,12.799148 
z"/>
<path fill="#FFFFFE" opacity="1.000000" stroke="none" 
	d="
M171.025238,250.105530 
	C171.813019,249.772995 172.600800,249.440445 173.985718,249.241791 
	C178.084366,248.152405 181.705414,247.183762 185.045105,245.615845 
	C187.252563,244.579498 189.056046,242.682724 191.040405,241.171173 
	C191.040405,241.171173 191.354385,240.924301 191.901367,240.912888 
	C193.655731,240.032333 194.863129,239.163193 196.070511,238.294052 
	C196.070511,238.294052 196.372589,237.991730 196.962585,237.953430 
	C200.115280,236.515808 202.987030,235.482391 205.172455,233.636414 
	C209.017960,230.388229 212.444000,226.643417 216.045715,223.106567 
	C216.920120,222.208527 217.794525,221.310486 219.285675,220.225922 
	C227.211929,215.530197 231.998001,209.004562 235.045212,201.089386 
	C235.045212,201.089386 235.021255,201.029449 235.396301,200.981644 
	C237.101624,198.492935 238.431900,196.052017 239.762161,193.611115 
	C239.762161,193.611115 239.855347,193.269760 240.299072,193.034576 
	C241.885178,191.209015 243.392929,189.766647 244.107315,188.002930 
	C247.378342,179.927231 250.355438,171.732712 253.606461,163.648560 
	C254.415710,161.636246 255.851959,159.876068 257.000000,158.000000 
	C257.000000,190.929092 257.000000,223.858170 257.000000,257.000000 
	C222.312729,257.000000 187.625015,257.000000 152.738983,256.748688 
	C154.431961,255.924835 156.348114,255.422745 158.209503,254.765518 
	C162.495560,253.252258 166.755005,251.663620 171.025238,250.105530 
z"/>
<path fill="#FDE4D3" opacity="1.000000" stroke="none" 
	d="
M257.000000,157.536819 
	C255.851959,159.876068 254.415710,161.636246 253.606461,163.648560 
	C250.355438,171.732712 247.378342,179.927231 244.107315,188.002930 
	C243.392929,189.766647 241.885178,191.209015 240.430847,192.916504 
	C244.494202,181.582733 248.980301,170.172104 253.167694,158.652878 
	C254.227280,155.737961 254.196671,152.443008 254.944244,149.390594 
	C255.256393,148.116074 256.292206,147.018799 256.999512,145.420471 
	C257.000000,149.024551 257.000000,153.049088 257.000000,157.536819 
z"/>
<path fill="#FDE4D3" opacity="1.000000" stroke="none" 
	d="
M0.999999,103.449982 
	C1.726289,101.627007 2.597408,100.310234 3.155666,98.872025 
	C7.162796,88.548637 11.077888,78.189445 15.114767,67.877846 
	C15.512397,66.862160 16.532866,66.090302 17.573973,65.087372 
	C11.720825,77.643654 6.107252,90.509300 3.518416,104.493416 
	C3.083879,106.840668 2.099339,109.086098 1.184466,111.689285 
	C1.000000,109.299988 1.000000,106.599968 0.999999,103.449982 
z"/>
<path fill="#FCD9C4" opacity="1.000000" stroke="none" 
	d="
M170.631287,250.069504 
	C166.755005,251.663620 162.495560,253.252258 158.209503,254.765518 
	C156.348114,255.422745 154.431961,255.924835 152.270325,256.748688 
	C149.629440,257.000000 147.258896,257.000000 144.444168,257.000000 
	C145.584915,256.377197 147.124130,255.570328 148.762680,255.163483 
	C155.905151,253.390030 163.076492,251.732849 170.631287,250.069504 
z"/>
<path fill="#FDDDCA" opacity="1.000000" stroke="none" 
	d="
M107.428467,257.000000 
	C102.469383,255.691605 97.910240,254.472733 93.418640,253.041855 
	C90.641556,252.157166 87.967216,250.949951 85.087250,249.590363 
	C94.087791,251.726303 103.247833,254.159424 112.703934,256.796265 
	C111.285645,257.000000 109.571281,257.000000 107.428467,257.000000 
z"/>
<path fill="#FDE1CE" opacity="1.000000" stroke="none" 
	d="
M255.026672,106.385529 
	C255.518570,105.993507 255.941803,106.002983 256.682495,106.006233 
	C257.000000,108.370560 257.000000,110.741112 257.000000,113.555832 
	C256.319336,111.595680 255.638657,109.191353 255.026672,106.385529 
z"/>
<path fill="#FFEBD0" opacity="1.000000" stroke="none" 
	d="
M112.625000,1.000000 
	C112.032265,1.240353 111.064522,1.480706 110.048393,1.360530 
	C110.750000,1.000000 111.500000,1.000000 112.625000,1.000000 
z"/>
<path fill="#FEF9F4" opacity="1.000000" stroke="none" 
	d="
M80.138718,173.018875 
	C80.433563,172.946732 80.668823,172.786865 81.208893,172.253677 
	C81.911224,171.519608 82.249123,171.071136 82.587021,170.622665 
	C82.587029,170.622665 82.415672,170.410538 82.788284,170.396637 
	C83.483627,169.925064 83.806374,169.467407 84.129120,169.009766 
	C84.420174,168.931992 84.655952,168.772522 85.201355,168.241959 
	C85.904144,167.500046 86.242050,167.047531 86.579964,166.595001 
	C86.409531,166.419037 86.239105,166.243073 86.600662,166.219742 
	C87.472183,165.921005 87.811707,165.469635 88.151230,165.018280 
	C88.441154,164.948959 88.672234,164.792648 89.209579,164.262802 
	C89.912720,163.519287 90.250755,163.062332 90.588791,162.605377 
	C90.443382,162.442291 90.297974,162.279221 90.651520,162.251785 
	C91.478470,161.930603 91.806480,161.473801 92.134491,161.016998 
	C92.426643,160.940460 92.662376,160.780685 93.238869,160.230194 
	C94.476929,158.957993 95.317787,157.993301 96.158646,157.028595 
	C96.450005,156.958328 96.682266,156.800873 97.219711,156.268234 
	C97.916931,155.521347 98.249870,155.062469 98.582809,154.603592 
	C98.437195,154.444321 98.291580,154.285049 98.647560,154.256149 
	C99.488838,153.932083 99.828522,153.477646 100.168198,153.023193 
	C100.454933,152.950745 100.686455,152.795792 101.220886,152.270630 
	C101.916283,151.534134 102.253578,151.085373 102.590866,150.636612 
	C102.590874,150.636612 102.562660,150.559052 102.863205,150.473907 
	C103.475395,149.944382 103.787056,149.500000 104.098709,149.055634 
	C104.098717,149.055634 104.033844,149.033035 104.397919,148.940613 
	C106.181816,148.474304 107.601639,148.100433 109.389130,147.719391 
	C112.524437,146.867355 115.292084,146.022491 118.386902,145.109314 
	C119.538406,144.726349 120.362747,144.411682 121.400238,144.104660 
	C121.613396,144.112305 122.016037,143.971420 122.400299,144.003235 
	C128.698807,144.661697 133.903381,150.845490 132.123306,155.130829 
	C132.123306,155.130829 131.871506,155.264130 131.487778,155.446655 
	C130.717346,156.074005 130.330643,156.518845 129.943924,156.963669 
	C129.943924,156.963669 129.995056,156.996979 129.672516,157.023666 
	C128.451370,157.880417 127.552773,158.710480 126.654182,159.540543 
	C126.654182,159.540543 126.723175,159.662476 126.379257,159.655212 
	C125.648224,160.058838 125.261124,160.469757 124.874023,160.880661 
	C124.874023,160.880661 124.963593,160.973190 124.587387,160.975754 
	C120.714005,163.536942 117.216835,166.095551 113.719658,168.654160 
	C113.719658,168.654160 113.975365,168.986298 113.498184,168.893158 
	C107.644798,172.165253 102.268593,175.530502 96.892387,178.895767 
	C96.892387,178.895767 96.969337,178.974136 96.586868,178.962646 
	C93.016624,180.781937 89.828857,182.612717 86.641098,184.443481 
	C86.641098,184.443497 86.569374,184.430252 86.292877,184.479462 
	C85.586624,184.818481 85.156876,185.108322 84.727135,185.398148 
	C84.727135,185.398148 84.582466,185.396790 84.192780,185.505875 
	C82.300285,187.136581 80.797478,188.658188 79.294678,190.179810 
	C79.341316,190.565475 79.387962,190.951126 79.494370,191.960770 
	C80.085197,194.723648 80.616257,196.862564 81.147308,199.001465 
	C81.124474,199.203766 81.101631,199.406082 80.761772,200.042099 
	C79.795937,200.623123 79.147110,200.770462 78.613312,200.739227 
	C78.662987,200.258118 78.486938,200.048645 78.037865,199.634171 
	C74.288414,195.840469 70.701279,192.344849 67.067032,188.510162 
	C67.390282,187.114960 67.760651,186.058823 68.131012,185.002701 
	C68.420959,184.926651 68.655037,184.768097 69.197014,184.238708 
	C69.898941,183.497025 70.237106,183.043716 70.575272,182.590408 
	C70.415268,182.420593 70.255264,182.250763 70.611862,182.224457 
	C71.461525,181.915817 71.794594,181.463654 72.127663,181.011475 
	C72.425423,180.938431 72.658920,180.774094 73.191391,180.235367 
	C73.897804,179.511353 74.240982,179.070419 74.584160,178.629486 
	C74.584160,178.629486 74.473495,178.481323 74.819427,178.433670 
	C75.497063,177.932953 75.828751,177.479904 76.160439,177.026840 
	C76.450783,176.950592 76.681244,176.788971 77.238602,176.225876 
	C78.463165,174.946152 79.300941,173.982513 80.138718,173.018875 
z"/>
<path fill="#FEF8F3" opacity="1.000000" stroke="none" 
	d="
M108.020523,122.026917 
	C108.020531,122.026909 108.147446,121.644279 108.436562,121.328522 
	C109.207413,120.380989 109.689140,119.749214 110.170868,119.117447 
	C110.170876,119.117447 110.101860,119.099220 110.399467,119.044678 
	C111.197227,118.375145 111.697380,117.760147 112.197525,117.145149 
	C112.197525,117.145149 112.111206,117.129700 112.376144,117.088547 
	C112.836220,116.735092 113.031357,116.422798 113.226486,116.110504 
	C113.226494,116.110504 113.138870,116.122849 113.464676,116.053528 
	C117.304314,112.433281 120.818146,108.882355 124.331970,105.331429 
	C124.331970,105.331429 124.002525,105.011696 124.469208,105.088196 
	C126.120827,104.007896 127.305756,102.851112 128.490692,101.694328 
	C128.490692,101.694328 128.576996,101.688095 128.840363,101.532181 
	C129.438797,100.939346 129.773880,100.502419 130.108963,100.065491 
	C130.108963,100.065483 130.043549,100.047020 130.341507,100.008102 
	C131.062515,99.562180 131.485580,99.155167 132.199127,98.599747 
	C137.344315,94.315742 142.199036,90.180161 147.053757,86.044586 
	C147.053757,86.044586 147.006989,86.000000 147.316925,86.001678 
	C148.200577,85.488869 148.774292,84.974380 149.348007,84.459885 
	C149.348007,84.459885 149.338943,84.401085 149.713974,84.346436 
	C155.930588,80.770767 161.738770,77.105057 169.042252,79.915726 
	C169.042252,79.915726 169.029953,79.981094 169.102509,80.192001 
	C169.333176,80.980972 169.491272,81.559036 169.290405,82.213326 
	C167.782059,82.938538 166.414398,83.369507 165.516006,84.269119 
	C151.457855,98.346451 137.460251,112.484261 123.168945,126.776443 
	C121.193245,128.421631 119.497307,129.898529 117.009224,132.065277 
	C113.781197,128.460297 110.900864,125.243607 108.020523,122.026917 
z"/>
<path fill="#FEF7F1" opacity="1.000000" stroke="none" 
	d="
M151.562759,136.707672 
	C151.036743,137.171204 150.510742,137.634735 149.582275,138.402588 
	C148.997284,138.997910 148.814758,139.288910 148.632233,139.579910 
	C148.632233,139.579910 148.563156,139.576706 148.262970,139.714859 
	C146.999878,140.934097 146.036957,142.015182 145.074036,143.096252 
	C145.074036,143.096252 144.838394,143.285339 144.510803,143.499619 
	C144.004730,144.009598 143.826233,144.305298 143.647736,144.600983 
	C143.647736,144.600983 143.888519,144.921738 143.474701,144.833008 
	C142.720062,145.182770 142.379242,145.621231 142.038422,146.059692 
	C141.469543,146.543137 140.900665,147.026581 139.905182,147.816620 
	C139.156677,148.554199 138.834778,148.985184 138.512878,149.416153 
	C138.512878,149.416153 138.466782,149.429779 138.129974,149.509766 
	C132.749863,148.355316 128.886642,143.622177 130.232330,139.807159 
	C144.532074,127.348946 158.513992,115.022308 172.593475,102.808182 
	C173.676086,101.868988 175.446609,101.722771 176.903290,101.504417 
	C176.680603,102.533569 176.451996,103.266281 176.116547,104.258652 
	C175.755569,105.000633 175.501450,105.482964 175.166092,106.304893 
	C175.077682,107.108253 175.070511,107.572014 175.063339,108.035774 
	C175.063339,108.035774 174.840240,108.332245 174.527435,108.658447 
	C173.988647,109.512115 173.762650,110.039597 173.536652,110.567078 
	C173.536652,110.567078 173.470062,110.582741 173.224548,110.780685 
	C172.510483,111.841217 172.041931,112.703804 171.573380,113.566391 
	C171.573380,113.566391 171.507156,113.581985 171.254822,113.760086 
	C170.646683,114.614021 170.290878,115.289848 169.935074,115.965675 
	C169.935074,115.965675 169.993988,115.993752 169.676651,116.104568 
	C168.233444,117.810776 167.107574,119.406174 165.981705,121.001579 
	C165.981705,121.001579 166.008255,121.006126 165.697235,121.122269 
	C163.885391,123.130333 162.384567,125.022247 160.883728,126.914162 
	C160.883728,126.914162 160.970551,126.957336 160.651154,127.017731 
	C159.875671,127.721474 159.419601,128.364822 158.963547,129.008163 
	C158.114197,129.854736 157.264862,130.701309 155.954132,131.885849 
	C155.021606,132.841080 154.550507,133.458374 154.079391,134.075653 
	C154.079391,134.075653 154.000000,134.000000 153.766724,134.122314 
	C153.233246,134.709244 152.933029,135.173859 152.632797,135.638474 
	C152.632797,135.638474 152.965347,135.927109 152.536072,135.869385 
	C151.925461,136.110321 151.744110,136.408997 151.562759,136.707672 
z"/>
<path fill="#FEFEFD" opacity="1.000000" stroke="none" 
	d="
M189.051239,48.814114 
	C189.468475,48.848713 189.885696,48.883316 190.860046,49.037399 
	C191.593613,49.230240 191.770081,49.303600 192.101685,49.658859 
	C194.188980,51.331081 196.121170,52.721416 198.666092,54.552666 
	C195.976562,56.832935 193.211243,58.641037 191.155869,61.053909 
	C188.500153,64.171532 186.411728,67.772400 184.092590,71.332657 
	C184.106171,71.500145 184.053452,71.832039 184.135132,72.064651 
	C184.368698,72.595535 184.578995,72.844467 184.899750,73.044441 
	C184.951797,73.044830 184.950653,73.148926 185.063507,73.330849 
	C185.355682,73.741776 185.576477,73.919121 185.897156,74.048325 
	C185.955551,74.051834 185.953751,74.168793 186.059753,74.347923 
	C186.338455,74.751328 186.552261,74.924965 186.872345,75.058701 
	C186.937500,75.069435 186.951263,75.200775 187.050629,75.373062 
	C187.312149,75.761726 187.514313,75.930084 187.832184,76.071419 
	C187.907883,76.092422 187.950073,76.243767 188.055420,76.409286 
	C188.330032,76.780998 188.536728,76.937958 188.852478,77.060120 
	C188.924149,77.074554 188.955933,77.217270 189.058868,77.387756 
	C189.329117,77.771194 189.534912,77.936165 189.849228,78.067139 
	C189.919281,78.081131 189.947662,78.221169 190.052826,78.390594 
	C190.326950,78.771805 190.533798,78.935783 190.842346,79.064178 
	C190.906143,79.076408 190.907776,79.206299 190.958618,79.525475 
	C191.940979,80.589508 192.872482,81.334366 194.033310,82.220245 
	C194.479523,82.643791 194.696426,82.926315 194.925369,83.587341 
	C194.994934,84.722542 195.052460,85.479248 194.746094,86.438721 
	C190.912201,86.611511 187.442215,86.581520 183.819092,86.418480 
	C183.432846,86.132965 183.177109,86.050941 182.623840,86.000824 
	C181.887619,85.667587 181.426361,85.372879 180.868408,84.732147 
	C179.384766,83.653908 177.997818,82.921684 176.351013,82.007416 
	C174.719727,80.223152 173.348267,78.620941 171.976822,77.018730 
	C171.976822,77.018730 172.000000,77.000107 171.970490,76.644241 
	C171.603912,74.869804 171.266861,73.451233 171.135864,71.703735 
	C172.953201,66.685234 174.490219,61.968075 176.216324,57.321152 
	C176.814896,55.709679 177.882309,54.272346 178.750595,52.753269 
	C178.765594,52.751064 178.792206,52.764416 179.195908,52.812645 
	C181.382309,51.880821 183.165009,50.900772 184.973175,49.947262 
	C184.998657,49.973804 184.929230,49.949654 185.123383,49.918140 
	C185.573669,49.805164 185.791946,49.664825 186.356873,49.379288 
	C187.511337,49.133347 188.281296,48.973732 189.051239,48.814114 
z"/>
<path fill="#FEF9F2" opacity="1.000000" stroke="none" 
	d="
M204.077530,80.045959 
	C202.921707,81.315971 201.765884,82.585983 200.089127,83.657791 
	C196.433701,80.279366 193.351318,77.045311 190.144577,73.939659 
	C188.304092,72.157188 188.389908,70.666031 190.171249,68.925171 
	C193.955261,65.227119 197.686356,61.473469 201.379959,57.684910 
	C203.694412,55.310925 205.036072,56.332237 206.137039,59.085430 
	C206.352310,59.623451 206.573593,59.855450 206.870438,60.015362 
	C206.870438,60.015362 207.082535,60.358250 207.123444,60.802803 
	C207.251663,61.580944 207.440613,61.840527 207.731216,62.026108 
	C207.932251,62.631241 208.133286,63.236374 208.320953,64.434059 
	C208.447708,65.359398 208.587830,65.692192 208.727936,66.024986 
	C208.770905,67.086090 208.813873,68.147194 208.575226,69.874802 
	C207.886963,72.396957 207.480301,74.252602 207.073639,76.108246 
	C206.850372,76.611198 206.627106,77.114151 205.994720,77.938835 
	C205.323502,78.480515 205.149292,78.756035 205.062958,79.087120 
	C205.062958,79.087120 205.035400,79.004547 204.814102,79.102829 
	C204.421036,79.482719 204.249283,79.764336 204.077530,80.045959 
M200.974991,69.277542 
	C200.777771,70.990997 200.580536,72.704460 200.383316,74.417915 
	C201.081375,74.607681 201.779434,74.797447 202.477493,74.987206 
	C203.300842,72.823303 204.442169,70.708771 204.789597,68.470978 
	C204.926849,67.586830 203.296478,66.428261 202.470963,65.394638 
	C201.971527,66.429161 201.472076,67.463676 200.974991,69.277542 
z"/>
<path fill="#FEF3E8" opacity="1.000000" stroke="none" 
	d="
M54.944336,201.026581 
	C54.754395,200.435898 54.564449,199.845230 54.694366,198.866592 
	C55.368725,197.999161 55.723228,197.519699 56.077728,197.040222 
	C56.077728,197.040222 56.015530,197.017990 56.301682,196.963806 
	C56.914597,196.458893 57.241356,196.008163 57.568115,195.557449 
	C57.568115,195.557449 57.444668,195.397812 57.741943,195.381500 
	C58.313618,195.183548 58.471790,194.929565 58.513737,194.603241 
	C58.513737,194.603241 58.485760,194.514877 58.789856,194.438568 
	C59.410549,193.913300 59.727142,193.464340 60.043736,193.015381 
	C60.043736,193.015381 59.996483,192.994736 60.260506,192.946671 
	C60.707054,192.606415 60.889580,192.314209 61.072105,192.022018 
	C61.072102,192.022018 61.010849,192.013748 61.305340,191.941757 
	C62.091633,191.262161 62.583431,190.654556 63.075230,190.046951 
	C63.075230,190.046951 63.016174,190.015717 63.331886,190.067230 
	C64.053261,190.105347 64.458931,190.091980 65.035172,190.366669 
	C68.499886,193.853821 71.794006,197.052887 75.104202,200.596573 
	C73.486679,201.250748 71.845436,201.856827 70.220932,201.814880 
	C65.125343,201.683304 60.036060,201.307678 54.944336,201.026581 
z"/>
<path fill="#FEEDE1" opacity="1.000000" stroke="none" 
	d="
M105.085045,124.290459 
	C105.481522,124.268242 105.877991,124.246017 106.708542,124.553146 
	C109.333969,127.809052 111.525322,130.735611 113.716675,133.662155 
	C113.716682,133.662155 113.876656,133.747055 113.447304,133.696198 
	C112.125648,133.963333 111.233345,134.281311 110.341042,134.599289 
	C110.341042,134.599289 110.245651,134.464783 109.738411,134.489990 
	C106.304840,135.280579 103.378510,136.045959 100.452179,136.811325 
	C100.452179,136.811325 100.275528,136.724731 99.779678,136.739288 
	C97.811211,135.846466 94.214912,139.691101 94.587456,134.654999 
	C94.587456,134.654999 94.500923,134.603394 94.822014,134.492874 
	C95.490784,133.935196 95.838455,133.488037 96.186127,133.040894 
	C96.469315,132.956314 96.691284,132.790024 97.201721,132.237747 
	C97.896736,131.493622 98.242065,131.053772 98.587402,130.613922 
	C98.587395,130.613922 98.308800,130.223572 98.722481,130.302505 
	C99.469086,129.948395 99.802002,129.515335 100.134926,129.082291 
	C100.134926,129.082291 100.060204,129.066025 100.320808,129.009857 
	C100.790627,128.647903 100.999832,128.342133 101.209038,128.036362 
	C101.475670,127.942566 101.692619,127.781731 102.236130,127.253441 
	C103.120453,126.331589 103.628532,125.710167 104.136612,125.088745 
	C104.136612,125.088745 104.064697,125.064697 104.307098,125.044632 
	C104.844254,124.864647 105.022766,124.619942 105.085045,124.290459 
z"/>
<path fill="#D58969" opacity="1.000000" stroke="none" 
	d="
M206.067474,58.851494 
	C205.036072,56.332237 203.694412,55.310925 201.379959,57.684910 
	C197.686356,61.473469 193.955261,65.227119 190.171249,68.925171 
	C188.389908,70.666031 188.304092,72.157188 190.144577,73.939659 
	C193.351318,77.045311 196.433701,80.279366 199.763123,83.721756 
	C199.526520,84.283401 199.095001,84.582893 198.157455,84.937576 
	C197.480453,84.977066 197.309479,84.961380 196.933929,84.746262 
	C196.124008,84.100830 195.518661,83.654831 194.913315,83.208839 
	C194.696426,82.926315 194.479523,82.643791 193.926498,81.940887 
	C192.696182,80.749107 191.801971,79.977699 190.907776,79.206299 
	C190.907776,79.206299 190.906143,79.076408 190.785339,78.858109 
	C190.496384,78.379044 190.257431,78.239502 189.947662,78.221169 
	C189.947662,78.221169 189.919281,78.081131 189.790909,77.862144 
	C189.501419,77.377739 189.265884,77.235779 188.955933,77.217270 
	C188.955933,77.217270 188.924149,77.074554 188.791840,76.859451 
	C188.490250,76.391869 188.253769,76.258339 187.950073,76.243767 
	C187.950073,76.243767 187.907883,76.092422 187.776062,75.867432 
	C187.487900,75.378120 187.256912,75.230896 186.951263,75.200775 
	C186.951263,75.200775 186.937500,75.069435 186.809998,74.846916 
	C186.513031,74.355103 186.270111,74.203232 185.953751,74.168793 
	C185.953751,74.168793 185.955551,74.051834 185.830505,73.831970 
	C185.522385,73.346069 185.270782,73.191673 184.950653,73.148926 
	C184.950653,73.148926 184.951797,73.044830 184.833038,72.803009 
	C184.494003,72.318138 184.273727,72.075096 184.053452,71.832047 
	C184.053452,71.832039 184.106171,71.500145 184.353088,71.120377 
	C190.181519,64.841858 195.763046,58.943092 201.344574,53.044334 
	C203.219330,54.814381 205.094086,56.584419 206.750732,58.651859 
	C206.532608,58.949257 206.067474,58.851494 206.067474,58.851494 
z"/>
<path fill="#D5815F" opacity="1.000000" stroke="none" 
	d="
M114.054703,133.612595 
	C111.525322,130.735611 109.333969,127.809052 107.005684,124.580780 
	C107.108086,123.686699 107.347404,123.094345 107.803619,122.264450 
	C110.900864,125.243607 113.781197,128.460297 117.009224,132.065277 
	C119.497307,129.898529 121.193245,128.421631 123.459549,127.039490 
	C124.381737,127.519478 124.733559,127.904716 124.898331,128.571121 
	C120.848038,131.531586 119.353920,134.376251 123.790932,137.979843 
	C124.533371,138.582825 124.663010,139.940323 124.795250,141.089462 
	C123.681808,142.143631 122.848923,143.057526 122.016037,143.971420 
	C122.016037,143.971420 121.613396,144.112305 121.053940,144.086487 
	C119.682899,144.432999 118.871323,144.805313 118.059738,145.177628 
	C115.292084,146.022491 112.524437,146.867355 109.388229,147.425766 
	C109.017326,146.747391 109.014969,146.355453 109.012619,145.963531 
	C109.369545,145.492508 109.726463,145.021484 110.369873,144.269211 
	C110.656349,143.987961 111.001015,143.969467 111.249481,143.962463 
	C111.961418,143.800934 112.424889,143.646408 113.291290,143.364700 
	C116.435356,142.594681 119.176498,141.951828 122.537186,141.163666 
	C120.910049,138.999954 119.869133,137.615768 118.828217,136.231598 
	C118.828217,136.231598 118.851471,136.066696 119.097244,135.826050 
	C119.532684,135.289749 119.722351,134.994095 119.912018,134.698441 
	C118.810753,130.730042 116.498856,132.646667 114.054703,133.612595 
z"/>
<path fill="#E48F6D" opacity="1.000000" stroke="none" 
	d="
M171.897736,77.349380 
	C173.348267,78.620941 174.719727,80.223152 176.533295,82.295197 
	C178.305328,83.536087 179.635208,84.307129 180.965103,85.078171 
	C181.426361,85.372879 181.887619,85.667587 182.756409,86.167419 
	C183.163940,86.372536 183.547485,86.555084 183.547485,86.555084 
	C183.547485,86.555084 183.972214,86.551529 183.972214,86.551529 
	C187.442215,86.581520 190.912201,86.611511 195.053696,86.420990 
	C196.125351,86.108437 196.525528,86.016396 197.033173,86.023773 
	C197.140656,86.123192 197.357010,86.320496 197.357010,86.320496 
	C192.703156,89.511276 191.038010,89.597557 179.984177,87.240700 
	C179.426666,92.617004 178.868301,98.001480 177.811127,103.677628 
	C176.949341,103.979195 176.586365,103.989098 176.223389,103.998993 
	C176.451996,103.266281 176.680603,102.533569 177.054581,101.156799 
	C176.960983,98.925682 176.722015,97.338623 176.657852,95.398117 
	C179.584702,88.319427 177.525101,85.217918 169.904633,84.229706 
	C169.802811,83.252144 169.726089,82.694618 169.649384,82.137093 
	C169.491272,81.559036 169.333176,80.980972 169.131348,80.175430 
	C169.997955,79.191978 170.908295,78.436012 171.897736,77.349380 
z"/>
<path fill="#FDE4D3" opacity="1.000000" stroke="none" 
	d="
M18.528656,64.221169 
	C19.670208,61.313854 20.640034,57.883484 22.608067,55.179691 
	C26.688606,49.573608 31.222824,44.287731 35.746132,39.021030 
	C36.871174,37.711090 38.665607,36.976055 40.500641,35.955387 
	C33.502254,45.298374 26.155592,54.662746 18.528656,64.221169 
z"/>
<path fill="#FEF0E5" opacity="1.000000" stroke="none" 
	d="
M201.175140,52.862160 
	C195.763046,58.943092 190.181519,64.841858 184.339508,70.952896 
	C186.411728,67.772400 188.500153,64.171532 191.155869,61.053909 
	C193.211243,58.641037 195.976562,56.832935 198.666092,54.552666 
	C196.121170,52.721416 194.188980,51.331081 192.443207,49.607613 
	C193.085327,49.221695 193.541046,49.168911 193.996765,49.116131 
	C193.996765,49.116131 194.315155,49.228134 194.721252,49.465843 
	C195.762085,49.842064 196.396805,49.980583 197.031525,50.119099 
	C197.031525,50.119099 197.245239,50.294212 197.563644,50.550362 
	C198.246399,50.893227 198.610764,50.979950 198.975113,51.066673 
	C198.975113,51.066669 199.013885,51.027618 199.167435,51.257721 
	C199.666809,51.635254 200.012634,51.782688 200.358459,51.930122 
	C200.569611,52.184036 200.785355,52.433994 201.175140,52.862160 
z"/>
<path fill="#DF9273" opacity="1.000000" stroke="none" 
	d="
M122.400299,144.003235 
	C122.848923,143.057526 123.681808,142.143631 125.021378,140.995667 
	C125.909210,140.467941 126.290367,140.174271 127.078552,139.918839 
	C128.303406,139.960403 129.121246,139.963745 129.939072,139.967072 
	C128.886642,143.622177 132.749863,148.355316 138.122803,149.532715 
	C136.565140,151.309067 134.677872,153.142487 132.456940,155.053360 
	C133.903381,150.845490 128.698807,144.661697 122.400299,144.003235 
z"/>
<path fill="#FDE4D3" opacity="1.000000" stroke="none" 
	d="
M44.332428,32.913860 
	C49.399567,25.304434 56.864723,20.421610 65.872719,17.132668 
	C59.057690,22.383600 51.861641,27.613951 44.332428,32.913860 
z"/>
<path fill="#FDE4D3" opacity="1.000000" stroke="none" 
	d="
M234.750000,201.239822 
	C231.998001,209.004562 227.211929,215.530197 219.557068,220.066010 
	C224.292740,213.858521 229.373764,207.624390 234.750000,201.239822 
z"/>
<path fill="#FDE4D3" opacity="1.000000" stroke="none" 
	d="
M215.728378,223.213165 
	C212.444000,226.643417 209.017960,230.388229 205.172455,233.636414 
	C202.987030,235.482391 200.115280,236.515808 197.165466,237.886292 
	C202.989227,233.011566 209.200150,228.165665 215.728378,223.213165 
z"/>
<path fill="#FDDCCA" opacity="1.000000" stroke="none" 
	d="
M80.274414,10.669008 
	C80.872742,9.849776 81.716179,8.593310 82.827118,8.277324 
	C90.315033,6.147540 97.859665,4.217131 105.794479,2.197097 
	C104.455360,2.900359 102.749344,3.758899 100.952591,4.333838 
	C94.198853,6.494950 87.415520,8.563597 80.274414,10.669008 
z"/>
<path fill="#FFE7D7" opacity="1.000000" stroke="none" 
	d="
M118.546844,136.184570 
	C119.869133,137.615768 120.910049,138.999954 122.537186,141.163666 
	C119.176498,141.951828 116.435356,142.594681 113.002258,143.253891 
	C111.922050,143.127640 111.533791,142.985016 111.294327,142.598389 
	C111.976097,141.575867 112.509079,140.797333 113.042053,140.018814 
	C113.042053,140.018814 112.997223,139.999344 113.266113,139.912598 
	C113.867165,139.386414 114.199333,138.946945 114.531494,138.507477 
	C114.531494,138.507477 114.259773,138.268005 114.621704,138.277603 
	C115.255104,138.097107 115.419403,137.838852 115.476532,137.512451 
	C115.312294,137.385620 115.148064,137.258789 115.497551,137.225113 
	C116.383163,136.896240 116.755058,136.474213 117.126953,136.052185 
	C117.506454,136.080643 117.885963,136.109085 118.546844,136.184570 
z"/>
<path fill="#FEF0E5" opacity="1.000000" stroke="none" 
	d="
M178.735596,52.755470 
	C177.882309,54.272346 176.814896,55.709679 176.216324,57.321152 
	C174.490219,61.968075 172.953201,66.685234 170.947174,71.367279 
	C171.425278,66.621803 172.298141,61.883850 173.171021,57.145901 
	C173.171021,57.145901 173.079941,57.040043 173.359573,56.999611 
	C173.794586,56.647293 173.949966,56.335407 174.105331,56.023521 
	C174.941711,55.180729 175.778091,54.337936 177.089722,53.230621 
	C177.955185,52.895885 178.345383,52.825676 178.735596,52.755470 
z"/>
<path fill="#DB8360" opacity="1.000000" stroke="none" 
	d="
M55.238121,201.277039 
	C60.036060,201.307678 65.125343,201.683304 70.220932,201.814880 
	C71.845436,201.856827 73.486679,201.250748 75.622223,200.532837 
	C76.816177,200.060394 77.508179,199.996323 78.200180,199.932236 
	C78.486938,200.048645 78.662987,200.258118 79.041504,200.784286 
	C79.927750,201.047653 80.500832,201.087387 81.073921,201.127106 
	C72.621269,205.174561 64.075195,203.261963 55.238121,201.277039 
z"/>
<path fill="#FDE4D3" opacity="1.000000" stroke="none" 
	d="
M190.682968,241.196594 
	C189.056046,242.682724 187.252563,244.579498 185.045105,245.615845 
	C181.705414,247.183762 178.084366,248.152405 174.307739,249.220520 
	C179.463608,246.450928 184.894577,243.836472 190.682968,241.196594 
z"/>
<path fill="#E48F6D" opacity="1.000000" stroke="none" 
	d="
M146.692413,86.052368 
	C142.199036,90.180161 137.344315,94.315742 132.185883,98.350708 
	C131.882172,98.250084 131.876404,97.751823 131.876404,97.751831 
	C136.694641,93.854599 141.512863,89.957375 146.692413,86.052368 
z"/>
<path fill="#E48F6D" opacity="1.000000" stroke="none" 
	d="
M168.909515,79.593369 
	C161.738770,77.105057 155.930588,80.770767 149.742371,84.355301 
	C153.524979,78.371002 163.449692,75.734886 168.909515,79.593369 
z"/>
<path fill="#DF9273" opacity="1.000000" stroke="none" 
	d="
M97.269363,178.909363 
	C102.268593,175.530502 107.644798,172.165253 113.365929,168.730225 
	C108.356010,172.081299 103.001175,175.502136 97.269363,178.909363 
z"/>
<path fill="#E48F6D" opacity="1.000000" stroke="none" 
	d="
M172.840729,57.262314 
	C172.298141,61.883850 171.425278,66.621803 170.741089,71.696213 
	C171.266861,73.451233 171.603912,74.869804 171.959534,76.654648 
	C167.621460,72.220406 167.877411,62.776871 172.840729,57.262314 
z"/>
<path fill="#FDDDCA" opacity="1.000000" stroke="none" 
	d="
M8.707758,172.692993 
	C6.846443,167.200607 4.992177,161.329376 3.228178,155.016968 
	C5.117231,160.488556 6.916018,166.401352 8.707758,172.692993 
z"/>
<path fill="#D5815F" opacity="1.000000" stroke="none" 
	d="
M123.978485,105.337837 
	C120.818146,108.882355 117.304314,112.433281 113.471931,116.097168 
	C116.643921,112.588173 120.134460,108.966209 123.978485,105.337837 
z"/>
<path fill="#FDE1CE" opacity="1.000000" stroke="none" 
	d="
M249.313232,85.306602 
	C251.162140,90.802757 253.020004,96.677292 254.791199,102.994110 
	C252.910416,97.519249 251.116318,91.602112 249.313232,85.306602 
z"/>
<path fill="#DF9273" opacity="1.000000" stroke="none" 
	d="
M114.083755,168.664520 
	C117.216835,166.095551 120.714005,163.536942 124.555084,160.920074 
	C121.415276,163.466187 117.931564,166.070526 114.083755,168.664520 
z"/>
<path fill="#E48F6D" opacity="1.000000" stroke="none" 
	d="
M178.750580,52.753265 
	C178.345383,52.825676 177.955185,52.895885 177.267868,52.993065 
	C179.680908,48.768681 183.619125,47.593700 188.713226,48.640800 
	C188.281296,48.973732 187.511337,49.133347 186.146362,49.357296 
	C185.246002,49.482212 185.038635,49.658218 184.929230,49.949654 
	C184.929230,49.949654 184.998657,49.973804 184.616486,49.944611 
	C182.420288,50.865086 180.606247,51.814751 178.792206,52.764420 
	C178.792206,52.764416 178.765594,52.751064 178.750580,52.753265 
z"/>
<path fill="#DF9273" opacity="1.000000" stroke="none" 
	d="
M87.010483,184.486603 
	C89.828857,182.612717 93.016624,180.781937 96.562012,178.913696 
	C93.739708,180.760742 90.559792,182.645233 87.010483,184.486603 
z"/>
<path fill="#FDE4D3" opacity="1.000000" stroke="none" 
	d="
M239.487366,193.806320 
	C238.431900,196.052017 237.101624,198.492935 235.428284,200.985916 
	C236.461014,198.692505 237.836792,196.347015 239.487366,193.806320 
z"/>
<path fill="#D5815F" opacity="1.000000" stroke="none" 
	d="
M94.276566,134.666718 
	C94.214912,139.691101 97.811211,135.846466 99.701324,136.798767 
	C98.621986,137.437103 97.100204,138.568832 95.633980,138.500931 
	C93.285034,138.392120 91.170731,137.404938 94.276566,134.666718 
z"/>
<path fill="#DF9273" opacity="1.000000" stroke="none" 
	d="
M161.220230,126.839828 
	C162.384567,125.022247 163.885391,123.130333 165.692505,121.109642 
	C164.518097,122.909073 163.037415,124.837280 161.220230,126.839828 
z"/>
<path fill="#DB8360" opacity="1.000000" stroke="none" 
	d="
M64.864594,190.078583 
	C64.458931,190.091980 64.053261,190.105347 63.343544,190.098526 
	C64.516327,188.440521 65.993156,186.802719 67.800499,185.083801 
	C67.760651,186.058823 67.390282,187.114960 66.822693,188.724503 
	C66.038513,189.544815 65.451553,189.811707 64.864594,190.078583 
z"/>
<path fill="#FDE4D3" opacity="1.000000" stroke="none" 
	d="
M67.308228,16.818138 
	C68.914810,15.658266 70.867844,14.482076 73.200729,13.345508 
	C71.605278,14.524026 69.629974,15.662923 67.308228,16.818138 
z"/>
<path fill="#DF9273" opacity="1.000000" stroke="none" 
	d="
M79.591537,190.037155 
	C80.797478,188.658188 82.300285,187.136581 84.148224,185.562866 
	C82.958382,186.972015 81.423393,188.433258 79.591537,190.037155 
z"/>
<path fill="#D5815F" opacity="1.000000" stroke="none" 
	d="
M100.902237,136.862839 
	C103.378510,136.045959 106.304840,135.280579 109.669540,134.535324 
	C107.189369,135.341736 104.270828,136.128036 100.902237,136.862839 
z"/>
<path fill="#DF9273" opacity="1.000000" stroke="none" 
	d="
M166.308319,120.919540 
	C167.107574,119.406174 168.233444,117.810776 169.657990,116.077789 
	C168.849426,117.572639 167.742188,119.205070 166.308319,120.919540 
z"/>
<path fill="#FDDDCA" opacity="1.000000" stroke="none" 
	d="
M83.020767,248.557861 
	C81.282433,248.123581 79.324829,247.426224 77.176903,246.442444 
	C78.924881,246.868927 80.863190,247.581848 83.020767,248.557861 
z"/>
<path fill="#DF9273" opacity="1.000000" stroke="none" 
	d="
M81.295395,198.707306 
	C80.616257,196.862564 80.085197,194.723648 79.613449,192.228271 
	C80.263000,194.052261 80.853241,196.232712 81.295395,198.707306 
z"/>
<path fill="#FDDDCA" opacity="1.000000" stroke="none" 
	d="
M11.852201,180.667328 
	C10.929931,179.169678 10.018451,177.319595 9.153303,175.102982 
	C10.087421,176.595932 10.975207,178.455429 11.852201,180.667328 
z"/>
<path fill="#FDDDCA" opacity="1.000000" stroke="none" 
	d="
M32.937126,213.665497 
	C31.762066,212.752670 30.521191,211.519165 29.283886,209.932068 
	C30.482077,210.833923 31.676695,212.089371 32.937126,213.665497 
z"/>
<path fill="#FDE1CE" opacity="1.000000" stroke="none" 
	d="
M246.173737,77.335945 
	C247.093369,78.828720 248.006897,80.672913 248.874451,82.883858 
	C247.941528,81.396194 247.054581,79.541779 246.173737,77.335945 
z"/>
<path fill="#DB8360" opacity="1.000000" stroke="none" 
	d="
M108.642136,145.986053 
	C109.014969,146.355453 109.017326,146.747391 109.020569,147.432938 
	C107.601639,148.100433 106.181816,148.474304 104.409714,148.972870 
	C105.462158,148.067902 106.866905,147.038239 108.642136,145.986053 
z"/>
<path fill="#D5815F" opacity="1.000000" stroke="none" 
	d="
M128.134644,101.627579 
	C127.305756,102.851112 126.120827,104.007896 124.631607,105.250778 
	C125.477737,104.078186 126.628159,102.819504 128.134644,101.627579 
z"/>
<path fill="#FDDDCA" opacity="1.000000" stroke="none" 
	d="
M15.762217,188.728775 
	C14.942559,187.776443 14.124200,186.490723 13.338666,184.849884 
	C14.168832,185.794968 14.966172,187.095184 15.762217,188.728775 
z"/>
<path fill="#FED9C4" opacity="1.000000" stroke="none" 
	d="
M207.330948,75.858269 
	C207.480301,74.252602 207.886963,72.396957 208.515625,70.269669 
	C208.354492,71.868118 207.971375,73.738205 207.330948,75.858269 
z"/>
<path fill="#FDE1CE" opacity="1.000000" stroke="none" 
	d="
M242.275482,69.269783 
	C243.082245,70.236702 243.890045,71.536995 244.658783,73.195885 
	C243.838654,72.237373 243.057571,70.920265 242.275482,69.269783 
z"/>
<path fill="#DF9273" opacity="1.000000" stroke="none" 
	d="
M145.418274,143.048660 
	C146.036957,142.015182 146.999878,140.934097 148.257812,139.749054 
	C147.622726,140.763748 146.692612,141.882416 145.418274,143.048660 
z"/>
<path fill="#FDE4D3" opacity="1.000000" stroke="none" 
	d="
M195.749268,238.313934 
	C194.863129,239.163193 193.655731,240.032333 192.097153,240.873566 
	C192.973328,240.008377 194.200684,239.171097 195.749268,238.313934 
z"/>
<path fill="#FDDDCA" opacity="1.000000" stroke="none" 
	d="
M73.310005,244.344971 
	C72.072800,244.031555 70.643417,243.449417 69.074463,242.559723 
	C70.329193,242.860184 71.723511,243.468201 73.310005,244.344971 
z"/>
<path fill="#DF9273" opacity="1.000000" stroke="none" 
	d="
M126.988617,159.548721 
	C127.552773,158.710480 128.451370,157.880417 129.659225,156.996201 
	C129.086685,157.813675 128.204865,158.685287 126.988617,159.548721 
z"/>
<path fill="#DB8360" opacity="1.000000" stroke="none" 
	d="
M112.740448,140.072021 
	C112.509079,140.797333 111.976097,141.575867 111.243881,142.878067 
	C111.030098,143.590988 111.015556,143.780228 111.001015,143.969467 
	C111.001015,143.969467 110.656349,143.987961 110.487167,143.996368 
	C111.024933,142.711578 111.731880,141.418396 112.740448,140.072021 
z"/>
<path fill="#DB8360" opacity="1.000000" stroke="none" 
	d="
M95.799179,157.053864 
	C95.317787,157.993301 94.476929,158.957993 93.329727,160.033249 
	C93.828835,159.122238 94.634270,158.100677 95.799179,157.053864 
z"/>
<path fill="#DB8360" opacity="1.000000" stroke="none" 
	d="
M79.780144,173.045609 
	C79.300941,173.982513 78.463165,174.946152 77.322556,176.028259 
	C77.820343,175.121933 78.620956,174.097137 79.780144,173.045609 
z"/>
<path fill="#FDE1CE" opacity="1.000000" stroke="none" 
	d="
M240.117325,65.281525 
	C240.693436,65.816589 241.297226,66.669586 241.878571,67.860184 
	C241.285736,67.331680 240.715378,66.465576 240.117325,65.281525 
z"/>
<path fill="#FDE1CE" opacity="1.000000" stroke="none" 
	d="
M233.044006,54.315186 
	C233.691177,54.760033 234.360580,55.516266 235.037720,56.597157 
	C234.385712,56.156734 233.725983,55.391651 233.044006,54.315186 
z"/>
<path fill="#DF9273" opacity="1.000000" stroke="none" 
	d="
M171.884247,113.471947 
	C172.041931,112.703804 172.510483,111.841217 173.228439,110.814667 
	C173.050262,111.559639 172.622696,112.468567 171.884247,113.471947 
z"/>
<path fill="#FDDDCA" opacity="1.000000" stroke="none" 
	d="
M24.982742,203.663483 
	C24.330111,203.222473 23.650530,202.470825 22.966778,201.392792 
	C23.627005,201.828552 24.291401,202.590698 24.982742,203.663483 
z"/>
<path fill="#D48A6C" opacity="1.000000" stroke="none" 
	d="
M176.116547,104.258652 
	C176.586365,103.989098 176.949341,103.979195 177.583069,103.956314 
	C177.657852,104.485802 177.461868,105.028259 176.810577,105.786636 
	C175.985947,105.990135 175.616638,105.977707 175.247314,105.965286 
	C175.501450,105.482964 175.755569,105.000633 176.116547,104.258652 
z"/>
<path fill="#FDE1CE" opacity="1.000000" stroke="none" 
	d="
M229.204315,49.241222 
	C229.711548,49.489559 230.268707,50.031837 230.855225,50.879768 
	C230.341110,50.635338 229.797684,50.085255 229.204315,49.241222 
z"/>
<path fill="#E48F6D" opacity="1.000000" stroke="none" 
	d="
M149.037689,84.457901 
	C148.774292,84.974380 148.200577,85.488869 147.330444,86.030899 
	C147.598480,85.524261 148.162918,84.990089 149.037689,84.457901 
z"/>
<path fill="#D5815F" opacity="1.000000" stroke="none" 
	d="
M131.610107,97.916153 
	C131.876404,97.751823 131.882172,98.250084 131.895401,98.499123 
	C131.485580,99.155167 131.062515,99.562180 130.350342,100.040924 
	C130.488754,99.435265 130.916290,98.757874 131.610107,97.916153 
z"/>
<path fill="#FDE1CE" opacity="1.000000" stroke="none" 
	d="
M225.068481,44.306038 
	C225.605316,44.532871 226.201675,45.057209 226.838654,45.892361 
	C226.295517,45.669968 225.711777,45.136757 225.068481,44.306038 
z"/>
<path fill="#DF9273" opacity="1.000000" stroke="none" 
	d="
M170.229553,115.864731 
	C170.290878,115.289848 170.646683,114.614021 171.258850,113.793869 
	C171.184814,114.354286 170.854416,115.059044 170.229553,115.864731 
z"/>
<path fill="#DF9273" opacity="1.000000" stroke="none" 
	d="
M159.261627,128.922913 
	C159.419601,128.364822 159.875671,127.721474 160.620316,126.980309 
	C160.459152,127.534210 160.009430,128.185928 159.261627,128.922913 
z"/>
<path fill="#FDE4D3" opacity="1.000000" stroke="none" 
	d="
M75.238174,12.814410 
	C75.451660,12.258174 75.951752,11.717200 76.722717,11.329363 
	C76.993591,11.482500 76.997787,11.977463 76.997787,11.977462 
	C76.506790,12.261531 76.015785,12.545602 75.238174,12.814410 
z"/>
<path fill="#DF9273" opacity="1.000000" stroke="none" 
	d="
M175.166077,106.304886 
	C175.616638,105.977707 175.985947,105.990135 176.630905,106.014648 
	C176.470901,106.629944 176.035263,107.233147 175.331482,107.936058 
	C175.070511,107.572014 175.077682,107.108253 175.166077,106.304886 
z"/>
<path fill="#FDDDCA" opacity="1.000000" stroke="none" 
	d="
M28.798462,208.750854 
	C28.295431,208.502365 27.739916,207.961639 27.158890,207.116791 
	C27.670912,207.361328 28.208445,207.909973 28.798462,208.750854 
z"/>
<path fill="#FDDDCA" opacity="1.000000" stroke="none" 
	d="
M51.067085,230.596954 
	C50.509338,230.486603 49.828831,230.104584 49.048111,229.431274 
	C49.613369,229.535095 50.278847,229.930176 51.067085,230.596954 
z"/>
<path fill="#FDDDCA" opacity="1.000000" stroke="none" 
	d="
M46.096714,226.581451 
	C45.537937,226.443161 44.870140,226.019699 44.107933,225.297699 
	C44.671577,225.431549 45.329639,225.863907 46.096714,226.581451 
z"/>
<path fill="#DB8360" opacity="1.000000" stroke="none" 
	d="
M62.769470,190.112305 
	C62.583431,190.654556 62.091633,191.262161 61.316986,191.970383 
	C61.510666,191.439896 61.987186,190.808777 62.769470,190.112305 
z"/>
<path fill="#D5815F" opacity="1.000000" stroke="none" 
	d="
M103.826668,125.166367 
	C103.628532,125.710167 103.120453,126.331589 102.327629,127.070053 
	C102.534164,126.539398 103.025444,125.891693 103.826668,125.166367 
z"/>
<path fill="#D5815F" opacity="1.000000" stroke="none" 
	d="
M110.715912,134.673386 
	C111.233345,134.281311 112.125648,133.963333 113.370377,133.661621 
	C112.845467,134.034424 111.968132,134.390945 110.715912,134.673386 
z"/>
<path fill="#DF9273" opacity="1.000000" stroke="none" 
	d="
M154.376236,134.001984 
	C154.550507,133.458374 155.021606,132.841080 155.779160,132.131134 
	C155.601425,132.668411 155.137253,133.298355 154.376236,134.001984 
z"/>
<path fill="#E48F6D" opacity="1.000000" stroke="none" 
	d="
M193.780655,48.935516 
	C193.541046,49.168911 193.085327,49.221695 192.288086,49.325722 
	C191.770081,49.303600 191.593613,49.230240 191.173157,49.005493 
	C191.807617,48.821037 192.686081,48.787971 193.780655,48.935516 
z"/>
<path fill="#D5815F" opacity="1.000000" stroke="none" 
	d="
M109.858093,119.189178 
	C109.689140,119.749214 109.207413,120.380989 108.446198,121.127197 
	C108.626259,120.581383 109.085793,119.921150 109.858093,119.189178 
z"/>
<path fill="#D5815F" opacity="1.000000" stroke="none" 
	d="
M111.886322,117.206352 
	C111.697380,117.760147 111.197227,118.375145 110.406342,119.079697 
	C110.602119,118.535362 111.088623,117.901459 111.886322,117.206352 
z"/>
<path fill="#DF9273" opacity="1.000000" stroke="none" 
	d="
M173.806244,110.431091 
	C173.762650,110.039597 173.988647,109.512115 174.466034,108.833511 
	C174.503571,109.219948 174.289719,109.757523 173.806244,110.431091 
z"/>
<path fill="#DF9273" opacity="1.000000" stroke="none" 
	d="
M125.165649,160.844299 
	C125.261124,160.469757 125.648224,160.058838 126.325150,159.610718 
	C126.229073,159.984985 125.843178,160.396454 125.165649,160.844299 
z"/>
<path fill="#DB8360" opacity="1.000000" stroke="none" 
	d="
M91.847313,161.096939 
	C91.806480,161.473801 91.478470,161.930603 90.878098,162.488678 
	C90.923859,162.118942 91.241997,161.647903 91.847313,161.096939 
z"/>
<path fill="#D5815F" opacity="1.000000" stroke="none" 
	d="
M104.933746,124.217049 
	C105.022766,124.619942 104.844254,124.864647 104.322281,125.079376 
	C104.324188,124.803993 104.553314,124.473816 104.933746,124.217049 
z"/>
<path fill="#DB8360" opacity="1.000000" stroke="none" 
	d="
M90.297073,162.675262 
	C90.250755,163.062332 89.912720,163.519287 89.297867,164.069061 
	C89.349152,163.689651 89.677254,163.217407 90.297073,162.675262 
z"/>
<path fill="#DB8360" opacity="1.000000" stroke="none" 
	d="
M87.860657,165.095154 
	C87.811707,165.469635 87.472183,165.921005 86.862000,166.478073 
	C86.917595,166.113190 87.243843,165.642609 87.860657,165.095154 
z"/>
<path fill="#DB8360" opacity="1.000000" stroke="none" 
	d="
M86.289246,166.662933 
	C86.242050,167.047531 85.904144,167.500046 85.292404,168.045349 
	C85.345230,167.669037 85.671883,167.199951 86.289246,166.662933 
z"/>
<path fill="#DB8360" opacity="1.000000" stroke="none" 
	d="
M83.844543,169.092957 
	C83.806374,169.467407 83.483627,169.925064 82.891098,170.486176 
	C82.934189,170.118469 83.247078,169.647308 83.844543,169.092957 
z"/>
<path fill="#DB8360" opacity="1.000000" stroke="none" 
	d="
M82.298004,170.688721 
	C82.249123,171.071136 81.911224,171.519608 81.299194,172.056351 
	C81.353043,171.681351 81.681015,171.218063 82.298004,170.688721 
z"/>
<path fill="#DB8360" opacity="1.000000" stroke="none" 
	d="
M75.873077,177.105530 
	C75.828751,177.479904 75.497063,177.932953 74.893944,178.488419 
	C74.943588,178.121948 75.264656,177.653091 75.873077,177.105530 
z"/>
<path fill="#DB8360" opacity="1.000000" stroke="none" 
	d="
M74.296860,178.693268 
	C74.240982,179.070419 73.897804,179.511353 73.279831,180.035889 
	C73.339874,179.665329 73.674721,179.211182 74.296860,178.693268 
z"/>
<path fill="#DB8360" opacity="1.000000" stroke="none" 
	d="
M116.837257,136.119415 
	C116.755058,136.474213 116.383163,136.896240 115.741119,137.421112 
	C115.829834,137.078201 116.188698,136.632431 116.837257,136.119415 
z"/>
<path fill="#DB8360" opacity="1.000000" stroke="none" 
	d="
M71.839478,181.089218 
	C71.794594,181.463654 71.461525,181.915817 70.858521,182.472839 
	C70.909492,182.107437 71.230392,181.637207 71.839478,181.089218 
z"/>
<path fill="#DB8360" opacity="1.000000" stroke="none" 
	d="
M70.284698,182.659454 
	C70.237106,183.043716 69.898941,183.497025 69.286301,184.042786 
	C69.339256,183.666321 69.666687,183.197418 70.284698,182.659454 
z"/>
<path fill="#D5815F" opacity="1.000000" stroke="none" 
	d="
M129.823090,100.139008 
	C129.773880,100.502419 129.438797,100.939346 128.842560,101.488976 
	C128.900009,101.138626 129.218597,100.675568 129.823090,100.139008 
z"/>
<path fill="#DF9273" opacity="1.000000" stroke="none" 
	d="
M85.006912,185.431793 
	C85.156876,185.108322 85.586624,184.818481 86.282135,184.514297 
	C86.127495,184.821777 85.707092,185.143616 85.006912,185.431793 
z"/>
<path fill="#D58969" opacity="1.000000" stroke="none" 
	d="
M200.332275,51.738960 
	C200.012634,51.782688 199.666809,51.635254 199.141144,51.264809 
	C199.409561,51.210461 199.857819,51.379128 200.332275,51.738960 
z"/>
<path fill="#DB8360" opacity="1.000000" stroke="none" 
	d="
M59.765293,193.096359 
	C59.727142,193.464340 59.410549,193.913300 58.828773,194.463745 
	C58.871346,194.102600 59.179100,193.639969 59.765293,193.096359 
z"/>
<path fill="#DB8360" opacity="1.000000" stroke="none" 
	d="
M57.283234,195.625671 
	C57.241356,196.008163 56.914597,196.458893 56.316189,196.993469 
	C56.362480,196.616180 56.680416,196.155029 57.283234,195.625671 
z"/>
<path fill="#DB8360" opacity="1.000000" stroke="none" 
	d="
M55.780682,197.145676 
	C55.723228,197.519699 55.368725,197.999161 54.743954,198.620911 
	C54.810333,198.259155 55.146984,197.755142 55.780682,197.145676 
z"/>
<path fill="#DF9273" opacity="1.000000" stroke="none" 
	d="
M81.113892,200.899994 
	C80.500832,201.087387 79.927750,201.047653 78.926476,200.962860 
	C79.147110,200.770462 79.795937,200.623123 80.757828,200.347473 
	C81.070908,200.219177 81.153854,200.672882 81.113892,200.899994 
z"/>
<path fill="#DF9273" opacity="1.000000" stroke="none" 
	d="
M138.790375,149.357483 
	C138.834778,148.985184 139.156677,148.554199 139.746277,148.047836 
	C139.698608,148.414566 139.383255,148.856689 138.790375,149.357483 
z"/>
<path fill="#D5815F" opacity="1.000000" stroke="none" 
	d="
M95.894531,133.117126 
	C95.838455,133.488037 95.490784,133.935196 94.872269,134.489410 
	C94.935272,134.128784 95.269104,133.661072 95.894531,133.117126 
z"/>
<path fill="#E48F6D" opacity="1.000000" stroke="none" 
	d="
M196.787567,49.894508 
	C196.396805,49.980583 195.762085,49.842064 194.889862,49.472801 
	C195.282776,49.384678 195.913193,49.527298 196.787567,49.894508 
z"/>
<path fill="#D5815F" opacity="1.000000" stroke="none" 
	d="
M98.301315,130.689880 
	C98.242065,131.053772 97.896736,131.493622 97.287796,132.044556 
	C97.354538,131.692352 97.684883,131.229080 98.301315,130.689880 
z"/>
<path fill="#DF9273" opacity="1.000000" stroke="none" 
	d="
M142.314148,145.984894 
	C142.379242,145.621231 142.720062,145.182770 143.344971,144.679932 
	C143.282669,145.047073 142.936279,145.478592 142.314148,145.984894 
z"/>
<path fill="#D5815F" opacity="1.000000" stroke="none" 
	d="
M99.856369,129.161591 
	C99.802002,129.515335 99.469086,129.948395 98.875275,130.487335 
	C98.935532,130.142456 99.256676,129.691666 99.856369,129.161591 
z"/>
<path fill="#DB8360" opacity="1.000000" stroke="none" 
	d="
M103.820282,149.132843 
	C103.787056,149.500000 103.475395,149.944382 102.901131,150.490143 
	C102.939636,150.131042 103.240753,149.670547 103.820282,149.132843 
z"/>
<path fill="#DB8360" opacity="1.000000" stroke="none" 
	d="
M102.301216,150.703293 
	C102.253578,151.085373 101.916283,151.534134 101.307182,152.076721 
	C101.360771,151.703674 101.686165,151.236832 102.301216,150.703293 
z"/>
<path fill="#DB8360" opacity="1.000000" stroke="none" 
	d="
M99.879166,153.103394 
	C99.828522,153.477646 99.488838,153.932083 98.874420,154.487122 
	C98.929825,154.119675 99.259979,153.651627 99.879166,153.103394 
z"/>
<path fill="#DB8360" opacity="1.000000" stroke="none" 
	d="
M98.294006,154.677628 
	C98.249870,155.062469 97.916931,155.521347 97.308487,156.073395 
	C97.357063,155.694916 97.681137,155.223282 98.294006,154.677628 
z"/>
<path fill="#DF9273" opacity="1.000000" stroke="none" 
	d="
M152.904358,135.548401 
	C152.933029,135.173859 153.233246,134.709244 153.805817,134.160690 
	C153.777435,134.537277 153.476685,134.997803 152.904358,135.548401 
z"/>
<path fill="#DF9273" opacity="1.000000" stroke="none" 
	d="
M130.244965,156.904190 
	C130.330643,156.518845 130.717346,156.074005 131.401428,155.559937 
	C131.314529,155.942047 130.930267,156.393372 130.244965,156.904190 
z"/>
<path fill="#DB8360" opacity="1.000000" stroke="none" 
	d="
M114.251869,138.589172 
	C114.199333,138.946945 113.867165,139.386414 113.277328,139.934326 
	C113.337173,139.585464 113.654709,139.128174 114.251869,138.589172 
z"/>
<path fill="#FDE1CE" opacity="1.000000" stroke="none" 
	d="
M245.193207,75.240829 
	C245.408493,75.236366 245.614670,75.491905 245.838959,75.998230 
	C245.632751,75.999619 245.408432,75.750237 245.193207,75.240829 
z"/>
<path fill="#FDDDCA" opacity="1.000000" stroke="none" 
	d="
M42.881355,223.776642 
	C42.612743,223.964096 42.348248,223.799759 42.064323,223.301956 
	C42.341011,223.075073 42.621204,223.227173 42.881355,223.776642 
z"/>
<path fill="#DB8360" opacity="1.000000" stroke="none" 
	d="
M119.751877,134.907318 
	C119.722351,134.994095 119.532684,135.289749 119.165237,135.777985 
	C119.188881,135.685776 119.390305,135.400970 119.751877,134.907318 
z"/>
<path fill="#DB8360" opacity="1.000000" stroke="none" 
	d="
M115.250893,137.593262 
	C115.419403,137.838852 115.255104,138.097107 114.769234,138.382629 
	C114.583916,138.135345 114.740730,137.867371 115.250893,137.593262 
z"/>
<path fill="#FDDDCA" opacity="1.000000" stroke="none" 
	d="
M56.861275,234.794891 
	C56.635071,235.004959 56.382507,234.895187 56.067902,234.503952 
	C56.299904,234.205963 56.576260,234.290146 56.861275,234.794891 
z"/>
<path fill="#FDDDCA" opacity="1.000000" stroke="none" 
	d="
M59.272430,236.469284 
	C59.073921,236.574020 58.727520,236.421814 58.216038,236.032227 
	C58.408817,235.934006 58.766678,236.073166 59.272430,236.469284 
z"/>
<path fill="#FDDDCA" opacity="1.000000" stroke="none" 
	d="
M61.120461,237.605835 
	C60.928856,237.717056 60.616913,237.585770 60.154976,237.243561 
	C60.336697,237.142853 60.668411,237.253082 61.120461,237.605835 
z"/>
<path fill="#FDDDCA" opacity="1.000000" stroke="none" 
	d="
M62.965637,238.740265 
	C62.747044,238.985153 62.463833,238.890442 62.096561,238.480606 
	C62.314121,238.190460 62.610294,238.268845 62.965637,238.740265 
z"/>
<path fill="#FED9C4" opacity="1.000000" stroke="none" 
	d="
M208.791626,65.749329 
	C208.587830,65.692192 208.447708,65.359398 208.344238,64.753235 
	C208.539047,64.811127 208.697174,65.142395 208.791626,65.749329 
z"/>
<path fill="#FDDDCA" opacity="1.000000" stroke="none" 
	d="
M66.130157,240.603729 
	C65.949730,240.715698 65.627991,240.599121 65.146942,240.274948 
	C65.321365,240.169968 65.655113,240.272568 66.130157,240.603729 
z"/>
<path fill="#E48F6D" opacity="1.000000" stroke="none" 
	d="
M173.881058,56.153763 
	C173.949966,56.335407 173.794586,56.647293 173.389526,57.062664 
	C173.312180,56.872101 173.484482,56.578053 173.881058,56.153763 
z"/>
<path fill="#FED9C4" opacity="1.000000" stroke="none" 
	d="
M207.752594,61.772579 
	C207.440613,61.840527 207.251663,61.580944 207.156219,61.001717 
	C207.356705,61.010399 207.565323,61.264725 207.752594,61.772579 
z"/>
<path fill="#FDDDCA" opacity="1.000000" stroke="none" 
	d="
M76.100235,245.628708 
	C75.925026,245.762726 75.610008,245.679169 75.138908,245.400391 
	C75.308685,245.273819 75.634560,245.342484 76.100235,245.628708 
z"/>
<path fill="#FDE1CE" opacity="1.000000" stroke="none" 
	d="
M237.059021,60.277252 
	C237.275223,60.255508 237.508560,60.506386 237.795364,61.012333 
	C237.591278,61.028225 237.333725,60.789051 237.059021,60.277252 
z"/>
<path fill="#FED9C4" opacity="1.000000" stroke="none" 
	d="
M206.137039,59.085430 
	C206.067474,58.851494 206.532608,58.949257 206.763550,59.006741 
	C206.994476,59.064224 206.997101,59.548306 206.933777,59.781834 
	C206.573593,59.855450 206.352310,59.623451 206.137039,59.085430 
z"/>
<path fill="#FDE1CE" opacity="1.000000" stroke="none" 
	d="
M235.112732,57.235657 
	C235.315659,57.218166 235.551102,57.467587 235.833954,57.974705 
	C235.635971,57.989124 235.390594,57.745846 235.112732,57.235657 
z"/>
<path fill="#E48F6D" opacity="1.000000" stroke="none" 
	d="
M197.138519,84.945694 
	C197.309479,84.961380 197.480453,84.977066 197.907349,85.029984 
	C198.005615,85.360344 197.847977,85.653488 197.523682,86.133568 
	C197.357010,86.320496 197.140656,86.123192 197.082001,85.778168 
	C197.061737,85.270653 197.100128,85.108177 197.138519,84.945694 
z"/>
<path fill="#D5815F" opacity="1.000000" stroke="none" 
	d="
M100.964287,128.161407 
	C100.999832,128.342133 100.790627,128.647903 100.313171,129.047318 
	C100.269806,128.856140 100.494675,128.571304 100.964287,128.161407 
z"/>
<path fill="#FDE4D3" opacity="1.000000" stroke="none" 
	d="
M43.211227,33.852158 
	C43.051083,33.576408 43.236473,33.323494 43.753857,33.071678 
	C43.936413,33.350304 43.760052,33.617706 43.211227,33.852158 
z"/>
<path fill="#D5815F" opacity="1.000000" stroke="none" 
	d="
M112.983192,116.232178 
	C113.031357,116.422798 112.836220,116.735092 112.369415,117.131874 
	C112.311798,116.928856 112.525848,116.641350 112.983192,116.232178 
z"/>
<path fill="#FDE1CE" opacity="1.000000" stroke="none" 
	d="
M215.121979,34.221828 
	C215.382202,34.040134 215.644531,34.201603 215.935669,34.684586 
	C215.664688,34.914635 215.384567,34.767601 215.121979,34.221828 
z"/>
<path fill="#DF9273" opacity="1.000000" stroke="none" 
	d="
M143.888672,144.501587 
	C143.826233,144.305298 144.004730,144.009598 144.437775,143.631836 
	C144.504761,143.833923 144.317200,144.118057 143.888672,144.501587 
z"/>
<path fill="#FDDDCA" opacity="1.000000" stroke="none" 
	d="
M12.806326,182.766556 
	C12.585016,182.770996 12.378181,182.515228 12.161412,182.007172 
	C12.374585,182.005371 12.597693,182.255859 12.806326,182.766556 
z"/>
<path fill="#E48F6D" opacity="1.000000" stroke="none" 
	d="
M198.775391,50.869774 
	C198.610764,50.979950 198.246399,50.893227 197.696838,50.586998 
	C197.866302,50.469280 198.220978,50.571075 198.775391,50.869774 
z"/>
<path fill="#DF9273" opacity="1.000000" stroke="none" 
	d="
M148.879089,139.488159 
	C148.814758,139.288910 148.997284,138.997910 149.428894,138.617676 
	C149.493958,138.817764 149.309937,139.107086 148.879089,139.488159 
z"/>
<path fill="#FDDDCA" opacity="1.000000" stroke="none" 
	d="
M16.862757,190.755432 
	C16.643354,190.771378 16.426037,190.522675 16.176449,190.024429 
	C16.384399,190.013519 16.624620,190.252151 16.862757,190.755432 
z"/>
<path fill="#FDDCCA" opacity="1.000000" stroke="none" 
	d="
M77.260643,11.946125 
	C76.997787,11.977463 76.993591,11.482500 76.994850,11.234729 
	C77.213860,11.003195 77.431618,11.019432 77.965057,11.127069 
	C78.028328,11.450576 77.775917,11.682682 77.260643,11.946125 
z"/>
<path fill="#FDDDCA" opacity="1.000000" stroke="none" 
	d="
M17.899649,192.754272 
	C17.691582,192.763367 17.461979,192.503326 17.197430,191.980438 
	C17.401024,191.973434 17.639568,192.229279 17.899649,192.754272 
z"/>
<path fill="#DB8360" opacity="1.000000" stroke="none" 
	d="
M60.840904,192.129929 
	C60.889580,192.314209 60.707054,192.606415 60.266449,192.971756 
	C60.208817,192.775879 60.409260,192.506866 60.840904,192.129929 
z"/>
<path fill="#FED9C4" opacity="1.000000" stroke="none" 
	d="
M204.264771,79.901695 
	C204.249283,79.764336 204.421036,79.482719 204.841888,79.136414 
	C204.945831,79.363548 204.732834,79.592117 204.264771,79.901695 
z"/>
<path fill="#DB8360" opacity="1.000000" stroke="none" 
	d="
M58.285397,194.665375 
	C58.471790,194.929565 58.313618,195.183548 57.821884,195.443054 
	C57.613174,195.175354 57.764008,194.910889 58.285397,194.665375 
z"/>
<path fill="#FED9C4" opacity="1.000000" stroke="none" 
	d="
M205.330719,79.035240 
	C205.149292,78.756035 205.323502,78.480515 205.801025,78.139023 
	C205.877151,78.339439 205.737823,78.661400 205.330719,79.035240 
z"/>
<path fill="#DF9273" opacity="1.000000" stroke="none" 
	d="
M151.807205,136.610077 
	C151.744110,136.408997 151.925461,136.110321 152.364441,135.731934 
	C152.431931,135.938980 152.241791,136.225739 151.807205,136.610077 
z"/>
<path fill="#FDDDCA" opacity="1.000000" stroke="none" 
	d="
M20.929462,197.732819 
	C20.712433,197.754608 20.477949,197.506729 20.197914,197.002716 
	C20.405581,196.985443 20.658794,197.224304 20.929462,197.732819 
z"/>
<path fill="#FDDDCA" opacity="1.000000" stroke="none" 
	d="
M22.905960,200.756714 
	C22.695471,200.778259 22.457560,200.532211 22.175306,200.028351 
	C22.380156,200.010056 22.629347,200.249588 22.905960,200.756714 
z"/>
<path fill="#DF9273" opacity="1.000000" stroke="none" 
	d="
M65.035172,190.366669 
	C65.451553,189.811707 66.038513,189.544815 66.869812,189.063568 
	C70.701279,192.344849 74.288414,195.840469 78.037865,199.634171 
	C77.508179,199.996323 76.816177,200.060394 75.606155,200.188217 
	C71.794006,197.052887 68.499886,193.853821 65.035172,190.366669 
z"/>
<path fill="#DF9273" opacity="1.000000" stroke="none" 
	d="
M118.386902,145.109314 
	C118.871323,144.805313 119.682899,144.432999 120.840782,144.078857 
	C120.362747,144.411682 119.538406,144.726349 118.386902,145.109314 
z"/>
<path fill="#D38B6D" opacity="1.000000" stroke="none" 
	d="
M169.290390,82.213326 
	C169.726089,82.694618 169.802811,83.252144 169.619843,84.422806 
	C167.495636,86.685532 165.549271,88.252190 163.779602,89.997971 
	C150.861588,102.741768 137.979095,115.521545 125.085373,128.289963 
	C124.733559,127.904716 124.381737,127.519478 123.739319,126.871185 
	C137.460251,112.484261 151.457855,98.346451 165.516006,84.269119 
	C166.414398,83.369507 167.782059,82.938538 169.290390,82.213326 
z"/>
<path fill="#D48A6C" opacity="1.000000" stroke="none" 
	d="
M130.232330,139.807159 
	C129.121246,139.963745 128.303406,139.960403 127.216331,139.605225 
	C143.459076,124.752769 159.971069,110.252167 176.483063,95.751564 
	C176.722015,97.338623 176.960983,98.925682 177.048676,100.860352 
	C175.446609,101.722771 173.676086,101.868988 172.593475,102.808182 
	C158.513992,115.022308 144.532074,127.348946 130.232330,139.807159 
z"/>
<path fill="#FEF0E5" opacity="1.000000" stroke="none" 
	d="
M179.195908,52.812645 
	C180.606247,51.814751 182.420288,50.865086 184.591019,49.918068 
	C183.165009,50.900772 181.382309,51.880821 179.195908,52.812645 
z"/>
<path fill="#FEF0E5" opacity="1.000000" stroke="none" 
	d="
M180.868408,84.732147 
	C179.635208,84.307129 178.305328,83.536087 176.793152,82.477249 
	C177.997818,82.921684 179.384766,83.653908 180.868408,84.732147 
z"/>
<path fill="#FEF0E5" opacity="1.000000" stroke="none" 
	d="
M190.958618,79.525475 
	C191.801971,79.977699 192.696182,80.749107 193.697189,81.799866 
	C192.872482,81.334366 191.940979,80.589508 190.958618,79.525475 
z"/>
<path fill="#FEF0E5" opacity="1.000000" stroke="none" 
	d="
M196.933929,84.746262 
	C197.100128,85.108177 197.061737,85.270653 196.974518,85.678741 
	C196.525528,86.016396 196.125351,86.108437 195.417572,86.218216 
	C195.052460,85.479248 194.994934,84.722542 194.925369,83.587341 
	C195.518661,83.654831 196.124008,84.100830 196.933929,84.746262 
z"/>
<path fill="#FEF0E5" opacity="1.000000" stroke="none" 
	d="
M184.135132,72.064651 
	C184.273727,72.075096 184.494003,72.318138 184.781006,72.802620 
	C184.578995,72.844467 184.368698,72.595535 184.135132,72.064651 
z"/>
<path fill="#FEF0E5" opacity="1.000000" stroke="none" 
	d="
M185.063507,73.330849 
	C185.270782,73.191673 185.522385,73.346069 185.772125,73.828461 
	C185.576477,73.919121 185.355682,73.741776 185.063507,73.330849 
z"/>
<path fill="#FEF0E5" opacity="1.000000" stroke="none" 
	d="
M186.059753,74.347923 
	C186.270111,74.203232 186.513031,74.355103 186.744843,74.836182 
	C186.552261,74.924965 186.338455,74.751328 186.059753,74.347923 
z"/>
<path fill="#FEF0E5" opacity="1.000000" stroke="none" 
	d="
M187.050629,75.373062 
	C187.256912,75.230896 187.487900,75.378120 187.700348,75.846436 
	C187.514313,75.930084 187.312149,75.761726 187.050629,75.373062 
z"/>
<path fill="#FEF0E5" opacity="1.000000" stroke="none" 
	d="
M188.055420,76.409286 
	C188.253769,76.258339 188.490250,76.391869 188.720184,76.845016 
	C188.536728,76.937958 188.330032,76.780998 188.055420,76.409286 
z"/>
<path fill="#FEF0E5" opacity="1.000000" stroke="none" 
	d="
M189.058868,77.387756 
	C189.265884,77.235779 189.501419,77.377739 189.720856,77.848145 
	C189.534912,77.936165 189.329117,77.771194 189.058868,77.387756 
z"/>
<path fill="#FEF0E5" opacity="1.000000" stroke="none" 
	d="
M185.123383,49.918140 
	C185.038635,49.658218 185.246002,49.482212 185.761841,49.443623 
	C185.791946,49.664825 185.573669,49.805164 185.123383,49.918140 
z"/>
<path fill="#FEF0E5" opacity="1.000000" stroke="none" 
	d="
M183.819092,86.418480 
	C183.972214,86.551529 183.547485,86.555084 183.547485,86.555084 
	C183.547485,86.555084 183.163940,86.372536 183.031372,86.205948 
	C183.177109,86.050941 183.432846,86.132965 183.819092,86.418480 
z"/>
<path fill="#FEF0E5" opacity="1.000000" stroke="none" 
	d="
M190.052826,78.390594 
	C190.257431,78.239502 190.496384,78.379044 190.721542,78.845886 
	C190.533798,78.935783 190.326950,78.771805 190.052826,78.390594 
z"/>
<path fill="#CE896C" opacity="1.000000" stroke="none" 
	d="
M200.973816,68.887863 
	C201.472076,67.463676 201.971527,66.429161 202.470978,65.394638 
	C203.296478,66.428261 204.926849,67.586830 204.789597,68.470978 
	C204.442169,70.708771 203.300842,72.823303 202.477493,74.987206 
	C201.779434,74.797447 201.081375,74.607681 200.383316,74.417915 
	C200.580536,72.704460 200.777771,70.990997 200.973816,68.887863 
z"/>
<path fill="#FEF8F2" opacity="1.000000" stroke="none" 
	d="
M176.657867,95.398117 
	C159.971069,110.252167 143.459076,124.752769 126.809311,139.566986 
	C126.290367,140.174271 125.909210,140.467941 125.301926,140.855408 
	C124.663010,139.940323 124.533371,138.582825 123.790932,137.979843 
	C119.353920,134.376251 120.848038,131.531586 124.898331,128.571121 
	C137.979095,115.521545 150.861588,102.741768 163.779602,89.997971 
	C165.549271,88.252190 167.495636,86.685532 169.644974,84.842850 
	C177.525101,85.217918 179.584702,88.319427 176.657867,95.398117 
z"/>
<path fill="#DF9273" opacity="1.000000" stroke="none" 
	d="
M111.249481,143.962463 
	C111.015556,143.780228 111.030098,143.590988 111.095085,143.122070 
	C111.533791,142.985016 111.922050,143.127640 112.599335,143.381058 
	C112.424889,143.646408 111.961418,143.800934 111.249481,143.962463 
z"/>
</svg>