<svg version="1.1" id="Layer_1" xmlns="http://www.w3.org/2000/svg" xmlns:xlink="http://www.w3.org/1999/xlink" x="0px" y="0px"
	 width="100%" viewBox="0 0 512 512" enable-background="new 0 0 512 512" xml:space="preserve">
<path fill="#FDFDFD" opacity="1.000000" stroke="none" 
	d="
M260.000000,1.000005 
	C272.354218,1.000000 284.708466,1.000000 297.452637,1.337142 
	C289.382599,6.644694 290.779694,16.598547 297.515045,19.775225 
	C299.795349,20.850708 302.684296,20.957502 305.295868,20.961117 
	C352.786224,21.026833 400.276703,21.004726 447.767151,21.013083 
	C457.055695,21.014717 460.443207,24.305847 460.444672,33.646667 
	C460.467712,182.450073 460.468292,331.253479 460.448273,480.056885 
	C460.446960,489.747650 457.135620,492.987640 447.558502,492.988129 
	C343.079529,492.993317 238.600540,492.993347 134.121552,492.984161 
	C132.520798,492.984009 130.920059,492.849731 129.145004,492.770264 
	C129.145004,476.575562 129.171616,460.768555 129.137817,444.961670 
	C129.101028,427.748413 118.677063,417.264526 101.466217,417.186127 
	C86.969421,417.120117 72.472107,417.175568 57.975040,417.157410 
	C56.535728,417.155609 55.096588,417.016144 53.670174,416.941254 
	C53.608696,415.829498 53.539799,415.165222 53.539783,414.500977 
	C53.536686,287.526520 53.530762,160.552048 53.555988,33.577591 
	C53.557838,24.278637 56.956871,21.013836 66.292358,21.012476 
	C113.449547,21.005604 160.606735,21.010601 207.763916,21.004082 
	C209.595261,21.003830 211.452377,21.109816 213.253052,20.853771 
	C218.420074,20.119062 221.976959,15.947436 221.991287,10.910901 
	C222.005447,5.932142 218.586441,3.416785 215.000000,1.000000 
	C227.354233,1.000000 239.708450,1.000000 252.443848,1.334615 
	C252.170044,2.179330 251.493790,2.664557 250.863571,3.203626 
	C247.156555,6.374589 245.955292,10.295354 247.868484,14.822082 
	C249.675186,19.096889 253.110626,21.272291 257.762421,20.898691 
	C262.399689,20.526258 265.501434,17.854918 266.636444,13.372928 
	C267.843140,8.607766 265.916290,4.944955 261.881989,2.303412 
	C261.243774,1.885540 260.626770,1.435296 260.000000,1.000005 
M237.604675,235.751007 
	C238.094330,233.513367 238.952789,231.284470 239.006195,229.036469 
	C239.184265,221.542969 239.100876,214.042496 239.068359,206.544922 
	C238.982742,186.813736 228.894531,173.058762 210.102478,167.067841 
	C204.576752,165.306229 199.020325,163.640915 194.604156,162.278824 
	C197.473679,154.819977 200.666260,147.727554 202.907501,140.346283 
	C205.021957,133.382553 206.007874,126.084091 207.720398,118.988419 
	C209.985321,109.604019 212.257172,100.332573 211.273682,90.461136 
	C208.692245,64.550781 186.579559,42.569038 161.065506,40.992611 
	C132.437332,39.223774 107.650787,57.318203 101.956558,84.104897 
	C99.908302,93.740227 99.805466,103.416252 103.037514,112.702377 
	C108.668327,128.880447 106.694809,147.420364 119.024124,161.961777 
	C113.059288,163.791626 107.697388,165.451843 102.326202,167.081436 
	C85.079552,172.313965 74.387253,185.794327 73.651375,203.736160 
	C73.310234,212.053787 73.423225,220.395508 73.521072,228.724075 
	C73.618240,236.994370 77.190865,240.532913 85.542778,240.541855 
	C132.861893,240.592438 180.181549,240.655655 227.499298,240.399307 
	C230.718185,240.381882 233.923141,237.788132 237.604675,235.751007 
M375.499725,332.541046 
	C386.161438,332.461823 396.859558,332.914062 407.476959,332.187256 
	C426.639221,330.875427 440.003784,311.893646 435.450653,293.258453 
	C431.729889,278.029938 419.555786,268.653717 402.770203,268.584564 
	C370.111084,268.450043 337.450989,268.497467 304.791504,268.562103 
	C301.488464,268.568634 298.077454,268.791199 294.902710,269.623627 
	C278.714050,273.868378 268.951599,288.548706 271.021515,305.159515 
	C273.005585,321.081573 287.066254,332.615967 304.516357,332.607056 
	C327.844147,332.595184 351.171906,332.563934 375.499725,332.541046 
M340.499725,244.541260 
	C360.995392,244.543060 381.497864,244.837769 401.982544,244.364090 
	C407.950317,244.226105 414.395630,242.967682 419.702271,240.354782 
	C432.390442,234.107407 438.697388,219.264404 435.601349,205.742905 
	C432.351105,191.548035 420.761383,181.249893 406.269989,180.796371 
	C390.122253,180.290985 373.949310,180.525284 357.787537,180.549545 
	C338.462280,180.578537 319.121185,180.274445 299.817108,180.962097 
	C283.743469,181.534698 271.053253,195.611832 270.856171,211.658310 
	C270.647583,228.642151 282.660645,243.029831 299.039703,244.055038 
	C312.483856,244.896530 326.009918,244.428680 340.499725,244.541260 
M346.500366,356.532745 
	C332.836487,356.530396 319.172546,356.552979 305.508759,356.515442 
	C298.395569,356.495911 291.614227,357.594238 285.514496,361.597839 
	C273.341461,369.587646 267.991516,383.913177 272.068054,397.808746 
	C276.104309,411.567108 288.772522,420.593597 304.297638,420.602997 
	C336.790497,420.622711 369.283417,420.579865 401.776276,420.529022 
	C404.268982,420.525116 406.781982,420.411530 409.250336,420.083801 
	C423.884949,418.140747 435.714844,405.053162 436.167114,390.403320 
	C436.761322,371.156342 423.484131,356.957275 403.987793,356.629364 
	C385.163452,356.312714 366.329895,356.542847 346.500366,356.532745 
M270.880981,102.609436 
	C270.292114,118.603317 276.152191,131.845276 288.002472,142.480103 
	C304.623901,157.396713 330.983307,158.851074 347.421173,145.809250 
	C353.112396,141.293823 354.255005,135.562286 350.439514,130.668671 
	C346.808655,126.011864 341.119934,125.586784 335.458893,129.840118 
	C330.560486,133.520493 325.109863,135.178207 319.101379,134.712875 
	C306.128906,133.708221 295.731964,125.499947 292.080780,113.625885 
	C288.504150,101.994469 292.285370,89.381683 301.686523,81.584549 
	C311.217987,73.679329 324.368988,72.640648 335.831299,78.887733 
	C342.696442,82.629303 348.349396,81.619949 351.434601,76.101738 
	C354.373779,70.844734 352.071442,65.135658 345.477570,61.330082 
	C313.625610,42.947041 272.945526,64.952011 270.880981,102.609436 
M424.007050,57.371704 
	C422.749512,59.677769 421.126404,61.859634 420.293884,64.310097 
	C414.951416,80.035553 409.786926,95.821426 404.549286,111.582588 
	C404.013733,113.194221 403.381042,114.773598 402.486816,117.199852 
	C396.029175,98.519035 389.931213,80.777161 383.754486,63.062748 
	C381.411987,56.344635 376.096008,53.381573 370.313446,55.363636 
	C364.834259,57.241711 362.525787,62.828873 364.781189,69.387360 
	C373.530945,94.830765 382.338745,120.254280 391.173096,145.668442 
	C393.167603,151.406143 397.303864,154.649796 402.424286,154.790268 
	C407.794434,154.937592 412.148499,151.816544 414.184204,145.770340 
	C422.766632,120.280266 431.241150,94.753799 439.721985,69.229622 
	C441.269409,64.572510 440.784851,60.199406 436.670410,57.065388 
	C432.832397,54.141891 428.679962,54.119190 424.007050,57.371704 
M169.500336,264.550110 
	C142.177551,264.548004 114.854752,264.547150 87.531960,264.543182 
	C78.387756,264.541870 73.688255,267.856537 73.585999,274.390808 
	C73.479561,281.192139 78.077065,284.536713 87.675789,284.539429 
	C132.158615,284.551941 176.641434,284.552887 221.124252,284.531342 
	C224.448181,284.529724 227.813202,284.606567 231.086319,284.138184 
	C236.066269,283.425537 239.208221,279.266357 239.048767,274.242065 
	C238.855087,268.140137 234.559433,264.583466 226.978470,264.559906 
	C208.152588,264.501434 189.326416,264.546631 169.500336,264.550110 
M118.500305,352.550110 
	C107.837761,352.546783 97.175171,352.524170 86.512680,352.546356 
	C78.289627,352.563446 73.671211,356.114624 73.584732,362.410461 
	C73.496140,368.860077 77.966019,372.449341 86.196083,372.536835 
	C86.529266,372.540375 86.862480,372.542145 87.195679,372.542297 
	C133.510818,372.563171 179.825958,372.587982 226.141098,372.587402 
	C227.799194,372.587372 229.481995,372.472260 231.110703,372.176392 
	C235.874420,371.310974 239.002731,367.517578 239.051605,362.722107 
	C239.102631,357.716431 235.871628,353.704224 230.931763,352.895630 
	C228.974274,352.575165 226.952301,352.558014 224.959610,352.557068 
	C189.806519,352.540588 154.653427,352.547943 118.500305,352.550110 
M181.499756,328.580994 
	C195.493286,328.581329 209.486862,328.603180 223.480270,328.562988 
	C226.133484,328.555389 228.842377,328.595245 231.426697,328.098633 
	C236.292526,327.163544 239.349121,322.823578 239.034973,317.864502 
	C238.734024,313.114166 235.418137,309.467377 230.601868,308.854248 
	C228.298660,308.561035 225.949600,308.545471 223.621262,308.544434 
	C178.309036,308.524445 132.996796,308.522308 87.684570,308.531342 
	C85.687653,308.531738 83.660118,308.479126 81.700027,308.788361 
	C77.141548,309.507568 73.703888,313.621613 73.570381,318.237244 
	C73.432938,322.989197 76.451782,327.125549 81.088974,328.108948 
	C83.179329,328.552246 85.387917,328.556335 87.543037,328.558258 
	C118.528587,328.585968 149.514175,328.579346 181.499756,328.580994 
M185.590485,396.527374 
	C182.764633,396.556763 179.926575,396.429169 177.115433,396.647766 
	C170.991165,397.123932 166.976273,401.353821 167.155457,406.912994 
	C167.326675,412.224884 171.393768,416.432129 177.296417,416.492401 
	C194.589294,416.668945 211.885620,416.621887 229.179535,416.505951 
	C234.028503,416.473450 237.363419,413.786194 238.745407,409.148315 
	C240.637238,402.799408 236.170227,396.860138 228.969788,396.715363 
	C214.839966,396.431122 200.701706,396.565948 185.590485,396.527374 
M196.500931,440.549103 
	C189.852966,440.595947 183.193161,440.415161 176.560669,440.759888 
	C171.012650,441.048279 167.217499,445.279633 167.146408,450.470703 
	C167.075012,455.681580 170.819778,460.241333 176.380814,460.321350 
	C194.161743,460.577271 211.950455,460.550781 229.732285,460.326080 
	C234.858368,460.261322 238.329803,456.677521 238.979843,452.146515 
	C239.622894,447.664062 237.370972,443.123657 233.247162,441.581055 
	C231.139557,440.792633 228.714813,440.606781 226.428864,440.582977 
	C216.787064,440.482666 207.143555,440.545807 196.500931,440.549103 
z"/>
<path fill="#070706" opacity="1.000000" stroke="none" 
	d="
M214.531342,1.000000 
	C218.586441,3.416785 222.005447,5.932142 221.991287,10.910901 
	C221.976959,15.947436 218.420074,20.119062 213.253052,20.853771 
	C211.452377,21.109816 209.595261,21.003830 207.763916,21.004082 
	C160.606735,21.010601 113.449547,21.005604 66.292358,21.012476 
	C56.956871,21.013836 53.557838,24.278637 53.555988,33.577591 
	C53.530762,160.552048 53.536686,287.526520 53.539783,414.500977 
	C53.539799,415.165222 53.608696,415.829498 53.670174,416.941254 
	C55.096588,417.016144 56.535728,417.155609 57.975040,417.157410 
	C72.472107,417.175568 86.969421,417.120117 101.466217,417.186127 
	C118.677063,417.264526 129.101028,427.748413 129.137817,444.961670 
	C129.171616,460.768555 129.145004,476.575562 129.145004,492.770264 
	C130.920059,492.849731 132.520798,492.984009 134.121552,492.984161 
	C238.600540,492.993347 343.079529,492.993317 447.558502,492.988129 
	C457.135620,492.987640 460.446960,489.747650 460.448273,480.056885 
	C460.468292,331.253479 460.467712,182.450073 460.444672,33.646667 
	C460.443207,24.305847 457.055695,21.014717 447.767151,21.013083 
	C400.276703,21.004726 352.786224,21.026833 305.295868,20.961117 
	C302.684296,20.957502 299.795349,20.850708 297.515045,19.775225 
	C290.779694,16.598547 289.382599,6.644694 297.921265,1.337142 
	C350.020905,1.000000 402.041779,1.000000 454.693848,1.358412 
	C459.180023,3.121654 463.417511,3.915737 466.818512,6.045571 
	C477.110687,12.490902 480.587372,22.434084 480.581604,34.236118 
	C480.509094,182.515747 480.534424,330.795441 480.516785,479.075104 
	C480.516479,481.568878 480.476349,484.087372 480.143250,486.552246 
	C478.467712,498.950806 471.552155,507.153107 459.879089,511.433502 
	C458.276733,512.021118 456.627533,512.480957 455.000000,513.000000 
	C342.312439,513.000000 229.624878,513.000000 116.357452,512.676270 
	C113.932274,510.963593 111.891441,509.770874 110.271049,508.156219 
	C86.803978,484.772278 63.499783,461.223480 39.878494,437.996948 
	C35.199585,433.396240 33.366638,428.596039 33.373215,422.135864 
	C33.502434,295.218445 33.693890,168.300049 33.228371,41.384224 
	C33.158360,22.296009 37.668041,7.767054 57.000000,1.000000 
	C109.354225,1.000000 161.708450,1.000000 214.531342,1.000000 
M75.664253,437.172760 
	C73.438034,437.172760 71.211823,437.172760 69.745651,437.172760 
	C82.933418,450.408447 96.139442,463.662445 109.107300,476.677429 
	C109.107300,466.567230 109.132401,455.787476 109.097626,445.007965 
	C109.077637,438.811096 107.424774,437.223602 101.044991,437.196991 
	C92.905823,437.162994 84.766441,437.178406 75.664253,437.172760 
z"/>
<path fill="#FFFFFF" opacity="1.000000" stroke="none" 
	d="
M56.531342,1.000000 
	C37.668041,7.767054 33.158360,22.296009 33.228371,41.384224 
	C33.693890,168.300049 33.502434,295.218445 33.373215,422.135864 
	C33.366638,428.596039 35.199585,433.396240 39.878494,437.996948 
	C63.499783,461.223480 86.803978,484.772278 110.271049,508.156219 
	C111.891441,509.770874 113.932274,510.963593 115.888794,512.676270 
	C77.691231,513.000000 39.382465,513.000000 1.048927,513.000000 
	C1.048927,342.333344 1.048927,171.666656 1.048927,1.000000 
	C19.419464,1.000000 37.741074,1.000000 56.531342,1.000000 
z"/>
<path fill="#FFFFFF" opacity="1.000000" stroke="none" 
	d="
M455.468658,513.000000 
	C456.627533,512.480957 458.276733,512.021118 459.879089,511.433502 
	C471.552155,507.153107 478.467712,498.950806 480.143250,486.552246 
	C480.476349,484.087372 480.516479,481.568878 480.516785,479.075104 
	C480.534424,330.795441 480.509094,182.515747 480.581604,34.236118 
	C480.587372,22.434084 477.110687,12.490902 466.818512,6.045571 
	C463.417511,3.915737 459.180023,3.121654 455.162476,1.358412 
	C474.319855,1.000000 493.639740,1.000000 512.954163,1.000002 
	C512.948730,171.666672 512.948730,342.333344 512.948730,513.000000 
	C493.910797,513.000000 474.924042,513.000000 455.468658,513.000000 
z"/>
<path fill="#080808" opacity="1.000000" stroke="none" 
	d="
M259.562500,1.000005 
	C260.626770,1.435296 261.243774,1.885540 261.881989,2.303412 
	C265.916290,4.944955 267.843140,8.607766 266.636444,13.372928 
	C265.501434,17.854918 262.399689,20.526258 257.762421,20.898691 
	C253.110626,21.272291 249.675186,19.096889 247.868484,14.822082 
	C245.955292,10.295354 247.156555,6.374589 250.863571,3.203626 
	C251.493790,2.664557 252.170044,2.179330 252.912506,1.334615 
	C255.041672,1.000000 257.083344,1.000000 259.562500,1.000005 
z"/>
<path fill="#040405" opacity="1.000000" stroke="none" 
	d="
M237.369629,236.071793 
	C233.923141,237.788132 230.718185,240.381882 227.499298,240.399307 
	C180.181549,240.655655 132.861893,240.592438 85.542778,240.541855 
	C77.190865,240.532913 73.618240,236.994370 73.521072,228.724075 
	C73.423225,220.395508 73.310234,212.053787 73.651375,203.736160 
	C74.387253,185.794327 85.079552,172.313965 102.326202,167.081436 
	C107.697388,165.451843 113.059288,163.791626 119.024124,161.961777 
	C106.694809,147.420364 108.668327,128.880447 103.037514,112.702377 
	C99.805466,103.416252 99.908302,93.740227 101.956558,84.104897 
	C107.650787,57.318203 132.437332,39.223774 161.065506,40.992611 
	C186.579559,42.569038 208.692245,64.550781 211.273682,90.461136 
	C212.257172,100.332573 209.985321,109.604019 207.720398,118.988419 
	C206.007874,126.084091 205.021957,133.382553 202.907501,140.346283 
	C200.666260,147.727554 197.473679,154.819977 194.604156,162.278824 
	C199.020325,163.640915 204.576752,165.306229 210.102478,167.067841 
	C228.894531,173.058762 238.982742,186.813736 239.068359,206.544922 
	C239.100876,214.042496 239.184265,221.542969 239.006195,229.036469 
	C238.952789,231.284470 238.094330,233.513367 237.369629,236.071793 
M157.499863,220.581253 
	C177.927948,220.581253 198.356049,220.581253 219.081680,220.581253 
	C219.081680,215.557800 219.098618,211.238052 219.078369,206.918488 
	C219.025635,195.668121 214.744980,189.596771 204.062653,186.143356 
	C195.200150,183.278275 186.321732,180.399323 177.300262,178.120728 
	C173.790146,177.234146 169.868790,177.975845 165.970642,177.975845 
	C165.970642,182.306244 166.010254,185.469604 165.962433,188.631638 
	C165.861511,195.307419 161.730759,199.887955 155.888763,199.863083 
	C150.174759,199.838776 146.127487,195.141022 146.048859,188.389832 
	C146.010559,185.102173 146.042236,181.813705 146.042236,177.892395 
	C142.589691,177.699341 139.483887,176.778976 136.833649,177.510056 
	C126.742737,180.293762 116.778679,183.547668 106.807243,186.750458 
	C100.320450,188.834000 95.491257,193.167007 94.353539,199.848129 
	C93.227486,206.460831 93.557030,213.321396 93.224854,220.581085 
	C114.921745,220.581085 135.710800,220.581085 157.499863,220.581253 
M183.033142,138.237900 
	C184.615891,127.284958 185.724487,116.427139 176.893112,107.238861 
	C161.760132,115.798225 145.242828,119.155533 128.079636,121.118416 
	C128.079636,124.258179 128.067474,127.063217 128.081665,129.868118 
	C128.157730,144.905701 137.490509,156.834045 150.888641,159.027756 
	C165.551498,161.428513 177.600327,153.904099 183.033142,138.237900 
M142.151291,98.826958 
	C151.524704,95.128563 161.340683,92.250137 170.145309,87.497932 
	C178.710403,82.875000 181.680405,82.270554 188.353989,89.131699 
	C189.014236,89.810509 189.246246,90.905861 189.677017,91.807877 
	C190.156311,91.372620 190.635605,90.937363 191.114899,90.502106 
	C188.905197,78.488312 182.472656,69.291183 171.156357,64.206589 
	C157.523117,58.080971 144.374939,59.692165 132.913712,69.473038 
	C123.303581,77.674202 119.434097,88.362419 121.041992,101.671661 
	C128.169617,100.719322 134.739288,99.841537 142.151291,98.826958 
z"/>
<path fill="#050605" opacity="1.000000" stroke="none" 
	d="
M374.999695,332.541016 
	C351.171906,332.563934 327.844147,332.595184 304.516357,332.607056 
	C287.066254,332.615967 273.005585,321.081573 271.021515,305.159515 
	C268.951599,288.548706 278.714050,273.868378 294.902710,269.623627 
	C298.077454,268.791199 301.488464,268.568634 304.791504,268.562103 
	C337.450989,268.497467 370.111084,268.450043 402.770203,268.584564 
	C419.555786,268.653717 431.729889,278.029938 435.450653,293.258453 
	C440.003784,311.893646 426.639221,330.875427 407.476959,332.187256 
	C396.859558,332.914062 386.161438,332.461823 374.999695,332.541016 
M415.958374,297.467590 
	C415.703430,297.209351 415.448486,296.951111 415.179565,296.137848 
	C414.874390,295.714447 414.569214,295.291077 414.109253,294.208862 
	C412.395905,292.842560 410.682556,291.476288 408.520020,290.043976 
	C408.520020,290.043976 408.071075,289.976318 407.608551,289.227051 
	C406.795471,289.064911 405.982513,288.761780 405.169250,288.760925 
	C370.858856,288.725220 336.547638,288.586243 302.238647,288.801483 
	C294.253204,288.851562 290.209015,294.771759 291.210846,303.615326 
	C291.210846,303.615326 291.416321,303.952026 291.474213,304.732269 
	C293.812500,310.388153 298.321838,312.520874 304.135864,312.523926 
	C337.021210,312.541229 369.906982,312.627625 402.791260,312.447845 
	C405.688385,312.432037 408.575958,310.669983 411.572784,309.582520 
	C411.572784,309.582520 411.682617,309.450073 412.055023,309.312714 
	C412.288879,309.153656 412.424286,308.933929 412.527832,308.561310 
	C412.527832,308.561310 412.640381,308.577545 413.238983,308.343475 
	C413.884430,306.987946 414.529877,305.632446 415.657104,304.000854 
	C415.733429,303.657806 415.809723,303.314728 416.074493,302.161469 
	C416.013184,300.783112 415.951874,299.404755 415.958374,297.467590 
z"/>
<path fill="#070404" opacity="1.000000" stroke="none" 
	d="
M339.999695,244.541229 
	C326.009918,244.428680 312.483856,244.896530 299.039703,244.055038 
	C282.660645,243.029831 270.647583,228.642151 270.856171,211.658310 
	C271.053253,195.611832 283.743469,181.534698 299.817108,180.962097 
	C319.121185,180.274445 338.462280,180.578537 357.787537,180.549545 
	C373.949310,180.525284 390.122253,180.290985 406.269989,180.796371 
	C420.761383,181.249893 432.351105,191.548035 435.601349,205.742905 
	C438.697388,219.264404 432.390442,234.107407 419.702271,240.354782 
	C414.395630,242.967682 407.950317,244.226105 401.982544,244.364090 
	C381.497864,244.837769 360.995392,244.543060 339.999695,244.541229 
M347.500122,200.605972 
	C332.348267,200.646393 317.193176,200.516418 302.046112,200.807098 
	C295.548889,200.931793 291.133270,205.779739 290.878204,211.962753 
	C290.611023,218.439789 294.752136,223.375336 301.372131,224.320312 
	C303.174103,224.577530 305.021881,224.585556 306.848663,224.586472 
	C337.155365,224.601608 367.462097,224.606583 397.768799,224.582184 
	C400.594482,224.579910 403.449005,224.579269 406.239563,224.202896 
	C412.045685,223.419739 416.050812,218.723511 416.172485,212.903564 
	C416.327087,205.508072 411.365509,200.701950 402.951996,200.643478 
	C384.802185,200.517334 366.650848,200.605347 347.500122,200.605972 
z"/>
<path fill="#030607" opacity="1.000000" stroke="none" 
	d="
M347.000366,356.532776 
	C366.329895,356.542847 385.163452,356.312714 403.987793,356.629364 
	C423.484131,356.957275 436.761322,371.156342 436.167114,390.403320 
	C435.714844,405.053162 423.884949,418.140747 409.250336,420.083801 
	C406.781982,420.411530 404.268982,420.525116 401.776276,420.529022 
	C369.283417,420.579865 336.790497,420.622711 304.297638,420.602997 
	C288.772522,420.593597 276.104309,411.567108 272.068054,397.808746 
	C267.991516,383.913177 273.341461,369.587646 285.514496,361.597839 
	C291.614227,357.594238 298.395569,356.495911 305.508759,356.515442 
	C319.172546,356.552979 332.836487,356.530396 347.000366,356.532776 
M381.500061,376.631409 
	C360.853729,376.631409 340.207397,376.620331 319.561066,376.638397 
	C313.568756,376.643646 307.562592,376.496185 301.588074,376.848328 
	C295.411530,377.212402 291.151489,381.900940 290.897736,387.935974 
	C290.639160,394.085114 294.344177,398.980133 300.381104,400.128448 
	C302.647919,400.559631 305.012360,400.606140 307.332581,400.608704 
	C335.304993,400.639648 363.277466,400.637085 391.249908,400.622101 
	C395.743256,400.619690 400.257477,400.767212 404.725128,400.398254 
	C412.059296,399.792664 416.492401,394.768799 416.172760,387.922638 
	C415.866089,381.354706 411.187561,376.902771 403.977448,376.713776 
	C396.822510,376.526276 389.659515,376.646118 381.500061,376.631409 
z"/>
<path fill="#050505" opacity="1.000000" stroke="none" 
	d="
M270.895142,102.137787 
	C272.945526,64.952011 313.625610,42.947041 345.477570,61.330082 
	C352.071442,65.135658 354.373779,70.844734 351.434601,76.101738 
	C348.349396,81.619949 342.696442,82.629303 335.831299,78.887733 
	C324.368988,72.640648 311.217987,73.679329 301.686523,81.584549 
	C292.285370,89.381683 288.504150,101.994469 292.080780,113.625885 
	C295.731964,125.499947 306.128906,133.708221 319.101379,134.712875 
	C325.109863,135.178207 330.560486,133.520493 335.458893,129.840118 
	C341.119934,125.586784 346.808655,126.011864 350.439514,130.668671 
	C354.255005,135.562286 353.112396,141.293823 347.421173,145.809250 
	C330.983307,158.851074 304.623901,157.396713 288.002472,142.480103 
	C276.152191,131.845276 270.292114,118.603317 270.895142,102.137787 
z"/>
<path fill="#050505" opacity="1.000000" stroke="none" 
	d="
M424.322510,57.154194 
	C428.679962,54.119190 432.832397,54.141891 436.670410,57.065388 
	C440.784851,60.199406 441.269409,64.572510 439.721985,69.229622 
	C431.241150,94.753799 422.766632,120.280266 414.184204,145.770340 
	C412.148499,151.816544 407.794434,154.937592 402.424286,154.790268 
	C397.303864,154.649796 393.167603,151.406143 391.173096,145.668442 
	C382.338745,120.254280 373.530945,94.830765 364.781189,69.387360 
	C362.525787,62.828873 364.834259,57.241711 370.313446,55.363636 
	C376.096008,53.381573 381.411987,56.344635 383.754486,63.062748 
	C389.931213,80.777161 396.029175,98.519035 402.486816,117.199852 
	C403.381042,114.773598 404.013733,113.194221 404.549286,111.582588 
	C409.786926,95.821426 414.951416,80.035553 420.293884,64.310097 
	C421.126404,61.859634 422.749512,59.677769 424.322510,57.154194 
z"/>
<path fill="#060606" opacity="1.000000" stroke="none" 
	d="
M170.000336,264.550140 
	C189.326416,264.546631 208.152588,264.501434 226.978470,264.559906 
	C234.559433,264.583466 238.855087,268.140137 239.048767,274.242065 
	C239.208221,279.266357 236.066269,283.425537 231.086319,284.138184 
	C227.813202,284.606567 224.448181,284.529724 221.124252,284.531342 
	C176.641434,284.552887 132.158615,284.551941 87.675789,284.539429 
	C78.077065,284.536713 73.479561,281.192139 73.585999,274.390808 
	C73.688255,267.856537 78.387756,264.541870 87.531960,264.543182 
	C114.854752,264.547150 142.177551,264.548004 170.000336,264.550140 
z"/>
<path fill="#060606" opacity="1.000000" stroke="none" 
	d="
M119.000320,352.550140 
	C154.653427,352.547943 189.806519,352.540588 224.959610,352.557068 
	C226.952301,352.558014 228.974274,352.575165 230.931763,352.895630 
	C235.871628,353.704224 239.102631,357.716431 239.051605,362.722107 
	C239.002731,367.517578 235.874420,371.310974 231.110703,372.176392 
	C229.481995,372.472260 227.799194,372.587372 226.141098,372.587402 
	C179.825958,372.587982 133.510818,372.563171 87.195679,372.542297 
	C86.862480,372.542145 86.529266,372.540375 86.196083,372.536835 
	C77.966019,372.449341 73.496140,368.860077 73.584732,362.410461 
	C73.671211,356.114624 78.289627,352.563446 86.512680,352.546356 
	C97.175171,352.524170 107.837761,352.546783 119.000320,352.550140 
z"/>
<path fill="#060606" opacity="1.000000" stroke="none" 
	d="
M180.999756,328.580994 
	C149.514175,328.579346 118.528587,328.585968 87.543037,328.558258 
	C85.387917,328.556335 83.179329,328.552246 81.088974,328.108948 
	C76.451782,327.125549 73.432938,322.989197 73.570381,318.237244 
	C73.703888,313.621613 77.141548,309.507568 81.700027,308.788361 
	C83.660118,308.479126 85.687653,308.531738 87.684570,308.531342 
	C132.996796,308.522308 178.309036,308.524445 223.621262,308.544434 
	C225.949600,308.545471 228.298660,308.561035 230.601868,308.854248 
	C235.418137,309.467377 238.734024,313.114166 239.034973,317.864502 
	C239.349121,322.823578 236.292526,327.163544 231.426697,328.098633 
	C228.842377,328.595245 226.133484,328.555389 223.480270,328.562988 
	C209.486862,328.603180 195.493286,328.581329 180.999756,328.580994 
z"/>
<path fill="#070707" opacity="1.000000" stroke="none" 
	d="
M186.078705,396.527374 
	C200.701706,396.565948 214.839966,396.431122 228.969788,396.715363 
	C236.170227,396.860138 240.637238,402.799408 238.745407,409.148315 
	C237.363419,413.786194 234.028503,416.473450 229.179535,416.505951 
	C211.885620,416.621887 194.589294,416.668945 177.296417,416.492401 
	C171.393768,416.432129 167.326675,412.224884 167.155457,406.912994 
	C166.976273,401.353821 170.991165,397.123932 177.115433,396.647766 
	C179.926575,396.429169 182.764633,396.556763 186.078705,396.527374 
z"/>
<path fill="#070707" opacity="1.000000" stroke="none" 
	d="
M197.000793,440.549133 
	C207.143555,440.545807 216.787064,440.482666 226.428864,440.582977 
	C228.714813,440.606781 231.139557,440.792633 233.247162,441.581055 
	C237.370972,443.123657 239.622894,447.664062 238.979843,452.146515 
	C238.329803,456.677521 234.858368,460.261322 229.732285,460.326080 
	C211.950455,460.550781 194.161743,460.577271 176.380814,460.321350 
	C170.819778,460.241333 167.075012,455.681580 167.146408,450.470703 
	C167.217499,445.279633 171.012650,441.048279 176.560669,440.759888 
	C183.193161,440.415161 189.852966,440.595947 197.000793,440.549133 
z"/>
<path fill="#F7CA6F" opacity="1.000000" stroke="none" 
	d="
M76.145706,437.172668 
	C84.766441,437.178406 92.905823,437.162994 101.044991,437.196991 
	C107.424774,437.223602 109.077637,438.811096 109.097626,445.007965 
	C109.132401,455.787476 109.107300,466.567230 109.107300,476.677429 
	C96.139442,463.662445 82.933418,450.408447 69.745651,437.172760 
	C71.211823,437.172760 73.438034,437.172760 76.145706,437.172668 
z"/>
<path fill="#67DBF0" opacity="1.000000" stroke="none" 
	d="
M156.999847,220.581177 
	C135.710800,220.581085 114.921745,220.581085 93.224854,220.581085 
	C93.557030,213.321396 93.227486,206.460831 94.353539,199.848129 
	C95.491257,193.167007 100.320450,188.834000 106.807243,186.750458 
	C116.778679,183.547668 126.742737,180.293762 136.833649,177.510056 
	C139.483887,176.778976 142.589691,177.699341 146.042236,177.892395 
	C146.042236,181.813705 146.010559,185.102173 146.048859,188.389832 
	C146.127487,195.141022 150.174759,199.838776 155.888763,199.863083 
	C161.730759,199.887955 165.861511,195.307419 165.962433,188.631638 
	C166.010254,185.469604 165.970642,182.306244 165.970642,177.975845 
	C169.868790,177.975845 173.790146,177.234146 177.300262,178.120728 
	C186.321732,180.399323 195.200150,183.278275 204.062653,186.143356 
	C214.744980,189.596771 219.025635,195.668121 219.078369,206.918488 
	C219.098618,211.238052 219.081680,215.557800 219.081680,220.581253 
	C198.356049,220.581253 177.927948,220.581253 156.999847,220.581177 
z"/>
<path fill="#FACEC6" opacity="1.000000" stroke="none" 
	d="
M182.956589,138.643616 
	C177.600327,153.904099 165.551498,161.428513 150.888641,159.027756 
	C137.490509,156.834045 128.157730,144.905701 128.081665,129.868118 
	C128.067474,127.063217 128.079636,124.258179 128.079636,121.118416 
	C145.242828,119.155533 161.760132,115.798225 176.893112,107.238861 
	C185.724487,116.427139 184.615891,127.284958 182.956589,138.643616 
z"/>
<path fill="#F9CB6E" opacity="1.000000" stroke="none" 
	d="
M141.730133,98.895355 
	C134.739288,99.841537 128.169617,100.719322 121.041992,101.671661 
	C119.434097,88.362419 123.303581,77.674202 132.913712,69.473038 
	C144.374939,59.692165 157.523117,58.080971 171.156357,64.206589 
	C182.472656,69.291183 188.905197,78.488312 191.114899,90.502106 
	C190.635605,90.937363 190.156311,91.372620 189.677017,91.807877 
	C189.246246,90.905861 189.014236,89.810509 188.353989,89.131699 
	C181.680405,82.270554 178.710403,82.875000 170.145309,87.497932 
	C161.340683,92.250137 151.524704,95.128563 141.730133,98.895355 
z"/>
<path fill="#8BDE90" opacity="1.000000" stroke="none" 
	d="
M408.071075,289.976318 
	C408.071075,289.976318 408.520020,290.043976 408.787079,290.426331 
	C410.790771,292.161713 412.527405,293.514679 414.264038,294.867676 
	C414.569214,295.291077 414.874390,295.714447 415.124390,296.723694 
	C415.055084,297.518372 415.040924,297.727264 415.015106,298.358124 
	C414.999664,300.184143 414.995880,301.588226 414.635986,303.059784 
	C413.733337,304.944031 413.186859,306.760773 412.640381,308.577545 
	C412.640381,308.577545 412.527832,308.561310 412.202576,308.503357 
	C411.812408,308.780304 411.747528,309.115204 411.682617,309.450073 
	C411.682617,309.450073 411.572784,309.582520 411.130127,309.453339 
	C404.779510,309.882355 398.874573,310.881927 392.963074,310.922546 
	C367.143829,311.099854 341.322632,311.013062 315.502167,310.990570 
	C307.151367,310.983307 298.310089,312.571411 292.344818,304.266327 
	C292.189850,304.050598 291.732605,304.051910 291.416321,303.952026 
	C291.416321,303.952026 291.210846,303.615326 291.625000,303.234924 
	C292.303192,302.444916 292.728821,302.064087 292.807495,301.621582 
	C294.452026,292.370911 297.289734,290.002045 306.800323,289.999878 
	C340.557251,289.992279 374.314148,289.984222 408.071075,289.976318 
z"/>
<path fill="#92D297" opacity="1.000000" stroke="none" 
	d="
M291.445251,304.342163 
	C291.732605,304.051910 292.189850,304.050598 292.344818,304.266327 
	C298.310089,312.571411 307.151367,310.983307 315.502167,310.990570 
	C341.322632,311.013062 367.143829,311.099854 392.963074,310.922546 
	C398.874573,310.881927 404.779510,309.882355 411.077698,309.521606 
	C408.575958,310.669983 405.688385,312.432037 402.791260,312.447845 
	C369.906982,312.627625 337.021210,312.541229 304.135864,312.523926 
	C298.321838,312.520874 293.812500,310.388153 291.445251,304.342163 
z"/>
<path fill="#92D297" opacity="1.000000" stroke="none" 
	d="
M407.839813,289.601685 
	C374.314148,289.984222 340.557251,289.992279 306.800323,289.999878 
	C297.289734,290.002045 294.452026,292.370911 292.807495,301.621582 
	C292.728821,302.064087 292.303192,302.444916 291.656158,303.040161 
	C290.209015,294.771759 294.253204,288.851562 302.238647,288.801483 
	C336.547638,288.586243 370.858856,288.725220 405.169250,288.760925 
	C405.982513,288.761780 406.795471,289.064911 407.839813,289.601685 
z"/>
<path fill="#77AF7C" opacity="1.000000" stroke="none" 
	d="
M414.186646,294.538269 
	C412.527405,293.514679 410.790771,292.161713 409.011658,290.459351 
	C410.682556,291.476288 412.395905,292.842560 414.186646,294.538269 
z"/>
<path fill="#92D297" opacity="1.000000" stroke="none" 
	d="
M412.939697,308.460510 
	C413.186859,306.760773 413.733337,304.944031 414.643280,303.066833 
	C415.006714,303.006378 415.020477,303.019684 415.035889,303.336853 
	C415.092682,303.861664 415.134003,304.069305 415.175354,304.276947 
	C414.529877,305.632446 413.884430,306.987946 412.939697,308.460510 
z"/>
<path fill="#92D297" opacity="1.000000" stroke="none" 
	d="
M414.999390,302.999329 
	C414.995880,301.588226 414.999664,300.184143 415.230896,298.380005 
	C415.458374,297.979980 415.890533,298.026398 415.890533,298.026398 
	C415.951874,299.404755 416.013184,300.783112 415.764160,302.581848 
	C415.453796,303.002228 415.020477,303.019684 415.020477,303.019684 
	C415.020477,303.019684 415.006714,303.006378 414.999390,302.999329 
z"/>
<path fill="#77AF7C" opacity="1.000000" stroke="none" 
	d="
M415.035889,303.336853 
	C415.020477,303.019684 415.453796,303.002228 415.669922,302.986938 
	C415.809723,303.314728 415.733429,303.657806 415.416229,304.138916 
	C415.134003,304.069305 415.092682,303.861664 415.035889,303.336853 
z"/>
<path fill="#92D297" opacity="1.000000" stroke="none" 
	d="
M411.868835,309.381409 
	C411.747528,309.115204 411.812408,308.780304 412.169312,308.549469 
	C412.424286,308.933929 412.288879,309.153656 411.868835,309.381409 
z"/>
<path fill="#77AF7C" opacity="1.000000" stroke="none" 
	d="
M415.924438,297.747009 
	C415.890533,298.026398 415.458374,297.979980 415.242554,297.958069 
	C415.040924,297.727264 415.055084,297.518372 415.131378,297.001190 
	C415.448486,296.951111 415.703430,297.209351 415.924438,297.747009 
z"/>
<path fill="#F67C94" opacity="1.000000" stroke="none" 
	d="
M348.000122,200.605865 
	C366.650848,200.605347 384.802185,200.517334 402.951996,200.643478 
	C411.365509,200.701950 416.327087,205.508072 416.172485,212.903564 
	C416.050812,218.723511 412.045685,223.419739 406.239563,224.202896 
	C403.449005,224.579269 400.594482,224.579910 397.768799,224.582184 
	C367.462097,224.606583 337.155365,224.601608 306.848663,224.586472 
	C305.021881,224.585556 303.174103,224.577530 301.372131,224.320312 
	C294.752136,223.375336 290.611023,218.439789 290.878204,211.962753 
	C291.133270,205.779739 295.548889,200.931793 302.046112,200.807098 
	C317.193176,200.516418 332.348267,200.646393 348.000122,200.605865 
z"/>
<path fill="#06C5EA" opacity="1.000000" stroke="none" 
	d="
M382.000061,376.631287 
	C389.659515,376.646118 396.822510,376.526276 403.977448,376.713776 
	C411.187561,376.902771 415.866089,381.354706 416.172760,387.922638 
	C416.492401,394.768799 412.059296,399.792664 404.725128,400.398254 
	C400.257477,400.767212 395.743256,400.619690 391.249908,400.622101 
	C363.277466,400.637085 335.304993,400.639648 307.332581,400.608704 
	C305.012360,400.606140 302.647919,400.559631 300.381104,400.128448 
	C294.344177,398.980133 290.639160,394.085114 290.897736,387.935974 
	C291.151489,381.900940 295.411530,377.212402 301.588074,376.848328 
	C307.562592,376.496185 313.568756,376.643646 319.561066,376.638397 
	C340.207397,376.620331 360.853729,376.631409 382.000061,376.631287 
z"/>
</svg>