<svg version="1.1" id="Layer_1" xmlns="http://www.w3.org/2000/svg" xmlns:xlink="http://www.w3.org/1999/xlink" x="0px" y="0px"
	 width="100%" viewBox="0 0 200 200" enable-background="new 0 0 200 200" xml:space="preserve">
<path fill="#23314D" opacity="1.000000" stroke="none" 
	d="
M201.000000,155.535355 
	C198.727615,155.666840 196.456543,155.055328 194.182648,155.044724 
	C176.688065,154.963150 159.192062,155.081375 141.699005,154.898178 
	C139.348083,154.873566 135.104645,153.710510 135.002747,152.733932 
	C134.594238,148.818649 133.975235,143.467285 136.129074,140.991440 
	C146.229416,129.381134 157.386932,118.698952 167.825089,107.370369 
	C172.628815,102.156860 176.942352,96.422089 180.952408,90.563782 
	C186.479691,82.488945 187.730698,73.549820 181.818878,65.360764 
	C176.368423,57.810780 167.750977,56.730316 159.235779,58.483250 
	C153.116119,59.743038 147.279755,62.390785 141.330566,64.458374 
	C139.855957,64.970856 138.433914,65.634659 135.991882,66.638092 
	C135.991882,61.549557 135.881714,57.432175 136.083237,53.330101 
	C136.124390,52.492378 137.177597,51.292324 138.032166,50.970390 
	C146.524979,47.770977 154.813248,43.784847 164.421936,45.451862 
	C167.607651,46.004555 171.102524,44.752563 174.296631,45.283958 
	C184.601990,46.998436 192.913651,51.910736 197.957779,61.494923 
	C198.468552,62.465462 199.503235,63.160282 200.647400,63.991528 
	C201.000000,71.020950 201.000000,78.041893 200.659851,85.593842 
	C199.300446,87.606277 198.265106,89.076927 197.264862,90.571091 
	C193.610336,96.030167 190.488373,101.950706 186.209076,106.864166 
	C177.956192,116.340111 169.035690,125.233498 160.430054,134.404160 
	C158.470367,136.492493 156.665649,138.726242 154.465271,141.267670 
	C155.918549,141.742477 156.520477,142.111084 157.122101,142.110535 
	C171.748077,142.097549 186.374039,142.045242 201.000000,142.000000 
	C201.000000,146.356903 201.000000,150.713806 201.000000,155.535355 
z"/>
<path fill="#23324E" opacity="1.000000" stroke="none" 
	d="
M1.000001,138.454102 
	C2.092117,137.072159 3.096093,136.006302 4.292747,135.242172 
	C7.992435,132.879761 11.538848,129.401978 16.460114,131.807159 
	C23.122889,135.063461 25.519438,138.994141 24.942509,144.930557 
	C24.448719,150.011490 20.629812,154.422974 15.095572,155.477219 
	C8.818086,156.673065 4.962410,152.786362 1.330031,148.088211 
	C1.000000,144.969406 1.000000,141.938812 1.000001,138.454102 
z"/>
<path fill="#23314D" opacity="1.000000" stroke="none" 
	d="
M1.000001,97.458069 
	C2.441816,96.023056 3.996710,95.176949 5.305386,94.045944 
	C10.309971,89.720795 17.730614,90.152077 22.270069,95.127869 
	C26.363432,99.614693 25.649611,107.868103 20.783237,112.318977 
	C16.292295,116.426498 8.704165,115.791603 4.398900,110.966057 
	C3.524687,109.986198 2.584773,109.064949 1.337576,108.058334 
	C1.000000,104.638710 1.000000,101.277428 1.000001,97.458069 
z"/>
<path fill="#23324D" opacity="1.000000" stroke="none" 
	d="
M1.000000,58.454109 
	C2.332089,56.838192 3.903510,55.859070 4.954245,54.482506 
	C9.180571,48.945583 16.224915,49.840782 21.880777,54.854561 
	C26.113464,58.606724 25.818624,67.529579 21.597841,71.619858 
	C16.683016,76.382721 8.764014,76.109818 4.283623,71.026489 
	C3.420816,70.047577 2.544677,69.080406 1.337343,68.053909 
	C1.000000,64.969406 1.000000,61.938816 1.000000,58.454109 
z"/>
<path fill="#24324E" opacity="1.000000" stroke="none" 
	d="
M104.243530,99.333549 
	C105.879341,105.329094 104.054794,109.914597 99.451431,113.183243 
	C95.467545,116.012016 90.983215,115.842514 86.763885,113.584427 
	C82.172356,111.127159 80.496414,106.979927 80.857834,101.915352 
	C81.203247,97.075150 85.288406,92.173050 89.772255,91.187820 
	C95.592606,89.908928 101.011261,92.852730 104.243530,99.333549 
z"/>
<path fill="#24324D" opacity="1.000000" stroke="none" 
	d="
M59.082378,73.369713 
	C53.788677,75.938057 49.067509,75.663635 44.966991,71.810722 
	C39.745255,66.904282 39.476444,58.723831 44.420563,54.058632 
	C48.768654,49.955841 57.310169,49.308617 61.741116,54.466675 
	C66.644913,60.175171 66.343269,68.226723 59.082378,73.369713 
z"/>
<path fill="#24324E" opacity="1.000000" stroke="none" 
	d="
M45.279076,152.771393 
	C38.489582,145.551224 40.021801,136.629578 48.120628,132.281326 
	C52.722923,129.810364 57.984886,131.695648 60.364952,134.150238 
	C65.790619,139.745804 66.354675,144.832565 62.646275,150.673950 
	C60.315563,154.345245 54.196781,156.593369 49.965221,155.181076 
	C48.427227,154.667786 47.022858,153.754089 45.279076,152.771393 
z"/>
<path fill="#24324E" opacity="1.000000" stroke="none" 
	d="
M100.328888,134.118103 
	C103.597572,138.739410 106.463776,142.847229 103.405495,148.891937 
	C100.983162,153.679688 97.367256,155.527588 92.763580,155.657669 
	C87.689140,155.801071 83.783119,153.019211 81.832314,148.338135 
	C80.085762,144.147156 80.442123,139.952026 83.606895,136.283142 
	C88.951614,130.087097 92.192238,129.603912 100.328888,134.118103 
z"/>
<path fill="#24324E" opacity="1.000000" stroke="none" 
	d="
M93.510696,50.765625 
	C101.295769,52.329563 106.111046,57.782013 104.579819,64.024513 
	C102.793907,71.305283 99.164574,75.542427 91.482880,74.909615 
	C86.289177,74.481750 81.625916,69.794075 81.138390,64.509041 
	C80.528687,57.899506 83.488472,53.369801 89.453728,51.781284 
	C90.716637,51.444977 91.978546,51.104927 93.510696,50.765625 
z"/>
<path fill="#23324D" opacity="1.000000" stroke="none" 
	d="
M64.302269,107.005112 
	C60.374191,114.027649 55.641384,116.353584 49.145889,114.758209 
	C45.028313,113.746880 41.331512,109.085358 40.980450,104.528831 
	C40.589481,99.454468 42.503696,95.087624 46.666355,92.634087 
	C51.076885,90.034439 56.428024,91.021820 60.280994,93.757591 
	C64.291786,96.605431 65.854614,101.431259 64.302269,107.005112 
z"/>
</svg>