<svg version="1.1" id="Layer_1" xmlns="http://www.w3.org/2000/svg" xmlns:xlink="http://www.w3.org/1999/xlink" x="0px" y="0px"
	 width="100%" viewBox="0 0 3840 2160" enable-background="new 0 0 3840 2160" xml:space="preserve">

<path fill="#010101" opacity="1.000000" stroke="none" 
	d="
M1291.893433,1344.329590 
	C1289.134766,1343.253418 1286.178833,1342.517944 1283.646729,1341.050781 
	C1234.403320,1312.518188 1185.224365,1283.873779 1135.994629,1255.317505 
	C1123.332642,1247.972656 1110.749512,1240.445557 1097.738281,1233.765259 
	C1089.025513,1229.292114 1086.603271,1222.823975 1086.636597,1213.517944 
	C1086.892212,1142.207031 1086.778931,1070.894775 1086.765869,999.583008 
	C1086.765015,994.918762 1086.903931,990.233154 1086.522583,985.594910 
	C1085.850098,977.413940 1081.746582,975.042603 1074.365845,978.932800 
	C1065.243408,983.740967 1056.386108,989.056641 1047.459961,994.231750 
	C1004.561401,1019.103394 961.707092,1044.051392 918.778748,1068.871460 
	C893.140381,1083.694946 867.387329,1098.319824 841.705200,1113.067749 
	C837.955566,1115.220947 834.223999,1117.428955 830.642700,1119.846558 
	C824.448914,1124.027832 820.976685,1129.773315 821.094116,1137.455933 
	C821.160400,1141.786621 821.064880,1146.119629 821.064819,1150.451538 
	C821.062378,1236.758789 821.060242,1323.066162 821.072266,1409.373413 
	C821.072876,1413.370483 820.907593,1417.400269 821.343201,1421.357178 
	C822.036133,1427.651489 825.662170,1430.182617 831.740540,1428.345947 
	C835.512085,1427.206177 839.109741,1425.271240 842.548828,1423.283936 
	C889.808716,1395.970825 937.017395,1368.568970 984.261597,1341.228638 
	C1000.966492,1331.561646 1017.844604,1322.187622 1034.407715,1312.285278 
	C1039.671997,1309.138184 1043.939697,1309.082520 1049.177246,1312.178223 
	C1075.531494,1327.754272 1102.038696,1343.071167 1128.492432,1358.478760 
	C1163.292725,1378.748291 1197.987549,1399.202271 1232.950439,1419.187378 
	C1245.288940,1426.240356 1249.107788,1428.659912 1232.536987,1438.066040 
	C1190.565063,1461.891235 1148.827026,1486.129028 1107.039062,1510.277100 
	C1062.662476,1535.921143 1018.370544,1561.711670 973.980103,1587.331665 
	C900.779480,1629.579956 827.536316,1671.754761 754.293091,1713.929443 
	C742.763550,1720.568604 731.140198,1727.044800 718.747986,1732.916626 
	C717.580444,1725.594360 716.927917,1718.952271 716.916748,1712.308960 
	C716.830505,1661.018188 716.867676,1609.727173 716.867737,1558.436157 
	C716.867798,1399.900513 716.843933,1241.364990 716.955261,1082.829346 
	C716.959900,1076.254517 718.230957,1069.680298 719.548645,1062.857178 
	C788.136536,1023.192810 856.097351,983.793579 924.036743,944.357544 
	C1045.186768,874.035034 1166.323730,803.690430 1288.119873,733.763428 
	C1292.455078,736.267822 1293.192505,739.758301 1293.222656,743.579041 
	C1293.251587,747.242310 1293.291016,750.905640 1293.291138,754.568970 
	C1293.294678,941.742065 1293.294067,1128.915161 1293.297485,1316.088257 
	C1293.297607,1320.417725 1293.042480,1324.776001 1293.459717,1329.067017 
	C1293.771484,1332.273560 1294.976074,1335.393188 1295.434570,1339.008667 
	C1294.021851,1341.087036 1292.957642,1342.708374 1291.893433,1344.329590 
z"/>
<path fill="#4B4C4B" opacity="1.000000" stroke="none" 
	d="
M718.911987,1063.105835 
	C718.230957,1069.680298 716.959900,1076.254517 716.955261,1082.829346 
	C716.843933,1241.364990 716.867798,1399.900513 716.867737,1558.436157 
	C716.867676,1609.727173 716.830505,1661.018188 716.916748,1712.308960 
	C716.927917,1718.952271 717.580444,1725.594360 718.058411,1733.060059 
	C716.717529,1733.954468 715.254028,1734.025879 712.547729,1733.597656 
	C706.177246,1730.732910 701.049622,1728.367798 695.921997,1726.002686 
	C695.921997,1726.002686 696.016418,1725.970703 695.661926,1725.452881 
	C691.513245,1722.630615 687.719055,1720.326294 683.924866,1718.021973 
	C683.924866,1718.021973 684.010071,1717.946289 683.553284,1717.672485 
	C682.048340,1716.946167 681.000183,1716.493652 679.951965,1716.041260 
	C679.951965,1716.041260 680.021118,1716.011963 679.616638,1715.492432 
	C676.121033,1713.331665 673.029968,1711.690430 669.938904,1710.049194 
	C669.938904,1710.049194 669.991150,1709.968384 669.538086,1709.673340 
	C668.035095,1708.921631 666.985229,1708.465210 665.935425,1708.008789 
	C665.935425,1708.008667 666.032104,1707.962402 665.621460,1707.541504 
	C663.449524,1706.080933 661.688293,1705.041260 659.927002,1704.001587 
	C659.927002,1704.001587 660.032959,1703.957764 659.614990,1703.475098 
	C653.443787,1700.011719 647.690491,1697.031128 641.937195,1694.050415 
	C641.937195,1694.050415 642.003235,1693.988647 641.601929,1693.488403 
	C638.113953,1691.342529 635.027222,1689.696777 631.940552,1688.051147 
	C631.940552,1688.051147 632.001465,1687.984009 631.549988,1687.537109 
	C628.705200,1686.057373 626.311829,1685.024292 623.918518,1683.991333 
	C623.918518,1683.991333 624.010986,1683.975586 623.705261,1683.643066 
	C622.951050,1682.822388 622.465149,1682.374878 621.941772,1681.967896 
	C621.941772,1681.967896 622.050232,1681.960815 621.626709,1681.492676 
	C618.114136,1679.365112 615.025085,1677.705566 611.936035,1676.046143 
	C611.936035,1676.046143 611.987793,1675.966553 611.535400,1675.680420 
	C610.042664,1674.946167 609.002319,1674.497803 607.961914,1674.049561 
	C607.961914,1674.049561 608.005188,1673.999512 607.543945,1673.675537 
	C606.033508,1672.902588 604.984375,1672.453735 603.935242,1672.004761 
	C603.935242,1672.004761 604.028687,1671.942871 603.570007,1671.651245 
	C602.053528,1670.911011 600.995728,1670.462402 599.937988,1670.013916 
	C599.937988,1670.013794 600.028503,1669.965942 599.629150,1669.537476 
	C597.479980,1668.101929 595.730042,1667.094849 593.980103,1666.087646 
	C593.980164,1666.087646 593.937500,1666.096680 593.515991,1665.565186 
	C590.701599,1664.020874 588.308716,1663.007935 585.915894,1661.994995 
	C585.915894,1661.994995 586.011230,1661.981445 585.655518,1661.464844 
	C581.509399,1658.639160 577.718933,1656.329956 573.928467,1654.020752 
	C573.928406,1654.020874 574.013123,1653.946411 573.555786,1653.664673 
	C572.044189,1652.926880 570.989929,1652.470825 569.935669,1652.014893 
	C569.935608,1652.014893 570.022217,1651.949585 569.559692,1651.662476 
	C568.043030,1650.916016 566.988892,1650.456543 565.934753,1649.997192 
	C565.934753,1649.997192 566.036011,1649.949585 565.726501,1649.619507 
	C564.974792,1648.801636 564.481750,1648.372314 563.937927,1648.001343 
	C563.937927,1648.001343 564.035400,1647.956543 563.562134,1647.675049 
	C562.043213,1646.941528 560.997620,1646.489502 559.952026,1646.037476 
	C559.952026,1646.037476 560.013428,1645.983398 559.558533,1645.660645 
	C558.047913,1644.895142 556.992188,1644.452148 555.936401,1644.009277 
	C555.936401,1644.009277 556.033325,1643.964111 555.631226,1643.535278 
	C553.461609,1642.077393 551.694153,1641.048340 549.926697,1640.019409 
	C549.926697,1640.019409 550.012146,1639.944580 549.398926,1639.655518 
	C546.928955,1638.898193 545.072205,1638.430054 543.215454,1637.961792 
	C543.215454,1637.961792 542.413757,1637.376099 541.785767,1636.736450 
	C540.084412,1635.400391 539.011108,1634.703857 537.937805,1634.007446 
	C537.937805,1634.007446 538.027649,1633.959595 537.716064,1633.623291 
	C536.967651,1632.796265 536.478943,1632.364502 535.938354,1631.991455 
	C535.938354,1631.991455 536.041809,1631.949829 535.567993,1631.662354 
	C534.039307,1630.917114 532.984497,1630.459351 531.929688,1630.001465 
	C531.929688,1630.001465 532.036072,1629.964111 531.640991,1629.469116 
	C528.144531,1627.333008 525.043152,1625.692017 521.941772,1624.050903 
	C521.941772,1624.050903 521.979919,1623.968140 521.523560,1623.606201 
	C520.357666,1622.818115 519.648071,1622.391846 518.938477,1621.965576 
	C518.938477,1621.965576 519.038574,1621.976562 518.535645,1621.531250 
	C515.997986,1620.062744 513.963379,1619.039551 511.928711,1618.016357 
	C511.928680,1618.016357 512.026367,1617.965576 511.581665,1617.471924 
	C507.122681,1615.307129 503.108429,1613.635986 499.094177,1611.964844 
	C499.094177,1611.964844 498.770874,1611.992920 498.256653,1611.476196 
	C496.471100,1609.976318 495.199768,1608.993164 493.928436,1608.010010 
	C493.928436,1608.010010 494.030640,1607.971802 493.622559,1607.493652 
	C490.128662,1605.367310 487.042786,1603.719116 483.956940,1602.071045 
	C483.956940,1602.071045 483.996338,1602.004883 483.600769,1601.471680 
	C476.779510,1597.298950 470.353821,1593.659424 463.928162,1590.019897 
	C463.928192,1590.019897 464.013062,1589.943237 463.463867,1589.667725 
	C461.248077,1588.924927 459.581482,1588.457764 457.914886,1587.990723 
	C457.914886,1587.990723 458.009338,1587.986328 457.704254,1587.439087 
	C453.575104,1584.602661 449.751068,1582.313477 445.927002,1580.024292 
	C445.927002,1580.024292 446.016815,1579.963135 445.554749,1579.508911 
	C442.528992,1578.016724 439.965302,1576.978882 437.401611,1575.940918 
	C433.438751,1573.612915 429.475891,1571.284912 424.693573,1567.923218 
	C417.154572,1558.591919 407.583832,1555.282227 397.955566,1552.073120 
	C397.955566,1552.073120 397.948639,1552.041138 397.485535,1551.644653 
	C396.326965,1550.822021 395.631470,1550.395752 394.935974,1549.969482 
	C394.936005,1549.969482 395.038849,1549.944702 394.437164,1549.682129 
	C392.548279,1548.962646 391.261078,1548.505859 389.973877,1548.049072 
	C389.973846,1548.049072 389.998779,1548.009766 389.544098,1547.508789 
	C387.039612,1545.999878 384.989838,1544.991821 382.940063,1543.983887 
	C370.631042,1537.436646 358.142487,1531.203247 346.048370,1524.280640 
	C315.441132,1506.761230 285.007965,1488.937744 254.511093,1471.225586 
	C233.795502,1459.194336 213.088654,1447.147827 192.383240,1435.098877 
	C191.234512,1434.430420 190.045959,1433.786255 189.025848,1432.948364 
	C183.274826,1428.224609 183.340668,1423.429077 189.679199,1419.343872 
	C197.226944,1414.479126 205.031143,1410.003418 212.809616,1405.506958 
	C238.449829,1390.685303 264.116180,1375.908691 289.808472,1361.177612 
	C292.973419,1359.362915 296.355377,1357.926880 300.981018,1356.018799 
	C304.226898,1354.458008 306.128571,1353.193848 308.030243,1351.929810 
	C308.030243,1351.929810 308.032379,1352.038818 308.527222,1351.843140 
	C310.017822,1351.076416 311.013641,1350.505249 312.009430,1349.934204 
	C312.009430,1349.934204 312.014923,1350.031738 312.524719,1349.826660 
	C314.027588,1349.059570 315.020691,1348.497803 316.013794,1347.935913 
	C316.013794,1347.935913 315.998138,1348.039429 316.618561,1347.841797 
	C320.166351,1345.737061 323.093719,1343.829956 326.021057,1341.922852 
	C326.021027,1341.922729 326.024872,1342.037720 326.660461,1341.856689 
	C331.539062,1339.091797 335.782074,1336.508179 340.025085,1333.924561 
	C340.025116,1333.924561 340.027008,1334.040771 340.590271,1333.864258 
	C342.773682,1332.432861 344.393829,1331.178223 346.014008,1329.923462 
	C346.014008,1329.923462 346.032959,1330.035278 346.541016,1329.865601 
	C348.039062,1329.107910 349.029083,1328.519775 350.019104,1327.931763 
	C350.019104,1327.931763 350.024353,1328.039062 350.524567,1327.837646 
	C352.009552,1327.069580 352.994324,1326.502930 353.979065,1325.936401 
	C353.979095,1325.936401 354.002930,1326.004150 354.525269,1325.800781 
	C356.044495,1325.044922 357.041382,1324.492432 358.038269,1323.939941 
	C358.038239,1323.939941 358.014862,1324.054810 358.557312,1323.821167 
	C360.736694,1322.366211 362.373596,1321.144897 364.010498,1319.923584 
	C364.010498,1319.923584 364.020844,1320.034424 364.557922,1319.806885 
	C366.740204,1318.363281 368.385406,1317.147095 370.030579,1315.930908 
	C370.030579,1315.930908 370.032654,1316.044312 370.535675,1315.860718 
	C372.033783,1315.096069 373.028870,1314.514893 374.023987,1313.933716 
	C374.023956,1313.933716 374.026367,1314.043335 374.520203,1313.826904 
	C376.006195,1313.052856 376.998322,1312.495361 377.990479,1311.937988 
	C377.990479,1311.937988 377.993103,1312.016235 378.524628,1311.830811 
	C380.045105,1311.074463 381.034058,1310.503540 382.022949,1309.932617 
	C382.022949,1309.932495 382.005615,1310.040771 382.731720,1309.852051 
	C386.602478,1309.117554 389.747131,1308.571899 392.891785,1308.026123 
	C392.891785,1308.026123 393.637299,1308.591309 394.359955,1309.266479 
	C396.416382,1310.639526 397.750122,1311.337524 399.083862,1312.035522 
	C399.083862,1312.035522 399.178009,1311.936401 399.706543,1312.434814 
	C402.182373,1313.957397 404.129669,1314.981567 406.076904,1316.005737 
	C406.076904,1316.005737 405.980377,1316.038452 406.284912,1316.368408 
	C407.037689,1317.184326 407.529388,1317.621338 408.064545,1318.009399 
	C408.064545,1318.009399 407.958649,1318.051636 408.438171,1318.325928 
	C409.968842,1319.069214 411.020020,1319.538208 412.071198,1320.007324 
	C412.071198,1320.007324 411.961945,1320.043457 412.362793,1320.466064 
	C414.535004,1321.927124 416.306366,1322.965698 418.077698,1324.004395 
	C418.077698,1324.004395 417.980804,1324.054932 418.565186,1324.347290 
	C420.456604,1325.095825 421.763672,1325.552124 423.070740,1326.008423 
	C434.475067,1331.983765 446.069244,1337.626831 457.242126,1344.007446 
	C477.334381,1355.481812 497.178680,1367.390625 517.109009,1379.147705 
	C518.521973,1379.981201 519.791748,1381.057495 521.932007,1383.089478 
	C525.848938,1386.101318 528.961853,1388.044556 532.074707,1389.987793 
	C532.074707,1389.987793 531.978333,1390.050903 532.474243,1390.418701 
	C535.339966,1391.860229 537.709778,1392.934082 540.079529,1394.007935 
	C540.079529,1394.007935 539.988708,1394.041260 540.452759,1394.310547 
	C541.967285,1395.056519 543.017822,1395.533203 544.068359,1396.009888 
	C544.068359,1396.009888 543.960510,1396.035278 544.294312,1396.573486 
	C549.775940,1400.066284 554.923767,1403.020752 560.071533,1405.975098 
	C560.071533,1405.975220 559.981140,1406.031860 560.397888,1406.498291 
	C563.901062,1408.637451 566.987549,1410.309937 570.074036,1411.982422 
	C570.074036,1411.982422 569.987000,1412.057373 570.449951,1412.322144 
	C571.959961,1413.049072 573.007080,1413.511108 574.054199,1413.973145 
	C574.054199,1413.973145 573.989075,1414.038452 574.463501,1414.392334 
	C575.646057,1415.176392 576.354187,1415.606567 577.062378,1416.036743 
	C577.062378,1416.036743 576.971741,1415.997803 577.510132,1416.427490 
	C580.064758,1417.907837 582.080933,1418.958496 584.097046,1420.009033 
	C584.097107,1420.009033 583.992920,1420.022827 584.448547,1420.296143 
	C585.958557,1421.049438 587.012939,1421.529175 588.067322,1422.009033 
	C588.067322,1422.009033 587.970154,1422.056885 588.434937,1422.335693 
	C589.955383,1423.079224 591.010986,1423.543823 592.066589,1424.008423 
	C592.066589,1424.008423 591.963562,1424.042603 592.393799,1424.488037 
	C595.211487,1425.898193 597.598877,1426.862793 600.634277,1427.627319 
	C605.051758,1426.296387 607.533203,1424.010498 608.008545,1419.925903 
	C608.008545,1419.925903 608.034485,1420.017578 608.518372,1419.496826 
	C609.967407,1413.539917 611.762329,1408.105225 611.773682,1402.666992 
	C611.950745,1317.945190 611.899536,1233.222900 611.887512,1148.500732 
	C611.887024,1145.179810 612.387512,1141.683350 611.531738,1138.578003 
	C610.158630,1133.595215 607.845947,1128.871216 605.930298,1124.037842 
	C605.930359,1124.037842 605.959045,1123.990234 605.501709,1123.612061 
	C604.352356,1122.808838 603.660461,1122.383667 602.968567,1121.958496 
	C602.968567,1121.958496 602.310059,1121.377930 601.821899,1120.554443 
	C599.867981,1118.481812 598.402161,1117.232666 596.936340,1115.983643 
	C583.737854,1108.930298 570.372498,1102.169556 557.376404,1094.761108 
	C531.920715,1080.249878 506.668243,1065.382202 481.336609,1050.653442 
	C459.177338,1037.769287 437.024963,1024.873413 414.072144,1010.955994 
	C411.492188,1008.621399 409.709656,1007.313477 407.927094,1006.005554 
	C407.927094,1006.005554 408.024872,1005.943787 407.566162,1005.668091 
	C406.061676,1004.949219 405.015869,1004.506042 403.970062,1004.062866 
	C403.970062,1004.062866 403.985382,1004.017090 403.603455,1003.472839 
	C398.049225,997.065735 391.166687,994.226868 383.928436,992.016968 
	C383.928436,992.016968 384.015808,991.944641 383.560425,991.675049 
	C382.066650,990.961914 381.028259,990.518372 379.989838,990.074890 
	C379.989838,990.074890 379.956757,990.078125 379.511780,989.702637 
	C378.024780,988.890503 376.982758,988.453918 375.940735,988.017334 
	C375.940765,988.017273 376.032379,987.974426 375.597595,987.506714 
	C372.756958,986.039734 370.351044,985.040466 367.945160,984.041138 
	C367.945160,984.041138 367.999939,983.976746 367.721741,983.627319 
	C367.024414,982.787048 366.533539,982.383362 365.970947,982.066833 
	C365.970947,982.066833 365.979126,982.029480 365.516052,981.700439 
	C364.025330,980.933655 362.997711,980.496033 361.970062,980.058411 
	C361.970062,980.058411 362.000000,980.000000 361.543243,979.671326 
	C360.043304,978.907227 359.000092,978.471802 357.956879,978.036377 
	C357.956879,978.036377 358.025879,978.004700 357.555969,977.495789 
	C346.516357,972.371338 341.108643,975.337402 340.094940,986.353271 
	C339.912231,988.338562 339.885529,990.343750 339.886566,992.339722 
	C339.925903,1069.241699 339.976898,1146.143799 340.026337,1223.045776 
	C340.026337,1223.045776 340.042908,1222.940308 339.473114,1223.379639 
	C336.586792,1226.229004 334.270264,1228.638794 331.953735,1231.048706 
	C327.008118,1234.423218 322.251556,1238.123413 317.086884,1241.120483 
	C277.608093,1264.030396 238.039734,1286.786011 198.521057,1309.627441 
	C182.943451,1318.631226 167.462067,1327.802124 151.845734,1336.737671 
	C147.925217,1338.980835 143.653366,1340.610107 138.493958,1343.009155 
	C137.500687,1339.328735 136.485199,1336.930542 136.271408,1334.462891 
	C135.927200,1330.490112 136.078384,1326.471313 136.078278,1322.472046 
	C136.072784,1132.145264 136.067566,941.818542 136.098465,751.491821 
	C136.099548,744.832153 136.467392,738.172424 136.761871,730.616882 
	C136.859421,729.721008 136.740005,729.752869 137.450531,730.029175 
	C139.928848,731.234802 141.733109,732.101257 143.459091,733.102600 
	C199.369888,765.541626 255.245850,798.040771 311.185089,830.430664 
	C370.586517,864.825256 430.066772,899.083679 489.476624,933.463806 
	C560.709534,974.685913 631.877197,1016.021118 703.176819,1057.127563 
	C707.975708,1059.894165 713.646606,1061.148315 718.911987,1063.105835 
z"/>
<path fill="#7F7F7F" opacity="1.000000" stroke="none" 
	d="
M719.548645,1062.857178 
	C713.646606,1061.148315 707.975708,1059.894165 703.176819,1057.127563 
	C631.877197,1016.021118 560.709534,974.685913 489.476624,933.463806 
	C430.066772,899.083679 370.586517,864.825256 311.185089,830.430664 
	C255.245850,798.040771 199.369888,765.541626 143.459091,733.102600 
	C141.733109,732.101257 139.928848,731.234802 137.996124,729.529419 
	C141.219727,726.726318 144.631149,724.736267 147.992523,722.665039 
	C158.044571,716.471497 168.077087,710.246155 178.117218,704.033203 
	C178.117218,704.033203 177.995926,703.985168 178.493774,703.875549 
	C179.371109,703.178772 179.750610,702.591675 180.130127,702.004517 
	C180.130127,702.004517 179.989395,701.982971 180.597992,702.012451 
	C182.179520,701.371765 183.152481,700.701599 184.125427,700.031433 
	C184.125443,700.031433 183.998047,700.009949 184.741806,700.030151 
	C190.218826,697.693115 195.079468,695.559265 199.665192,692.943359 
	C236.239746,672.080505 272.813660,651.215332 309.262421,630.134094 
	C317.795410,625.198792 325.850098,619.436523 334.124847,614.054749 
	C334.124847,614.054749 334.006653,613.991699 334.591858,614.002258 
	C336.156891,613.342896 337.136719,612.672974 338.116547,612.003052 
	C338.116547,612.003052 337.982971,611.971497 338.470642,611.847046 
	C339.347107,611.144775 339.735931,610.566956 340.124756,609.989197 
	C340.124786,609.989197 339.984161,610.003967 340.752502,610.079285 
	C344.537842,608.891541 347.717499,607.915833 350.544098,606.316284 
	C363.777496,598.827698 376.948944,591.227722 390.075165,583.552368 
	C405.469788,574.550598 420.794800,565.429749 436.845703,556.173523 
	C448.281250,550.012878 459.086639,544.152100 469.711853,537.981079 
	C472.167847,536.554688 474.007660,534.067444 476.130981,532.068359 
	C476.130981,532.068359 476.016968,532.021240 476.772400,532.090942 
	C479.089020,531.680603 480.805847,531.471863 482.187805,530.679321 
	C499.347046,520.838745 516.487183,510.963593 533.537659,500.936584 
	C535.369751,499.859192 536.607849,497.771698 538.121460,496.152740 
	C538.121460,496.152740 538.005249,496.135193 538.449768,496.478760 
	C539.232727,496.810272 539.571106,496.798187 540.609497,496.528381 
	C547.436707,492.939575 553.701538,489.833984 559.649048,486.207947 
	C564.667419,483.148315 569.317688,479.484741 574.130920,476.088501 
	C574.130920,476.088531 574.025513,476.033600 574.768372,476.087219 
	C576.756104,475.684540 578.095703,475.394470 579.231934,474.747375 
	C605.239502,459.935516 631.252686,445.132812 657.169922,430.164001 
	C659.651489,428.730774 661.509033,426.217133 663.656250,424.205017 
	C664.966797,424.219849 666.277283,424.234711 668.399658,424.623047 
	C669.363831,425.301666 669.516174,425.606781 669.551270,426.848877 
	C669.373352,432.114105 669.260498,436.442383 669.259705,440.770630 
	C669.247131,509.042725 669.252502,577.314819 669.241150,645.586914 
	C669.240234,651.232422 669.721069,656.994019 665.264526,662.100220 
	C659.941040,664.877441 655.257629,667.373535 650.652588,670.006714 
	C621.302551,686.789429 591.895203,703.474365 562.680481,720.489807 
	C554.770386,725.096863 547.459961,730.733582 539.874329,735.897705 
	C539.874329,735.897705 539.979980,735.948303 539.489624,735.765259 
	C538.669067,735.631226 538.338867,735.680176 537.405273,735.923645 
	C535.160706,737.398071 533.519470,738.677917 531.878235,739.957764 
	C531.878235,739.957764 531.997986,739.996094 531.297852,740.067627 
	C523.687317,744.716248 516.776978,749.293274 509.866669,753.870239 
	C509.866669,753.870239 509.960297,753.942993 509.219727,753.743408 
	C504.278534,756.313232 500.077911,759.082703 495.877258,761.852173 
	C495.877258,761.852112 495.969940,761.966919 495.203918,761.769653 
	C486.966553,765.755310 479.495148,769.938354 471.372559,774.376648 
	C467.094330,776.762390 463.101837,778.455750 459.919006,781.117249 
	C453.924835,786.129822 454.888123,791.970581 461.915039,796.151367 
	C461.915039,796.151367 461.986053,796.050537 462.175659,796.699280 
	C464.779633,799.075073 467.068665,801.019287 469.627136,802.496826 
	C511.344818,826.589233 553.081970,850.648071 594.873474,874.612000 
	C597.665222,876.212830 600.927124,876.993713 603.970337,878.156006 
	C603.970337,878.156006 603.971863,878.039490 604.152222,878.675781 
	C606.883057,880.898987 609.433533,882.485901 612.536743,884.498535 
	C614.398132,885.328857 615.706787,885.733398 617.015503,886.138000 
	C617.015503,886.138000 616.991211,886.010620 617.297363,886.654907 
	C627.553040,893.262207 637.407349,899.392273 647.482422,905.135071 
	C655.515198,909.713745 663.817261,913.820129 671.999756,918.136169 
	C671.999756,918.136169 671.996887,918.009644 672.331604,918.578125 
	C678.454895,922.464783 684.243530,925.782898 690.032104,929.100952 
	C690.032104,929.100952 690.651001,929.832214 691.470337,930.257202 
	C693.530884,931.164673 694.772156,931.647156 696.013428,932.129639 
	C696.013428,932.129639 696.000793,931.999756 696.336426,932.565918 
	C699.123962,934.134094 701.575928,935.136047 704.027893,936.138000 
	C704.027893,936.138000 703.993225,936.005981 704.217529,936.645264 
	C714.399231,945.058105 724.630920,943.982361 734.089539,934.339355 
	C735.085266,934.120239 736.080994,933.901123 738.201416,933.140137 
	C742.578796,930.485657 745.831421,928.373169 749.750793,926.135376 
	C758.165710,921.760742 766.035156,917.714417 773.615662,913.184631 
	C778.025574,910.549377 781.972107,907.138611 786.127197,904.076843 
	C786.127197,904.076843 786.016724,904.027039 786.713135,904.122009 
	C789.829895,902.892212 792.250244,901.567444 795.328491,900.042236 
	C798.632507,898.448975 801.330017,897.145203 803.916931,895.650146 
	C848.238281,870.036499 892.545715,844.398621 936.856873,818.767273 
	C948.651733,811.944763 960.614075,805.392395 972.187012,798.212280 
	C979.981689,793.376221 980.279785,785.952881 973.197388,780.307434 
	C969.868469,777.653931 965.799744,775.928589 961.568481,773.341064 
	C951.689331,767.354248 942.361938,761.714905 932.908752,756.295166 
	C926.017578,752.344238 918.960388,748.682861 911.977234,744.892395 
	C911.977234,744.892395 911.460266,744.133057 910.471436,743.930298 
	C908.971191,743.783142 908.459717,743.838806 907.948242,743.894470 
	C907.948242,743.894470 908.047729,744.007080 908.089966,743.498901 
	C907.862244,742.411987 907.439453,741.984314 906.358154,741.221924 
	C897.540466,735.893860 889.305237,730.912231 880.879211,726.277405 
	C877.480103,724.407776 873.663574,723.297119 870.036987,721.841003 
	C870.036987,721.841003 870.026733,721.957092 869.831299,721.306519 
	C859.093445,714.424072 848.551025,708.192322 837.507690,701.509888 
	C827.347839,695.985901 817.688782,690.912537 808.029785,685.839233 
	C808.029785,685.839233 808.029053,685.958923 807.855225,685.301392 
	C801.531311,680.759705 795.370239,676.892883 789.234192,672.986877 
	C781.432251,668.020508 773.650574,663.022400 765.936523,657.100891 
	C766.042114,581.106018 766.073303,506.048279 766.088074,430.990509 
	C766.088379,429.334045 765.900879,427.677490 765.972961,425.552673 
	C766.145020,425.084320 766.406250,424.121216 766.406250,424.121216 
	C767.302429,424.168091 768.198547,424.214966 770.103760,424.742493 
	C787.411011,434.820312 803.705078,444.424561 820.026306,453.982330 
	C820.537598,454.281738 821.329651,454.101593 821.990845,454.145020 
	C821.990845,454.145020 821.975525,454.026428 822.116821,454.536407 
	C822.837769,455.402588 823.417297,455.758820 824.481689,456.223999 
	C824.966553,456.332977 825.946716,456.168488 825.946716,456.168488 
	C825.946716,456.168488 825.996948,456.064270 826.235474,456.685669 
	C827.315918,457.582672 828.157776,457.858276 828.999695,458.133850 
	C828.999695,458.133850 828.964966,458.019348 829.227783,458.704803 
	C839.660583,464.975372 849.830627,470.560486 860.000610,476.145630 
	C860.000610,476.145630 859.987549,476.019135 860.214355,476.643951 
	C870.360413,483.253754 880.199402,489.378357 890.241211,495.150146 
	C893.897705,497.251801 898.037231,498.512939 901.956421,500.157562 
	C901.956421,500.157562 902.000244,500.045685 902.265442,500.637512 
	C903.359009,501.527557 904.187378,501.825775 905.015747,502.124023 
	C905.015747,502.124023 904.998352,502.000275 905.461670,502.653137 
	C906.958679,503.577881 907.992310,503.849762 909.026001,504.121643 
	C909.026001,504.121643 909.001587,503.992218 909.283752,504.583923 
	C910.377258,505.492035 911.188538,505.808441 911.999878,506.124878 
	C911.999878,506.124878 911.992798,505.996918 912.092102,506.531616 
	C912.804077,507.416687 913.416748,507.767120 914.029480,508.117554 
	C914.029480,508.117523 913.997559,507.990967 914.291260,508.528259 
	C916.382385,510.064819 918.179688,511.064087 920.473572,512.515503 
	C931.989807,519.255554 943.009460,525.543457 954.575073,532.251892 
	C958.072205,533.835266 961.023376,534.997986 963.974609,536.160767 
	C963.974609,536.160767 963.974304,536.042419 964.175171,536.687378 
	C971.892822,542.005493 979.283813,546.900024 986.972717,551.270447 
	C991.737366,553.978638 996.954407,555.890930 1001.968384,558.160522 
	C1001.968384,558.160522 1001.968445,558.043152 1002.140625,558.714233 
	C1003.446777,560.582458 1004.372375,562.155640 1005.747437,562.917603 
	C1017.011047,569.158997 1028.358398,575.249146 1040.147095,581.792603 
	C1060.828369,594.201355 1080.981323,606.308533 1101.284790,618.157349 
	C1110.711060,623.658325 1120.430420,628.657043 1130.654785,634.084717 
	C1132.173462,634.245972 1133.054077,634.205933 1133.934692,634.165894 
	C1133.934692,634.165955 1133.947388,634.036316 1134.037354,634.749878 
	C1137.804077,638.224304 1141.244141,641.393494 1145.194946,643.681152 
	C1174.672852,660.749878 1204.252075,677.643982 1234.251221,695.074219 
	C1249.139648,703.565125 1263.576416,711.574707 1278.564453,719.938049 
	C1280.733032,720.912354 1282.350098,721.532898 1283.967285,722.153381 
	C1283.967285,722.153381 1283.963013,722.036438 1284.136230,722.651550 
	C1288.013306,725.799805 1290.112671,728.834900 1287.466187,733.354980 
	C1166.323730,803.690430 1045.186768,874.035034 924.036743,944.357544 
	C856.097351,983.793579 788.136536,1023.192810 719.548645,1062.857178 
z"/>
<path fill="#010101" opacity="1.000000" stroke="none" 
	d="
M1765.969727,1187.349976 
	C1777.854858,1217.317139 1800.222900,1232.755615 1830.208130,1239.519165 
	C1848.429565,1243.629272 1866.832764,1243.994385 1884.826172,1241.676636 
	C1922.989258,1236.761108 1956.285400,1215.938354 1965.417236,1169.088501 
	C1967.541016,1158.192505 1968.479492,1147.437622 1968.468384,1136.393188 
	C1968.349121,1017.737244 1968.392334,899.081055 1968.403442,780.424927 
	C1968.405151,762.849426 1968.645996,762.632385 1986.384766,762.630005 
	C2028.714355,762.624207 2071.043945,762.626831 2113.373535,762.627136 
	C2115.373291,762.627197 2117.377441,762.554260 2119.372070,762.658691 
	C2126.956055,763.055908 2128.824463,764.806091 2129.265137,772.122742 
	C2129.445068,775.112244 2129.327881,778.120361 2129.327881,781.119995 
	C2129.329834,896.443054 2129.235352,1011.766296 2129.408936,1127.089111 
	C2129.443848,1150.127441 2128.118408,1173.013428 2123.666016,1195.587891 
	C2110.194092,1263.893677 2072.732910,1313.784668 2009.211914,1343.453003 
	C1983.351318,1355.531738 1956.119263,1362.261597 1927.893555,1366.156250 
	C1903.084351,1369.579590 1878.189941,1371.395508 1853.275513,1370.876221 
	C1815.963745,1370.098511 1778.765869,1366.778564 1743.096802,1354.752930 
	C1705.193970,1341.974243 1671.864014,1321.937378 1646.120117,1290.552246 
	C1631.147217,1272.298218 1620.436523,1251.779419 1612.539673,1229.629395 
	C1605.688232,1210.411865 1601.952881,1190.498291 1599.135620,1170.411011 
	C1598.171265,1163.534302 1598.625000,1156.443359 1598.620605,1149.450073 
	C1598.543701,1026.461304 1598.491333,903.472595 1598.447632,780.483826 
	C1598.441284,762.619385 1598.474609,762.624390 1616.035767,762.625977 
	C1657.698730,762.629700 1699.361694,762.626526 1741.024658,762.632690 
	C1744.023926,762.633118 1747.023315,762.709473 1750.022583,762.709656 
	C1755.324585,762.710083 1758.050537,765.565308 1758.405029,770.629944 
	C1758.706909,774.945435 1758.706177,779.287598 1758.706787,783.617920 
	C1758.721313,895.607971 1758.694458,1007.598083 1758.751709,1119.588135 
	C1758.758179,1132.246826 1759.405273,1144.905029 1759.414185,1157.563721 
	C1759.421387,1167.753540 1762.494141,1177.182739 1765.969727,1187.349976 
z"/>
<path fill="#010101" opacity="1.000000" stroke="none" 
	d="
M2546.424316,907.699219 
	C2571.615967,918.742981 2591.079590,935.664734 2605.788818,957.711487 
	C2618.614258,976.934998 2627.314941,998.025391 2631.883301,1020.908691 
	C2635.762939,1040.343750 2636.406250,1059.871094 2636.399658,1079.536865 
	C2636.369629,1168.533447 2636.388428,1257.529907 2636.426514,1346.526489 
	C2636.433105,1362.140381 2636.514648,1362.291016 2621.132080,1362.322144 
	C2581.804932,1362.401855 2542.477783,1362.406738 2503.150879,1362.289917 
	C2487.249512,1362.242676 2487.114746,1361.982910 2487.110107,1345.940552 
	C2487.086426,1263.277100 2487.082764,1180.613525 2487.101074,1097.950073 
	C2487.104736,1081.743530 2484.312988,1066.156128 2476.992676,1051.577026 
	C2468.121582,1033.908936 2453.454590,1023.631348 2434.328125,1020.409241 
	C2387.805176,1012.571777 2357.768555,1040.026978 2346.947021,1077.927490 
	C2343.521484,1089.924805 2342.603516,1102.073975 2342.624512,1114.477661 
	C2342.755615,1191.474487 2342.701172,1268.471558 2342.708008,1345.468628 
	C2342.708008,1346.468628 2342.714600,1347.468628 2342.699463,1348.468506 
	C2342.512207,1360.885986 2341.442871,1362.216553 2328.857910,1362.251953 
	C2287.865234,1362.367188 2246.871826,1362.336182 2205.878906,1362.222778 
	C2193.062744,1362.187256 2192.381104,1361.390381 2192.378174,1348.401978 
	C2192.350342,1223.406738 2192.358154,1098.411499 2192.357422,973.416260 
	C2192.357422,954.750305 2192.291992,936.083984 2192.396484,917.418579 
	C2192.458984,906.214050 2194.022217,904.589600 2205.115967,904.568298 
	C2245.781006,904.490417 2286.446289,904.489685 2327.111328,904.562134 
	C2338.112305,904.581726 2339.195312,905.743713 2339.293213,916.685974 
	C2339.397217,928.351318 2339.278076,940.018555 2339.359375,951.684265 
	C2339.381592,954.845398 2339.774902,958.004089 2340.144043,963.234802 
	C2396.405029,894.118042 2465.087646,877.975830 2546.424316,907.699219 
z"/>
<path fill="#010101" opacity="1.000000" stroke="none" 
	d="
M3358.516602,1387.407227 
	C3374.043945,1379.563232 3380.692627,1367.708130 3380.963623,1350.890869 
	C3381.295410,1330.298218 3374.841309,1311.563232 3367.773193,1292.911865 
	C3349.746826,1245.343018 3331.368896,1197.907593 3313.137451,1150.416504 
	C3296.446289,1106.938354 3279.826660,1063.432495 3263.054932,1019.985596 
	C3250.241699,986.794495 3237.219727,953.684204 3224.333496,920.521301 
	C3219.878662,909.057007 3220.919189,907.510559 3233.646973,907.457825 
	C3259.638184,907.350037 3285.630371,907.408936 3311.622070,907.408325 
	C3328.949951,907.407898 3346.278320,907.330322 3363.605225,907.467041 
	C3373.710938,907.546692 3374.932861,908.500610 3377.850830,917.900024 
	C3389.084229,954.084045 3400.175781,990.312195 3411.463623,1026.479126 
	C3420.080811,1054.089966 3429.309570,1081.515991 3437.530762,1109.242188 
	C3444.611084,1133.121704 3450.636475,1157.313843 3457.171387,1181.356079 
	C3458.172852,1185.040771 3459.407471,1188.662231 3462.445557,1192.276367 
	C3463.329346,1190.344727 3464.600342,1188.496826 3465.039307,1186.468994 
	C3472.504639,1151.976929 3482.303467,1118.162354 3493.140137,1084.575684 
	C3507.228760,1040.908691 3520.295166,996.912292 3533.852783,953.073486 
	C3537.483887,941.332825 3541.230713,929.626770 3545.054443,917.947327 
	C3548.180176,908.400024 3549.313965,907.465454 3559.314453,907.446655 
	C3600.301514,907.369446 3641.288330,907.387573 3682.275391,907.475525 
	C3685.835693,907.483154 3689.394531,908.258057 3693.021729,908.684509 
	C3695.225586,915.020081 3694.038086,920.542969 3692.219238,925.866760 
	C3676.635742,971.476135 3660.883789,1017.027893 3645.309326,1062.640381 
	C3628.551514,1111.717529 3612.043457,1160.880127 3595.216797,1209.933472 
	C3580.549316,1252.691895 3565.101807,1295.188843 3550.937500,1338.111084 
	C3542.064941,1364.998291 3533.276367,1391.876587 3521.025879,1417.416992 
	C3506.387207,1447.936768 3487.160400,1474.606079 3456.707031,1491.668823 
	C3441.299316,1500.301514 3424.791260,1505.332153 3407.532959,1507.246826 
	C3367.391846,1511.699829 3327.058105,1511.135010 3286.754883,1510.172363 
	C3275.863037,1509.912109 3274.922363,1508.827637 3274.660645,1497.780029 
	C3273.927246,1466.822144 3273.226074,1435.861816 3272.837402,1404.898438 
	C3272.708740,1394.663330 3274.072266,1393.702026 3284.474121,1393.456665 
	C3300.455566,1393.079712 3316.467773,1393.267456 3332.410400,1392.290527 
	C3340.935547,1391.768066 3349.342285,1389.309448 3358.516602,1387.407227 
z"/>
<path fill="#010101" opacity="1.000000" stroke="none" 
	d="
M3187.064209,1282.030884 
	C3187.061768,1304.350830 3187.112549,1325.677734 3187.036621,1347.004028 
	C3186.994141,1358.944946 3185.461914,1360.470947 3173.374512,1361.885620 
	C3155.557617,1363.970703 3137.793213,1367.241577 3119.922852,1367.979980 
	C3085.108643,1369.418091 3050.467041,1367.057007 3018.602051,1351.123779 
	C2987.466797,1335.555298 2970.909912,1309.043457 2964.373535,1275.306030 
	C2960.850830,1257.124146 2960.907715,1238.887817 2960.900391,1220.577637 
	C2960.876953,1161.262817 2960.900146,1101.947998 2960.845703,1042.633179 
	C2960.841553,1038.066772 2960.373291,1033.500977 2960.077148,1028.142334 
	C2955.801514,1027.746582 2952.257080,1027.172119 2948.707031,1027.134766 
	C2936.711914,1027.008667 2924.714111,1027.163940 2912.718994,1027.034912 
	C2903.629150,1026.937256 2901.694092,1025.451050 2901.645752,1016.840576 
	C2901.454834,982.852356 2901.471924,948.862122 2901.636230,914.873657 
	C2901.674805,906.856567 2903.888184,904.783447 2911.848389,904.627808 
	C2924.506592,904.380249 2937.173828,904.624023 2949.834229,904.445618 
	C2960.295410,904.298279 2961.082031,903.567078 2961.113770,892.833130 
	C2961.222168,856.178223 2961.168457,819.522888 2961.177246,782.867676 
	C2961.177979,780.201843 2961.118652,777.534241 2961.193359,774.870483 
	C2961.487549,764.362122 2963.009521,762.695801 2973.543213,762.671143 
	C3010.198486,762.585266 3046.853516,762.630005 3083.508789,762.632019 
	C3087.840332,762.632263 3092.186523,762.457458 3096.500000,762.748596 
	C3103.090820,763.193420 3104.432129,764.640198 3104.935791,771.358826 
	C3105.159668,774.343140 3105.059814,777.353638 3105.060303,780.352295 
	C3105.067383,815.674622 3105.065430,850.996887 3105.066650,886.319214 
	C3105.066650,888.318604 3105.050781,890.318298 3105.083496,892.317261 
	C3105.275146,904.074585 3105.551270,904.429993 3117.756592,904.486694 
	C3136.750488,904.574890 3155.744873,904.458374 3174.738525,904.553955 
	C3185.499268,904.608093 3186.961182,905.928101 3186.999756,916.619385 
	C3187.118896,949.608582 3187.117432,982.598755 3186.999756,1015.587952 
	C3186.964600,1025.490356 3185.152344,1027.082642 3175.115234,1027.107300 
	C3155.454834,1027.155640 3135.793701,1027.019531 3116.134033,1027.138916 
	C3105.883057,1027.201172 3105.145508,1027.852417 3105.132568,1037.819092 
	C3105.057617,1096.134155 3104.995605,1154.449585 3105.276855,1212.763428 
	C3105.306641,1218.944702 3106.755371,1225.445679 3109.024902,1231.217041 
	C3112.900146,1241.071411 3120.377930,1246.821777 3131.189697,1249.223633 
	C3145.719727,1252.451538 3160.300293,1251.901733 3174.924316,1252.076782 
	C3185.984863,1252.209351 3186.836426,1253.039185 3187.033936,1264.044067 
	C3187.135254,1269.706909 3187.059814,1275.372925 3187.064209,1282.030884 
z"/>
<path fill="#010101" opacity="1.000000" stroke="none" 
	d="
M2704.942383,1337.838501 
	C2704.942383,1199.255249 2704.939453,1061.644287 2704.944336,924.033325 
	C2704.945068,904.532410 2704.963135,904.519104 2724.187012,904.514282 
	C2761.838379,904.504822 2799.489990,904.511108 2837.141357,904.513123 
	C2839.473633,904.513245 2841.809326,904.458984 2844.137939,904.557678 
	C2853.086670,904.937012 2854.937988,906.866272 2855.296631,916.140747 
	C2855.373779,918.137329 2855.335449,920.138672 2855.335449,922.137817 
	C2855.336670,1062.414307 2855.341553,1202.690918 2855.330566,1342.967407 
	C2855.329346,1359.574097 2855.017090,1359.816162 2838.613037,1359.806274 
	C2799.961914,1359.783081 2761.311035,1359.795288 2722.659912,1359.786987 
	C2719.661865,1359.786377 2716.663574,1359.718018 2713.665527,1359.715576 
	C2708.366943,1359.711060 2705.639160,1356.756592 2705.208984,1351.794800 
	C2704.835938,1347.491455 2705.009766,1343.140625 2704.942383,1337.838501 
z"/>
<path fill="#030303" opacity="1.000000" stroke="none" 
	d="
M2855.369629,792.000244 
	C2855.367432,807.332642 2855.424561,821.665344 2855.346436,835.997253 
	C2855.278320,848.544312 2854.313721,849.471130 2841.399658,849.481567 
	C2800.402588,849.514648 2759.405518,849.521118 2718.408447,849.488831 
	C2706.317871,849.479309 2704.952148,848.200378 2704.930176,836.512573 
	C2704.870605,804.514893 2704.860596,772.516846 2704.948730,740.519287 
	C2704.981934,728.402771 2706.765869,726.663574 2718.921631,726.647827 
	C2759.918701,726.594849 2800.916016,726.588074 2841.913086,726.660583 
	C2853.604492,726.681274 2855.262451,728.372986 2855.333252,740.003784 
	C2855.436768,757.002075 2855.366455,774.001343 2855.369629,792.000244 
z"/>
<path fill="#3B3B3B" opacity="1.000000" stroke="none" 
	d="
M1288.119873,733.763428 
	C1290.112671,728.834900 1288.013306,725.799805 1284.087036,722.683105 
	C1287.592163,723.416870 1291.319946,724.734131 1295.517578,727.487732 
	C1295.990112,926.137634 1295.994385,1123.351318 1295.986084,1320.564941 
	C1295.985840,1326.560425 1295.853638,1332.556030 1295.783203,1338.551514 
	C1294.976074,1335.393188 1293.771484,1332.273560 1293.459717,1329.067017 
	C1293.042480,1324.776001 1293.297607,1320.417725 1293.297485,1316.088257 
	C1293.294067,1128.915161 1293.294678,941.742065 1293.291138,754.568970 
	C1293.291016,750.905640 1293.251587,747.242310 1293.222656,743.579041 
	C1293.192505,739.758301 1292.455078,736.267822 1288.119873,733.763428 
z"/>
<path fill="#282828" opacity="1.000000" stroke="none" 
	d="
M1295.434570,1339.008667 
	C1295.853638,1332.556030 1295.985840,1326.560425 1295.986084,1320.564941 
	C1295.994385,1123.351318 1295.990112,926.137634 1296.009766,727.907043 
	C1296.775269,731.759155 1298.130737,736.624207 1298.162476,741.497925 
	C1298.362305,772.138977 1298.270142,802.781921 1298.270264,833.424255 
	C1298.270874,997.294128 1298.271118,1161.163940 1298.263672,1325.033813 
	C1298.263550,1329.029907 1298.255127,1333.029175 1298.098511,1337.020996 
	C1297.963135,1340.470825 1297.430176,1343.790771 1292.499756,1344.419922 
	C1292.957642,1342.708374 1294.021851,1341.087036 1295.434570,1339.008667 
z"/>
<path fill="#333934" opacity="1.000000" stroke="none" 
	d="
M605.906982,1124.882080 
	C607.845947,1128.871216 610.158630,1133.595215 611.531738,1138.578003 
	C612.387512,1141.683350 611.887024,1145.179810 611.887512,1148.500732 
	C611.899536,1233.222900 611.950745,1317.945190 611.773682,1402.666992 
	C611.762329,1408.105225 609.967407,1413.539917 608.472473,1419.509888 
	C607.940674,1329.192993 607.985291,1238.342285 607.847839,1147.491943 
	C607.836853,1140.235840 606.567993,1132.981445 605.906982,1124.882080 
z"/>
<path fill="#3C433C" opacity="1.000000" stroke="none" 
	d="
M962.066284,773.782654 
	C965.799744,775.928589 969.868469,777.653931 973.197388,780.307434 
	C980.279785,785.952881 979.981689,793.376221 972.187012,798.212280 
	C960.614075,805.392395 948.651733,811.944763 936.856873,818.767273 
	C892.545715,844.398621 848.238281,870.036499 803.916931,895.650146 
	C801.330017,897.145203 798.632507,898.448975 794.631958,899.971924 
	C792.813416,900.056824 792.349426,900.011536 791.885498,899.966309 
	C797.328857,896.191528 802.542236,892.020386 808.252930,888.706177 
	C845.658142,866.998108 883.171509,845.476562 920.648010,823.891357 
	C935.060364,815.590271 949.473755,807.290771 963.873108,798.967224 
	C965.888733,797.802124 967.971863,796.682739 969.772766,795.231018 
	C974.508484,791.413635 974.635376,786.737976 970.043701,782.579773 
	C967.836548,780.580994 965.247803,779.003601 962.406311,776.135376 
	C962.009216,774.617859 962.037720,774.200256 962.066284,773.782654 
z"/>
<path fill="#3C433C" opacity="1.000000" stroke="none" 
	d="
M333.398254,614.140198 
	C325.850098,619.436523 317.795410,625.198792 309.262421,630.134094 
	C272.813660,651.215332 236.239746,672.080505 199.665192,692.943359 
	C195.079468,695.559265 190.218826,697.693115 184.744125,700.094727 
	C189.300140,696.261658 194.287415,691.844421 199.944748,688.593201 
	C240.494370,665.289429 281.166687,642.198914 321.847473,619.124268 
	C325.278015,617.178406 329.055420,615.844055 333.398254,614.140198 
z"/>
<path fill="#3D453E" opacity="1.000000" stroke="none" 
	d="
M603.601074,877.589355 
	C600.927124,876.993713 597.665222,876.212830 594.873474,874.612000 
	C553.081970,850.648071 511.344818,826.589233 469.627136,802.496826 
	C467.068665,801.019287 464.779633,799.075073 462.118744,796.722900 
	C469.930328,799.883057 478.282837,803.151672 485.994568,807.544983 
	C516.265747,824.790100 546.390320,842.295166 576.445801,859.914490 
	C585.578857,865.268616 594.314270,871.301025 603.601074,877.589355 
z"/>
<path fill="#3D453E" opacity="1.000000" stroke="none" 
	d="
M540.618958,735.853088 
	C547.459961,730.733582 554.770386,725.096863 562.680481,720.489807 
	C591.895203,703.474365 621.302551,686.789429 650.652588,670.006714 
	C655.257629,667.373535 659.941040,664.877441 665.287109,662.685669 
	C666.003113,663.443787 666.020203,663.834045 666.037231,664.224243 
	C662.237183,666.865295 658.599121,669.784790 654.611755,672.103638 
	C621.126953,691.576660 587.604675,710.985718 554.013123,730.273804 
	C550.045410,732.552002 545.591919,733.984131 540.618958,735.853088 
z"/>
<path fill="#3D453E" opacity="1.000000" stroke="none" 
	d="
M1233.799438,694.592834 
	C1204.252075,677.643982 1174.672852,660.749878 1145.194946,643.681152 
	C1141.244141,641.393494 1137.804077,638.224304 1134.000244,634.803406 
	C1138.700195,636.254761 1143.765747,637.948608 1148.315674,640.545776 
	C1175.950684,656.320068 1203.469849,672.296875 1231.015503,688.227173 
	C1231.867310,688.719788 1232.585693,689.443115 1233.696533,691.430481 
	C1233.950928,693.399048 1233.875244,693.995972 1233.799438,694.592834 
z"/>
<path fill="#323B33" opacity="1.000000" stroke="none" 
	d="
M340.371948,1222.197388 
	C339.976898,1146.143799 339.925903,1069.241699 339.886566,992.339722 
	C339.885529,990.343750 339.912231,988.338562 340.094940,986.353271 
	C341.108643,975.337402 346.516357,972.371338 357.535583,977.528809 
	C356.333008,977.881714 354.682831,977.550476 353.028503,977.528381 
	C346.161224,977.436829 343.073822,979.875366 342.293335,986.538818 
	C341.830383,990.491272 341.982727,994.524292 341.981812,998.521118 
	C341.966064,1067.170776 341.998810,1135.820557 341.914734,1204.470093 
	C341.907867,1210.096924 341.134674,1215.722778 340.371948,1222.197388 
z"/>
<path fill="#424942" opacity="1.000000" stroke="none" 
	d="
M1130.016846,633.883423 
	C1120.430420,628.657043 1110.711060,623.658325 1101.284790,618.157349 
	C1080.981323,606.308533 1060.828369,594.201355 1040.225586,581.007507 
	C1039.888916,579.293213 1039.940552,578.771362 1039.992065,578.249451 
	C1052.972534,585.542725 1066.046265,592.675903 1078.910400,600.168945 
	C1095.789307,610.000549 1112.502930,620.115723 1129.694824,631.283569 
	C1130.073608,632.933289 1130.045288,633.408386 1130.016846,633.883423 
z"/>
<path fill="#303931" opacity="1.000000" stroke="none" 
	d="
M666.682800,663.846558 
	C666.020203,663.834045 666.003113,663.443787 665.963379,662.467957 
	C669.721069,656.994019 669.240234,651.232422 669.241150,645.586914 
	C669.252502,577.314819 669.247131,509.042725 669.259705,440.770630 
	C669.260498,436.442383 669.373352,432.114105 670.072937,426.884399 
	C671.059937,426.001465 671.407959,426.020020 671.755981,426.038544 
	C671.840027,469.687836 671.948486,513.337158 671.999695,556.986450 
	C672.035583,587.641907 672.023315,618.297546 671.957886,648.952942 
	C671.946655,654.221924 672.591980,659.821045 666.682800,663.846558 
z"/>
<path fill="#3E3E3E" opacity="1.000000" stroke="none" 
	d="
M765.800903,426.020996 
	C765.900879,427.677490 766.088379,429.334045 766.088074,430.990509 
	C766.073303,506.048279 766.042114,581.106018 765.481750,657.088745 
	C764.950684,658.013672 764.041260,657.989075 764.041260,657.989075 
	C763.940613,637.071289 763.755310,616.153564 763.755676,595.235779 
	C763.756775,539.449585 763.837646,483.663422 764.392761,426.945557 
	C764.898682,426.013855 765.800903,426.020996 765.800903,426.020996 
z"/>
<path fill="#3C433C" opacity="1.000000" stroke="none" 
	d="
M436.149994,556.360535 
	C420.794800,565.429749 405.469788,574.550598 390.075165,583.552368 
	C376.948944,591.227722 363.777496,598.827698 350.544098,606.316284 
	C347.717499,607.915833 344.537842,608.891541 340.759827,610.149597 
	C342.512604,608.051453 344.782928,605.534058 347.577667,603.930664 
	C376.553772,587.306580 405.614441,570.829834 435.356201,554.702087 
	C436.090546,555.514893 436.120270,555.937744 436.149994,556.360535 
z"/>
<path fill="#3C433C" opacity="1.000000" stroke="none" 
	d="
M662.960266,424.277649 
	C661.509033,426.217133 659.651489,428.730774 657.169922,430.164001 
	C631.252686,445.132812 605.239502,459.935516 579.231934,474.747375 
	C578.095703,475.394470 576.756104,475.684540 574.766479,476.146667 
	C577.934875,473.136963 581.580322,469.666199 585.805847,467.181854 
	C608.749817,453.692108 631.819031,440.414612 654.903259,427.165222 
	C657.154053,425.873413 659.801086,425.272125 662.960266,424.277649 
z"/>
<path fill="#3D453E" opacity="1.000000" stroke="none" 
	d="
M537.407471,496.262085 
	C536.607849,497.771698 535.369751,499.859192 533.537659,500.936584 
	C516.487183,510.963593 499.347046,520.838745 482.187805,530.679321 
	C480.805847,531.471863 479.089020,531.680603 476.768341,532.152466 
	C485.430298,526.012024 494.646423,519.530273 504.328491,513.841492 
	C514.891724,507.635071 525.886658,502.163361 537.407471,496.262085 
z"/>
<path fill="#3D453E" opacity="1.000000" stroke="none" 
	d="
M821.633789,453.577942 
	C821.329651,454.101593 820.537598,454.281738 820.026306,453.982330 
	C803.705078,444.424561 787.411011,434.820312 770.776428,424.709412 
	C772.069397,424.500031 773.955017,424.376160 775.289124,425.174164 
	C790.666626,434.372284 805.960571,443.710114 821.633789,453.577942 
z"/>
<path fill="#3B413B" opacity="1.000000" stroke="none" 
	d="
M671.726868,917.515686 
	C663.817261,913.820129 655.515198,909.713745 647.482422,905.135071 
	C637.407349,899.392273 627.553040,893.262207 617.237183,886.679199 
	C620.300476,887.133606 624.057129,887.636658 627.103516,889.380493 
	C641.113037,897.400024 654.937134,905.744629 668.781555,914.049683 
	C669.855042,914.693665 670.571533,915.932739 671.726868,917.515686 
z"/>
<path fill="#3B413B" opacity="1.000000" stroke="none" 
	d="
M1234.251221,695.074219 
	C1233.875244,693.995972 1233.950928,693.399048 1234.128418,691.901062 
	C1248.646973,699.386047 1263.063965,707.772095 1277.802734,717.280151 
	C1278.087402,718.796265 1278.050293,719.190308 1278.013184,719.584290 
	C1263.576416,711.574707 1249.139648,703.565125 1234.251221,695.074219 
z"/>
<path fill="#3B413B" opacity="1.000000" stroke="none" 
	d="
M961.568481,773.341064 
	C962.037720,774.200256 962.009216,774.617859 961.935608,775.662964 
	C947.856018,768.436096 933.764160,760.681274 919.836304,752.642212 
	C917.095520,751.060181 914.987976,748.381226 912.282837,745.550293 
	C918.960388,748.682861 926.017578,752.344238 932.908752,756.295166 
	C942.361938,761.714905 951.689331,767.354248 961.568481,773.341064 
z"/>
<path fill="#3B413B" opacity="1.000000" stroke="none" 
	d="
M764.147705,658.683105 
	C764.041260,657.989075 764.950684,658.013672 765.405396,658.025818 
	C773.650574,663.022400 781.432251,668.020508 789.234192,672.986877 
	C795.370239,676.892883 801.531311,680.759705 807.909790,685.276978 
	C794.496582,678.719971 780.811218,671.609924 767.276428,664.223938 
	C765.820740,663.429688 765.240479,661.031372 764.147705,658.683105 
z"/>
<path fill="#3C433C" opacity="1.000000" stroke="none" 
	d="
M177.371414,704.094849 
	C168.077087,710.246155 158.044571,716.471497 147.992523,722.665039 
	C144.631149,724.736267 141.219727,726.726318 137.285583,729.253174 
	C136.740005,729.752869 136.859421,729.721008 136.872223,729.659119 
	C138.144699,727.362122 138.844025,724.120483 140.755615,723.056335 
	C152.560516,716.483826 164.638428,710.401672 177.371414,704.094849 
z"/>
<path fill="#3D453E" opacity="1.000000" stroke="none" 
	d="
M436.845703,556.173523 
	C436.120270,555.937744 436.090546,555.514893 436.014587,554.457275 
	C448.875580,546.640198 461.782776,539.457947 475.410461,532.171997 
	C474.007660,534.067444 472.167847,536.554688 469.711853,537.981079 
	C459.086639,544.152100 448.281250,550.012878 436.845703,556.173523 
z"/>
<path fill="#3C433C" opacity="1.000000" stroke="none" 
	d="
M1039.454834,577.809692 
	C1039.940552,578.771362 1039.888916,579.293213 1039.758789,580.600220 
	C1028.358398,575.249146 1017.011047,569.158997 1005.747437,562.917603 
	C1004.372375,562.155640 1003.446777,560.582458 1002.089600,558.743164 
	C1004.635864,558.972778 1007.643982,559.413818 1010.132751,560.792419 
	C1019.817139,566.156860 1029.336792,571.818787 1039.454834,577.809692 
z"/>
<path fill="#3C433C" opacity="1.000000" stroke="none" 
	d="
M901.607422,499.575806 
	C898.037231,498.512939 893.897705,497.251801 890.241211,495.150146 
	C880.199402,489.378357 870.360413,483.253754 860.154541,476.665405 
	C874.902405,481.472046 888.550781,489.384033 901.607422,499.575806 
z"/>
<path fill="#3D453E" opacity="1.000000" stroke="none" 
	d="
M785.401062,904.187988 
	C781.972107,907.138611 778.025574,910.549377 773.615662,913.184631 
	C766.035156,917.714417 758.165710,921.760742 748.829224,925.991882 
	C746.628296,925.874695 746.015869,925.775696 745.403381,925.676636 
	C758.493896,918.550781 771.584412,911.424988 785.401062,904.187988 
z"/>
<path fill="#3C433C" opacity="1.000000" stroke="none" 
	d="
M1001.615234,557.581543 
	C996.954407,555.890930 991.737366,553.978638 986.972717,551.270447 
	C979.283813,546.900024 971.892822,542.005493 964.122559,536.714417 
	C977.683716,540.649963 989.912964,548.039124 1001.615234,557.581543 
z"/>
<path fill="#3D453E" opacity="1.000000" stroke="none" 
	d="
M954.029114,531.831299 
	C943.009460,525.543457 931.989807,519.255554 920.494446,511.938660 
	C920.033081,510.525085 920.047485,510.140503 920.061829,509.755951 
	C931.136414,515.985474 942.210999,522.215027 953.702698,529.524475 
	C954.089600,531.013367 954.059326,531.422302 954.029114,531.831299 
z"/>
<path fill="#3C433C" opacity="1.000000" stroke="none" 
	d="
M870.349426,722.438477 
	C873.663574,723.297119 877.480103,724.407776 880.879211,726.277405 
	C889.305237,730.912231 897.540466,735.893860 905.477539,741.348511 
	C904.515869,742.044128 903.929077,742.127380 903.342346,742.210632 
	C892.448853,735.819092 881.555359,729.427551 870.349426,722.438477 
z"/>
<path fill="#3C433C" opacity="1.000000" stroke="none" 
	d="
M573.394531,476.161194 
	C569.317688,479.484741 564.667419,483.148315 559.649048,486.207947 
	C553.701538,489.833984 547.436707,492.939575 540.632568,495.822388 
	C539.969299,494.905518 539.982849,494.436951 539.996460,493.968323 
	C550.883667,488.056824 561.770935,482.145355 573.394531,476.161194 
z"/>
<path fill="#3C433C" opacity="1.000000" stroke="none" 
	d="
M838.008606,701.960510 
	C848.551025,708.192322 859.093445,714.424072 869.883240,721.280090 
	C866.177124,720.325928 862.002808,719.142517 858.318359,717.082886 
	C851.682434,713.373352 845.340027,709.138794 838.428955,704.085693 
	C837.991455,702.685425 838.000000,702.322998 838.008606,701.960510 
z"/>
<path fill="#3B413B" opacity="1.000000" stroke="none" 
	d="
M733.521606,934.343262 
	C724.630920,943.982361 714.399231,945.058105 704.153076,936.667603 
	C713.782532,939.269775 723.430359,937.871094 733.521606,934.343262 
z"/>
<path fill="#3B413B" opacity="1.000000" stroke="none" 
	d="
M837.507690,701.509888 
	C838.000000,702.322998 837.991455,702.685425 837.968872,703.592102 
	C826.832642,700.781616 817.557800,694.278870 808.386353,686.415833 
	C817.688782,690.912537 827.347839,695.985901 837.507690,701.509888 
z"/>
<path fill="#3C433C" opacity="1.000000" stroke="none" 
	d="
M859.635742,475.569885 
	C849.830627,470.560486 839.660583,464.975372 829.182556,458.743988 
	C840.222778,461.541962 850.424866,467.048279 859.635742,475.569885 
z"/>
<path fill="#3D453E" opacity="1.000000" stroke="none" 
	d="
M461.778748,795.424194 
	C454.888123,791.970581 453.924835,786.129822 459.919006,781.117249 
	C463.101837,778.455750 467.094330,776.762390 471.401581,774.950195 
	C472.102112,775.650757 472.122375,776.033081 472.142639,776.415405 
	C470.369598,777.841370 468.755096,779.553711 466.793762,780.639648 
	C460.919708,783.891968 459.426300,788.570312 461.778748,795.424194 
z"/>
<path fill="#333934" opacity="1.000000" stroke="none" 
	d="
M398.249451,1552.675293 
	C407.583832,1555.282227 417.154572,1558.591919 424.218933,1567.519165 
	C415.890289,1563.191650 407.216827,1558.234497 398.249451,1552.675293 
z"/>
<path fill="#3C433C" opacity="1.000000" stroke="none" 
	d="
M472.820282,776.176819 
	C472.122375,776.033081 472.102112,775.650757 472.052795,774.694824 
	C479.495148,769.938354 486.966553,765.755310 495.180359,761.699829 
	C488.447815,766.531006 480.972870,771.234619 472.820282,776.176819 
z"/>
<path fill="#3C433C" opacity="1.000000" stroke="none" 
	d="
M510.591125,753.791748 
	C516.776978,749.293274 523.687317,744.716248 531.300110,740.004883 
	C527.111877,747.481018 519.240112,750.636597 510.591125,753.791748 
z"/>
<path fill="#3B413B" opacity="1.000000" stroke="none" 
	d="
M689.764038,928.419617 
	C684.243530,925.782898 678.454895,922.464783 672.270752,918.595581 
	C679.033569,918.940491 685.395386,921.284302 689.764038,928.419617 
z"/>
<path fill="#323B33" opacity="1.000000" stroke="none" 
	d="
M384.297211,992.582947 
	C391.166687,994.226868 398.049225,997.065735 403.585236,1003.495850 
	C397.521332,1000.425049 391.093658,996.786987 384.297211,992.582947 
z"/>
<path fill="#333934" opacity="1.000000" stroke="none" 
	d="
M464.278687,1590.602417 
	C470.353821,1593.659424 476.779510,1597.298950 483.576447,1601.501465 
	C476.562164,1600.117920 470.026794,1596.661621 464.278687,1590.602417 
z"/>
<path fill="#333934" opacity="1.000000" stroke="none" 
	d="
M642.237793,1694.652222 
	C647.690491,1697.031128 653.443787,1700.011719 659.609314,1703.532227 
	C654.193848,1701.132690 648.366150,1698.193359 642.237793,1694.652222 
z"/>
<path fill="#323B33" opacity="1.000000" stroke="none" 
	d="
M559.735718,1405.390381 
	C554.923767,1403.020752 549.775940,1400.066284 544.307373,1396.519775 
	C549.124329,1398.886963 554.262085,1401.846436 559.735718,1405.390381 
z"/>
<path fill="#333934" opacity="1.000000" stroke="none" 
	d="
M696.335876,1726.548584 
	C701.049622,1728.367798 706.177246,1730.732910 711.814453,1733.586182 
	C705.940430,1734.408081 701.426697,1730.569214 696.335876,1726.548584 
z"/>
<path fill="#3C433C" opacity="1.000000" stroke="none" 
	d="
M496.583130,761.771667 
	C500.077911,759.082703 504.278534,756.313232 509.212219,753.684570 
	C505.726501,756.447266 501.507721,759.069214 496.583130,761.771667 
z"/>
<path fill="#333934" opacity="1.000000" stroke="none" 
	d="
M446.219360,1580.619995 
	C449.751068,1582.313477 453.575104,1584.602661 457.717712,1587.484375 
	C454.194763,1585.789917 450.353210,1583.502808 446.219360,1580.619995 
z"/>
<path fill="#303931" opacity="1.000000" stroke="none" 
	d="
M339.307312,1333.989990 
	C335.782074,1336.508179 331.539062,1339.091797 326.608948,1341.831299 
	C330.144379,1339.343018 334.366943,1336.699097 339.307312,1333.989990 
z"/>
<path fill="#333934" opacity="1.000000" stroke="none" 
	d="
M684.208618,1718.625244 
	C687.719055,1720.326294 691.513245,1722.630615 695.669617,1725.502197 
	C692.185303,1723.788940 688.338867,1721.508789 684.208618,1718.625244 
z"/>
<path fill="#333934" opacity="1.000000" stroke="none" 
	d="
M499.658630,1612.449951 
	C503.108429,1613.635986 507.122681,1615.307129 511.575623,1617.526611 
	C508.083862,1616.361694 504.153473,1614.648438 499.658630,1612.449951 
z"/>
<path fill="#333934" opacity="1.000000" stroke="none" 
	d="
M574.275024,1654.599365 
	C577.718933,1656.329956 581.509399,1658.639160 585.670166,1661.510742 
	C582.234253,1659.774780 578.427917,1657.476318 574.275024,1654.599365 
z"/>
<path fill="#333934" opacity="1.000000" stroke="none" 
	d="
M522.318115,1624.601440 
	C525.043152,1625.692017 528.144531,1627.333008 531.630127,1629.524414 
	C528.907776,1628.433716 525.801147,1626.792847 522.318115,1624.601440 
z"/>
<path fill="#333934" opacity="1.000000" stroke="none" 
	d="
M607.409241,1420.288818 
	C607.533203,1424.010498 605.051758,1426.296387 600.647827,1427.277954 
	C600.032349,1426.666626 600.057251,1426.204834 600.087952,1425.743286 
	C602.328613,1424.046143 604.569275,1422.348999 607.409241,1420.288818 
z"/>
<path fill="#323B33" opacity="1.000000" stroke="none" 
	d="
M531.739380,1389.401123 
	C528.961853,1388.044556 525.848938,1386.101318 522.346558,1383.551270 
	C525.106079,1384.901001 528.255066,1386.857666 531.739380,1389.401123 
z"/>
<path fill="#303931" opacity="1.000000" stroke="none" 
	d="
M325.320343,1341.962646 
	C323.093719,1343.829956 320.166351,1345.737061 316.583313,1347.803223 
	C318.824951,1345.975464 321.722260,1343.988892 325.320343,1341.962646 
z"/>
<path fill="#3B413B" opacity="1.000000" stroke="none" 
	d="
M744.869385,926.055359 
	C746.015869,925.775696 746.628296,925.874695 748.162354,926.117188 
	C745.831421,928.373169 742.578796,930.485657 738.638306,932.875610 
	C740.078735,930.913452 742.207031,928.673767 744.869385,926.055359 
z"/>
<path fill="#3C433C" opacity="1.000000" stroke="none" 
	d="
M954.575073,532.251892 
	C954.059326,531.422302 954.089600,531.013367 954.168213,529.985718 
	C957.224426,531.263245 960.232361,533.159546 963.607422,535.608276 
	C961.023376,534.997986 958.072205,533.835266 954.575073,532.251892 
z"/>
<path fill="#333934" opacity="1.000000" stroke="none" 
	d="
M670.295166,1710.612305 
	C673.029968,1711.690430 676.121033,1713.331665 679.592285,1715.523071 
	C676.865479,1714.440552 673.758423,1712.807861 670.295166,1710.612305 
z"/>
<path fill="#333934" opacity="1.000000" stroke="none" 
	d="
M632.312012,1688.607910 
	C635.027222,1689.696777 638.113953,1691.342529 641.590088,1693.531982 
	C638.880920,1692.438843 635.782166,1690.801758 632.312012,1688.607910 
z"/>
<path fill="#333934" opacity="1.000000" stroke="none" 
	d="
M484.264465,1602.659790 
	C487.042786,1603.719116 490.128662,1605.367310 493.608948,1607.546387 
	C490.859589,1606.467773 487.715790,1604.858154 484.264465,1602.659790 
z"/>
<path fill="#3D453E" opacity="1.000000" stroke="none" 
	d="
M611.984009,884.072754 
	C609.433533,882.485901 606.883057,880.898987 604.102173,878.705566 
	C606.264648,879.078918 608.657654,880.058838 611.525269,882.020630 
	C611.994568,883.359314 611.989319,883.716003 611.984009,884.072754 
z"/>
<path fill="#333934" opacity="1.000000" stroke="none" 
	d="
M612.227661,1676.645020 
	C615.025085,1677.705566 618.114136,1679.365112 621.614563,1681.545654 
	C618.857117,1680.459106 615.688232,1678.851440 612.227661,1676.645020 
z"/>
<path fill="#323B33" opacity="1.000000" stroke="none" 
	d="
M569.749878,1411.400879 
	C566.987549,1410.309937 563.901062,1408.637451 560.403198,1406.445312 
	C563.136353,1407.556885 566.281006,1409.188110 569.749878,1411.400879 
z"/>
<path fill="#323B33" opacity="1.000000" stroke="none" 
	d="
M332.624756,1230.730225 
	C334.270264,1228.638794 336.586792,1226.229004 339.510529,1223.417725 
	C337.843750,1225.481567 335.569733,1227.946777 332.624756,1230.730225 
z"/>
<path fill="#323B33" opacity="1.000000" stroke="none" 
	d="
M599.278870,1425.529785 
	C600.057251,1426.204834 600.032349,1426.666626 599.999756,1427.478027 
	C597.598877,1426.862793 595.211487,1425.898193 592.397583,1424.433960 
	C594.137329,1424.395020 596.303528,1424.855713 599.278870,1425.529785 
z"/>
<path fill="#303931" opacity="1.000000" stroke="none" 
	d="
M392.229065,1307.681763 
	C389.747131,1308.571899 386.602478,1309.117554 382.692139,1309.814209 
	C384.270447,1305.899902 387.597595,1305.441650 392.229065,1307.681763 
z"/>
<path fill="#323B33" opacity="1.000000" stroke="none" 
	d="
M368.397034,984.525024 
	C370.351044,985.040466 372.756958,986.039734 375.583771,987.555420 
	C373.619446,987.050781 371.234192,986.029846 368.397034,984.525024 
z"/>
<path fill="#303931" opacity="1.000000" stroke="none" 
	d="
M345.384155,1330.042480 
	C344.393829,1331.178223 342.773682,1332.432861 340.537384,1333.840088 
	C341.532257,1332.715576 343.143280,1331.438477 345.384155,1330.042480 
z"/>
<path fill="#333934" opacity="1.000000" stroke="none" 
	d="
M586.357605,1662.482422 
	C588.308716,1663.007935 590.701599,1664.020874 593.511108,1665.543945 
	C591.551636,1665.026001 589.175476,1663.997925 586.357605,1662.482422 
z"/>
<path fill="#333934" opacity="1.000000" stroke="none" 
	d="
M624.365173,1684.478271 
	C626.311829,1685.024292 628.705200,1686.057373 631.544556,1687.582031 
	C629.597656,1687.037598 627.204773,1686.001343 624.365173,1684.478271 
z"/>
<path fill="#333934" opacity="1.000000" stroke="none" 
	d="
M437.924927,1576.424316 
	C439.965302,1576.978882 442.528992,1578.016724 445.553680,1579.563232 
	C443.492554,1579.017090 440.970398,1577.962524 437.924927,1576.424316 
z"/>
<path fill="#323B33" opacity="1.000000" stroke="none" 
	d="
M583.659119,1419.476074 
	C582.080933,1418.958496 580.064758,1417.907837 577.525635,1416.380615 
	C579.075562,1416.917114 581.148376,1417.930054 583.659119,1419.476074 
z"/>
<path fill="#323B33" opacity="1.000000" stroke="none" 
	d="
M539.643188,1393.505859 
	C537.709778,1392.934082 535.339966,1391.860229 532.468750,1390.361328 
	C534.380493,1390.958740 536.793640,1391.981323 539.643188,1393.505859 
z"/>
<path fill="#303931" opacity="1.000000" stroke="none" 
	d="
M417.758911,1323.447998 
	C416.306366,1322.965698 414.535004,1321.927124 412.367737,1320.408691 
	C413.794556,1320.916504 415.617340,1321.904053 417.758911,1323.447998 
z"/>
<path fill="#303931" opacity="1.000000" stroke="none" 
	d="
M307.357605,1352.086670 
	C306.128571,1353.193848 304.226898,1354.458008 301.620941,1355.869141 
	C302.839417,1354.758667 304.762177,1353.501099 307.357605,1352.086670 
z"/>
<path fill="#333934" opacity="1.000000" stroke="none" 
	d="
M383.421753,1544.491455 
	C384.989838,1544.991821 387.039612,1545.999878 389.528625,1547.533936 
	C387.946350,1547.039673 385.924896,1546.019287 383.421753,1544.491455 
z"/>
<path fill="#333934" opacity="1.000000" stroke="none" 
	d="
M594.278687,1666.630737 
	C595.730042,1667.094849 597.479980,1668.101929 599.618896,1669.587646 
	C598.197693,1669.102051 596.387512,1668.137939 594.278687,1666.630737 
z"/>
<path fill="#303931" opacity="1.000000" stroke="none" 
	d="
M363.362579,1320.003418 
	C362.373596,1321.144897 360.736694,1322.366211 358.510406,1323.786133 
	C359.518890,1322.684204 361.116791,1321.383667 363.362579,1320.003418 
z"/>
<path fill="#333934" opacity="1.000000" stroke="none" 
	d="
M512.345398,1618.576172 
	C513.963379,1619.039551 515.997986,1620.062744 518.531799,1621.581299 
	C516.941345,1621.096558 514.851746,1620.116333 512.345398,1618.576172 
z"/>
<path fill="#333934" opacity="1.000000" stroke="none" 
	d="
M550.208618,1640.599365 
	C551.694153,1641.048340 553.461609,1642.077393 555.621094,1643.587769 
	C554.172302,1643.105835 552.331421,1642.142578 550.208618,1640.599365 
z"/>
<path fill="#303931" opacity="1.000000" stroke="none" 
	d="
M369.376160,1316.027588 
	C368.385406,1317.147095 366.740204,1318.363281 364.508484,1319.781250 
	C365.521851,1318.696777 367.121796,1317.410522 369.376160,1316.027588 
z"/>
<path fill="#303931" opacity="1.000000" stroke="none" 
	d="
M405.645264,1315.510010 
	C404.129669,1314.981567 402.182373,1313.957397 399.770416,1312.410645 
	C401.275024,1312.929932 403.244293,1313.972168 405.645264,1315.510010 
z"/>
<path fill="#3C433C" opacity="1.000000" stroke="none" 
	d="
M532.530396,739.895386 
	C533.519470,738.677917 535.160706,737.398071 537.427612,736.544312 
	C538.071472,737.382812 538.089661,737.795044 538.107788,738.207397 
	C536.466064,738.749268 534.824341,739.291138 532.530396,739.895386 
z"/>
<path fill="#3D453E" opacity="1.000000" stroke="none" 
	d="
M791.299194,900.151245 
	C792.349426,900.011536 792.813416,900.056824 793.973999,900.172363 
	C792.250244,901.567444 789.829895,902.892212 786.710388,904.182556 
	C787.578430,902.877502 789.145691,901.606873 791.299194,900.151245 
z"/>
<path fill="#333934" opacity="1.000000" stroke="none" 
	d="
M660.253662,1704.548096 
	C661.688293,1705.041260 663.449524,1706.080933 665.612061,1707.594238 
	C664.202271,1707.076660 662.391235,1706.085571 660.253662,1704.548096 
z"/>
<path fill="#323B33" opacity="1.000000" stroke="none" 
	d="
M408.252869,1006.593872 
	C409.709656,1007.313477 411.492188,1008.621399 413.658173,1010.493103 
	C412.220642,1009.765320 410.399658,1008.473755 408.252869,1006.593872 
z"/>
<path fill="#3B3B3B" opacity="1.000000" stroke="none" 
	d="
M1278.564453,719.938049 
	C1278.050293,719.190308 1278.087402,718.796265 1278.179688,717.803345 
	C1279.967773,718.460999 1281.700562,719.717468 1283.700317,721.563660 
	C1282.350098,721.532898 1280.733032,720.912354 1278.564453,719.938049 
z"/>
<path fill="#3B413B" opacity="1.000000" stroke="none" 
	d="
M703.582153,935.634827 
	C701.575928,935.136047 699.123962,934.134094 696.273499,932.583252 
	C698.295410,933.066772 700.715881,934.099182 703.582153,935.634827 
z"/>
<path fill="#333934" opacity="1.000000" stroke="none" 
	d="
M494.195282,1608.565430 
	C495.199768,1608.993164 496.471100,1609.976318 498.094482,1611.471802 
	C497.118378,1611.029663 495.790253,1610.075195 494.195282,1608.565430 
z"/>
<path fill="#3C433C" opacity="1.000000" stroke="none" 
	d="
M919.490601,509.453308 
	C920.047485,510.140503 920.033081,510.525085 919.997864,511.486511 
	C918.179688,511.064087 916.382385,510.064819 914.231689,508.554810 
	C915.558716,508.412933 917.239075,508.781799 919.490601,509.453308 
z"/>
<path fill="#333934" opacity="1.000000" stroke="none" 
	d="
M597.396729,1116.533447 
	C598.402161,1117.232666 599.867981,1118.481812 601.686401,1120.381348 
	C600.645081,1119.715576 599.251160,1118.399414 597.396729,1116.533447 
z"/>
<path fill="#3B413B" opacity="1.000000" stroke="none" 
	d="
M695.777954,931.707397 
	C694.772156,931.647156 693.530884,931.164673 691.703491,930.331543 
	C692.592407,930.415710 694.067444,930.850464 695.777954,931.707397 
z"/>
<path fill="#333934" opacity="1.000000" stroke="none" 
	d="
M543.850708,1638.324463 
	C545.072205,1638.430054 546.928955,1638.898193 549.410645,1639.710938 
	C548.185730,1639.599487 546.335876,1639.143188 543.850708,1638.324463 
z"/>
<path fill="#3B413B" opacity="1.000000" stroke="none" 
	d="
M612.536743,884.498535 
	C611.989319,883.716003 611.994568,883.359314 612.009277,882.467041 
	C613.435547,882.965271 614.852478,883.999023 616.642456,885.585388 
	C615.706787,885.733398 614.398132,885.328857 612.536743,884.498535 
z"/>
<path fill="#333934" opacity="1.000000" stroke="none" 
	d="
M458.452515,1588.371704 
	C459.581482,1588.457764 461.248077,1588.924927 463.477264,1589.723267 
	C462.356598,1589.620605 460.673370,1589.186646 458.452515,1588.371704 
z"/>
<path fill="#333934" opacity="1.000000" stroke="none" 
	d="
M390.506348,1548.502930 
	C391.261078,1548.505859 392.548279,1548.962646 394.445892,1549.734375 
	C393.717133,1549.684937 392.377960,1549.320801 390.506348,1548.502930 
z"/>
<path fill="#323B33" opacity="1.000000" stroke="none" 
	d="
M591.616699,1423.637085 
	C591.010986,1423.543823 589.955383,1423.079224 588.426758,1422.282227 
	C589.024719,1422.388428 590.095764,1422.827148 591.616699,1423.637085 
z"/>
<path fill="#3C433C" opacity="1.000000" stroke="none" 
	d="
M337.546570,612.162109 
	C337.136719,612.672974 336.156891,613.342896 334.567078,614.064514 
	C334.963623,613.517883 335.970093,612.919556 337.546570,612.162109 
z"/>
<path fill="#333934" opacity="1.000000" stroke="none" 
	d="
M600.354919,1670.425903 
	C600.995728,1670.462402 602.053528,1670.911011 603.572998,1671.707275 
	C602.947021,1671.649170 601.859436,1671.243530 600.354919,1670.425903 
z"/>
<path fill="#3D453E" opacity="1.000000" stroke="none" 
	d="
M1130.654785,634.084717 
	C1130.045288,633.408386 1130.073608,632.933289 1130.130493,631.742065 
	C1131.151733,631.762817 1132.144531,632.499756 1133.536011,633.701294 
	C1133.054077,634.205933 1132.173462,634.245972 1130.654785,634.084717 
z"/>
<path fill="#323B33" opacity="1.000000" stroke="none" 
	d="
M587.620972,1421.627686 
	C587.012939,1421.529175 585.958557,1421.049438 584.416138,1420.254761 
	C585.010254,1420.375488 586.092468,1420.811035 587.620972,1421.627686 
z"/>
<path fill="#3C433C" opacity="1.000000" stroke="none" 
	d="
M183.553925,700.177734 
	C183.152481,700.701599 182.179520,701.371765 180.587189,702.082825 
	C180.972687,701.523865 181.977570,700.924011 183.553925,700.177734 
z"/>
<path fill="#333934" opacity="1.000000" stroke="none" 
	d="
M680.351624,1716.470947 
	C681.000183,1716.493652 682.048340,1716.946167 683.565796,1717.728149 
	C682.940491,1717.671875 681.845886,1717.286133 680.351624,1716.470947 
z"/>
<path fill="#333934" opacity="1.000000" stroke="none" 
	d="
M570.342651,1652.440674 
	C570.989929,1652.470825 572.044189,1652.926880 573.566650,1653.719971 
	C572.939697,1653.660278 571.844666,1653.263428 570.342651,1652.440674 
z"/>
<path fill="#333934" opacity="1.000000" stroke="none" 
	d="
M532.332642,1630.433594 
	C532.984497,1630.459351 534.039307,1630.917114 535.559204,1631.717529 
	C534.927979,1631.661865 533.831787,1631.263794 532.332642,1630.433594 
z"/>
<path fill="#333934" opacity="1.000000" stroke="none" 
	d="
M566.377380,1650.376587 
	C566.988892,1650.456543 568.043030,1650.916016 569.562256,1651.716675 
	C568.958313,1651.623901 567.889160,1651.189941 566.377380,1650.376587 
z"/>
<path fill="#333934" opacity="1.000000" stroke="none" 
	d="
M538.347107,1634.507080 
	C539.011108,1634.703857 540.084412,1635.400391 541.608765,1636.562012 
	C540.958679,1636.353760 539.857544,1635.680298 538.347107,1634.507080 
z"/>
<path fill="#3B413B" opacity="1.000000" stroke="none" 
	d="
M903.915405,742.511108 
	C903.929077,742.127380 904.515869,742.044128 905.983276,741.834229 
	C907.439453,741.984314 907.862244,742.411987 908.146301,743.449219 
	C906.936340,743.542358 905.712402,743.177002 903.915405,742.511108 
z"/>
<path fill="#333934" opacity="1.000000" stroke="none" 
	d="
M556.357544,1644.414673 
	C556.992188,1644.452148 558.047913,1644.895142 559.549927,1645.700806 
	C558.923706,1645.649170 557.851135,1645.234619 556.357544,1644.414673 
z"/>
<path fill="#333934" opacity="1.000000" stroke="none" 
	d="
M560.361206,1646.453857 
	C560.997620,1646.489502 562.043213,1646.941528 563.552612,1647.727905 
	C562.934448,1647.664795 561.852478,1647.267578 560.361206,1646.453857 
z"/>
<path fill="#303931" opacity="1.000000" stroke="none" 
	d="
M377.413635,1312.029541 
	C376.998322,1312.495361 376.006195,1313.052856 374.473877,1313.797607 
	C374.901367,1313.363525 375.869080,1312.742432 377.413635,1312.029541 
z"/>
<path fill="#303931" opacity="1.000000" stroke="none" 
	d="
M398.505066,1311.549927 
	C397.750122,1311.337524 396.416382,1310.639526 394.512573,1309.444092 
	C395.270447,1309.652588 396.598358,1310.358521 398.505066,1311.549927 
z"/>
<path fill="#303931" opacity="1.000000" stroke="none" 
	d="
M373.438812,1314.016479 
	C373.028870,1314.514893 372.033783,1315.096069 370.482666,1315.840576 
	C370.902313,1315.369019 371.877991,1314.734131 373.438812,1314.016479 
z"/>
<path fill="#303931" opacity="1.000000" stroke="none" 
	d="
M381.431824,1309.992798 
	C381.034058,1310.503540 380.045105,1311.074463 378.502930,1311.797607 
	C378.913361,1311.317505 379.877014,1310.685303 381.431824,1309.992798 
z"/>
<path fill="#303931" opacity="1.000000" stroke="none" 
	d="
M411.630981,1319.621704 
	C411.020020,1319.538208 409.968842,1319.069214 408.444824,1318.269287 
	C409.044922,1318.370972 410.117859,1318.803467 411.630981,1319.621704 
z"/>
<path fill="#303931" opacity="1.000000" stroke="none" 
	d="
M357.457458,1324.026001 
	C357.041382,1324.492432 356.044495,1325.044922 354.503906,1325.772461 
	C354.932343,1325.335571 355.904510,1324.723877 357.457458,1324.026001 
z"/>
<path fill="#303931" opacity="1.000000" stroke="none" 
	d="
M422.495483,1325.607666 
	C421.763672,1325.552124 420.456604,1325.095825 418.546753,1324.295898 
	C419.269379,1324.370361 420.594788,1324.788696 422.495483,1325.607666 
z"/>
<path fill="#303931" opacity="1.000000" stroke="none" 
	d="
M353.398193,1326.009277 
	C352.994324,1326.502930 352.009552,1327.069580 350.479614,1327.808228 
	C350.895447,1327.347534 351.856384,1326.714844 353.398193,1326.009277 
z"/>
<path fill="#303931" opacity="1.000000" stroke="none" 
	d="
M349.432404,1328.010498 
	C349.029083,1328.519775 348.039062,1329.107910 346.487793,1329.845947 
	C346.899597,1329.360352 347.872650,1328.724731 349.432404,1328.010498 
z"/>
<path fill="#323B33" opacity="1.000000" stroke="none" 
	d="
M404.349426,1004.512024 
	C405.015869,1004.506042 406.061676,1004.949219 407.571503,1005.725708 
	C406.933289,1005.692993 405.831024,1005.327087 404.349426,1004.512024 
z"/>
<path fill="#303931" opacity="1.000000" stroke="none" 
	d="
M315.434753,1348.030029 
	C315.020691,1348.497803 314.027588,1349.059570 312.487610,1349.794800 
	C312.912384,1349.353394 313.884064,1348.738770 315.434753,1348.030029 
z"/>
<path fill="#303931" opacity="1.000000" stroke="none" 
	d="
M311.431274,1350.029419 
	C311.013641,1350.505249 310.017822,1351.076416 308.474487,1351.829346 
	C308.902313,1351.382324 309.877686,1350.753540 311.431274,1350.029419 
z"/>
<path fill="#323B33" opacity="1.000000" stroke="none" 
	d="
M380.369446,990.517578 
	C381.028259,990.518372 382.066650,990.961914 383.570282,991.730896 
	C382.940033,991.690979 381.844543,991.325623 380.369446,990.517578 
z"/>
<path fill="#323B33" opacity="1.000000" stroke="none" 
	d="
M376.358093,988.415771 
	C376.982758,988.453918 378.024780,988.890503 379.504730,989.687561 
	C378.886932,989.636780 377.831207,989.225525 376.358093,988.415771 
z"/>
<path fill="#323B33" opacity="1.000000" stroke="none" 
	d="
M543.625488,1395.629150 
	C543.017822,1395.533203 541.967285,1395.056519 540.429688,1394.268066 
	C541.022644,1394.386841 542.102661,1394.817627 543.625488,1395.629150 
z"/>
<path fill="#333934" opacity="1.000000" stroke="none" 
	d="
M608.365356,1674.466553 
	C609.002319,1674.497803 610.042664,1674.946167 611.544312,1675.727051 
	C610.926636,1675.667725 609.847717,1675.275635 608.365356,1674.466553 
z"/>
<path fill="#323B33" opacity="1.000000" stroke="none" 
	d="
M362.358246,980.483276 
	C362.997711,980.496033 364.025330,980.933655 365.499756,981.709717 
	C364.879852,981.668091 363.813141,981.288147 362.358246,980.483276 
z"/>
<path fill="#323B33" opacity="1.000000" stroke="none" 
	d="
M573.630859,1413.571655 
	C573.007080,1413.511108 571.959961,1413.049072 570.437134,1412.266113 
	C571.043518,1412.353638 572.125488,1412.761841 573.630859,1413.571655 
z"/>
<path fill="#333934" opacity="1.000000" stroke="none" 
	d="
M604.353760,1672.412598 
	C604.984375,1672.453735 606.033508,1672.902588 607.531799,1673.707031 
	C606.911377,1673.648438 605.841797,1673.234375 604.353760,1672.412598 
z"/>
<path fill="#323B33" opacity="1.000000" stroke="none" 
	d="
M358.377075,978.431641 
	C359.000092,978.471802 360.043304,978.907227 361.527222,979.700562 
	C360.911041,979.648010 359.854187,979.237427 358.377075,978.431641 
z"/>
<path fill="#333934" opacity="1.000000" stroke="none" 
	d="
M666.347168,1708.427246 
	C666.985229,1708.465210 668.035095,1708.921631 669.547302,1709.720459 
	C668.926086,1709.656982 667.842529,1709.251221 666.347168,1708.427246 
z"/>
<path fill="#3D453E" opacity="1.000000" stroke="none" 
	d="
M765.972961,425.552673 
	C765.800903,426.020996 764.898682,426.013855 764.447510,426.009827 
	C764.523315,425.575195 765.050232,425.144562 765.991699,424.417572 
	C766.406250,424.121216 766.145020,425.084320 765.972961,425.552673 
z"/>
<path fill="#3C433C" opacity="1.000000" stroke="none" 
	d="
M671.311401,425.659058 
	C671.407959,426.020020 671.059937,426.001465 670.190186,425.947388 
	C669.516174,425.606781 669.363831,425.301666 669.046509,424.511536 
	C669.543335,424.444214 670.205139,424.861908 671.311401,425.659058 
z"/>
<path fill="#333934" opacity="1.000000" stroke="none" 
	d="
M622.233215,1682.373169 
	C622.465149,1682.374878 622.951050,1682.822388 623.723511,1683.686279 
	C623.478088,1683.707275 622.970520,1683.279541 622.233215,1682.373169 
z"/>
<path fill="#3C433C" opacity="1.000000" stroke="none" 
	d="
M904.525146,501.730347 
	C904.187378,501.825775 903.359009,501.527557 902.205383,500.639282 
	C902.598267,500.478363 903.316406,500.907532 904.525146,501.730347 
z"/>
<path fill="#3B413B" opacity="1.000000" stroke="none" 
	d="
M908.317505,744.008423 
	C908.459717,743.838806 908.971191,743.783142 910.245972,743.856873 
	C910.235168,744.031616 909.460938,744.077026 908.317505,744.008423 
z"/>
<path fill="#3D453E" opacity="1.000000" stroke="none" 
	d="
M538.466125,737.849854 
	C538.089661,737.795044 538.071472,737.382812 538.031006,736.349854 
	C538.338867,735.680176 538.669067,735.631226 539.484680,735.706909 
	C539.588196,736.385193 539.206299,736.938782 538.466125,737.849854 
z"/>
<path fill="#3C433C" opacity="1.000000" stroke="none" 
	d="
M179.697968,702.276489 
	C179.750610,702.591675 179.371109,703.178772 178.480591,703.939453 
	C178.401657,703.591431 178.833740,703.070007 179.697968,702.276489 
z"/>
<path fill="#3C433C" opacity="1.000000" stroke="none" 
	d="
M339.710175,610.284180 
	C339.735931,610.566956 339.347107,611.144775 338.458862,611.914673 
	C338.404816,611.597473 338.850220,611.088318 339.710175,610.284180 
z"/>
<path fill="#3C433C" opacity="1.000000" stroke="none" 
	d="
M913.724854,507.715149 
	C913.416748,507.767120 912.804077,507.416687 912.030457,506.549133 
	C912.386414,506.458923 912.903320,506.885834 913.724854,507.715149 
z"/>
<path fill="#323B33" opacity="1.000000" stroke="none" 
	d="
M366.179871,982.512329 
	C366.533539,982.383362 367.024414,982.787048 367.719482,983.669434 
	C367.352173,983.850098 366.816650,983.482361 366.179871,982.512329 
z"/>
<path fill="#3C433C" opacity="1.000000" stroke="none" 
	d="
M911.529419,505.706360 
	C911.188538,505.808441 910.377258,505.492035 909.221680,504.605743 
	C909.604553,504.453217 910.331787,504.870544 911.529419,505.706360 
z"/>
<path fill="#333934" opacity="1.000000" stroke="none" 
	d="
M603.423157,1122.369263 
	C603.660461,1122.383667 604.352356,1122.808838 605.503052,1123.632812 
	C605.267151,1123.614624 604.572449,1123.197266 603.423157,1122.369263 
z"/>
<path fill="#3C433C" opacity="1.000000" stroke="none" 
	d="
M908.383423,503.685455 
	C907.992310,503.849762 906.958679,503.577881 905.404785,502.679047 
	C905.836670,502.451141 906.788818,502.850189 908.383423,503.685455 
z"/>
<path fill="#333934" opacity="1.000000" stroke="none" 
	d="
M564.182495,1648.438721 
	C564.481750,1648.372314 564.974792,1648.801636 565.720947,1649.675171 
	C565.492310,1649.665894 564.959717,1649.270996 564.182495,1648.438721 
z"/>
<path fill="#303931" opacity="1.000000" stroke="none" 
	d="
M407.801910,1317.582764 
	C407.529388,1317.621338 407.037689,1317.184326 406.273682,1316.318848 
	C406.485046,1316.344849 407.012177,1316.750488 407.801910,1317.582764 
z"/>
<path fill="#3D453E" opacity="1.000000" stroke="none" 
	d="
M539.615112,494.293274 
	C539.982849,494.436951 539.969299,494.905518 539.932617,496.080078 
	C539.571106,496.798187 539.232727,496.810272 538.478882,496.529816 
	C538.453613,495.697571 538.843689,495.157898 539.615112,494.293274 
z"/>
<path fill="#323B33" opacity="1.000000" stroke="none" 
	d="
M576.607056,1415.606323 
	C576.354187,1415.606567 575.646057,1415.176392 574.463074,1414.346191 
	C574.709412,1414.356079 575.430542,1414.765991 576.607056,1415.606323 
z"/>
<path fill="#3C433C" opacity="1.000000" stroke="none" 
	d="
M828.531982,457.714478 
	C828.157776,457.858276 827.315918,457.582672 826.178162,456.693604 
	C826.609619,456.485107 827.336975,456.890106 828.531982,457.714478 
z"/>
<path fill="#333934" opacity="1.000000" stroke="none" 
	d="
M395.370972,1550.409180 
	C395.631470,1550.395752 396.326965,1550.822021 397.491455,1551.640381 
	C397.242279,1551.638062 396.524139,1551.243408 395.370972,1550.409180 
z"/>
<path fill="#3C433C" opacity="1.000000" stroke="none" 
	d="
M825.682739,455.770691 
	C825.946716,456.168488 824.966553,456.332977 824.483521,455.719238 
	C824.002258,454.770020 824.003967,454.434509 824.005676,454.099030 
	C824.546936,454.445770 825.017944,454.870392 825.682739,455.770691 
z"/>
<path fill="#3D453E" opacity="1.000000" stroke="none" 
	d="
M823.472717,454.089661 
	C824.003967,454.434509 824.002258,454.770020 823.998718,455.610260 
	C823.417297,455.758820 822.837769,455.402588 822.065918,454.567749 
	C822.229065,454.086151 822.584412,454.083221 823.472717,454.089661 
z"/>
<path fill="#333934" opacity="1.000000" stroke="none" 
	d="
M519.390869,1622.398193 
	C519.648071,1622.391846 520.357666,1622.818115 521.537476,1623.649414 
	C521.286255,1623.646729 520.564819,1623.238770 519.390869,1622.398193 
z"/>
<path fill="#333934" opacity="1.000000" stroke="none" 
	d="
M536.190186,1632.421143 
	C536.478943,1632.364502 536.967651,1632.796265 537.706238,1633.673096 
	C537.389465,1633.781616 536.867493,1633.378784 536.190186,1632.421143 
z"/>
</svg>