<svg version="1.1" id="Layer_1" xmlns="http://www.w3.org/2000/svg" xmlns:xlink="http://www.w3.org/1999/xlink" x="0px" y="0px"
	 width="100%" viewBox="0 0 512 512" enable-background="new 0 0 512 512" xml:space="preserve">
<path fill="#25B0F3" opacity="1.000000" stroke="none" 
	d="
M358.809265,7.064240 
	C362.439178,5.230113 366.069061,3.395982 369.349487,1.280926 
	C373.024536,1.000000 377.049103,1.000000 381.155914,1.253684 
	C385.813965,3.568386 390.438293,5.528579 394.957703,7.706574 
	C427.245850,23.266981 459.460907,38.980320 491.820312,54.390724 
	C500.569977,58.557537 507.513916,64.106133 511.125610,73.324829 
	C511.285187,73.732140 512.354492,73.783066 513.000000,74.000000 
	C513.000000,106.354225 513.000000,138.708450 512.661743,171.671967 
	C511.554291,174.382568 510.474274,176.430450 510.101471,178.599869 
	C509.712585,180.862625 510.005280,183.242523 510.000000,185.571198 
	C509.971375,198.181137 511.061432,196.985794 498.347626,196.993286 
	C464.747620,197.013107 431.147552,196.965790 397.547729,197.044006 
	C393.420258,197.053604 389.294128,197.664230 385.097229,197.532532 
	C384.973907,178.686615 384.920715,160.304489 384.927765,141.470123 
	C384.936615,103.353683 384.885223,65.689491 384.880035,27.594749 
	C383.649628,22.765322 382.373047,18.366436 380.934021,13.668646 
	C374.940369,6.079802 367.220398,5.368372 358.809265,7.064240 
z"/>
<path fill="#23A7F2" opacity="1.000000" stroke="none" 
	d="
M385.167389,197.996338 
	C389.294128,197.664230 393.420258,197.053604 397.547729,197.044006 
	C431.147552,196.965790 464.747620,197.013107 498.347626,196.993286 
	C511.061432,196.985794 509.971375,198.181137 510.000000,185.571198 
	C510.005280,183.242523 509.712585,180.862625 510.101471,178.599869 
	C510.474274,176.430450 511.554291,174.382568 512.661743,172.140625 
	C513.000000,229.354233 513.000000,286.708466 512.667480,344.680603 
	C511.822266,346.468109 511.123199,347.592621 510.827393,348.814728 
	C509.090607,355.990448 509.122345,355.999817 501.482666,355.999695 
	C462.710602,355.999054 423.938568,355.997498 385.096924,355.532379 
	C385.017822,321.158325 384.987885,287.248108 385.007050,253.337921 
	C385.017456,234.890717 385.111206,216.443527 385.167389,197.996338 
z"/>
<path fill="#20A0F0" opacity="1.000000" stroke="none" 
	d="
M385.166504,355.996246 
	C423.938568,355.997498 462.710602,355.999054 501.482666,355.999695 
	C509.122345,355.999817 509.090607,355.990448 510.827393,348.814728 
	C511.123199,347.592621 511.822266,346.468109 512.667480,345.149261 
	C513.000000,376.354218 513.000000,407.708466 512.767944,439.160278 
	C512.018311,439.851349 511.298523,440.361389 511.014130,441.050964 
	C507.765717,448.926971 502.182770,454.563629 494.578522,458.234558 
	C474.053864,468.142609 453.562958,478.122864 432.958649,487.863037 
	C416.104065,495.830688 399.102753,503.487885 382.196838,511.347961 
	C381.932343,511.470947 382.056976,512.430725 382.000000,513.000000 
	C377.975464,513.000000 373.950897,513.000000 369.463196,513.000000 
	C368.659454,512.339722 368.481781,511.331573 367.948914,511.082031 
	C366.079865,510.206848 364.088470,509.592865 362.395325,508.516907 
	C365.432190,507.752594 368.217285,507.351135 371.331116,506.825073 
	C376.340820,505.278931 380.187653,502.832123 382.419250,497.839050 
	C383.431641,494.197205 384.896362,490.845825 384.908936,487.488983 
	C385.053314,449.011139 384.976868,410.532471 384.974915,371.583923 
	C385.049225,366.074646 385.107849,361.035431 385.166504,355.996246 
z"/>
<path fill="#008DD3" opacity="1.000000" stroke="none" 
	d="
M1.000000,162.468277 
	C1.719862,161.772522 2.640476,161.754974 3.130126,161.286758 
	C14.346726,150.560883 25.271364,139.514572 36.783562,129.118378 
	C44.074272,122.534416 55.056801,122.613548 62.952667,128.559402 
	C90.039513,148.956696 117.046249,169.460480 144.050659,189.966965 
	C145.957840,191.415222 147.598099,193.214981 149.863831,195.282379 
	C160.650177,203.515411 170.939972,211.311066 181.219025,219.120865 
	C195.184052,229.731186 209.140884,240.352295 222.741760,251.124939 
	C219.142670,251.853989 215.904953,252.911957 212.663162,252.924606 
	C180.742996,253.049103 148.821869,253.077606 116.901634,252.961807 
	C104.123962,252.915451 91.347832,252.442825 78.313324,252.105438 
	C77.703209,251.678528 77.350769,251.310425 76.863594,250.765442 
	C76.531296,250.364777 76.305229,250.174896 75.745331,249.875549 
	C69.390755,244.084869 63.341194,238.437943 57.292370,232.790253 
	C38.788460,215.513458 18.619234,200.002731 2.010005,180.710464 
	C1.914415,180.599426 1.347055,180.894547 1.000000,181.000000 
	C1.000000,174.978851 1.000000,168.957703 1.000000,162.468277 
z"/>
<path fill="#006DAF" opacity="1.000000" stroke="none" 
	d="
M134.881332,330.369202 
	C118.939125,342.730194 103.024071,355.126465 87.043175,367.437225 
	C79.140266,373.525177 71.074341,379.401306 63.157192,385.471100 
	C53.352238,392.988220 40.826721,389.517822 33.710289,382.375793 
	C25.314159,373.949493 16.267647,366.173645 7.580735,358.032990 
	C5.436397,356.023468 3.592472,353.693359 1.305223,351.755310 
	C1.000000,345.978851 1.000000,339.957703 1.321225,333.689758 
	C4.220028,330.289246 6.472096,326.782745 9.436161,324.047943 
	C18.371405,315.803833 27.631432,307.913116 36.676022,299.785767 
	C48.800213,288.891113 60.841248,277.903931 73.239090,267.063751 
	C84.224518,278.131561 94.904633,289.076782 105.543831,300.061615 
	C108.870796,303.496674 112.032356,307.092163 115.366249,310.520233 
	C121.835075,317.171753 128.372391,323.756683 134.881332,330.369202 
z"/>
<path fill="#0087D1" opacity="1.000000" stroke="none" 
	d="
M83.192673,256.950378 
	C81.784248,255.536667 80.375839,254.122955 78.769211,252.436737 
	C91.347832,252.442825 104.123962,252.915451 116.901634,252.961807 
	C148.821869,253.077606 180.742996,253.049103 212.663162,252.924606 
	C215.904953,252.911957 219.142670,251.853989 223.064194,251.211716 
	C226.742722,253.112488 229.739349,255.082672 232.918655,257.346863 
	C239.146957,262.443237 245.127838,267.329956 251.252151,272.029755 
	C262.675354,280.795990 274.138855,289.511108 285.667297,298.138306 
	C295.023499,305.139984 304.558350,311.903229 313.901764,318.921600 
	C320.377747,323.786041 326.663116,328.904266 333.136658,334.225922 
	C334.166382,335.025909 335.093079,335.509064 336.258728,336.055267 
	C336.801361,336.302399 336.977570,336.570312 336.920197,337.295410 
	C334.481628,338.445831 332.150970,339.894562 329.816406,339.900879 
	C281.239380,340.032288 232.661835,339.973877 184.084656,340.075775 
	C181.600723,340.080994 179.119064,341.185516 176.636353,341.778198 
	C167.992661,334.141998 159.348969,326.505768 150.314026,318.523682 
	C145.327896,313.651917 140.843399,309.007050 136.116943,304.623047 
	C123.314980,292.748657 110.450790,280.940430 97.524788,269.201202 
	C92.874382,264.977783 87.977219,261.026093 83.192673,256.950378 
z"/>
<path fill="#0082CF" opacity="1.000000" stroke="none" 
	d="
M176.811920,342.036224 
	C179.119064,341.185516 181.600723,340.080994 184.084656,340.075775 
	C232.661835,339.973877 281.239380,340.032288 329.816406,339.900879 
	C332.150970,339.894562 334.481628,338.445831 337.255188,337.380310 
	C344.133911,342.052612 350.571533,347.013428 357.006470,352.436279 
	C356.369690,357.957947 355.746460,363.018982 355.099396,368.076965 
	C353.717743,378.877258 352.348114,389.679291 350.897552,400.470398 
	C350.750519,401.564362 350.153168,402.622498 349.647858,403.639099 
	C348.012512,406.929108 345.840332,410.041534 344.761749,413.499023 
	C342.940186,419.338165 337.384125,424.812286 331.136536,424.883728 
	C313.179657,425.089020 295.218628,424.924835 277.259216,424.916870 
	C274.177582,424.915497 271.095917,424.968201 268.014282,424.995911 
	C257.299469,415.335754 246.549423,405.714325 235.877472,396.007050 
	C216.223236,378.129395 196.614929,360.201324 176.811920,342.036224 
z"/>
<path fill="#007DCB" opacity="1.000000" stroke="none" 
	d="
M268.149902,425.302399 
	C271.095917,424.968201 274.177582,424.915497 277.259216,424.916870 
	C295.218628,424.924835 313.179657,425.089020 331.136536,424.883728 
	C337.384125,424.812286 342.940186,419.338165 344.761749,413.499023 
	C345.840332,410.041534 348.012512,406.929108 349.647858,403.639099 
	C350.153168,402.622498 350.750519,401.564362 350.897552,400.470398 
	C352.348114,389.679291 353.717743,378.877258 355.099396,368.076965 
	C355.746460,363.018982 356.369690,357.957947 357.332336,352.538391 
	C360.448151,354.429688 363.235413,356.680847 366.017090,359.374298 
	C365.601227,366.445740 365.324615,373.086365 364.754883,379.701782 
	C363.234924,397.350677 361.720032,415.001953 359.940643,432.625763 
	C358.977356,442.166901 357.508972,451.658173 356.209534,461.163879 
	C355.175507,468.727936 354.258209,476.317139 352.897003,483.824066 
	C351.970032,488.936279 350.366486,493.925842 349.065460,498.970245 
	C337.842072,488.849365 326.586792,478.763580 315.402985,468.599152 
	C299.669342,454.299683 283.988770,439.941803 268.149902,425.302399 
z"/>
<path fill="#0065A4" opacity="1.000000" stroke="none" 
	d="
M83.038742,257.262878 
	C87.977219,261.026093 92.874382,264.977783 97.524788,269.201202 
	C110.450790,280.940430 123.314980,292.748657 136.116943,304.623047 
	C140.843399,309.007050 145.327896,313.651917 149.955719,318.512695 
	C145.130920,322.576050 140.273178,326.304504 135.148376,330.201111 
	C128.372391,323.756683 121.835075,317.171753 115.366249,310.520233 
	C112.032356,307.092163 108.870796,303.496674 105.543831,300.061615 
	C94.904633,289.076782 84.224518,278.131561 73.239090,267.063751 
	C76.240257,263.829437 79.562538,260.702423 83.038742,257.262878 
z"/>
<path fill="#0079C6" opacity="1.000000" stroke="none" 
	d="
M349.212372,499.271851 
	C350.366486,493.925842 351.970032,488.936279 352.897003,483.824066 
	C354.258209,476.317139 355.175507,468.727936 356.209534,461.163879 
	C357.508972,451.658173 358.977356,442.166901 359.940643,432.625763 
	C361.720032,415.001953 363.234924,397.350677 364.754883,379.701782 
	C365.324615,373.086365 365.601227,366.445740 366.345978,359.464417 
	C369.126495,361.061615 371.572510,363.011017 373.861450,365.332520 
	C373.519196,366.341370 373.210022,366.969757 373.166779,367.615967 
	C371.429413,393.567993 369.748657,419.523834 367.969482,445.472961 
	C367.652649,450.093750 367.173340,454.728577 366.368896,459.286285 
	C363.484894,475.626099 361.088715,491.872040 371.002380,506.949677 
	C368.217285,507.351135 365.432190,507.752594 362.208923,508.205383 
	C361.770721,508.256653 361.856934,508.129974 361.760803,508.004852 
	C361.120880,507.865997 360.577118,507.852234 360.033325,507.838470 
	C356.475311,505.083466 352.917297,502.328461 349.212372,499.271851 
z"/>
<path fill="#20A0F0" opacity="1.000000" stroke="none" 
	d="
M360.370056,507.981689 
	C360.577118,507.852234 361.120880,507.865997 361.823914,508.048279 
	C361.557709,508.186157 361.132233,508.155548 360.370056,507.981689 
z"/>
<path fill="#0078B9" opacity="1.000000" stroke="none" 
	d="
M358.883240,7.105305 
	C367.220398,5.368372 374.940369,6.079802 380.578979,13.741333 
	C371.506531,17.385015 369.459320,25.379839 368.171936,33.210892 
	C366.724060,42.018387 366.701965,51.049839 365.697723,59.943001 
	C363.937164,75.534401 362.590302,91.222755 359.729340,106.621391 
	C357.920746,116.355934 360.268951,127.325157 352.544525,135.679855 
	C351.983734,136.286392 351.906464,137.632004 352.057434,138.560287 
	C353.972931,150.338348 347.080841,160.194778 344.886536,171.403076 
	C338.159119,176.780624 331.635071,181.928238 324.983337,186.905167 
	C319.435455,191.056152 313.737854,195.007050 307.656372,199.036774 
	C302.742645,199.351303 298.281799,199.909744 293.815155,199.960663 
	C270.760864,200.223419 247.657898,200.778915 224.835770,196.795273 
	C219.456146,195.856247 213.975449,193.624786 209.330994,190.723602 
	C198.719177,184.094894 189.896713,174.459610 176.892120,171.954315 
	C185.725739,163.758514 194.522049,155.521973 203.408066,147.383392 
	C208.147812,143.042297 213.121216,138.955917 217.850937,134.604324 
	C227.718292,125.525856 237.450714,116.300735 247.317032,107.221138 
	C262.883789,92.895676 278.506775,78.631302 294.121918,64.358498 
	C305.222076,54.212570 316.316193,44.059654 327.472717,33.975918 
	C337.386475,25.015472 347.382385,16.145931 357.802856,7.162038 
	C358.263702,7.087812 358.672607,6.972570 358.672607,6.972570 
	C358.672607,6.972570 359.071503,7.021518 359.071503,7.021518 
	C359.071503,7.021518 358.957214,7.146372 358.883240,7.105305 
z"/>
<path fill="#0071B2" opacity="1.000000" stroke="none" 
	d="
M176.590225,172.092911 
	C189.896713,174.459610 198.719177,184.094894 209.330994,190.723602 
	C213.975449,193.624786 219.456146,195.856247 224.835770,196.795273 
	C247.657898,200.778915 270.760864,200.223419 293.815155,199.960663 
	C298.281799,199.909744 302.742645,199.351303 307.507507,199.345123 
	C305.115753,201.800797 302.449677,203.973404 299.724701,206.069443 
	C290.744263,212.977173 281.810089,219.947800 272.729614,226.721954 
	C263.912415,233.299637 254.936707,239.664825 245.845825,245.832764 
	C235.195114,238.204102 224.808990,230.748657 214.239929,223.562225 
	C204.494232,216.935654 194.452271,210.743866 184.727570,204.087708 
	C176.659286,198.565292 168.862808,192.645752 160.945923,186.902145 
	C166.060059,182.011932 171.174194,177.121719 176.590225,172.092911 
z"/>
<path fill="#0068A7" opacity="1.000000" stroke="none" 
	d="
M160.634903,187.045151 
	C168.862808,192.645752 176.659286,198.565292 184.727570,204.087708 
	C194.452271,210.743866 204.494232,216.935654 214.239929,223.562225 
	C224.808990,230.748657 235.195114,238.204102 245.703369,246.133591 
	C241.409119,250.167587 237.072540,253.610214 232.735962,257.052856 
	C229.739349,255.082672 226.742722,253.112488 223.423676,251.055542 
	C209.140884,240.352295 195.184052,229.731186 181.219025,219.120865 
	C170.939972,211.311066 160.650177,203.515411 150.174042,195.446167 
	C153.429901,192.515305 156.876892,189.851730 160.634903,187.045151 
z"/>
<path fill="#25B0F3" opacity="1.000000" stroke="none" 
	d="
M358.803772,7.047590 
	C359.071503,7.021518 358.672607,6.972570 358.672607,6.972570 
	C358.672607,6.972570 358.263702,7.087812 358.137512,7.140060 
	C358.186249,7.152760 358.361176,7.113211 358.803772,7.047590 
z"/>
<path fill="#0073B4" opacity="1.000000" stroke="none" 
	d="
M369.022522,153.043304 
	C361.252441,159.005783 353.482391,164.968262 345.373474,171.014984 
	C347.080841,160.194778 353.972931,150.338348 352.057434,138.560287 
	C351.906464,137.632004 351.983734,136.286392 352.544525,135.679855 
	C360.268951,127.325157 357.920746,116.355934 359.729340,106.621391 
	C362.590302,91.222755 363.937164,75.534401 365.697723,59.943001 
	C366.701965,51.049839 366.724060,42.018387 368.171936,33.210892 
	C369.459320,25.379839 371.506531,17.385015 380.741425,14.040236 
	C382.373047,18.366436 383.649628,22.765322 384.548920,27.677368 
	C382.896973,29.431324 380.890076,30.472050 380.486053,31.950743 
	C379.313019,36.244057 378.495911,40.684761 378.059357,45.118851 
	C377.115784,54.702137 376.610931,64.327988 375.719208,73.917137 
	C374.228119,89.950378 372.557556,105.966850 370.998169,121.993835 
	C370.355804,128.595856 369.713989,135.200394 369.249268,141.816238 
	C368.987335,145.545517 369.086212,149.300110 369.022522,153.043304 
z"/>
<path fill="#006EAD" opacity="1.000000" stroke="none" 
	d="
M369.337769,152.913177 
	C369.086212,149.300110 368.987335,145.545517 369.249268,141.816238 
	C369.713989,135.200394 370.355804,128.595856 370.998169,121.993835 
	C372.557556,105.966850 374.228119,89.950378 375.719208,73.917137 
	C376.610931,64.327988 377.115784,54.702137 378.059357,45.118851 
	C378.495911,40.684761 379.313019,36.244057 380.486053,31.950743 
	C380.890076,30.472050 382.896973,29.431324 384.502747,28.107910 
	C384.885223,65.689491 384.936615,103.353683 384.927765,141.470123 
	C379.796021,145.542603 374.724487,149.162811 369.337769,152.913177 
z"/>
<path fill="#0076C1" opacity="1.000000" stroke="none" 
	d="
M373.861450,365.332520 
	C375.473358,366.256866 376.928223,367.553314 378.690094,369.447205 
	C378.631348,383.306030 378.475006,396.577271 377.844910,409.826050 
	C377.113617,425.203613 376.016357,440.564819 374.970520,455.925812 
	C374.645508,460.699463 373.640991,465.441223 373.524231,470.211731 
	C373.274017,480.433044 372.199432,491.039368 382.197052,498.127014 
	C380.187653,502.832123 376.340820,505.278931 371.331116,506.825073 
	C361.088715,491.872040 363.484894,475.626099 366.368896,459.286285 
	C367.173340,454.728577 367.652649,450.093750 367.969482,445.472961 
	C369.748657,419.523834 371.429413,393.567993 373.166779,367.615967 
	C373.210022,366.969757 373.519196,366.341370 373.861450,365.332520 
z"/>
<path fill="#0072BA" opacity="1.000000" stroke="none" 
	d="
M382.419250,497.839050 
	C372.199432,491.039368 373.274017,480.433044 373.524231,470.211731 
	C373.640991,465.441223 374.645508,460.699463 374.970520,455.925812 
	C376.016357,440.564819 377.113617,425.203613 377.844910,409.826050 
	C378.475006,396.577271 378.631348,383.306030 378.995544,369.584351 
	C380.752167,370.110168 382.510345,371.096375 384.613892,372.068298 
	C384.976868,410.532471 385.053314,449.011139 384.908936,487.488983 
	C384.896362,490.845825 383.431641,494.197205 382.419250,497.839050 
z"/>
<path fill="#0087D1" opacity="1.000000" stroke="none" 
	d="
M76.863594,250.765442 
	C76.644608,250.934891 76.372704,250.782028 76.116638,250.251328 
	C76.305229,250.174896 76.531296,250.364777 76.863594,250.765442 
z"/>
<path fill="#0082CF" opacity="1.000000" stroke="none" 
	d="
M333.136658,334.225922 
	C333.935913,334.414734 334.838165,334.920349 335.880096,335.709106 
	C335.093079,335.509064 334.166382,335.025909 333.136658,334.225922 
z"/>
</svg>